<svg width="24" height="24" viewBox="0 0 24 24" fill="none" xmlns="http://www.w3.org/2000/svg">
  <path d="M16.9611 24H3.27809C3.09764 24 2.95142 23.8538 2.95142 23.6733V0.326678C2.95142 0.146221 3.09764 0 3.27809 0H20.7217C20.9021 0 21.0483 0.146221 21.0483 0.326678V19.9126C21.0483 19.9992 21.0138 20.0823 20.9527 20.1436L17.1921 23.9042C17.1308 23.9655 17.0477 24 16.9611 24ZM3.60477 23.3466H16.6314V19.9127C16.6314 19.7323 16.7776 19.5861 16.9581 19.5861H20.395V0.653356H3.60477V23.3466ZM17.2849 20.2393V22.8875L19.9332 20.2393H17.2849ZM18.8741 18.1633H5.12592C4.94546 18.1633 4.79924 18.0171 4.79924 17.8366C4.79924 17.6562 4.94546 17.5099 5.12592 17.5099H18.8741C19.0546 17.5099 19.2008 17.6562 19.2008 17.8366C19.2008 18.0171 19.0546 18.1633 18.8741 18.1633ZM18.8741 16.2664H5.12592C4.94546 16.2664 4.79924 16.1201 4.79924 15.9397C4.79924 15.7592 4.94546 15.613 5.12592 15.613H18.8741C19.0546 15.613 19.2008 15.7592 19.2008 15.9397C19.2008 16.1201 19.0546 16.2664 18.8741 16.2664ZM18.8741 14.3695H5.12592C4.94546 14.3695 4.79924 14.2233 4.79924 14.0428C4.79924 13.8624 4.94546 13.7162 5.12592 13.7162H18.8741C19.0546 13.7162 19.2008 13.8624 19.2008 14.0428C19.2008 14.2233 19.0546 14.3695 18.8741 14.3695ZM18.8741 12.4726H5.12592C4.94546 12.4726 4.79924 12.3264 4.79924 12.1459C4.79924 11.9654 4.94546 11.8192 5.12592 11.8192H18.8741C19.0546 11.8192 19.2008 11.9654 19.2008 12.1459C19.2008 12.3264 19.0546 12.4726 18.8741 12.4726ZM18.8741 10.5757H5.12592C4.94546 10.5757 4.79924 10.4295 4.79924 10.2491C4.79924 10.0686 4.94546 9.92239 5.12592 9.92239H18.8741C19.0546 9.92239 19.2008 10.0686 19.2008 10.2491C19.2008 10.4295 19.0546 10.5757 18.8741 10.5757ZM18.8741 8.67879H5.12592C4.94546 8.67879 4.79924 8.53257 4.79924 8.35212C4.79924 8.17166 4.94546 8.02544 5.12592 8.02544H18.8741C19.0546 8.02544 19.2008 8.17166 19.2008 8.35212C19.2008 8.53257 19.0546 8.67879 18.8741 8.67879ZM13.4554 6.49005H10.5446C10.3641 6.49005 10.2179 6.34383 10.2179 6.16337V4.59349H9.80421C9.66779 4.59349 9.54574 4.50881 9.49805 4.38102C9.45048 4.25309 9.4872 4.10922 9.5903 4.01997L11.7861 2.11831C11.9088 2.01208 12.0911 2.01208 12.2138 2.11831L14.4096 4.01997C14.5127 4.10922 14.5494 4.25322 14.5018 4.38102C14.4541 4.50881 14.3321 4.59349 14.1957 4.59349H13.7821V6.16324C13.7821 6.3437 13.6359 6.49005 13.4554 6.49005ZM10.8713 5.83669H13.1287V4.26681C13.1287 4.12608 13.2179 4.00612 13.3427 3.96012L12 2.79728L10.6575 3.95999C10.7823 4.00599 10.8714 4.12595 10.8714 4.26668L10.8713 5.83669Z" fill="#000002"/>
</svg>
