<svg width="24" height="24" viewBox="0 0 24 24" fill="none" xmlns="http://www.w3.org/2000/svg">
<path d="M23.3907 6.36481C23.3238 6.26589 22.1771 4.61258 19.9494 3.76432V2.02539H0V21.9748H19.9494V6.71808C20.8143 6.64535 21.8093 6.71268 22.9439 7.0007L24 7.26877L23.3907 6.36481ZM19.1182 21.1436H0.831226V2.85662H19.1182V3.50705C18.7134 3.40481 18.2812 3.33249 17.8186 3.29841C17.7828 3.2955 17.7467 3.29509 17.7105 3.2926C17.5339 3.28179 17.3573 3.27223 17.1723 3.27389C16.9304 3.27431 16.6881 3.28387 16.445 3.30673C16.356 3.30964 14.3357 3.40273 12.0989 5.60424L9.55619 3.06151L9.57947 11.5546L18.0725 11.5778L15.4837 8.98899C15.4986 8.97029 15.519 8.94701 15.5356 8.92665C15.5676 8.88758 15.6017 8.84768 15.6404 8.80321C15.6719 8.76747 15.7085 8.72882 15.7443 8.69058C15.78 8.65193 15.8195 8.61203 15.8598 8.57088C15.9039 8.52641 15.9487 8.48153 15.9982 8.43498C16.0414 8.39383 16.0909 8.35144 16.1383 8.30905C16.2334 8.22468 16.3365 8.13948 16.4483 8.05261C16.5023 8.01022 16.5555 7.96824 16.6137 7.92627C16.686 7.8739 16.7646 7.82195 16.8436 7.77C16.9013 7.73176 16.9612 7.69394 17.0223 7.65653C17.1087 7.60375 17.1964 7.55138 17.2899 7.50068C17.3527 7.46618 17.4208 7.43418 17.4865 7.40093C17.6569 7.31532 17.8389 7.2351 18.031 7.16029C18.1128 7.12829 18.1922 7.09546 18.2778 7.06553C18.3847 7.02896 18.4981 6.99696 18.6112 6.96495C18.7097 6.93669 18.8098 6.91051 18.9129 6.88599C18.9798 6.87019 19.0492 6.85648 19.1182 6.84235V21.1436ZM19.9494 5.88727V5.86732L19.4794 5.92925C16.1969 6.36315 14.7235 8.59374 14.5959 8.79698C14.5897 8.80654 14.5851 8.8136 14.5843 8.81485L14.4139 9.09372L16.0601 10.7404L10.4082 10.7254L10.3932 5.0735L12.1114 6.79164L12.4052 6.47993C14.5057 4.24851 16.4558 4.13754 16.4969 4.13546C16.7343 4.11343 16.9691 4.10512 17.2026 4.10595C17.228 4.10595 17.2538 4.10595 17.2791 4.10595C18.0102 4.11592 18.7209 4.23521 19.4012 4.46546L19.7865 4.59554C20.7208 4.9725 21.4298 5.50158 21.9153 5.95086C21.2033 5.8536 20.5504 5.84072 19.9494 5.88727Z" fill="black"/>
</svg>
