<svg width="24" height="24" viewBox="0 0 24 24" fill="none" xmlns="http://www.w3.org/2000/svg">
<g clip-path="url(#clip0)">
<path d="M7.00907 24H5.23847C5.06766 24 4.92927 23.8616 4.92927 23.6908V9.54323H2.67297C2.50217 9.54323 2.36377 9.40484 2.36377 9.23403V3.21502C2.36377 3.04421 2.50217 2.90582 2.67297 2.90582H4.92939V1.62424C4.92939 1.45344 5.06779 1.31504 5.23859 1.31504H7.00919C7.18 1.31504 7.31839 1.45344 7.31839 1.62424V2.90582H13.4612V0.309152C13.4612 0.184112 13.5365 0.0713155 13.6521 0.0234512C13.7674 -0.024413 13.9006 0.00193091 13.989 0.0904859L15.471 1.57242C15.5592 1.6606 15.5858 1.79319 15.5384 1.90858C15.4911 2.02398 15.3789 2.09955 15.2541 2.10029L14.0795 2.10684V2.90582H15.7831C15.9539 2.90582 16.0923 3.04421 16.0923 3.21502V4.24206H19.6863C19.6905 4.24206 19.6937 4.24206 19.6973 4.24218C19.6974 4.24218 19.6974 4.24218 19.6975 4.24218C19.7407 4.24354 19.7816 4.25356 19.8186 4.27075C19.855 4.28757 19.8885 4.31181 19.9171 4.3431C19.9309 4.35844 19.9433 4.37501 19.9539 4.39282C19.9542 4.39282 19.9543 4.39319 19.9543 4.39356C19.9544 4.39381 19.9545 4.39394 19.9547 4.39418C19.9637 4.4094 19.9712 4.42523 19.9773 4.4413C19.9773 4.44143 19.9773 4.44143 19.9773 4.44143C19.9773 4.44168 19.9774 4.44192 19.9775 4.44217C19.9777 4.44242 19.9777 4.44254 19.9778 4.44304C19.978 4.44316 19.978 4.44378 19.978 4.44378C19.9782 4.44415 19.9783 4.4444 19.9783 4.44464C19.9851 4.4632 19.9902 4.48261 19.9934 4.50265C19.9934 4.50302 19.9935 4.50314 19.9935 4.50339C19.9935 4.50364 19.9935 4.50389 19.9936 4.50413V4.50426C19.9961 4.52046 19.9973 4.53691 19.9972 4.55324V8.92508H21.3268C21.4976 8.92508 21.636 9.06348 21.636 9.23428C21.636 9.40508 21.4976 9.54348 21.3268 9.54348H19.6892C19.6884 9.54348 19.6876 9.54336 19.6868 9.54348H7.31827V23.691C7.31827 23.8616 7.17987 24 7.00907 24ZM5.54767 23.3816H6.69987V9.54323H5.54767V23.3816ZM16.0923 8.92483H18.7177L16.6962 7.49138L16.0924 8.00292V8.92483H16.0923ZM2.98217 8.92483H15.4739V7.86193C15.4739 7.86044 15.4739 7.8592 15.4739 7.85772V3.52422H14.0795V7.56089C14.0795 7.73169 13.9411 7.87009 13.7703 7.87009C13.5995 7.87009 13.4611 7.73169 13.4611 7.56089V3.52422H2.98217V8.92483ZM17.1831 7.07866L19.3791 8.63579V5.21839L17.1831 7.07866ZM16.0923 4.86046V7.19244L16.4744 6.86865C16.4778 6.86581 16.4811 6.86284 16.4846 6.86012L18.8449 4.86046H16.0923ZM5.54767 2.90582H6.69987V1.93344H5.54767V2.90582ZM14.0795 1.05556V1.48844L14.5099 1.48597L14.0795 1.05556Z" fill="#FECE1F"/>
</g>
<defs>
<clipPath id="clip0">
<rect width="24" height="24" fill="white"/>
</clipPath>
</defs>
</svg>
