
<svg width="24" height="24" viewBox="0 0 24 24" fill="none" xmlns="http://www.w3.org/2000/svg">
<path d="M12.6872 10.307C12.6431 10.4134 12.6431 10.5334 12.6872 10.6403C12.7094 10.694 12.7417 10.7424 12.7819 10.783L18.0178 16.0185C18.1884 16.1891 18.4642 16.1891 18.6348 16.0185C18.8054 15.8479 18.8054 15.5721 18.6348 15.4015L14.1433 10.91H23.5627C23.804 10.91 23.999 10.715 23.999 10.4736C23.999 10.2323 23.804 10.0373 23.5627 10.0373H14.1433L18.6348 5.54579C18.8054 5.37518 18.8054 5.09939 18.6348 4.92877C18.5497 4.84368 18.438 4.80092 18.3263 4.80092C18.2146 4.80092 18.1029 4.84368 18.0178 4.92877L12.7819 10.1647C12.7417 10.2048 12.7094 10.2533 12.6872 10.307Z" fill="black"/>
<path d="M15.7093 12.6545C15.4679 12.6545 15.2729 12.8496 15.2729 13.0909V20.0727H10.9093V3.49091C10.9093 3.30065 10.7862 3.13265 10.6051 3.07505L3.68351 0.872727H15.2729V7.85455C15.2729 8.09585 15.4679 8.29091 15.7093 8.29091C15.9506 8.29091 16.1456 8.09585 16.1456 7.85455V0.436364C16.1456 0.195055 15.9506 0 15.7093 0H0.872887C0.858923 0 0.846705 0.00654545 0.833178 0.00785455C0.808742 0.0100364 0.78736 0.0157091 0.764232 0.0218182C0.723214 0.0327273 0.68656 0.0475636 0.651214 0.0689455C0.639869 0.0759273 0.626342 0.0759273 0.615433 0.0837818C0.601905 0.0938182 0.591432 0.106473 0.579214 0.117382C0.571796 0.124364 0.563942 0.130473 0.55696 0.137891C0.523796 0.173673 0.496742 0.213382 0.476669 0.257018C0.472742 0.265745 0.47056 0.274473 0.467069 0.2832C0.448742 0.332073 0.436523 0.383127 0.436523 0.436364V20.5091C0.436523 20.5636 0.449178 20.6151 0.467942 20.664C0.474051 20.6801 0.483214 20.6937 0.491069 20.7089C0.507214 20.7399 0.525542 20.7683 0.548669 20.7945C0.561323 20.8084 0.573978 20.8211 0.587942 20.8337C0.613251 20.856 0.641614 20.8743 0.67216 20.8905C0.688305 20.8992 0.703142 20.9084 0.720596 20.9149C0.728014 20.9175 0.733687 20.9228 0.741105 20.9254L10.3411 23.9799C10.3839 23.993 10.4284 24 10.4729 24C10.5645 24 10.6549 23.9712 10.7303 23.9162C10.8429 23.8342 10.9093 23.7033 10.9093 23.5636V20.9455H15.7093C15.9506 20.9455 16.1456 20.7504 16.1456 20.5091V13.0909C16.1456 12.8496 15.9501 12.6545 15.7093 12.6545ZM10.0365 22.9671L1.30925 20.1901V1.03287L10.0365 3.80989V22.9671Z" fill="black"/>
</svg>
