<svg width="24" height="24" viewBox="0 0 24 24" fill="none" xmlns="http://www.w3.org/2000/svg">
<g clip-path="url(#clip0)">
<path d="M23.9106 3.15569C23.8235 3.0486 23.6885 2.99866 23.5538 3.01464C23.523 3.01624 23.4943 3.02143 23.4643 3.03022L0.29501 9.3319C0.124792 9.37825 0.00491991 9.53089 0.000125022 9.7071C-0.00427029 9.88331 0.10761 10.0419 0.275032 10.0971L8.75279 12.8749L7.9944 18.9413C7.97442 19.1011 8.05234 19.2573 8.19179 19.3372C8.25372 19.3728 8.32245 19.3904 8.39078 19.3904C8.47668 19.3904 8.56259 19.3628 8.63372 19.3081L11.7364 16.9322L14.4563 20.8181C14.5314 20.9255 14.6537 20.9887 14.7836 20.9887C14.7923 20.9887 14.8015 20.9883 14.8107 20.9879C14.9506 20.9783 15.0748 20.8964 15.1388 20.7713L23.9546 3.58963C24.0281 3.44898 24.0105 3.27876 23.9106 3.15569ZM21.1356 4.49186L9.13478 12.1589L1.79181 9.75305L21.1356 4.49186ZM8.90583 18.0934L9.45804 13.6769L11.2781 16.2769L8.90583 18.0934ZM14.7316 19.8167L9.75692 12.7099L22.5832 4.51544L14.7316 19.8167Z" fill="black"/>
</g>
<defs>
<clipPath id="clip0">
<rect width="24" height="24" fill="white"/>
</clipPath>
</defs>
</svg>
