<svg width="24" height="24" viewBox="0 0 24 24" fill="none" xmlns="http://www.w3.org/2000/svg">
<g clip-path="url(#clip0)">
<path d="M12.6716 22.3918C12.3857 22.3918 12.0986 22.3328 11.8285 22.2133L6.51996 19.8669C5.83582 19.5643 5.04842 19.621 4.41431 20.018L2.90926 20.9604C2.75943 21.054 2.56214 21.0089 2.46835 20.8591C2.37469 20.7094 2.41998 20.512 2.56968 20.4183L4.07474 19.4759C4.889 18.9659 5.89992 18.8933 6.77867 19.2818L12.0872 21.6282C12.5298 21.824 13.0376 21.7857 13.446 21.5258L23.097 15.3864C23.3515 15.2244 23.4352 14.8916 23.2873 14.6285L22.9365 14.0048C22.8607 13.8702 22.7367 13.7741 22.5874 13.7344C22.4379 13.6948 22.2829 13.7164 22.1502 13.7956L21.507 14.1794C21.2268 14.3464 20.8632 14.2666 20.679 13.9974L20.2781 13.4115C20.1028 13.1551 19.7611 13.0865 19.5004 13.2555L18.5517 13.8702C18.2753 14.0489 17.9114 13.9778 17.7228 13.7081L17.3911 13.2328C17.2132 12.9781 16.8605 12.9137 16.6042 13.0892L14.2575 14.6966H15.2408C16.2622 14.6966 17.0932 15.5276 17.0932 16.5489C17.0932 17.5702 16.2623 18.4012 15.2408 18.4012H11.6145C11.247 18.4012 10.8786 18.3151 10.5492 18.1521L8.48537 17.1313C8.3271 17.053 8.26223 16.8612 8.3404 16.7028C8.41871 16.5446 8.61037 16.4796 8.76903 16.558L10.8328 17.5788C11.0747 17.6983 11.3449 17.7615 11.6145 17.7615H15.2408C15.9094 17.7615 16.4535 17.2176 16.4535 16.5489C16.4535 15.8803 15.9094 15.3364 15.2408 15.3364H13.2244C13.2226 15.3364 13.2209 15.3364 13.2191 15.3364L11.2039 15.3096C11.1492 15.3088 11.0956 15.2941 11.0483 15.2669L7.7402 13.3597C6.60325 12.7041 5.21604 12.6482 4.02983 13.21L0.456877 14.9026C0.297197 14.9782 0.106554 14.91 0.0308092 14.7505C-0.0448082 14.5908 0.0232602 14.4 0.18294 14.3244L3.75589 12.6319C5.13172 11.98 6.74067 12.045 8.05981 12.8054L11.2957 14.671L13.1273 14.6955L16.2427 12.5615C16.7873 12.1884 17.5377 12.3254 17.9157 12.8667L18.2298 13.3167L19.1525 12.7188C19.7064 12.3599 20.4329 12.5052 20.8061 13.0504L21.196 13.6202L21.8224 13.2463C22.1043 13.0781 22.4344 13.0319 22.7521 13.1163C23.0694 13.2009 23.333 13.405 23.4941 13.6913L23.8449 14.3151C24.1593 14.8743 23.9816 15.582 23.4405 15.9262L13.7895 22.0657C13.4495 22.282 13.0616 22.3918 12.6716 22.3918ZM16.1515 9.7028C14.5441 9.7028 13.1204 8.77709 12.4649 7.32629H11.5074C11.4225 7.32629 11.3412 7.29264 11.2812 7.23263L11.057 7.00859L10.8328 7.23263C10.7728 7.29264 10.6916 7.32629 10.6066 7.32629H9.77176C9.68693 7.32629 9.60555 7.29251 9.54555 7.23263L9.4135 7.10059L9.28133 7.23276C9.22132 7.29277 9.14008 7.32642 9.05512 7.32642H8.15449C8.06966 7.32642 7.98829 7.29277 7.92828 7.23276L7.33601 6.64049L6.74361 7.23276C6.6836 7.29277 6.60235 7.32642 6.5174 7.32642H6.26099C6.17616 7.32642 6.09478 7.29264 6.03478 7.23276L5.8765 7.07436L5.7181 7.23276C5.6581 7.29277 5.57685 7.32642 5.49189 7.32642H4.18951C4.09444 7.32642 4.00437 7.28407 3.94346 7.21101L3.61911 6.82077C3.57139 6.76332 3.54529 6.69103 3.54529 6.61631V4.92458C3.54529 4.82887 3.58815 4.73816 3.66211 4.67738L4.41687 4.05722C4.47406 4.01013 4.54584 3.98454 4.61993 3.98454H12.4649C13.1203 2.53374 14.5441 1.60803 16.1515 1.60803C18.3832 1.60803 20.1989 3.42362 20.1989 5.65542C20.1989 7.88722 18.3833 9.7028 16.1515 9.7028ZM11.6399 6.68655H12.6776C12.8095 6.68655 12.9279 6.76754 12.9757 6.89037C13.4893 8.21016 14.7359 9.06306 16.1515 9.06306C18.0306 9.06306 19.5592 7.53446 19.5592 5.65542C19.5592 3.77637 18.0306 2.24777 16.1515 2.24777C14.7359 2.24777 13.4892 3.10068 12.9757 4.42046C12.9279 4.54329 12.8095 4.62428 12.6776 4.62428H4.73457L4.49287 4.82273H12.5626C12.7393 4.82273 12.8824 4.9659 12.8824 5.1426C12.8824 5.3193 12.7393 5.46247 12.5626 5.46247H4.18503V6.50051L4.33959 6.68642H5.35985L5.65068 6.3956C5.71068 6.33559 5.79193 6.30194 5.87689 6.30194C5.96172 6.30194 6.04309 6.33572 6.1031 6.3956L6.38958 6.6822L7.11018 5.96172C7.17019 5.90172 7.25144 5.86807 7.33639 5.86807C7.42122 5.86807 7.5026 5.90184 7.5626 5.96172L8.2873 6.68655H8.92308L9.18767 6.42195C9.24768 6.36195 9.32893 6.32829 9.41389 6.32829C9.49872 6.32829 9.58009 6.36207 9.6401 6.42195L9.9047 6.68655H10.4746L10.8312 6.32996C10.9562 6.20495 11.1586 6.20495 11.2835 6.32996L11.6399 6.68655ZM17.9666 6.68527C17.3987 6.68527 16.9366 6.22325 16.9366 5.65542C16.9366 5.08758 17.3986 4.62556 17.9666 4.62556C18.5345 4.62556 18.9964 5.08758 18.9964 5.65542C18.9964 6.22338 18.5344 6.68527 17.9666 6.68527ZM17.9666 5.2653C17.7514 5.2653 17.5763 5.44033 17.5763 5.65542C17.5763 5.8705 17.7514 6.04553 17.9666 6.04553C18.1817 6.04553 18.3567 5.8705 18.3567 5.65542C18.3567 5.44033 18.1815 5.2653 17.9666 5.2653Z" fill="#000002"/>
</g>
<defs>
<clipPath id="clip0">
<rect width="24" height="24" fill="white"/>
</clipPath>
</defs>
</svg>
