<svg width="24" height="24" viewBox="0 0 24 24" fill="none" xmlns="http://www.w3.org/2000/svg">
<path d="M21.9714 10.8663C22.0095 10.7775 22.0095 10.6775 21.9714 10.5885C21.9522 10.5437 21.9243 10.5034 21.8895 10.4695L17.3615 6.10664C17.214 5.96445 16.9755 5.96445 16.8279 6.10664C16.6804 6.24882 16.6804 6.47864 16.8279 6.62082L20.7122 10.3637H12.5663C12.3576 10.3637 12.1889 10.5263 12.1889 10.7274C12.1889 10.9285 12.3576 11.091 12.5663 11.091H20.7122L16.8279 14.8339C16.6804 14.9761 16.6804 15.2059 16.8279 15.3481C16.9015 15.419 16.9981 15.4546 17.0947 15.4546C17.1913 15.4546 17.2879 15.419 17.3615 15.3481L21.8895 10.9848C21.9243 10.9514 21.9522 10.911 21.9714 10.8663Z" fill="#D72D33"/>
<path d="M15.2079 12.5455C14.9992 12.5455 14.8305 12.708 14.8305 12.9091V18.7273H11.0568V4.90909C11.0568 4.75055 10.9504 4.61055 10.7938 4.56255L4.80799 2.72727H14.8305V8.54545C14.8305 8.74655 14.9992 8.90909 15.2079 8.90909C15.4165 8.90909 15.5852 8.74655 15.5852 8.54545V2.36364C15.5852 2.16255 15.4165 2 15.2079 2H2.37737C2.36529 2 2.35473 2.00545 2.34303 2.00655C2.32189 2.00836 2.3034 2.01309 2.2834 2.01818C2.24793 2.02727 2.21623 2.03964 2.18566 2.05745C2.17585 2.06327 2.16415 2.06327 2.15472 2.06982C2.14302 2.07818 2.13397 2.08873 2.1234 2.09782C2.11698 2.10364 2.11019 2.10873 2.10415 2.11491C2.07547 2.14473 2.05208 2.17782 2.03472 2.21418C2.03132 2.22145 2.02943 2.22873 2.02642 2.236C2.01057 2.27673 2 2.31927 2 2.36364V19.0909C2 19.1364 2.01094 19.1793 2.02717 19.22C2.03245 19.2335 2.04038 19.2447 2.04717 19.2575C2.06113 19.2833 2.07698 19.3069 2.09698 19.3287C2.10793 19.3404 2.11887 19.3509 2.13095 19.3615C2.15283 19.38 2.17736 19.3953 2.20378 19.4087C2.21774 19.416 2.23057 19.4236 2.24567 19.4291C2.25208 19.4313 2.25699 19.4356 2.2634 19.4378L10.5655 21.9833C10.6025 21.9942 10.641 22 10.6795 22C10.7587 22 10.8368 21.976 10.9021 21.9302C10.9995 21.8618 11.0568 21.7527 11.0568 21.6364V19.4545H15.2079C15.4165 19.4545 15.5852 19.292 15.5852 19.0909V12.9091C15.5852 12.708 15.4162 12.5455 15.2079 12.5455ZM10.3021 21.1393L2.75473 18.8251V2.86073L10.3021 5.17491V21.1393Z" fill="#D72D33"/>
</svg>
