<svg width="24" height="24" viewBox="0 0 24 24" fill="none" xmlns="http://www.w3.org/2000/svg">
<path d="M23.678 21.6403H0.322004C0.144129 21.6403 0 21.4961 0 21.3183V12.3879C0 12.2101 0.144129 12.0659 0.322004 12.0659H16.7662L21.7131 2.53357C21.7949 2.37566 21.9894 2.31397 22.1472 2.39614L23.4317 3.06269C23.5076 3.10197 23.5645 3.16985 23.5904 3.25125C23.6162 3.33266 23.6086 3.42102 23.5692 3.49675L19.1223 12.0659H23.678C23.8559 12.0659 24 12.2101 24 12.3879V21.3183C24 21.4961 23.8559 21.6403 23.678 21.6403ZM0.644008 20.9963H23.356V12.7099H18.7914L17.1713 15.8313C17.1581 15.8675 17.1382 15.9014 17.1125 15.9313L15.0737 18.2837C14.976 18.3963 14.8141 18.4272 14.682 18.3585C14.5498 18.29 14.4818 18.1397 14.5178 17.9952L15.2624 14.9954C15.268 14.964 15.2783 14.9333 15.2934 14.9043L16.4321 12.7099H0.644008V20.9963ZM15.7938 15.5268L15.4661 16.8474L16.3573 15.8192L15.7938 15.5268ZM16.3698 15.0984L16.7267 15.2836L22.8493 3.4858L22.1364 3.11588L17.2683 12.4965C17.2634 12.5099 17.2578 12.5233 17.2509 12.5362L16.0165 14.9151L16.3698 15.0984ZM9.5527 19.1286H2.68333C2.50545 19.1286 2.36132 18.9845 2.36132 18.8066C2.36132 18.6288 2.50545 18.4846 2.68333 18.4846H9.5527C9.73058 18.4846 9.87471 18.6288 9.87471 18.8066C9.87471 18.9845 9.73058 19.1286 9.5527 19.1286ZM9.5527 17.1214H2.68333C2.50545 17.1214 2.36132 16.9773 2.36132 16.7994C2.36132 16.6215 2.50545 16.4774 2.68333 16.4774H9.5527C9.73058 16.4774 9.87471 16.6215 9.87471 16.7994C9.87471 16.9773 9.73058 17.1214 9.5527 17.1214ZM9.5527 15.1143H2.68333C2.50545 15.1143 2.36132 14.9701 2.36132 14.7923C2.36132 14.6144 2.50545 14.4703 2.68333 14.4703H9.5527C9.73058 14.4703 9.87471 14.6144 9.87471 14.7923C9.87471 14.9701 9.73058 15.1143 9.5527 15.1143Z" fill="#000002"/>
</svg>
