<svg width="10" height="11" viewBox="0 0 10 11" fill="none" xmlns="http://www.w3.org/2000/svg">
  <path d="M2.5801 4.45601C3.0121 4.45601 3.3721 4.30401 3.6601 4.00001C3.9561 3.69601 4.1041 3.32001 4.1041 2.87201C4.1041 2.42401 3.9601 2.048 3.6721 1.744C3.3841 1.44001 3.0201 1.28801 2.5801 1.28801C2.1401 1.28801 1.7721 1.44001 1.4761 1.744C1.1801 2.04 1.0321 2.41601 1.0321 2.87201C1.0321 3.32001 1.1801 3.69601 1.4761 4.00001C1.7721 4.30401 2.1401 4.45601 2.5801 4.45601ZM2.5801 4.864C2.2281 4.864 1.9001 4.78 1.5961 4.612C1.3001 4.44401 1.0601 4.20801 0.876098 3.90401C0.692098 3.59201 0.600098 3.24801 0.600098 2.87201C0.600098 2.51201 0.684098 2.18401 0.852098 1.88801C1.0201 1.58401 1.2561 1.34 1.5601 1.156C1.8641 0.972005 2.2041 0.880005 2.5801 0.880005C2.9321 0.880005 3.2561 0.964005 3.5521 1.13201C3.8481 1.30001 4.0841 1.53601 4.2601 1.84001C4.4441 2.14401 4.5361 2.48801 4.5361 2.87201C4.5361 3.22401 4.4521 3.55201 4.2841 3.85601C4.1241 4.15201 3.8921 4.396 3.5881 4.588C3.2921 4.772 2.9561 4.864 2.5801 4.864ZM8.4721 1.07201H9.0001L1.9201 10H1.3921L8.4721 1.07201ZM7.8841 9.71201C8.3161 9.71201 8.6761 9.56001 8.9641 9.25601C9.2601 8.95201 9.4081 8.57601 9.4081 8.12801C9.4081 7.68001 9.2641 7.30401 8.9761 7.00001C8.6881 6.69601 8.3241 6.54401 7.8841 6.54401C7.4441 6.54401 7.0761 6.69601 6.7801 7.00001C6.4841 7.29601 6.3361 7.67201 6.3361 8.12801C6.3361 8.57601 6.4841 8.95201 6.7801 9.25601C7.0761 9.56001 7.4441 9.71201 7.8841 9.71201ZM7.8841 10.12C7.5321 10.12 7.2041 10.036 6.9001 9.86801C6.6041 9.70001 6.3641 9.46401 6.1801 9.16001C5.9961 8.84801 5.9041 8.50401 5.9041 8.12801C5.9041 7.76801 5.9881 7.44001 6.1561 7.14401C6.3241 6.84001 6.5601 6.59601 6.8641 6.41201C7.1681 6.22801 7.5081 6.13601 7.8841 6.13601C8.2361 6.13601 8.5601 6.22001 8.8561 6.38801C9.1521 6.55601 9.3881 6.79201 9.5641 7.09601C9.7481 7.40001 9.8401 7.74401 9.8401 8.12801C9.8401 8.48001 9.7561 8.80801 9.5881 9.11201C9.4281 9.40801 9.1961 9.65201 8.8921 9.84401C8.5961 10.028 8.2601 10.12 7.8841 10.12Z" fill="black"/>
</svg>
