<svg width="24" height="24" viewBox="0 0 24 24" fill="none" xmlns="http://www.w3.org/2000/svg">
  <g clip-path="url(#clip0)">
    <path d="M19.499 17.1988L16.4182 16.2927L15.8718 15.1998C15.7835 15.0233 15.6248 14.8886 15.4362 14.8303C15.2875 14.7842 15.1276 14.7887 14.9819 14.8393V13.6714C16.1544 12.8559 16.9796 11.5741 17.1859 10.097H17.3949C18.0801 10.097 18.6678 9.58793 18.7329 8.93796C18.7693 8.5737 18.6502 8.20995 18.4059 7.94009C18.2979 7.82074 18.1695 7.72399 18.0284 7.65307L18.443 5.1655C18.5811 4.33694 18.1552 3.54367 17.4265 3.19187C17.7549 2.35693 17.6828 1.3209 17.208 0.213055C17.1621 0.105805 17.0659 0.0283672 16.9514 0.00633593C16.8369 -0.0156954 16.7188 0.0204922 16.6363 0.102992C16.6298 0.109461 15.9406 0.751509 14.2546 0.751509H10.8727C9.40771 0.751509 8.15966 1.69501 7.70221 3.00606H7.38646C6.84022 3.00606 6.32446 3.24512 5.97139 3.66189C5.61833 4.0787 5.46735 4.62672 5.55711 5.16555L5.97425 7.66849C5.58927 7.86673 5.31088 8.23868 5.26724 8.67415C5.23077 9.03842 5.34992 9.40217 5.59414 9.67207C5.83855 9.94217 6.18753 10.097 6.55157 10.097H6.81397C7.02018 11.5746 7.84537 12.8565 9.01818 13.6719V14.8393C8.87245 14.7887 8.71246 14.7843 8.56387 14.8303C8.37534 14.8886 8.21657 15.0233 8.1283 15.1998L7.58188 16.2927L4.50111 17.1988C3.39964 17.5228 2.63037 18.5509 2.63037 19.699V23.6484C2.63037 23.8426 2.78778 24 2.98193 24C3.17609 24 3.3335 23.8426 3.3335 23.6484V19.699C3.3335 18.8607 3.8952 18.1099 4.69953 17.8734L6.01217 17.4873V23.6484C6.01217 23.8426 6.16958 24 6.36374 24C6.55789 24 6.7153 23.8426 6.7153 23.6484V17.2805L7.51518 17.0452V23.6484C7.51518 23.8426 7.67258 24 7.86674 24C8.0609 24 8.2183 23.8426 8.2183 23.6484V17.2734L9.67799 18.5245C9.88012 18.6978 10.1308 18.7902 10.3934 18.7902C10.4284 18.7902 10.4637 18.7886 10.4991 18.7852C10.7995 18.757 11.0687 18.6117 11.2572 18.3761L12 17.4475L12.7429 18.3761C12.9314 18.6117 13.2006 18.757 13.501 18.7852C13.5364 18.7886 13.5716 18.7902 13.6067 18.7902C13.8692 18.7902 14.12 18.6977 14.3221 18.5245L16.1596 16.9495L17.2847 17.2804V23.6484C17.2847 23.8426 17.4422 24 17.6363 24C17.8305 24 17.9879 23.8426 17.9879 23.6484V17.4872L19.3006 17.8733C20.1049 18.1099 20.6666 18.8606 20.6666 19.699V23.6484C20.6666 23.8426 20.824 24 21.0182 24C21.2124 24 21.3698 23.8426 21.3698 23.6484V19.699C21.3697 18.5509 20.6005 17.5227 19.499 17.1988ZM17.0832 3.80823C17.5569 4.01739 17.8374 4.522 17.7494 5.04991L17.3385 7.51512H16.8848C16.6643 7.51512 16.4849 7.33568 16.4849 7.11518V4.38034C16.7117 4.22463 16.9144 4.03267 17.0832 3.80823ZM6.50783 4.11634C6.72702 3.85755 7.04727 3.70914 7.38641 3.70914H7.53974C7.52408 3.84039 7.51508 3.9737 7.51508 4.10908V7.11513C7.51508 7.33568 7.33565 7.51507 7.11515 7.51507H6.66144L6.25058 5.04991C6.19485 4.71536 6.2886 4.37509 6.50783 4.11634ZM7.46676 9.36968C7.46676 9.17553 7.30935 9.01812 7.11519 9.01812C6.92104 9.01812 6.76363 9.17553 6.76363 9.36968V9.39387H6.55157C6.38577 9.39387 6.22686 9.32328 6.11549 9.20023C6.00266 9.07554 5.94988 8.91359 5.96685 8.74418C5.99638 8.44924 6.27674 8.21824 6.60514 8.21824H7.11515C7.7234 8.21824 8.21821 7.72338 8.21821 7.11518V4.10908C8.21821 2.6454 9.40903 1.45459 10.8727 1.45459H14.2545C15.488 1.45459 16.2814 1.14324 16.7168 0.896166C17.0326 1.84168 16.99 2.68131 16.5877 3.29144C16.2401 3.81855 15.6489 4.13327 15.0061 4.13327H9.36988C9.17573 4.13327 9.01832 4.29067 9.01832 4.48483C9.01832 4.67899 9.17573 4.83639 9.36988 4.83639H15.0061C15.2736 4.83639 15.5344 4.79585 15.7817 4.71977V7.11513C15.7817 7.72338 16.2766 8.2182 16.8848 8.2182H17.4484C17.6142 8.2182 17.7732 8.28874 17.8845 8.41179C17.9973 8.53643 18.0501 8.69843 18.0332 8.86788C18.0037 9.16282 17.7233 9.39382 17.3949 9.39382H17.2362V9.37324C17.2362 9.17914 17.0789 9.02173 16.8848 9.02168C16.8848 9.02168 16.8847 9.02168 16.8847 9.02168C16.6906 9.02168 16.5332 9.1789 16.5331 9.37296C16.5313 11.8707 14.4977 13.9029 12 13.9029C9.50034 13.9029 7.46676 11.8693 7.46676 9.36968ZM10.7081 17.9369C10.6398 18.0223 10.5421 18.075 10.4332 18.0853C10.3245 18.0956 10.2186 18.062 10.1355 17.9908L8.30395 16.4208L8.75718 15.5143C8.7583 15.512 8.76182 15.5051 8.77171 15.502C8.7817 15.4989 8.7884 15.5028 8.7906 15.504L11.4656 16.9901L10.7081 17.9369ZM9.72126 15.2166V14.0836C10.4106 14.4181 11.1837 14.6061 12 14.6061C12.8162 14.6061 13.5893 14.418 14.2787 14.0833V15.2166L12 16.4826L9.72126 15.2166ZM13.8645 17.9907C13.7814 18.0619 13.6757 18.0955 13.5668 18.0852C13.4579 18.075 13.3603 18.0223 13.2919 17.9369L12.5345 16.99L15.2095 15.5039C15.2117 15.5027 15.2186 15.4988 15.2284 15.5019C15.2383 15.505 15.2417 15.512 15.2429 15.5142L15.6961 16.4207L13.8645 17.9907Z" fill="#1A1A1A"/>
    <path d="M16.1331 18.0361C15.9389 18.0361 15.7815 18.1935 15.7815 18.3877V23.6484C15.7815 23.8425 15.9389 23.9999 16.1331 23.9999C16.3272 23.9999 16.4846 23.8425 16.4846 23.6484V18.3877C16.4846 18.1935 16.3272 18.0361 16.1331 18.0361Z" fill="#1A1A1A"/>
    <path d="M12.0036 18.7878H11.9998C11.8057 18.7878 11.6501 18.9452 11.6501 19.1394C11.6501 19.3336 11.8094 19.491 12.0036 19.491C12.1977 19.491 12.3551 19.3336 12.3551 19.1394C12.3551 18.9452 12.1977 18.7878 12.0036 18.7878Z" fill="#1A1A1A"/>
    <path d="M12.0036 23.2969H11.9998C11.8057 23.2969 11.6501 23.4543 11.6501 23.6484C11.6501 23.8426 11.8094 24 12.0036 24C12.1977 24 12.3551 23.8426 12.3551 23.6484C12.3551 23.4543 12.1977 23.2969 12.0036 23.2969Z" fill="#1A1A1A"/>
    <path d="M12.0036 21.0422H11.9998C11.8057 21.0422 11.6501 21.1996 11.6501 21.3938C11.6501 21.588 11.8094 21.7454 12.0036 21.7454C12.1977 21.7454 12.3551 21.588 12.3551 21.3938C12.3551 21.1996 12.1977 21.0422 12.0036 21.0422Z" fill="#1A1A1A"/>
    <path d="M9.74536 7.92358C9.55121 7.92358 9.3938 8.08099 9.3938 8.27515V8.6509C9.3938 8.84505 9.55121 9.00246 9.74536 9.00246C9.93952 9.00246 10.0969 8.84505 10.0969 8.6509V8.27515C10.0969 8.08099 9.93952 7.92358 9.74536 7.92358Z" fill="#1A1A1A"/>
    <path d="M14.2544 7.92358C14.0602 7.92358 13.9028 8.08099 13.9028 8.27515V8.6509C13.9028 8.84505 14.0602 9.00246 14.2544 9.00246C14.4486 9.00246 14.606 8.84505 14.606 8.6509V8.27515C14.606 8.08099 14.4486 7.92358 14.2544 7.92358Z" fill="#1A1A1A"/>
    <path d="M10.1211 6.76343H9.36963C9.17547 6.76343 9.01807 6.92083 9.01807 7.11499C9.01807 7.30915 9.17547 7.46655 9.36963 7.46655H10.1211C10.3153 7.46655 10.4727 7.30915 10.4727 7.11499C10.4727 6.92083 10.3153 6.76343 10.1211 6.76343Z" fill="#1A1A1A"/>
    <path d="M14.6302 6.76343H13.8787C13.6845 6.76343 13.5271 6.92083 13.5271 7.11499C13.5271 7.30915 13.6845 7.46655 13.8787 7.46655H14.6302C14.8243 7.46655 14.9817 7.30915 14.9817 7.11499C14.9817 6.92083 14.8243 6.76343 14.6302 6.76343Z" fill="#1A1A1A"/>
    <path d="M13.6909 9.98877H10.3091C10.1149 9.98877 9.95752 10.1462 9.95752 10.3403C9.95752 11.363 10.8737 12.1949 12 12.1949C13.1262 12.1949 14.0424 11.363 14.0424 10.3403C14.0424 10.1462 13.885 9.98877 13.6909 9.98877ZM12 11.4918C11.404 11.4918 10.8977 11.1554 10.7245 10.6919H13.2755C13.1023 11.1554 12.596 11.4918 12 11.4918Z" fill="#1A1A1A"/>
  </g>
  <defs>
    <clipPath id="clip0">
      <rect width="24" height="24" fill="white"/>
    </clipPath>
  </defs>
</svg>
