<svg width="24" height="24" viewBox="0 0 24 24" fill="none" xmlns="http://www.w3.org/2000/svg">
  <path d="M19.2925 24H4.70751C3.58545 24 2.67265 23.0872 2.67265 21.9653V4.73391C2.67265 3.61199 3.58545 2.69919 4.70751 2.69919H5.73979V1.03413C5.73979 0.463925 6.20371 0 6.77391 0H6.88112C7.45132 0 7.91524 0.463925 7.91524 1.03413V2.69919H16.0869V1.03413C16.0869 0.463925 16.5508 0 17.121 0H17.2282C17.7984 0 18.2623 0.463925 18.2623 1.03413V2.69919H19.2928C20.4148 2.69919 21.3276 3.61199 21.3276 4.73391V21.9653C21.3274 23.0872 20.4145 24 19.2925 24ZM3.33276 7.56248V21.9653C3.33276 22.7232 3.94944 23.3399 4.70751 23.3399H19.2926C20.0507 23.3399 20.6674 22.7232 20.6674 21.9653V7.56248H3.33276ZM3.33276 6.90237H20.6674V4.73391C20.6674 3.97597 20.0507 3.3593 19.2926 3.3593H18.2622V4.26668C18.2622 4.83689 17.7983 5.30081 17.2281 5.30081H17.1209C16.5507 5.30081 16.0867 4.83689 16.0867 4.26668V4.26074C16.0861 4.2449 16.0857 4.22906 16.0857 4.21308V3.3593H7.91524V4.26668C7.91524 4.83689 7.45132 5.30081 6.88112 5.30081H6.77391C6.20371 5.30081 5.73979 4.83689 5.73979 4.26668V4.26074C5.73913 4.2449 5.73873 4.22906 5.73873 4.21308V3.3593H4.70737C3.9493 3.3593 3.33263 3.97597 3.33263 4.73391V6.90237H3.33276ZM17.1735 4.6407C17.4093 4.6407 17.6012 4.44887 17.6012 4.21308V3.02924C17.6012 3.02093 17.6014 3.01274 17.6021 3.00455V1.03413C17.6021 0.827777 17.4343 0.66011 17.2281 0.66011H17.1209C16.9145 0.66011 16.7468 0.827909 16.7468 1.03413V4.24305C16.7622 4.46485 16.9478 4.6407 17.1735 4.6407ZM6.82659 4.6407C7.06238 4.6407 7.25421 4.44887 7.25421 4.21308V3.02924C7.25421 3.02093 7.25447 3.01274 7.25513 3.00455V1.03413C7.25513 0.827909 7.08733 0.66011 6.88112 0.66011H6.77391C6.56756 0.66011 6.3999 0.827909 6.3999 1.03413V4.24305C6.41521 4.46485 6.60083 4.6407 6.82659 4.6407ZM12.4288 21.0999C12.3768 21.0999 12.3242 21.0875 12.2753 21.0617C12.1139 20.9767 12.0522 20.7771 12.137 20.6159L17.2301 10.9499H12.4291C12.2467 10.9499 12.099 10.8022 12.099 10.6198C12.099 10.4375 12.2467 10.2898 12.4291 10.2898H17.7771C17.8928 10.2898 18 10.3503 18.0598 10.4493C18.1195 10.5483 18.123 10.6715 18.0692 10.7736L12.7211 20.9235C12.662 21.0357 12.5474 21.0999 12.4288 21.0999ZM8.78395 21.0997C8.60163 21.0997 8.45389 20.952 8.45389 20.7697V11.3578L6.44293 13.1565C6.30682 13.2781 6.09836 13.2662 5.9769 13.1306C5.85531 12.9948 5.86706 12.7861 6.00277 12.6646L8.56373 10.3739C8.6609 10.2871 8.80005 10.2656 8.91861 10.3186C9.03743 10.3716 9.11387 10.4897 9.11387 10.6198V20.7697C9.114 20.952 8.96627 21.0997 8.78395 21.0997Z" fill="black"/>
</svg>
