<svg width="24" height="24" viewBox="0 0 24 24" fill="none" xmlns="http://www.w3.org/2000/svg">
  <path d="M21.2552 24H2.74463C2.53161 24 2.359 23.8274 2.359 23.6144V11.8653H0.430817C0.273323 11.8653 0.131717 11.7695 0.0729461 11.6235C0.0143294 11.4775 0.0502707 11.3103 0.163802 11.2013L11.7329 0.107361C11.8822 -0.035787 12.1174 -0.035787 12.2668 0.107361L15.9616 3.65059V1.56831C15.9616 1.35528 16.1342 1.18267 16.3473 1.18267H19.282C19.495 1.18267 19.6676 1.35528 19.6676 1.56831V7.2043L23.8359 11.2015C23.9495 11.3104 23.9855 11.4776 23.9267 11.6237C23.8679 11.7698 23.7263 11.8654 23.5688 11.8654H21.6407V23.6145C21.6408 23.8274 21.4682 24 21.2552 24ZM3.13027 23.2287H20.8695V11.8653H3.13027V23.2287ZM1.39028 11.094H22.6098L11.9999 0.919974L1.39028 11.094ZM16.7331 4.39008L18.8965 6.46465V1.95394H16.7331V4.39008ZM15.9399 20.9658H8.06009C7.84707 20.9658 7.67445 20.7932 7.67445 20.5802V14.6284C7.67445 14.4154 7.84707 14.2428 8.06009 14.2428H15.9399C16.1529 14.2428 16.3255 14.4154 16.3255 14.6284V20.58C16.3255 20.793 16.1529 20.9658 15.9399 20.9658ZM12.3855 20.1945H15.5542V17.9327H12.3855V20.1945ZM8.44573 20.1945H11.6144V17.9327H8.44573V20.1945ZM12.3855 17.1614H15.5542V15.0142H12.3855V17.1614ZM8.44573 17.1614H11.6144V15.0142H8.44573V17.1614ZM15.5285 8.99813H8.94705C8.73403 8.99813 8.56142 8.82552 8.56142 8.61249C8.56142 6.58543 10.2107 4.93614 12.2378 4.93614C14.2648 4.93614 15.9141 6.58543 15.9141 8.61249C15.9141 8.82552 15.7415 8.99813 15.5285 8.99813ZM9.35814 8.22686H15.1174C14.9283 6.80664 13.709 5.70742 12.2378 5.70742C10.7666 5.70742 9.54741 6.80664 9.35814 8.22686Z" fill="#000002"/>
</svg>
