<svg width="60" height="60" viewBox="0 0 60 60" fill="none" xmlns="http://www.w3.org/2000/svg">
<path d="M45 25H20C19.448 25 19 25.447 19 26C19 26.553 19.448 27 20 27H45C45.552 27 46 26.553 46 26C46 25.447 45.552 25 45 25Z" fill="black"/>
<path d="M20 19H30C30.552 19 31 18.553 31 18C31 17.447 30.552 17 30 17H20C19.448 17 19 17.447 19 18C19 18.553 19.448 19 20 19Z" fill="black"/>
<path d="M45 33H20C19.448 33 19 33.447 19 34C19 34.553 19.448 35 20 35H45C45.552 35 46 34.553 46 34C46 33.447 45.552 33 45 33Z" fill="black"/>
<path d="M39.2222 41H19.7778C19.3484 41 19 41.447 19 42C19 42.553 19.3484 43 19.7778 43H39.2222C39.6516 43 40 42.553 40 42C40 41.447 39.6516 41 39.2222 41Z" fill="black"/>
<path d="M31.5185 49H19.4815C19.2157 49 19 49.447 19 50C19 50.553 19.2157 51 19.4815 51H31.5185C31.7843 51 32 50.553 32 50C32 49.447 31.7843 49 31.5185 49Z" fill="black"/>
<path d="M49 14.586V0H6V55H11V60H54V19.586L49 14.586ZM40 8.414L49 17.414L50.586 19H40V8.414ZM8 53V2H47V12.586L39.414 5H11V53H8ZM13 58V55V7H38V21H52V58H13Z" fill="black"/>
<path d="M44.834 44.2926L39.0991 48.8802L37.2764 47.0577C36.7551 46.5364 35.9124 46.5364 35.391 47.0577C34.8697 47.579 34.8697 48.4216 35.391 48.9429L38.0578 51.6094C38.3164 51.868 38.6578 52 39.0005 52C39.2938 52 39.5885 51.904 39.8325 51.708L46.4994 46.3751C47.0754 45.9138 47.1674 45.0752 46.7074 44.5006C46.2487 43.9246 45.4087 43.8326 44.834 44.2926Z" fill="black"/>
</svg>
