<svg width="60" height="60" viewBox="0 0 60 60" fill="none" xmlns="http://www.w3.org/2000/svg">
<path d="M38.914 0H6.5V60H53.5V14.586L38.914 0ZM39.5 3.414L50.086 14H39.5V3.414ZM8.5 58V2H37.5V16H51.5V58H8.5Z" fill="black"/>
<path d="M42.5 21H26.5C25.948 21 25.5 21.447 25.5 22C25.5 22.553 25.948 23 26.5 23H42.5C43.052 23 43.5 22.553 43.5 22C43.5 21.447 43.052 21 42.5 21Z" fill="black"/>
<path d="M22.8752 18.2195L18.5742 21.6605L17.2073 20.2935C16.8163 19.9025 16.1842 19.9025 15.7932 20.2935C15.4022 20.6845 15.4022 21.3165 15.7932 21.7075L17.7932 23.7075C17.9872 23.9015 18.2432 24.0005 18.5002 24.0005C18.7202 24.0005 18.9413 23.9285 19.1243 23.7815L24.1243 19.7815C24.5563 19.4355 24.6253 18.8065 24.2803 18.3755C23.9363 17.9435 23.3062 17.8745 22.8752 18.2195Z" fill="black"/>
<path d="M42.5 32H26.5C25.948 32 25.5 32.447 25.5 33C25.5 33.553 25.948 34 26.5 34H42.5C43.052 34 43.5 33.553 43.5 33C43.5 32.447 43.052 32 42.5 32Z" fill="black"/>
<path d="M22.8752 29.2195L18.5742 32.6605L17.2073 31.2935C16.8163 30.9025 16.1842 30.9025 15.7932 31.2935C15.4022 31.6845 15.4022 32.3165 15.7932 32.7075L17.7932 34.7075C17.9872 34.9015 18.2432 35.0005 18.5002 35.0005C18.7202 35.0005 18.9413 34.9285 19.1243 34.7815L24.1243 30.7815C24.5563 30.4355 24.6253 29.8065 24.2803 29.3755C23.9363 28.9435 23.3062 28.8745 22.8752 29.2195Z" fill="black"/>
<path d="M42.5 43H26.5C25.948 43 25.5 43.447 25.5 44C25.5 44.553 25.948 45 26.5 45H42.5C43.052 45 43.5 44.553 43.5 44C43.5 43.447 43.052 43 42.5 43Z" fill="black"/>
<path d="M22.8752 40.2195L18.5742 43.6605L17.2073 42.2935C16.8163 41.9025 16.1842 41.9025 15.7932 42.2935C15.4022 42.6845 15.4022 43.3165 15.7932 43.7075L17.7932 45.7075C17.9872 45.9015 18.2432 46.0005 18.5002 46.0005C18.7202 46.0005 18.9413 45.9285 19.1243 45.7815L24.1243 41.7815C24.5563 41.4355 24.6253 40.8065 24.2803 40.3755C23.9363 39.9435 23.3062 39.8745 22.8752 40.2195Z" fill="black"/>
</svg>
