<svg width="24" height="24" viewBox="0 0 24 24" fill="none" xmlns="http://www.w3.org/2000/svg">
  <g clip-path="url(#clip0)">
    <path d="M17.6438 21.084C17.5032 21.084 17.3764 20.9868 17.3447 20.8439L14.0894 6.24703V20.7772C14.0894 20.9467 13.9521 21.084 13.7827 21.084H7.58488C7.41542 21.084 7.27811 20.9467 7.27811 20.7772V4.17412C7.27811 4.00465 7.41542 3.86734 7.58488 3.86734H13.7827C13.9521 3.86734 14.0894 4.00465 14.0894 4.17412V4.24467L20.0127 2.92371C20.0919 2.9058 20.1752 2.92052 20.244 2.96421C20.3127 3.00789 20.3612 3.07698 20.379 3.15637L23.9928 19.3615C24.0104 19.4409 23.9958 19.5241 23.9523 19.5928C23.9087 19.6616 23.8395 19.71 23.7601 19.7277L17.7109 21.0766C17.6884 21.0817 17.6659 21.084 17.6438 21.084ZM7.89165 20.4705H13.4759V4.48089H7.89165V20.4705ZM14.3965 4.80484L17.8766 20.4111L23.327 19.1956L19.8468 3.58941L14.3965 4.80484ZM6.50455 21.084H0.306772C0.137311 21.084 0 20.9467 0 20.7772V4.17412C0 4.00465 0.137311 3.86734 0.306772 3.86734H6.50455C6.67401 3.86734 6.81132 4.00465 6.81132 4.17412V20.7772C6.81132 20.9467 6.67401 21.084 6.50455 21.084ZM0.613544 20.4705H6.19778V4.48089H0.613544V20.4705ZM10.6838 19.1953C9.82481 19.1953 9.1261 18.4966 9.1261 17.6376C9.1261 16.7786 9.82493 16.0799 10.6838 16.0799C11.5426 16.0799 12.2414 16.7788 12.2414 17.6376C12.2414 18.4964 11.5426 19.1953 10.6838 19.1953ZM10.6838 16.6935C10.1631 16.6935 9.73965 17.1171 9.73965 17.6376C9.73965 18.1581 10.1632 18.5817 10.6838 18.5817C11.2043 18.5817 11.6279 18.1581 11.6279 17.6376C11.6279 17.1171 11.2043 16.6935 10.6838 16.6935ZM3.45965 19.1953C2.60069 19.1953 1.90199 18.4966 1.90199 17.6376C1.90199 16.7786 2.60069 16.0799 3.45965 16.0799C4.31862 16.0799 5.01732 16.7788 5.01732 17.6376C5.01732 18.4964 4.31862 19.1953 3.45965 19.1953ZM3.45965 16.6935C2.93912 16.6935 2.51553 17.1171 2.51553 17.6376C2.51553 18.1581 2.93912 18.5817 3.45965 18.5817C3.98031 18.5817 4.40378 18.1581 4.40378 17.6376C4.4039 17.1171 3.98031 16.6935 3.45965 16.6935ZM19.9823 18.5967C19.6899 18.5967 19.4029 18.5139 19.1501 18.3532C18.7989 18.1302 18.5555 17.7835 18.465 17.3775C18.3745 16.9713 18.4474 16.5543 18.6705 16.2031C18.8936 15.8519 19.2403 15.6086 19.6463 15.5181C20.0522 15.4274 20.4693 15.5004 20.8206 15.7236C21.1718 15.9467 21.4152 16.2933 21.5057 16.6994C21.5961 17.1055 21.5233 17.5225 21.3002 17.8737C21.0771 18.2249 20.7304 18.4682 20.3244 18.5588C20.2106 18.5842 20.0962 18.5967 19.9823 18.5967ZM19.9853 16.0942C19.9175 16.0942 19.8488 16.1015 19.7797 16.1169C19.5335 16.1717 19.3236 16.3192 19.1884 16.5321C19.0531 16.7449 19.0088 16.9977 19.0638 17.2438C19.1771 17.752 19.6813 18.0727 20.1909 17.9598C20.699 17.8465 21.0202 17.341 20.9068 16.8329C20.8088 16.3937 20.4179 16.0942 19.9853 16.0942ZM12.7118 13.8336H8.65576C8.4863 13.8336 8.34899 13.6963 8.34899 13.5269V6.29685C8.34899 6.12739 8.4863 5.99008 8.65576 5.99008H12.7118C12.8812 5.99008 13.0186 6.12739 13.0186 6.29685V13.5269C13.0186 13.6963 12.8812 13.8336 12.7118 13.8336ZM8.96253 13.2201H12.405V6.60363H8.96253V13.2201ZM5.42422 13.8336H1.3682C1.19874 13.8336 1.06143 13.6963 1.06143 13.5269V6.29685C1.06143 6.12739 1.19874 5.99008 1.3682 5.99008H5.42422C5.59368 5.99008 5.73099 6.12739 5.73099 6.29685V13.5269C5.73099 13.6963 5.59368 13.8336 5.42422 13.8336ZM1.67498 13.2201H5.11745V6.60363H1.67498V13.2201ZM17.1109 13.7745C16.9703 13.7745 16.8435 13.6773 16.8117 13.5343L15.2381 6.4776C15.2204 6.39821 15.235 6.31502 15.2786 6.2463C15.3222 6.17758 15.3914 6.12911 15.4708 6.11144L19.4296 5.22867C19.5951 5.19149 19.7591 5.29604 19.7958 5.46133L21.3694 12.5181C21.3871 12.5975 21.3724 12.6807 21.3289 12.7494C21.2853 12.8181 21.2161 12.8666 21.1367 12.8842L17.1779 13.767C17.1556 13.772 17.133 13.7745 17.1109 13.7745ZM15.9037 6.64363L17.3437 13.1014L20.7037 12.3522L19.2637 5.89437L15.9037 6.64363ZM11.8967 10.1668H9.47079C9.30133 10.1668 9.16402 10.0295 9.16402 9.86007C9.16402 9.69061 9.30133 9.5533 9.47079 9.5533H11.8969C12.0663 9.5533 12.2036 9.69061 12.2036 9.86007C12.2036 10.0295 12.0662 10.1668 11.8967 10.1668ZM4.60919 10.1668H2.18324C2.01378 10.1668 1.87646 10.0295 1.87646 9.86007C1.87646 9.69061 2.01378 9.5533 2.18324 9.5533H4.60931C4.77877 9.5533 4.91609 9.69061 4.91609 9.86007C4.91609 10.0295 4.77865 10.1668 4.60919 10.1668ZM17.1083 10.0182C16.9677 10.0182 16.8409 9.92106 16.8092 9.7781C16.7723 9.61269 16.8765 9.44875 17.0418 9.41194L19.4097 8.88392C19.5753 8.84674 19.7392 8.95129 19.7759 9.11658C19.8127 9.28199 19.7085 9.44593 19.5432 9.48274L17.1753 10.0108C17.1529 10.0158 17.1304 10.0182 17.1083 10.0182ZM11.8967 8.91595H9.47079C9.30133 8.91595 9.16402 8.77864 9.16402 8.60918C9.16402 8.43972 9.30133 8.30241 9.47079 8.30241H11.8969C12.0663 8.30241 12.2036 8.43972 12.2036 8.60918C12.2036 8.77864 12.0662 8.91595 11.8967 8.91595ZM4.60919 8.91595H2.18324C2.01378 8.91595 1.87646 8.77864 1.87646 8.60918C1.87646 8.43972 2.01378 8.30241 2.18324 8.30241H4.60931C4.77877 8.30241 4.91609 8.43972 4.91609 8.60918C4.91609 8.77864 4.77865 8.91595 4.60919 8.91595ZM16.836 8.79729C16.6954 8.79729 16.5686 8.70011 16.5369 8.55715C16.5 8.39174 16.6042 8.2278 16.7695 8.19099L19.1374 7.66297C19.303 7.62579 19.4669 7.73034 19.5036 7.89563C19.5404 8.06104 19.4362 8.22498 19.2709 8.26179L16.903 8.78981C16.8806 8.79484 16.8581 8.79729 16.836 8.79729ZM11.8967 7.66506H9.47079C9.30133 7.66506 9.16402 7.52775 9.16402 7.35829C9.16402 7.18883 9.30133 7.05151 9.47079 7.05151H11.8969C12.0663 7.05151 12.2036 7.18883 12.2036 7.35829C12.2036 7.52775 12.0662 7.66506 11.8967 7.66506ZM4.60919 7.66506H2.18324C2.01378 7.66506 1.87646 7.52775 1.87646 7.35829C1.87646 7.18883 2.01378 7.05151 2.18324 7.05151H4.60931C4.77877 7.05151 4.91609 7.18883 4.91609 7.35829C4.91609 7.52775 4.77865 7.66506 4.60919 7.66506ZM16.5637 7.57634C16.4231 7.57634 16.2964 7.47915 16.2646 7.3362C16.2278 7.17091 16.3319 7.00685 16.4972 6.97004L18.8651 6.44202C19.0308 6.40496 19.1945 6.50939 19.2313 6.67468C19.2681 6.84009 19.1639 7.00403 18.9986 7.04084L16.6307 7.56885C16.6084 7.57389 16.5858 7.57634 16.5637 7.57634Z" fill="black"/>
  </g>
  <defs>
    <clipPath id="clip0">
      <rect width="24" height="24" fill="white"/>
    </clipPath>
  </defs>
</svg>
