<svg width="150" height="150" viewBox="0 0 150 150" fill="none" xmlns="http://www.w3.org/2000/svg">
<path d="M40.7103 148.403C40.4872 148.343 40.2685 148.256 40.0573 148.14C38.9075 147.508 38.303 146.183 38.5773 144.893L42.9057 124.5C42.895 124.021 42.9991 123.538 43.2334 123.095L105.077 6.31071C105.838 4.87518 107.607 4.34561 109.032 5.12972L119.499 10.8871C120.183 11.2635 120.694 11.8969 120.919 12.6505C121.144 13.4041 121.065 14.2154 120.701 14.9051L118.685 18.7099L123.068 21.121C124.491 21.9048 125.029 23.7032 124.269 25.1391L102.654 65.956C101.893 67.3915 100.122 67.9182 98.6995 67.137C97.2758 66.3543 96.7382 64.5548 97.4981 63.119L117.737 24.9028L115.932 23.9104L58.8579 131.69C58.6079 132.162 58.2469 132.537 57.8264 132.798L43.534 147.619C42.7929 148.388 41.7092 148.671 40.7103 148.403ZM48.7276 125.293L46.4332 136.102L54.0419 128.211L111.816 19.1109C111.873 18.8793 111.959 18.6505 112.075 18.4309C112.192 18.2117 112.332 18.0132 112.491 17.8371L114.169 14.6692L108.857 11.7474L48.7276 125.293Z" fill="black"/>
</svg>
