<svg width="60" height="60" viewBox="0 0 60 60" fill="none" xmlns="http://www.w3.org/2000/svg">
<path d="M55.783 8H4.217C1.892 8 0 9.892 0 12.217V47.783C0 50.108 1.892 52 4.217 52H55.783C58.108 52 60 50.108 60 47.783V12.217C60 9.892 58.108 8 55.783 8ZM58 47.783C58 49.006 57.006 50 55.783 50H4.217C2.994 50 2 49.006 2 47.783V12.217C2 10.994 2.994 10 4.217 10H55.783C57.006 10 58 10.994 58 12.217V47.783Z" fill="black"/>
<path d="M22.638 36.2468L19 34.3888V34.0018C20.628 33.1128 21.773 31.6488 22.412 29.6378C23.381 29.1238 24 28.1228 24 27.0008V26.0008C24 25.0748 23.569 24.2158 22.849 23.6518C22.225 19.8718 19.587 17.9558 15 17.9558C14.783 17.9558 14.571 17.9638 14.364 17.9798C13.5 18.0508 12.235 17.9758 11.14 17.2398C10.731 16.9638 10.422 16.6958 10.225 16.4468C9.889 16.0178 9.324 15.8678 8.823 16.0738C8.321 16.2798 8.026 16.7818 8.089 17.3208C8.131 17.6948 8.194 18.1298 8.289 18.6068C8.482 19.5818 8.482 19.5818 8.211 20.1648C8.109 20.3858 7.983 20.6548 7.835 21.0178C7.504 21.8288 7.269 22.7168 7.134 23.6648C6.424 24.2298 6 25.0838 6 26.0008V27.0008C6 28.1228 6.619 29.1238 7.588 29.6378C8.227 31.6498 9.372 33.1138 11 34.0018V34.3778L7.231 36.2358C5.855 36.9858 5 38.4258 5 39.9938V41.3188C5 42.1218 5 44.0008 15 44.0008C25 44.0008 25 42.1218 25 41.3188V40.0738C25 38.4428 24.095 36.9778 22.638 36.2468ZM23 41.0928C22.376 41.4728 19.838 42.0008 15 42.0008C10.162 42.0008 7.624 41.4728 7 41.0928V39.9938C7 39.1588 7.455 38.3908 8.152 38.0118L12.009 36.1108C12.611 35.8168 12.999 35.1938 12.999 34.5228V32.7198L12.395 32.4598C10.878 31.8058 9.892 30.5588 9.38 28.6458L9.237 28.1128L8.711 27.9488C8.293 27.8178 8 27.4288 8 27.0008V26.0008C8 25.6388 8.207 25.3028 8.541 25.1248L9.01 24.8748L9.065 24.3458C9.164 23.4078 9.373 22.5428 9.687 21.7758C9.82 21.4508 9.933 21.2078 10.025 21.0088C10.364 20.2808 10.487 19.9048 10.402 19.1338C11.578 19.8058 12.991 20.0918 14.524 19.9748C14.679 19.9618 14.838 19.9558 15.001 19.9558C18.745 19.9558 20.573 21.3118 20.93 24.3538L20.992 24.8758L21.457 25.1218C21.791 25.2998 22 25.6368 22 26.0008V27.0008C22 27.4288 21.707 27.8178 21.288 27.9478L20.762 28.1118L20.619 28.6448C20.107 30.5578 19.121 31.8048 17.604 32.4588L17 32.7198V34.5308C17 35.1998 17.37 35.8028 17.964 36.1058L21.739 38.0348C22.517 38.4228 23 39.2048 23 40.0738V41.0928Z" fill="black"/>
<path d="M30 23H40C40.553 23 41 22.553 41 22C41 21.447 40.553 21 40 21H30C29.447 21 29 21.447 29 22C29 22.553 29.447 23 30 23Z" fill="black"/>
<path d="M44 23H45C45.553 23 46 22.553 46 22C46 21.447 45.553 21 45 21H44C43.447 21 43 21.447 43 22C43 22.553 43.447 23 44 23Z" fill="black"/>
<path d="M31 38H30C29.447 38 29 38.447 29 39C29 39.553 29.447 40 30 40H31C31.553 40 32 39.553 32 39C32 38.447 31.553 38 31 38Z" fill="black"/>
<path d="M37 38H35C34.447 38 34 38.447 34 39C34 39.553 34.447 40 35 40H37C37.553 40 38 39.553 38 39C38 38.447 37.553 38 37 38Z" fill="black"/>
<path d="M42 38H41C40.447 38 40 38.447 40 39C40 39.553 40.447 40 41 40H42C42.553 40 43 39.553 43 39C43 38.447 42.553 38 42 38Z" fill="black"/>
<path d="M48 38H46C45.447 38 45 38.447 45 39C45 39.553 45.447 40 46 40H48C48.553 40 49 39.553 49 39C49 38.447 48.553 38 48 38Z" fill="black"/>
<path d="M51.29 38.2892C51.109 38.4782 51 38.7392 51 38.9992C51 39.2592 51.109 39.5192 51.29 39.7092C51.479 39.8892 51.74 39.9992 52 39.9992C52.26 39.9992 52.52 39.8892 52.71 39.7092C52.89 39.5192 53 39.2592 53 38.9992C53 38.7392 52.89 38.4782 52.71 38.2892C52.33 37.9192 51.66 37.9192 51.29 38.2892Z" fill="black"/>
<path d="M52 27H30C29.447 27 29 27.447 29 28C29 28.553 29.447 29 30 29H52C52.553 29 53 28.553 53 28C53 27.447 52.553 27 52 27Z" fill="black"/>
<path d="M52 33H30C29.447 33 29 33.447 29 34C29 34.553 29.447 35 30 35H52C52.553 35 53 34.553 53 34C53 33.447 52.553 33 52 33Z" fill="black"/>
</svg>
