<svg width="20" height="20" viewBox="0 0 20 20" fill="none" xmlns="http://www.w3.org/2000/svg">
<path d="M16.9571 3.517C16.8811 3.324 16.655 3 16 3H3.00005C2.34505 3 2.11905 3.324 2.04305 3.517C1.96705 3.71 1.91105 4.101 2.39005 4.548L9.00005 10.717V17.5C9.00005 18.313 8.54205 19 8.00005 19H6.50005C6.22405 19 6.00005 19.224 6.00005 19.5C6.00005 19.776 6.22405 20 6.50005 20H12.5C12.776 20 13 19.776 13 19.5C13 19.224 12.776 19 12.5 19H11C10.458 19 10 18.313 10 17.5V10.717L16.6101 4.548C17.0891 4.101 17.0331 3.71 16.9571 3.517V3.517ZM9.50005 9.816L3.26805 4H15.731L9.50005 9.816V9.816Z" fill="black"/>
</svg>
