<svg width="20" height="20" viewBox="0 0 20 20" fill="none" xmlns="http://www.w3.org/2000/svg">
<path d="M0.5 12C0.224 12 0 11.776 0 11.5V9.5C0 9.224 0.224 9 0.5 9C0.776 9 1 9.224 1 9.5V11.5C1 11.776 0.776 12 0.5 12Z" fill="black"/>
<path d="M19.5 12C19.224 12 19 11.776 19 11.5V9.5C19 9.224 19.224 9 19.5 9C19.776 9 20 9.224 20 9.5V11.5C20 11.776 19.776 12 19.5 12Z" fill="black"/>
<path d="M17.5 7C17.325 7 17.157 7.031 17 7.086V6.5C17 5.673 16.327 5 15.5 5C14.673 5 14 5.673 14 6.5V10H6V6.5C6 5.673 5.327 5 4.5 5C3.673 5 3 5.673 3 6.5V7.086C2.843 7.03 2.675 7 2.5 7C1.673 7 1 7.673 1 8.5V12.5C1 13.327 1.673 14 2.5 14C2.675 14 2.843 13.969 3 13.914V14.5C3 15.327 3.673 16 4.5 16C5.327 16 6 15.327 6 14.5V11H14V14.5C14 15.327 14.673 16 15.5 16C16.327 16 17 15.327 17 14.5V13.914C17.157 13.97 17.325 14 17.5 14C18.327 14 19 13.327 19 12.5V8.5C19 7.673 18.327 7 17.5 7ZM2.5 13C2.224 13 2 12.776 2 12.5V8.5C2 8.224 2.224 8 2.5 8C2.776 8 3 8.224 3 8.5V12.5C3 12.776 2.776 13 2.5 13ZM5 14.5C5 14.776 4.776 15 4.5 15C4.224 15 4 14.776 4 14.5V6.5C4 6.224 4.224 6 4.5 6C4.776 6 5 6.224 5 6.5V14.5ZM16 14.5C16 14.776 15.776 15 15.5 15C15.224 15 15 14.776 15 14.5V6.5C15 6.224 15.224 6 15.5 6C15.776 6 16 6.224 16 6.5V14.5ZM18 12.5C18 12.776 17.776 13 17.5 13C17.224 13 17 12.776 17 12.5V8.5C17 8.224 17.224 8 17.5 8C17.776 8 18 8.224 18 8.5V12.5Z" fill="black"/>
</svg>
