<svg width="496" height="496" viewBox="0 0 496 496" fill="none" xmlns="http://www.w3.org/2000/svg">
<path d="M200 192H296V240H200V192Z" fill="#E6BA1C"/>
<path d="M200 368H296V488H200V368Z" fill="#E6BA1C"/>
<path d="M448 360H352V296H448V360Z" fill="#D6D4D4"/>
<path d="M144 360H48V296H144V360Z" fill="#D6D4D4"/>
<path d="M480 423.945V232H464V416.688C459.793 415.855 455.352 415.711 450.801 416.383C441.734 396.742 422.16 384 400 384C377.84 384 358.266 396.742 349.199 416.383C341.648 415.273 334.398 416.398 328 419.207V339.719L248 286.383L168 339.719V419.191C161.609 416.391 154.367 415.273 146.801 416.383C137.734 396.742 118.16 384 96 384C73.8398 384 54.2656 396.742 45.1992 416.383C40.6484 415.711 36.207 415.855 32 416.688V232H16V423.953C6.32812 431.297 0 442.977 0 456C0 478.055 17.9453 496 40 496H456C478.055 496 496 478.055 496 456C496 442.977 489.68 431.289 480 423.945ZM248 305.617L312 348.281V431.992C306.992 438.711 304 447.047 304 456C304 465.039 307.129 473.297 312.207 480H183.793C188.871 473.297 192 465.039 192 456C192 447.031 189.016 438.695 184 431.969V348.281L248 305.617ZM40 480C26.7695 480 16 469.23 16 456C16 442.77 26.7695 432 40 432C42.3516 432 44.832 432.457 47.5938 433.375L55.3594 435.992L57.7852 428.16C62.9922 411.32 78.3516 400 96 400C113.648 400 129.008 411.32 134.215 428.168L136.641 436L144.406 433.383C147.168 432.457 149.648 432 152 432C165.23 432 176 442.77 176 456C176 469.23 165.23 480 152 480H40ZM456 480H344C330.77 480 320 469.23 320 456C320 442.77 330.77 432 344 432C346.352 432 348.832 432.457 351.594 433.375L359.359 435.992L361.785 428.16C366.992 411.32 382.352 400 400 400C417.648 400 433.008 411.32 438.215 428.168L440.641 436L448.406 433.383C451.168 432.457 453.648 432 456 432C469.23 432 480 442.77 480 456C480 469.23 469.23 480 456 480Z" fill="black"/>
<path d="M16 456C16 469.23 26.7695 480 40 480H152C165.23 480 176 469.23 176 456C176 442.77 165.23 432 152 432C149.648 432 147.168 432.457 144.406 433.383L136.641 436L134.215 428.168C129.008 411.32 113.648 400 96 400C78.3516 400 62.9922 411.32 57.7852 428.16L55.3594 435.992L47.5938 433.375C44.832 432.457 42.3516 432 40 432C26.7695 432 16 442.77 16 456Z" fill="#1B998B"/>
<path d="M320 456C320 469.23 330.77 480 344 480H456C469.23 480 480 469.23 480 456C480 442.77 469.23 432 456 432C453.648 432 451.168 432.457 448.406 433.383L440.641 436L438.215 428.168C433.008 411.32 417.648 400 400 400C382.352 400 366.992 411.32 361.785 428.16L359.359 435.992L351.594 433.375C348.832 432.457 346.352 432 344 432C330.77 432 320 442.77 320 456Z" fill="#1B998B"/>
<path d="M69.6406 96H426.367L464.473 202.688L479.543 197.305L437.641 80H392V48H376V0H328V48H312V80H184V48H168V0H120V48H104V80H58.3594L16.4648 197.312L31.5352 202.695L69.6406 96ZM344 16H360V48H344V16ZM328 64H376V80H328V64ZM136 16H152V48H136V16ZM120 64H168V80H120V64Z" fill="black"/>
<path d="M416 280V173.441L427 182.238L436.992 169.742L352 101.754L267 169.754L276.992 182.246L288 173.441V280H416ZM336 264V216C336 211.594 339.594 208 344 208H360C364.406 208 368 211.594 368 216V264H336ZM400 160.648V264H384V216C384 202.77 373.23 192 360 192H344C330.77 192 320 202.77 320 216V264H304V160.648L352 122.246L400 160.648Z" fill="black"/>
<path d="M208 280V173.441L219 182.238L228.992 169.742L144 101.754L59 169.754L68.9922 182.246L80 173.441V280H208ZM128 264V216C128 211.594 131.594 208 136 208H152C156.406 208 160 211.594 160 216V264H128ZM192 160.648V264H176V216C176 202.77 165.23 192 152 192H136C122.77 192 112 202.77 112 216V264H96V160.648L144 122.246L192 160.648Z" fill="black"/>
<path d="M344 144H360V160H344V144Z" fill="black"/>
<path d="M136 144H152V160H136V144Z" fill="black"/>
<path d="M480 192H416V240H480C488.824 240 496 232.824 496 224V208C496 199.176 488.824 192 480 192Z" fill="#E6BA1C"/>
<path d="M16 192C7.17578 192 0 199.176 0 208V224C0 232.824 7.17578 240 16 240H80V192H16Z" fill="#E6BA1C"/>
</svg>
