<svg width="20" height="20" viewBox="0 0 20 20" fill="none" xmlns="http://www.w3.org/2000/svg">
<path d="M18.5 17H0.5C0.224 17 0 16.776 0 16.5C0 16.224 0.224 16 0.5 16H18.5C18.776 16 19 16.224 19 16.5C19 16.776 18.776 17 18.5 17Z" fill="black"/>
<path d="M18 14.474C17.993 12.213 17.11 10.089 15.51 8.49C14.023 7.003 12.082 6.135 10 6.015V5H10.5C10.776 5 11 4.776 11 4.5C11 4.224 10.776 4 10.5 4H8.5C8.224 4 8 4.224 8 4.5C8 4.776 8.224 5 8.5 5H9V6.015C6.918 6.135 4.977 7.003 3.49 8.49C1.885 10.095 1 12.23 1 14.5C1 14.776 1.224 15 1.5 15H17.5C17.5 15 17.5 15 17.501 15C17.777 15 18.001 14.776 18.001 14.5C18.001 14.491 18.001 14.483 18 14.474ZM2.016 14C2.274 10.097 5.532 7 9.5 7C13.468 7 16.725 10.097 16.984 14H2.017H2.016Z" fill="black"/>
<path d="M4.62593 11.5001C4.52493 11.5001 4.42293 11.4691 4.33393 11.4061C4.10993 11.2451 4.05893 10.9321 4.21993 10.7081C4.71293 10.0231 5.32493 9.44706 6.03893 8.99706C6.76793 8.53706 7.56893 8.23206 8.41693 8.09006C8.68893 8.04406 8.94693 8.22806 8.99293 8.50006C9.03893 8.77206 8.85493 9.03006 8.58293 9.07606C7.14793 9.31706 5.88693 10.1041 5.03193 11.2921C4.93393 11.4281 4.78093 11.5001 4.62593 11.5001V11.5001Z" fill="black"/>
</svg>
