<svg width="20" height="20" viewBox="0 0 20 20" fill="none" xmlns="http://www.w3.org/2000/svg">
<path d="M18 9.5V8.5C18 8.422 17.982 8.346 17.947 8.276L15.947 4.276C15.862 4.107 15.689 4 15.5 4H3.5C3.311 4 3.137 4.107 3.053 4.276L1.053 8.276C1.018 8.345 1 8.422 1 8.5V9.5C1 10.316 1.393 11.042 2 11.499V18H1.5C1.224 18 1 18.224 1 18.5C1 18.776 1.224 19 1.5 19H17.5C17.776 19 18 18.776 18 18.5C18 18.224 17.776 18 17.5 18H17V11.499C17.607 11.042 18 10.317 18 9.5ZM11.5 11C10.673 11 10 10.327 10 9.5V9H13V9.5C13 10.327 12.327 11 11.5 11ZM2 9.5V9H5V9.5C5 10.327 4.327 11 3.5 11C2.673 11 2 10.327 2 9.5ZM9 5V8H6.14L6.89 5H9ZM12.11 5L12.86 8H10V5H12.11ZM6 9H9V9.5C9 10.327 8.327 11 7.5 11C6.673 11 6 10.327 6 9.5V9ZM14 9H17V9.5C17 10.327 16.327 11 15.5 11C14.673 11 14 10.327 14 9.5V9ZM16.691 8H13.89L13.14 5H15.191L16.691 8ZM3.809 5H5.86L5.11 8H2.309L3.809 5ZM3 11.95C3.162 11.983 3.329 12 3.5 12C4.317 12 5.044 11.606 5.5 10.998C5.956 11.606 6.683 12 7.5 12C8.317 12 9.044 11.606 9.5 10.998C9.861 11.478 10.39 11.825 11 11.949V17.999H3V11.949V11.95ZM16 18H12V11.95C12.61 11.826 13.139 11.479 13.5 10.999C13.956 11.607 14.683 12.001 15.5 12.001C15.671 12.001 15.838 11.984 16 11.951V18.001V18Z" fill="black"/>
<path d="M14 14.5C14 14.776 13.776 15 13.5 15C13.224 15 13 14.776 13 14.5C13 14.224 13.224 14 13.5 14C13.776 14 14 14.224 14 14.5Z" fill="black"/>
<path d="M4.50001 15.0002C4.37201 15.0002 4.24401 14.9512 4.14601 14.8542C3.95101 14.6592 3.95101 14.3422 4.14601 14.1472L5.14601 13.1472C5.34101 12.9522 5.65801 12.9522 5.85301 13.1472C6.04801 13.3422 6.04801 13.6592 5.85301 13.8542L4.85301 14.8542C4.75501 14.9522 4.62701 15.0002 4.49901 15.0002H4.50001Z" fill="black"/>
<path d="M5.50001 17.0002C5.37201 17.0002 5.24401 16.9512 5.14601 16.8542C4.95101 16.6592 4.95101 16.3422 5.14601 16.1472L8.14601 13.1472C8.34101 12.9522 8.65801 12.9522 8.85301 13.1472C9.04801 13.3422 9.04801 13.6592 8.85301 13.8542L5.85301 16.8542C5.75501 16.9522 5.62701 17.0002 5.49901 17.0002H5.50001Z" fill="black"/>
<path d="M8.50001 17.0002C8.37201 17.0002 8.24401 16.9512 8.14601 16.8542C7.95101 16.6592 7.95101 16.3422 8.14601 16.1472L9.14601 15.1472C9.34101 14.9522 9.65801 14.9522 9.85301 15.1472C10.048 15.3422 10.048 15.6592 9.85301 15.8542L8.85301 16.8542C8.75501 16.9522 8.62701 17.0002 8.49901 17.0002H8.50001Z" fill="black"/>
</svg>
