<svg width="496" height="496" viewBox="0 0 496 496" fill="none" xmlns="http://www.w3.org/2000/svg">
<rect x="4" y="2" width="172" height="172" rx="86" fill="#D6D4D4"/>
<path d="M384 344C375.176 344 368 351.176 368 360V400C368 408.824 375.176 416 384 416H440V344H384Z" fill="#E6BA1C"/>
<path d="M112 344H56V416H112C120.824 416 128 408.824 128 400V360C128 351.176 120.824 344 112 344Z" fill="#E6BA1C"/>
<path d="M368 96H336H160H128L112 248H384L368 96Z" fill="#1B998B"/>
<path d="M472 64H424.44C421.552 55.856 414.456 49.832 405.888 48.376L389.768 0H106.232L90.112 48.376C81.544 49.832 74.448 55.856 71.56 64H24C10.768 64 0 74.768 0 88V192H39.24L47.24 112H64.936L48.056 247.008L48 424C48 437.232 58.768 448 72 448H80V472C80 485.232 90.768 496 104 496H152C165.232 496 176 485.232 176 472V448H320V472C320 485.232 330.768 496 344 496H392C405.232 496 416 485.232 416 472V448H424C437.232 448 448 437.232 448 424V248L431.048 112H448.76L456.76 192H496V88C496 74.768 485.232 64 472 64ZM378.232 16L388.904 48H107.096L117.768 16H378.232ZM24.76 176H16V112H31.16L24.76 176ZM16 96V88C16 83.592 19.584 80 24 80H68.944L66.944 96H16ZM160 472C160 476.408 156.416 480 152 480H104C99.584 480 96 476.408 96 472V448H160V472ZM400 472C400 476.408 396.416 480 392 480H344C339.584 480 336 476.408 336 472V448H400V472ZM432 424C432 428.408 428.416 432 424 432H72C67.584 432 64 428.408 64 424V248.496L86.184 71C86.688 67.008 90.104 64 94.128 64H240V80H176V128H320V80H256V64H401.872C405.896 64 409.312 67.008 409.808 71.008L432 248.496V424ZM256 96H304V112H192V96H240H256ZM427.056 80H472C476.416 80 480 83.592 480 88V96H429.048L427.056 80ZM471.24 176L464.84 112H480V176H471.24Z" fill="black"/>
<path d="M391.528 243.144L375.2 88H336V104H360.8L375.12 240H240C240 213.528 218.472 192 192 192C165.528 192 144 213.528 144 240H120.88L135.2 104H160V88H120.8L104.472 243.144C90.104 249.216 80 263.448 80 280V312V320V344H96V320H400V344H416V320V312V280C416 263.448 405.896 249.216 391.528 243.144ZM192 208C209.648 208 224 222.352 224 240H160C160 222.352 174.352 208 192 208ZM96 280C96 266.768 106.768 256 120 256H376C389.232 256 400 266.768 400 280V304H96V280Z" fill="black"/>
<path d="M153.225 408H342.769L353.441 344H142.553L153.225 408ZM272.001 392H256.001V360H272.001V392ZM288.001 360H304.001V392H288.001V360ZM240.001 392H224.001V360H240.001V392ZM208.001 392H192.001V360H208.001V392ZM329.225 392H320.001V360H334.553L329.225 392ZM176.001 360V392H166.777L161.449 360H176.001Z" fill="black"/>
</svg>
