<svg width="513" height="513" viewBox="0 0 513 513" fill="none" xmlns="http://www.w3.org/2000/svg">
<g clip-path="url(#clip0)">
<path d="M190.725 500.516H83.5681C79.0161 500.516 75.3271 496.826 75.3271 492.275V361.442L127.001 361.432C130.483 364.419 133.8 367.51 136.973 370.683C178.905 412.575 194.139 468.256 198.797 490.611C199.862 495.724 195.948 500.516 190.725 500.516Z" fill="#D72D33"/>
<path d="M137.952 466.023C133.684 466.023 130.226 462.564 130.226 458.297C130.226 411.7 99.5778 377.389 99.2688 377.048C96.4008 373.888 96.6378 369.002 99.7978 366.134C102.958 363.267 107.843 363.503 110.711 366.664C112.139 368.237 145.678 405.799 145.678 458.298C145.678 462.564 142.219 466.023 137.952 466.023Z" fill="#B70000"/>
<path d="M136.973 370.683C136.169 371.342 135.356 371.94 134.562 372.486C124.456 379.398 111.888 382.911 97.2081 382.911C87.8331 382.911 79.8491 381.459 75.3271 380.418V361.442L127.001 361.432C130.483 364.419 133.8 367.51 136.973 370.683Z" fill="#B70000"/>
<path d="M127.001 361.432C105.954 375.844 75.3268 366.593 75.3268 366.593C66.8688 356.281 67.3218 345.052 69.6508 336.738C71.7318 329.259 75.3268 324.129 75.3268 324.129L132.337 305.647C132.337 305.647 136.334 316.175 137.581 328.466C138.827 340.529 137.426 354.292 127.001 361.432Z" fill="#FFCE00"/>
<path d="M137.581 328.466C117.441 336.522 99.2584 338.284 87.1744 338.284C87.1744 338.284 87.1744 338.284 87.1644 338.284C78.8504 338.284 73.6174 337.429 73.0504 337.326L69.6504 336.739C71.7314 329.26 75.3264 324.13 75.3264 324.13L132.336 305.648C132.337 305.647 136.334 316.176 137.581 328.466Z" fill="#E2A700"/>
<path d="M244.658 50.6465C244.658 56.3125 244.596 61.8655 244.483 67.3045C240.661 245.371 175.553 301.176 127.248 317.988C118.491 321.037 110.291 322.799 103.111 323.788C86.5041 326.054 75.3271 324.128 75.3271 324.128V50.6465H244.658Z" fill="#D72D33"/>
<path d="M75.3271 50.6465H244.658C244.658 56.3125 244.596 61.8655 244.483 67.3045H75.3271V50.6465Z" fill="#B70000"/>
<path d="M163.848 212.822C163.408 212.822 162.962 212.784 162.514 212.706C158.31 211.974 155.495 207.973 156.227 203.769C159.212 186.628 160.725 168.889 160.725 151.045C160.725 146.778 164.184 143.319 168.451 143.319C172.718 143.319 176.177 146.778 176.177 151.045C176.177 169.775 174.586 188.407 171.45 206.42C170.797 210.175 167.534 212.822 163.848 212.822Z" fill="#B70000"/>
<path d="M163.902 239.14C152.55 278.338 136.252 305.144 127.248 317.99C118.491 321.039 110.291 322.801 103.111 323.79C105.419 320.699 107.86 317.877 108.973 316.579C109.282 316.208 133.986 286.889 149.057 234.844C150.242 230.744 154.527 228.385 158.627 229.57C162.727 230.764 165.087 235.05 163.902 239.14Z" fill="#B70000"/>
<path d="M103.077 459.827C98.8086 459.827 95.3506 456.368 95.3506 452.101V424.99C95.3506 420.723 98.8096 417.264 103.077 417.264C107.345 417.264 110.803 420.723 110.803 424.99V452.101C110.804 456.367 107.345 459.827 103.077 459.827Z" fill="#B70000"/>
<path d="M104.99 276.968C100.722 276.968 97.2637 273.509 97.2637 269.242V215.845C97.2637 211.578 100.723 208.119 104.99 208.119C109.258 208.119 112.716 211.578 112.716 215.845V269.242C112.716 273.509 109.258 276.968 104.99 276.968Z" fill="#B70000"/>
<path d="M436.673 361.442V492.275C436.673 496.827 432.983 500.516 428.432 500.516H321.275C316.052 500.516 312.137 495.724 313.203 490.61C317.861 468.255 333.095 412.574 375.027 370.682C378.2 367.509 381.517 364.418 384.999 361.431L436.673 361.442Z" fill="#D72D33"/>
<path d="M374.048 466.023C369.78 466.023 366.322 462.564 366.322 458.297C366.322 405.799 399.861 368.236 401.289 366.663C404.155 363.502 409.043 363.266 412.202 366.133C415.359 368.998 415.598 373.878 412.739 377.038C412.4 377.415 381.774 411.937 381.774 458.296C381.775 462.564 378.316 466.023 374.048 466.023Z" fill="#B70000"/>
<path d="M436.673 361.442V380.418C432.151 381.458 424.167 382.911 414.792 382.911C400.112 382.911 387.543 379.398 377.437 372.486C376.644 371.94 375.83 371.342 375.027 370.683C378.2 367.51 381.517 364.419 384.999 361.432L436.673 361.442Z" fill="#B70000"/>
<path d="M436.673 366.593C436.673 366.593 406.046 375.844 384.999 361.432C374.543 354.272 373.162 340.457 374.429 328.363C375.696 316.124 379.662 305.647 379.662 305.647L436.672 324.129C436.672 324.129 440.268 329.259 442.349 336.738C444.678 345.052 445.131 356.281 436.673 366.593Z" fill="#FFCE00"/>
<path d="M442.35 336.738L438.95 337.326C438.383 337.429 433.15 338.283 424.837 338.283C413.567 338.283 395.126 336.645 374.43 328.362C375.697 316.123 379.663 305.646 379.663 305.646L436.673 324.128C436.673 324.129 440.269 329.259 442.35 336.738Z" fill="#E2A700"/>
<path d="M436.673 50.6465V324.128C436.673 324.128 425.65 326.023 409.239 323.829C401.976 322.861 393.642 321.089 384.752 317.988C336.447 301.175 271.339 245.371 267.517 67.3045C267.404 61.8655 267.342 56.3125 267.342 50.6465H436.673Z" fill="#D72D33"/>
<path d="M436.673 50.6465V67.3045H267.517C267.404 61.8655 267.342 56.3125 267.342 50.6465H436.673Z" fill="#B70000"/>
<path d="M348.152 212.822C344.466 212.822 341.203 210.175 340.549 206.42C337.412 188.406 335.822 169.775 335.822 151.045C335.822 146.778 339.281 143.319 343.548 143.319C347.815 143.319 351.274 146.778 351.274 151.045C351.274 168.89 352.787 186.628 355.772 203.769C356.504 207.973 353.69 211.974 349.485 212.706C349.038 212.783 348.592 212.822 348.152 212.822Z" fill="#B70000"/>
<path d="M409.239 323.831C401.976 322.863 393.642 321.091 384.752 317.99C375.748 305.144 359.451 278.338 348.098 239.14C346.913 235.05 349.273 230.765 353.373 229.57C357.473 228.385 361.759 230.744 362.943 234.844C378.025 286.961 402.78 316.29 403.038 316.579C404.253 318 406.911 320.843 409.239 323.831Z" fill="#B70000"/>
<path d="M408.924 459.827C404.656 459.827 401.198 456.368 401.198 452.101V424.99C401.198 420.723 404.657 417.264 408.924 417.264C413.191 417.264 416.65 420.723 416.65 424.99V452.101C416.65 456.367 413.191 459.827 408.924 459.827Z" fill="#B70000"/>
<path d="M407.01 276.968C402.742 276.968 399.284 273.509 399.284 269.242V215.845C399.284 211.578 402.743 208.119 407.01 208.119C411.277 208.119 414.736 211.578 414.736 215.845V269.242C414.736 273.509 411.278 276.968 407.01 276.968Z" fill="#B70000"/>
<path d="M473.92 28.5391H38.0898V53.9121H473.92V28.5391Z" fill="#868B93"/>
<path d="M473.914 28.5391V53.9121H441.041C439.815 49.8941 439.145 45.6291 439.145 41.2201C439.145 36.8111 439.815 32.5561 441.041 28.5381L473.914 28.5391Z" fill="#656A72"/>
<path d="M72.8539 41.2201C72.8539 45.6291 72.1839 49.8941 70.9579 53.9121H38.0859V28.5391H70.9589C72.1849 32.5561 72.8539 36.8111 72.8539 41.2201Z" fill="#656A72"/>
<path d="M482.27 70.9563C498.692 70.9563 512.004 57.6439 512.004 41.2223C512.004 24.8006 498.692 11.4883 482.27 11.4883C465.848 11.4883 452.536 24.8006 452.536 41.2223C452.536 57.6439 465.848 70.9563 482.27 70.9563Z" fill="#AECBCE"/>
<path d="M29.734 70.9563C46.1556 70.9563 59.468 57.6439 59.468 41.2223C59.468 24.8006 46.1556 11.4883 29.734 11.4883C13.3124 11.4883 0 24.8006 0 41.2223C0 57.6439 13.3124 70.9563 29.734 70.9563Z" fill="#AECBCE"/>
</g>
<defs>
<clipPath id="clip0">
<rect width="512.004" height="512.004" fill="white"/>
</clipPath>
</defs>
</svg>
