<svg xmlns="http://www.w3.org/2000/svg" height="511pt" viewBox="-4 1 511 511.99999" width="511pt"><path d="m458.0625 16.933594h-11.464844v-9.320313c0-4.207031-3.40625-7.613281-7.613281-7.613281-4.203125 0-7.609375 3.40625-7.609375 7.613281v9.320313h-18.691406v-9.320313c0-4.207031-3.410156-7.613281-7.613282-7.613281-4.203124 0-7.609374 3.40625-7.609374 7.613281v9.320313h-18.691407v-9.320313c0-4.207031-3.410156-7.613281-7.613281-7.613281s-7.609375 3.40625-7.609375 7.613281v9.320313h-18.695313v-9.320313c0-4.207031-3.40625-7.613281-7.609374-7.613281-4.203126 0-7.613282 3.40625-7.613282 7.613281v9.320313h-18.691406v-9.320313c0-4.207031-3.40625-7.613281-7.609375-7.613281s-7.613281 3.40625-7.613281 7.613281v9.320313h-18.691406v-9.320313c0-4.207031-3.40625-7.613281-7.609376-7.613281-4.207031 0-7.613281 3.40625-7.613281 7.613281v9.320313h-18.691406v-9.320313c0-4.207031-3.410156-7.613281-7.613281-7.613281s-7.609375 3.40625-7.609375 7.613281v9.320313h-18.691407v-9.320313c0-4.207031-3.410156-7.613281-7.613281-7.613281s-7.609375 3.40625-7.609375 7.613281v9.320313h-18.695312v-9.320313c0-4.207031-3.40625-7.613281-7.609375-7.613281s-7.613281 3.40625-7.613281 7.613281v9.320313h-18.691407v-9.320313c0-4.207031-3.40625-7.613281-7.609375-7.613281s-7.613281 3.40625-7.613281 7.613281v9.320313h-18.691406v-9.320313c0-4.207031-3.40625-7.613281-7.609375-7.613281-4.207032 0-7.613282 3.40625-7.613282 7.613281v9.320313h-18.695312v-9.320313c0-4.207031-3.410156-7.613281-7.613281-7.613281s-7.609375 3.40625-7.609375 7.613281v9.320313h-11.46875c-4.203125 0-7.613282 3.410156-7.613282 7.613281s3.410157 7.609375 7.613282 7.609375h411.222656c4.203125 0 7.613281-3.40625 7.613281-7.609375s-3.410156-7.613281-7.613281-7.613281zm0 0" fill="#bbbbbf"/><path d="m430.824219 451.753906h-325.972657c-4.203124 0-7.613281 3.410156-7.613281 7.613282 0 4.203124 3.410157 7.609374 7.613281 7.609374h325.972657c4.203125 0 7.609375-3.40625 7.609375-7.609374 0-4.203126-3.40625-7.613282-7.609375-7.613282zm0 0" fill="#ebebf0"/><path d="m496.792969 93.753906h-488.679688c-4.207031 0-7.613281 3.40625-7.613281 7.609375s3.40625 7.613281 7.613281 7.613281h488.679688c4.203125 0 7.609375-3.410156 7.609375-7.613281s-3.40625-7.609375-7.609375-7.609375zm0 0" fill="#4c585e"/><path d="m125.328125 457.949219c0-29.851563-24.195313-54.054688-54.042969-54.054688s-54.042968 24.203125-54.042968 54.054688c0 29.851562 24.195312 54.050781 54.042968 54.050781s54.042969-24.199219 54.042969-54.050781zm0 0" fill="#4c585e"/><path d="m157.375 244.125c-3.894531-1.578125-8.335938.300781-9.914062 4.195312l-83.359376 205.820313c-1.578124 3.894531.300782 8.332031 4.195313 9.910156.9375.382813 1.902344.558594 2.855469.558594 3.007812 0 5.855468-1.792969 7.058594-4.753906l83.363281-205.820313c1.574219-3.894531-.304688-8.332031-4.199219-9.910156zm0 0" fill="#ebebf0"/><path d="m457.761719 496.296875-97.261719-243.878906c-1.554688-3.902344-5.980469-5.804688-9.886719-4.25-3.90625 1.558593-5.808593 5.984375-4.253906 9.890625l97.265625 243.878906c1.1875 2.980469 4.046875 4.792969 7.070312 4.792969.9375 0 1.894532-.175781 2.816407-.542969 3.90625-1.558594 5.808593-5.984375 4.25-9.890625zm0 0" fill="#ebebf0"/><g fill="#4c585e"><path d="m352.226562 279.6875c14.207032 1.675781 25.140626-12.296875 20.097657-25.691406l-12.15625-32.257813c-2.515625-6.675781-8.542969-11.390625-15.625-12.226562-14.207031-1.675781-25.140625 12.296875-20.097657 25.691406l12.15625 32.257813c2.515626 6.675781 8.539063 11.390624 15.625 12.226562zm0 0"/><path d="m446.710938 510.742188c11.640624 2.144531 21.414062-8.816407 17.960937-20.140626l-4.507813-12.621093-29.460937 10.683593 3.757813 11.152344c1.722656 5.644532 6.445312 9.859375 12.25 10.925782zm0 0"/><path d="m152.679688 279.6875c-14.210938 1.675781-25.144532-12.296875-20.097657-25.691406l12.152344-32.257813c2.515625-6.675781 8.542969-11.390625 15.625-12.226562 14.210937-1.675781 25.144531 12.296875 20.097656 25.691406l-12.15625 32.257813c-2.511719 6.675781-8.539062 11.390624-15.621093 12.226562zm0 0"/></g><path d="m447.445312 59.023438c0 107.710937-87.300781 195.023437-194.992187 195.023437s-194.996094-87.3125-194.996094-195.023437zm0 0" fill="#7f8a91"/><path d="m402.789062 59.023438c0 100.15625-75.488281 182.664062-172.664062 193.746093 7.328125.835938 14.773438 1.277344 22.328125 1.277344 107.691406 0 194.992187-87.3125 194.992187-195.023437zm0 0" fill="#6b7c85"/><path d="m456.417969 59.324219h-407.933594c-9.359375 0-16.945313-7.585938-16.945313-16.949219v-1.453125c0-9.359375 7.585938-16.949219 16.945313-16.949219h407.933594c9.359375 0 16.945312 7.589844 16.945312 16.949219v1.453125c.003907 9.363281-7.585937 16.949219-16.945312 16.949219zm0 0" fill="#4c585e"/><path d="m123.644531 326.902344h257.617188c0 18.710937-15.1875 33.878906-33.925781 33.878906h-190.253907c-18.65625 0-33.707031-15.246094-33.4375-33.878906zm0 0" fill="#7f8a91"/></svg>
