<svg xmlns="http://www.w3.org/2000/svg" id="Layer_1" enable-background="new 0 0 497 497" height="512" viewBox="0 0 497 497" width="512"><g clip-rule="evenodd" fill-rule="evenodd"><path d="m91.147 224.396c-50.341 0-91.147 40.535-91.147 90.552s40.806 90.552 91.147 90.552c41.178 0 75.97-27.1 87.281-64.312l-37.742-1.833c-9.049 18.076-27.834 30.509-49.54 30.509-30.526 0-55.267-24.579-55.267-54.916s24.741-54.916 55.267-54.916c4.267 0 8.419.487 12.399 1.404 16.58 3.753 30.325 14.954 37.513 29.85l37.37-2.578c-8.791-28.876-31.671-51.65-60.736-60.416-8.39-2.55-17.295-3.896-26.545-3.896z" fill="#838383"/><path d="m91.147 260.032c-30.526 0-55.267 24.579-55.267 54.916s24.741 54.916 55.267 54.916c21.706 0 40.491-12.433 49.54-30.509l.372-48.069c-7.188-14.896-20.933-26.097-37.513-29.85-3.98-.917-8.132-1.404-12.399-1.404z" fill="#ececec"/><path d="m178.429 288.708c-8.791-28.876-31.671-51.65-60.736-60.416-8.218-2.492-16.952-3.839-25.973-3.896 8.19 2.406 15.95 6.044 23.08 10.714 18.842 12.318 33.418 31.855 40.634 55.202z" fill="#595959"/><path d="m178.429 341.188-19.157-.945c-3.007 20.712-11.569 39.332-23.939 53.942 20.502-11.316 36.194-30.28 43.096-52.997z" fill="#595959"/><path d="m374.726 229.81c-35.021 12.633-60.049 45.978-60.049 85.138 0 50.017 40.806 90.552 91.147 90.552 50.37 0 91.176-40.535 91.176-90.552s-40.806-90.552-91.176-90.552c-10.91 0-21.391 1.891-31.098 5.414z" fill="#838383"/><path d="m386.953 263.327c-21.219 7.649-36.396 27.873-36.396 51.621 0 30.337 24.741 54.916 55.267 54.916s55.295-24.579 55.295-54.916-24.77-54.916-55.295-54.916c-6.615 0-12.972 1.175-18.871 3.295z" fill="#ececec"/><path d="m497 314.948c0-48.527-38.429-88.146-86.737-90.466 38.028 10.914 65.833 45.749 65.833 87.028 0 50.017-40.806 90.552-91.147 90.552-1.489 0-2.978-.029-4.439-.086 8.047 2.292 16.551 3.524 25.314 3.524 50.37 0 91.176-40.535 91.176-90.552z" fill="#595959"/></g><path d="m352.849 177.555h-210.244c-4.175 0-7.559-3.384-7.559-7.559s3.384-7.559 7.559-7.559h210.243c4.175 0 7.559 3.384 7.559 7.559s-3.384 7.559-7.558 7.559z" fill="#444"/><path d="m241.059 291.941c-2.142 0-4.27-.905-5.765-2.665l-98.449-115.875c-2.703-3.182-2.315-7.952.866-10.655 3.184-2.703 7.954-2.315 10.655.867l98.449 115.875c2.703 3.181 2.315 7.952-.866 10.655-1.422 1.207-3.161 1.798-4.89 1.798z" fill="#444"/><path d="m252.792 291.139c-1.775 0-3.557-.622-4.993-1.887-3.133-2.76-3.436-7.536-.676-10.669l100.054-113.583c2.759-3.132 7.536-3.434 10.668-.676 3.133 2.76 3.436 7.536.676 10.669l-100.054 113.584c-1.493 1.695-3.579 2.562-5.675 2.562z" fill="#444"/><path d="m83.717 315.291c-.99 0-1.997-.196-2.966-.61-3.839-1.64-5.622-6.082-3.981-9.921l58.277-136.311v-41.48c0-4.175 3.384-7.559 7.559-7.559s7.559 3.384 7.559 7.559v43.027c0 1.021-.206 2.031-.607 2.97l-58.886 137.734c-1.227 2.87-4.019 4.591-6.955 4.591z" fill="#444"/><path d="m405.825 322.509c-3.085 0-5.98-1.901-7.101-4.966l-52.976-144.952c-.304-.832-.459-1.709-.459-2.595v-53.884c0-15.038 9.576-16.296 19.385-16.296h42.438c18.427 0 33.417 15.008 33.417 33.456 0 18.432-14.99 33.427-33.417 33.427-4.175 0-7.559-3.384-7.559-7.559s3.384-7.559 7.559-7.559c10.09 0 18.3-8.213 18.3-18.309 0-10.111-8.21-18.337-18.3-18.337h-42.438c-2.055 0-3.386.058-4.247.132-.013.292-.021.638-.021 1.046v52.546l52.517 143.695c1.434 3.921-.584 8.261-4.505 9.694-.855.312-1.731.461-2.593.461z" fill="#444"/><path clip-rule="evenodd" d="m176.395 101.301-49.053-9.224c-36.253-6.818-42.696 49.014-2.348 49.014h17.611 30.325c33.361.001 31.299-34.576 3.465-39.79z" fill="#ececec" fill-rule="evenodd"/><path clip-rule="evenodd" d="m172.931 141.092c33.361 0 31.299-34.576 3.465-39.79l-9.736-1.833c15.893 8.795 18.9 31.54 5.784 41.624h.487z" fill="#cecece" fill-rule="evenodd"/><path clip-rule="evenodd" d="m178.429 288.708-37.37 2.578-45.015 3.122c-2.634.172-5.011.659-7.188 1.375-21.82 7.419-19.501 40.105 6.357 41.366l45.473 2.206 37.742 1.833 75.713 3.667c45.989 2.234 43.125-64.34-1.346-61.275l-11.741.802z" fill="#ffd659" fill-rule="evenodd"/><path clip-rule="evenodd" d="m238.793 331.162-57.472-2.779-18.241-.888-17.897-.888-4.41-.201-15.435-.745-45.473-2.206c-1.718-.086-3.322-.315-4.839-.659 2.405 7.563 9.163 13.808 20.188 14.352l45.473 2.206 18.585.888 19.157.945 75.713 3.667c39.918 1.948 43.011-47.983 14.06-59.184 9.936 18.679.801 46.953-29.409 45.492z" fill="#ffbf00" fill-rule="evenodd"/></svg>
