<svg width="512" height="512" viewBox="0 0 512 512" fill="none" xmlns="http://www.w3.org/2000/svg">
<path d="M44.7107 512H26.1437C22.5047 512 19.5537 509.05 19.5537 505.41V262.915H51.2997V505.41C51.2997 509.05 48.3497 512 44.7107 512Z" fill="#D3A584"/>
<path d="M485.856 512H467.289C463.65 512 460.699 509.05 460.699 505.41V262.915H492.445V505.41C492.446 509.05 489.496 512 485.856 512Z" fill="#D3A584"/>
<path d="M503.191 285.398H8.80892C4.17592 285.398 0.419922 281.642 0.419922 277.009V257.8C0.419922 253.167 4.17592 249.411 8.80892 249.411H503.192C507.825 249.411 511.581 253.167 511.581 257.8V277.009C511.58 281.642 507.824 285.398 503.191 285.398Z" fill="#B4D1D6"/>
<path d="M172.327 403.61H135.65L128.846 336.348H179.131L172.327 403.61Z" fill="#6F6571"/>
<path d="M376.824 403.61H340.147L333.343 336.348H383.628L376.824 403.61Z" fill="#6F6571"/>
<path d="M176.834 475.999H161.562V396.264C161.562 391.997 158.104 388.538 153.836 388.538C149.569 388.538 146.11 391.996 146.11 396.264V475.999H131.143C114.48 475.999 99.5252 485.918 93.0432 501.267C91.3832 505.198 93.2242 509.73 97.1542 511.39C101.084 513.05 105.617 511.21 107.277 507.279C111.338 497.663 120.705 491.45 131.143 491.45H176.833C187.271 491.45 196.638 497.663 200.699 507.279C202.361 511.216 206.896 513.047 210.822 511.39C214.752 509.73 216.593 505.198 214.933 501.267C208.452 485.918 193.496 475.999 176.834 475.999V475.999Z" fill="#89808C"/>
<path d="M419.431 501.268C412.95 485.917 397.995 475.998 381.332 475.998H366.059V396.851C366.059 392.584 362.601 389.125 358.333 389.125C354.065 389.125 350.607 392.583 350.607 396.851V475.998H335.64C318.977 475.998 304.022 485.917 297.54 501.266C295.88 505.197 297.721 509.729 301.651 511.389C305.58 513.049 310.114 511.209 311.774 507.278C315.835 497.662 325.202 491.449 335.64 491.449H381.331C391.769 491.449 401.136 497.662 405.196 507.277C406.863 511.227 411.407 513.042 415.318 511.389C419.25 509.73 421.091 505.199 419.431 501.268V501.268Z" fill="#89808C"/>
<path d="M159.285 333.387L177.416 253.039C184.356 222.282 160.97 193.031 129.44 193.031H116.562C85.032 193.031 61.646 222.282 68.586 253.039L86.717 333.387C89.847 347.257 102.168 357.108 116.387 357.108H129.615C143.834 357.108 156.155 347.257 159.285 333.387V333.387Z" fill="#FF0435"/>
<path d="M363.308 333.387L381.439 253.039C388.379 222.282 364.993 193.031 333.463 193.031H320.585C289.055 193.031 265.669 222.282 272.609 253.039L290.74 333.387C293.87 347.257 306.191 357.108 320.41 357.108H333.638C347.857 357.108 360.178 347.257 363.308 333.387V333.387Z" fill="#FF0435"/>
<path d="M395.438 193.031H330.27C361.8 193.031 385.186 222.282 378.246 253.039L360.115 333.387C356.985 347.257 344.664 357.108 330.445 357.108H395.614C409.833 357.108 422.155 347.257 425.284 333.387L443.415 253.039C450.355 222.282 426.968 193.031 395.438 193.031V193.031Z" fill="#E80A35"/>
<path d="M191.415 193.031H126.246C157.776 193.031 181.162 222.282 174.222 253.039L156.091 333.387C152.961 347.257 140.64 357.108 126.421 357.108H191.59C205.809 357.108 218.131 347.257 221.26 333.387L239.391 253.039C246.332 222.282 222.945 193.031 191.415 193.031V193.031Z" fill="#E80A35"/>
<path d="M74.016 85.9354C69.749 85.9354 66.29 82.4774 66.29 78.2094V18.9584C66.29 14.6914 69.748 11.2324 74.016 11.2324C78.283 11.2324 81.742 14.6904 81.742 18.9584V78.2104C81.742 82.4764 78.284 85.9354 74.016 85.9354Z" fill="#FFE69F"/>
<path d="M256 85.9354C251.733 85.9354 248.274 82.4774 248.274 78.2094V18.9584C248.274 14.6914 251.732 11.2324 256 11.2324C260.268 11.2324 263.726 14.6904 263.726 18.9584V78.2104C263.726 82.4764 260.267 85.9354 256 85.9354Z" fill="#FFE69F"/>
<path d="M437.984 85.9354C433.717 85.9354 430.258 82.4774 430.258 78.2094V18.9584C430.258 14.6914 433.716 11.2324 437.984 11.2324C442.251 11.2324 445.71 14.6904 445.71 18.9584V78.2104C445.709 82.4764 442.251 85.9354 437.984 85.9354Z" fill="#FFE69F"/>
<path d="M447.904 14.495V1.663L446.81 0H14.516C6.511 0 0.0209961 6.489 0.0209961 14.495C0.0209961 22.5 6.51 28.99 14.516 28.99H433.41C441.415 28.989 447.904 22.5 447.904 14.495V14.495Z" fill="#E0DDE0"/>
<path d="M497.484 0H446.81V14.495C446.81 22.5 440.321 28.99 432.315 28.99H497.484C505.489 28.99 511.979 22.501 511.979 14.495C511.979 6.489 505.489 0 497.484 0Z" fill="#D1CCD3"/>
<path d="M91.99 111.239H56.043V76.9769C56.043 67.0509 64.09 59.0039 74.016 59.0039C83.942 59.0039 91.989 67.0509 91.989 76.9769V111.239H91.99Z" fill="#E2A700"/>
<path d="M74.0169 88.6797C49.3699 88.6797 29.2159 107.918 27.7529 132.197C27.6599 133.735 28.9069 135.028 30.4479 135.028H117.585C119.126 135.028 120.373 133.735 120.28 132.197C118.817 107.918 98.6639 88.6797 74.0169 88.6797Z" fill="#FFCE00"/>
<path d="M273.973 111.239H238.026V76.9769C238.026 67.0509 246.073 59.0039 255.999 59.0039C265.925 59.0039 273.972 67.0509 273.972 76.9769V111.239H273.973Z" fill="#E2A700"/>
<path d="M256 88.6797C231.353 88.6797 211.199 107.918 209.736 132.197C209.643 133.735 210.89 135.028 212.431 135.028H299.568C301.109 135.028 302.356 133.735 302.263 132.197C300.801 107.918 280.647 88.6797 256 88.6797V88.6797Z" fill="#FFCE00"/>
<path d="M455.957 111.239H420.01V76.9769C420.01 67.0509 428.057 59.0039 437.983 59.0039C447.909 59.0039 455.956 67.0509 455.956 76.9769V111.239H455.957Z" fill="#E2A700"/>
<path d="M437.983 88.6797C413.336 88.6797 393.182 107.918 391.719 132.197C391.626 133.735 392.873 135.028 394.414 135.028H481.551C483.092 135.028 484.339 133.735 484.246 132.197C482.784 107.918 462.63 88.6797 437.983 88.6797Z" fill="#FFCE00"/>
<path d="M161.388 413.96V407.171C161.388 396.841 153.014 388.467 142.685 388.467H106.239C94.0351 388.467 84.1411 398.361 84.1411 410.565C84.1411 416.156 88.6731 420.689 94.2651 420.689H154.66C158.375 420.688 161.388 417.676 161.388 413.96V413.96Z" fill="#FF0435"/>
<path d="M365.411 413.96V407.171C365.411 396.841 357.037 388.467 346.708 388.467H310.736C298.532 388.467 288.638 398.361 288.638 410.565C288.638 416.156 293.171 420.689 298.762 420.689H358.683C362.398 420.688 365.411 417.676 365.411 413.96V413.96Z" fill="#FF0435"/>
<path d="M405.288 388.467H343.514C353.844 388.467 362.217 396.841 362.217 407.171V413.96C362.217 417.676 359.204 420.689 355.488 420.689H417.262C422.853 420.689 427.386 416.157 427.386 410.565C427.386 398.36 417.492 388.467 405.288 388.467V388.467Z" fill="#FF0435"/>
<path d="M201.265 388.467H139.491C149.821 388.467 158.194 396.841 158.194 407.171V413.96C158.194 417.676 155.181 420.689 151.465 420.689H213.239C218.83 420.689 223.363 416.157 223.363 410.565C223.363 398.36 213.469 388.467 201.265 388.467V388.467Z" fill="#FF0435"/>
</svg>
