<svg width="512" height="512" viewBox="0 0 512 512" fill="none" xmlns="http://www.w3.org/2000/svg">
<path d="M72.852 108.261C68.585 108.261 65.126 104.802 65.126 100.535V46.6254C65.126 42.3584 68.585 38.8994 72.852 38.8994C77.119 38.8994 80.578 42.3584 80.578 46.6254V100.534C80.578 104.801 77.119 108.261 72.852 108.261Z" fill="#1B998B"/>
<path d="M85.6009 108.269C85.0749 108.269 84.5419 108.215 84.0069 108.103C79.8299 107.227 77.1549 103.131 78.0309 98.9553L87.0069 56.1663C87.8839 51.9893 91.9869 49.3153 96.1549 50.1903C100.332 51.0663 103.007 55.1623 102.131 59.3383L93.1549 102.127C92.3909 105.769 89.1789 108.269 85.6009 108.269Z" fill="#00A553"/>
<path d="M63.1798 108.27C59.9738 108.27 56.9778 106.259 55.8748 103.058L44.3038 69.462C42.9148 65.427 45.0588 61.03 49.0928 59.641C53.1288 58.254 57.5248 60.396 58.9138 64.43L70.4848 98.026C71.8738 102.061 69.7298 106.458 65.6958 107.847C64.8638 108.133 64.0148 108.27 63.1798 108.27Z" fill="#00A553"/>
<path d="M97.4571 108.837C96.3521 108.837 95.2301 108.599 94.1641 108.096C90.3051 106.275 88.6531 101.67 90.4741 97.8109L100.839 75.8489C102.66 71.9889 107.264 70.3379 111.124 72.1589C114.983 73.9799 116.635 78.5849 114.814 82.4439L104.449 104.406C103.131 107.2 100.353 108.837 97.4571 108.837Z" fill="#1B998B"/>
<path d="M107.787 105.515L103.625 137.935C103.532 138.646 103.398 139.346 103.223 140.016C102.337 143.539 100.411 146.609 97.7939 148.917C94.6729 151.657 90.5829 153.306 86.1529 153.306H73.2959C65.1469 153.306 58.1629 147.743 56.2259 140.017C56.0509 139.347 55.9169 138.647 55.8239 137.936L51.6719 105.516C51.1469 101.54 54.2469 98.0156 58.2549 98.0156H101.193C105.201 98.0156 108.302 101.539 107.787 105.515Z" fill="#DFEBEF"/>
<path d="M103.223 140.016C102.337 143.539 100.411 146.609 97.7941 148.917C94.6731 151.657 90.5831 153.306 86.1531 153.306H73.2961C65.1471 153.306 58.1631 147.743 56.2261 140.017L103.223 140.016Z" fill="#AECBCE"/>
<path d="M460.492 150.978H420.315V57.2166C420.315 52.6646 424.005 48.9756 428.556 48.9756H452.25C456.802 48.9756 460.491 52.6656 460.491 57.2166V150.978H460.492Z" fill="#D72D33"/>
<path d="M460.49 137.59H420.31V150.982H460.49V137.59Z" fill="#B70000"/>
<path d="M434.317 57.2156V150.983H420.317V57.2156C420.317 52.6626 424.005 48.9746 428.558 48.9746H432.679C433.74 51.5186 434.317 54.3006 434.317 57.2156Z" fill="#B70000"/>
<path d="M420.306 150.978H380.129V57.2166C380.129 52.6646 383.819 48.9756 388.37 48.9756H412.064C416.616 48.9756 420.305 52.6656 420.305 57.2166V150.978H420.306Z" fill="#FF3C63"/>
<path d="M420.32 137.59H380.14V150.982H420.32V137.59Z" fill="#D72D33"/>
<path d="M491.026 462.146C489.924 469.038 483.403 474.096 476.109 472.932C470.659 472.067 466.353 467.853 465.354 462.434L430.894 276.394L421.695 226.698L418.058 207.073L414.875 189.869C413.474 182.359 418.79 175.282 426.403 174.53L447.645 172.418L449.592 172.222C456.752 171.511 463.129 176.745 463.85 183.915L466.147 207.074L468.486 230.675L491.119 458.778C491.242 459.931 491.201 461.064 491.026 462.146Z" fill="#D3A584"/>
<path d="M447.645 172.418V254.214C447.645 264.742 440.557 273.654 430.894 276.394L421.695 226.698L418.058 207.073L414.875 189.869C413.474 182.359 418.79 175.282 426.403 174.53L447.645 172.418Z" fill="#B28769"/>
<path d="M466.147 207.076H418.062L414.872 189.868C413.473 182.362 418.794 175.282 426.399 174.528L449.595 172.223C456.751 171.513 463.132 176.746 463.853 183.914L466.147 207.076Z" fill="#B28769"/>
<path d="M90.875 189.868L87.685 207.076L84.058 226.699L40.398 462.436C39.393 467.855 35.088 472.062 29.636 472.936C22.348 474.094 15.826 469.036 14.722 462.141C14.547 461.059 14.503 459.934 14.624 458.776L37.263 230.676L39.601 207.076L41.895 183.913C42.616 176.746 48.997 171.512 56.153 172.222L79.349 174.527C86.953 175.282 92.274 182.362 90.875 189.868Z" fill="#D3A584"/>
<path d="M90.8751 189.868L87.6851 207.076H39.6001L41.8941 183.913C42.6151 176.746 48.9961 171.512 56.1521 172.222L79.3481 174.527C86.9531 175.282 92.2741 182.362 90.8751 189.868Z" fill="#B28769"/>
<path d="M434.252 171.81V254.214C434.252 259.561 429.915 263.898 424.568 263.898H281.126C275.769 263.898 271.432 259.561 271.432 254.214V171.81H298.443V239.812H407.24V171.81H434.252Z" fill="#DFEBEF"/>
<path d="M434.25 171.81H407.24V207.06H434.25V171.81Z" fill="#AECBCE"/>
<path d="M298.44 171.81H271.43V207.06H298.44V171.81Z" fill="#AECBCE"/>
<path d="M503.881 193.674H8.119C3.635 193.674 0 190.039 0 185.555V158.072C0 153.588 3.635 149.953 8.119 149.953H503.881C508.365 149.953 512 153.588 512 158.072V185.555C512 190.039 508.365 193.674 503.881 193.674Z" fill="#DFEBEF"/>
</svg>
