<svg xmlns="http://www.w3.org/2000/svg" xmlns:xlink="http://www.w3.org/1999/xlink" version="1.1" id="Layer_1" x="0px" y="0px" viewBox="0 0 512 512" style="enable-background:new 0 0 512 512;" xml:space="preserve">
<rect x="44.915" y="141.858" style="fill:#E6E6E6;" width="422.182" height="308.231"/>
<rect x="44.915" y="141.858" style="fill:#CCCCCC;" width="24.169" height="308.231"/>
<path style="fill:#E09B2D;" d="M126.232,224.866v216.877H385.78V224.866H126.232z"/>
<path style="fill:#F7B239;" d="M362.23,310.743c0,58.66-47.564,106.212-106.224,106.212s-106.224-47.552-106.224-106.212  c0-35.301,17.216-66.566,43.706-85.877h125.047C345.026,244.177,362.23,275.454,362.23,310.743z"/>
<g>
	<path style="fill:#F95428;" d="M186.797,55.958c3.25,3.262,4.881,7.525,4.881,11.787c0,4.262-1.631,8.525-4.881,11.787   c-3.25,3.262-7.513,4.881-11.787,4.881c-4.262,0-8.536-1.619-11.787-4.881c-6.501-6.513-6.501-17.061,0-23.574l11.787-11.787   L186.797,55.958z"/>
	<path style="fill:#F95428;" d="M122.505,11.787c3.25,3.262,4.881,7.525,4.881,11.787s-1.631,8.525-4.881,11.787   c-3.25,3.262-7.513,4.881-11.787,4.881c-4.262,0-8.537-1.619-11.787-4.881c-6.501-6.513-6.501-17.061,0-23.574L110.719,0   L122.505,11.787z"/>
</g>
<g>
	<path style="fill:#E54728;" d="M171.161,55.958l7.817-7.819l-3.968-3.968l-11.787,11.787c-6.501,6.513-6.501,17.061,0,23.574   c3.25,3.262,7.525,4.881,11.787,4.881c1.336,0,2.668-0.177,3.971-0.494c-2.865-0.698-5.586-2.144-7.821-4.387   C164.661,73.019,164.661,62.47,171.161,55.958z"/>
	<path style="fill:#E54728;" d="M106.869,11.787l7.817-7.817L110.719,0L98.932,11.787c-6.501,6.513-6.501,17.061,0,23.574   c3.25,3.262,7.525,4.881,11.787,4.881c1.336,0,2.668-0.177,3.971-0.495c-2.865-0.698-5.586-2.144-7.821-4.387   C100.369,28.848,100.369,18.299,106.869,11.787z"/>
</g>
<rect x="156.562" y="96.711" style="fill:#F7B239;" width="36.908" height="45.147"/>
<rect x="156.562" y="96.711" style="fill:#E09B2D;" width="11.942" height="45.147"/>
<rect x="92.27" y="51.552" style="fill:#F7B239;" width="36.908" height="90.306"/>
<rect x="92.27" y="51.552" style="fill:#E09B2D;" width="12.537" height="90.306"/>
<g>
	<polygon style="fill:#CCCCCC;" points="467.097,182.207 467.097,206.304 44.915,206.304 44.915,182.207 92.265,182.207    129.173,182.207 156.556,182.207 193.464,182.207 227.539,182.207 449.583,182.207  "/>
	<polygon style="fill:#CCCCCC;" points="467.097,140.537 467.097,164.633 44.915,164.633 44.915,140.537 92.265,140.537    129.173,140.537 156.556,140.537 193.464,140.537 227.539,140.537 449.583,140.537  "/>
</g>
<path style="fill:#F95428;" d="M245.41,249.285c0,0,74.531,39.325,67.28,100.402C310.475,368.32,299.129,381,284.39,388  c-4.191,1.976-8.953-1.464-8.334-6.06c0.262-1.905,0.405-4.024,0.405-6.382c0-18.633-21.49-22.752-22.764-48.647  c-28.324,19.097-23.538,41.551-16.311,55.35c2.465,4.703-2.084,10.06-7.096,8.286c-17.525-6.203-30.991-19.621-31.455-39.825  C197.798,305.171,245.41,316.565,245.41,249.285z"/>
<g>
	<path style="fill:#999999;" d="M474.657,191.732H37.343c-4.933,0-8.929-3.998-8.929-8.929s3.997-8.929,8.929-8.929h437.316   c4.933,0,8.929,3.998,8.929,8.929S479.59,191.732,474.657,191.732z"/>
	<path style="fill:#999999;" d="M474.657,150.788H37.343c-4.933,0-8.929-3.998-8.929-8.929c0-4.931,3.997-8.929,8.929-8.929h437.316   c4.933,0,8.929,3.998,8.929,8.929C483.588,146.79,479.59,150.788,474.657,150.788z"/>
</g>
<polygon style="fill:#666666;" points="385.775,405.753 126.228,405.753 126.228,421.231 152.421,421.231 152.421,443.531   167.899,443.531 167.899,421.231 216.315,421.231 216.315,443.531 231.793,443.531 231.793,421.231 280.211,421.231   280.211,443.531 295.688,443.531 295.688,421.231 344.106,421.231 344.106,443.531 359.583,443.531 359.583,421.231   385.775,421.231 "/>
<path style="fill:#999999;" d="M392.328,461.4H119.684V218.318h272.644V461.4z M132.78,448.304h246.451V231.414H132.78  C132.78,231.414,132.78,448.304,132.78,448.304z"/>
<polygon style="fill:#CCCCCC;" points="498.255,441.743 498.255,512 13.745,512 13.745,441.743 44.915,441.743 126.232,441.743   385.78,441.743 467.097,441.743 "/>
<path style="fill:#E09B2D;" d="M449.583,110.308v23.216H227.539v-23.216c25.621,0,46.397-20.776,46.397-46.397v-9.572h129.238v9.572  c0,12.811,5.191,24.407,13.597,32.813C425.176,105.117,436.773,110.308,449.583,110.308z"/>
<path style="fill:#F2F2F2;" d="M373.898,43.623c1.405,3.929,2.167,8.179,2.167,12.596c0,20.716-16.787,37.503-37.503,37.503  c-20.704,0-37.492-16.787-37.492-37.503c0-4.417,0.762-8.667,2.167-12.596c5.179-14.513,19.037-24.895,35.325-24.895  C354.86,18.728,368.719,29.11,373.898,43.623z"/>
<path style="fill:#E6E6E6;" d="M316.348,56.22c0-4.417,0.762-8.667,2.167-12.596c4.346-12.179,14.812-21.421,27.687-24.088  c-2.47-0.512-5.02-0.807-7.642-0.807c-16.287,0-30.146,10.382-35.325,24.895c-1.405,3.929-2.167,8.179-2.167,12.596  c0,20.716,16.787,37.503,37.492,37.503c2.618,0,5.174-0.27,7.641-0.781C329.16,89.414,316.348,74.316,316.348,56.22z"/>
<path style="fill:#F7B239;" d="M338.561,99.081c-23.627,0-42.849-19.227-42.849-42.861c0-4.952,0.833-9.795,2.479-14.397l0,0  c6.073-17.018,22.297-28.453,40.37-28.453c18.081,0,34.309,11.434,40.382,28.453c1.644,4.596,2.479,9.441,2.479,14.397  C381.422,79.854,362.194,99.081,338.561,99.081z M338.561,24.086c-13.557,0-25.724,8.576-30.279,21.338  c0,0.001-0.001,0.002-0.001,0.002c-1.23,3.443-1.855,7.073-1.855,10.793c0,17.725,14.414,32.146,32.134,32.146  c17.725,0,32.146-14.42,32.146-32.146c0-3.722-0.624-7.353-1.855-10.791C364.297,32.661,352.124,24.086,338.561,24.086z   M303.237,43.623h0.012H303.237z"/>
<path style="fill:#333333;" d="M338.561,60.387c-2.301,0-4.167-1.866-4.167-4.167V38.456c0-2.301,1.866-4.167,4.167-4.167  s4.167,1.866,4.167,4.167V56.22C342.728,58.521,340.861,60.387,338.561,60.387z"/>
<rect x="227.545" y="110.177" style="fill:#B27214;" width="222.044" height="23.347"/>
<g>
</g>
<g>
</g>
<g>
</g>
<g>
</g>
<g>
</g>
<g>
</g>
<g>
</g>
<g>
</g>
<g>
</g>
<g>
</g>
<g>
</g>
<g>
</g>
<g>
</g>
<g>
</g>
<g>
</g>
</svg>
