<svg xmlns="http://www.w3.org/2000/svg" xmlns:xlink="http://www.w3.org/1999/xlink" version="1.1" id="Capa_1" x="0px" y="0px" viewBox="0 0 512 512" style="enable-background:new 0 0 512 512;" xml:space="preserve">
<path style="fill:#B3B3BA;" d="M408.639,467.467H256H103.361l-12.469,37.767c-1.1,3.332,1.382,6.765,4.891,6.765H256h160.217  c3.509,0,5.991-3.433,4.891-6.765L408.639,467.467z"/>
<path style="fill:#A0A0A5;" d="M416.217,512h-27.472c3.513,0,5.995-3.43,4.893-6.768l-12.464-37.762h27.462l12.474,37.762  C422.212,508.57,419.73,512,416.217,512z"/>
<path style="fill:#B3B3BA;" d="M403.863,346.333h51.306V77.167c0-10.24-8.301-18.541-18.541-18.541h-32.765V346.333z"/>
<path style="fill:#A0A0A5;" d="M429.516,346.333h25.653V77.167c0-10.24-8.301-18.541-18.541-18.541h-7.112V346.333z"/>
<path style="fill:#F74A4F;" d="M152.141,169.847H62.398c-8.295,0-15.082-6.787-15.082-15.082V123.19  c0-8.295,6.787-15.082,15.082-15.082h89.743c8.295,0,15.082,6.787,15.082,15.082v31.575  C167.223,163.061,160.436,169.847,152.141,169.847z"/>
<path style="fill:#7144D3;" d="M167.218,123.189v31.572c0,8.302-6.778,15.091-15.08,15.091H128.58v-61.743h23.558  C160.44,108.109,167.218,114.897,167.218,123.189z"/>
<path style="fill:#CD3F48;" d="M167.218,123.189v31.572c0,8.302-6.778,15.091-15.08,15.091H128.58v-61.743h23.558  C160.44,108.109,167.218,114.897,167.218,123.189z"/>
<polygon style="fill:#B3B3BA;" points="183.744,284.815 140.931,284.815 76.792,169.847 120.645,169.847 "/>
<path style="fill:#7D7878;" d="M426.507,313.808c-17.645-4.779-268.572-60.192-310.717-60.193  c-59.053,0-106.926,47.872-106.926,106.926S56.736,467.467,115.79,467.467c0,0,310.937,0,310.939,0  c55.246-0.001,90.268-56.331,71.129-106.412c-3.386-8.86-10.883-16.623-17.987-22.612  C464.832,325.764,445.228,318.879,426.507,313.808z"/>
<path style="fill:#666363;" d="M426.724,467.47H115.786c-40.265,0-75.329-22.26-93.551-55.14  c19.417,20.035,46.621,32.478,76.73,32.478h310.937c54.676,0,89.544-55.181,71.693-104.872c6.562,5.748,13.154,12.969,16.265,21.116  C516.999,411.135,481.977,467.47,426.724,467.47z"/>
<circle style="fill:#B3B3BA;" cx="140.801" cy="358.94" r="71.836"/>
<path style="fill:#A0A0A5;" d="M212.644,358.931c0,39.678-32.169,71.837-71.837,71.837c-4.924,0-9.734-0.494-14.38-1.442  c32.777-6.665,57.447-35.64,57.447-70.395c0-34.744-24.67-63.72-57.447-70.385c4.646-0.948,9.456-1.442,14.38-1.442  C180.475,287.104,212.644,319.263,212.644,358.931z"/>
<circle style="fill:#FFDB76;" cx="140.801" cy="358.94" r="38.518"/>
<g>
	<path style="fill:#F74A4F;" d="M138.869,377.141l89.047,35.292l11.257-29.951l-88.208-35.59   c-8.207-3.311-17.556,0.536-21.056,8.664l0,0C126.277,363.99,130.332,373.758,138.869,377.141z"/>
	<path style="fill:#F74A4F;" d="M243.485,432.168l-15.322-5.767c-2.662-1.002-4.008-3.972-3.006-6.634l17.113-45.469   c1.002-2.662,3.972-4.008,6.634-3.006l15.322,5.767c2.662,1.002,4.008,3.972,3.006,6.634l-17.113,45.469   C249.117,431.824,246.147,433.17,243.485,432.168z"/>
</g>
<path style="fill:#7D7878;" d="M376.674,191.353h-5.749c-34.819,0-63.146-28.327-63.146-63.146c0-9.153,2.044-18.377,5.911-26.675  l15.841-33.988c1.75-3.754,6.212-5.378,9.966-3.63c3.754,1.75,5.379,6.212,3.629,9.966l-15.841,33.988  c-2.948,6.327-4.507,13.36-4.507,20.339c0,26.548,21.599,48.146,48.146,48.146h2.44l50.611-55.443  c2.794-3.058,7.537-3.274,10.596-0.482s3.275,7.536,0.482,10.596l-52.842,57.887C380.793,190.466,378.782,191.353,376.674,191.353z"/>
<path style="fill:#F74A4F;" d="M375.078,138.965L375.078,138.965c8.344,0.282,16.186-3.974,20.497-11.123l56.016-92.894  c9.076-15.052-1.376-34.313-18.943-34.906l-0.855-0.029c-8.401-0.284-16.288,4.032-20.579,11.26l-55.16,92.923  C347.117,119.249,357.582,138.374,375.078,138.965z"/>
<path style="fill:#CD3F48;" d="M451.59,34.943l-56.015,92.902c-4.306,7.149-12.155,11.403-20.498,11.125  c-6.716-0.227-12.402-3.193-16.347-7.612c8.158,0.103,15.77-4.131,20.004-11.135l56.015-92.892  c5.604-9.291,3.76-20.189-2.606-27.307l0.505,0.021C450.21,0.631,460.665,19.894,451.59,34.943z"/>
<g>
</g>
<g>
</g>
<g>
</g>
<g>
</g>
<g>
</g>
<g>
</g>
<g>
</g>
<g>
</g>
<g>
</g>
<g>
</g>
<g>
</g>
<g>
</g>
<g>
</g>
<g>
</g>
<g>
</g>
</svg>
