<svg width="440" height="512" viewBox="0 0 440 512" fill="none" xmlns="http://www.w3.org/2000/svg">
<path d="M367.087 501.345C366.015 508.045 359.676 512.962 352.586 511.83C347.288 510.989 343.102 506.893 342.131 501.625L330.504 438.893L323.684 402.059H357.654L361.309 438.893L367.178 498.07C367.297 499.192 367.257 500.293 367.087 501.345Z" fill="#D3A584"/>
<path d="M361.308 438.893H330.503L323.683 402.058H357.653L361.308 438.893Z" fill="#B28769"/>
<path d="M116.317 402.058L109.497 438.892L97.8801 501.624C96.8991 506.892 92.7121 510.988 87.4151 511.839C80.3251 512.961 73.9851 508.043 72.9141 501.344C72.7441 500.292 72.7041 499.201 72.8241 498.069L78.6931 438.892L82.3481 402.058H116.317Z" fill="#D3A584"/>
<path d="M82.3469 402.058H116.317L109.497 438.893H78.6919L82.3469 402.058Z" fill="#B28769"/>
<path d="M352.69 317.97H87.2998V425.88H352.69V317.97Z" fill="#FFCE00"/>
<path d="M87.3042 317.969H109.677V417.866C109.677 420.7 109.116 423.404 108.085 425.878H87.3042C87.3042 425.878 87.3042 317.969 87.3042 317.969Z" fill="#E2A700"/>
<path d="M330.323 317.969H352.696V425.878H331.915C330.883 423.404 330.323 420.7 330.323 417.866V317.969Z" fill="#E2A700"/>
<path d="M365.094 58.967V300.523H74.9058V58.967C74.9058 26.399 101.305 0 133.873 0H306.127C338.695 0 365.094 26.399 365.094 58.967Z" fill="#FFCE00"/>
<path d="M159.517 113.892C155.25 113.892 151.791 110.433 151.791 106.166V76.9926C151.791 72.7256 155.25 69.2666 159.517 69.2666C163.784 69.2666 167.243 72.7256 167.243 76.9926V106.166C167.243 110.433 163.784 113.892 159.517 113.892Z" fill="#E2A700"/>
<path d="M159.517 172.574C155.25 172.574 151.791 169.115 151.791 164.848V135.675C151.791 131.408 155.25 127.949 159.517 127.949C163.784 127.949 167.243 131.408 167.243 135.675V164.848C167.243 169.115 163.784 172.574 159.517 172.574Z" fill="#E2A700"/>
<path d="M194.431 128.646H174.272C170.005 128.646 166.546 125.187 166.546 120.92C166.546 116.653 170.005 113.194 174.272 113.194H194.431C198.698 113.194 202.157 116.653 202.157 120.92C202.157 125.187 198.698 128.646 194.431 128.646Z" fill="#E2A700"/>
<path d="M144.762 128.646H124.603C120.336 128.646 116.877 125.187 116.877 120.92C116.877 116.653 120.336 113.194 124.603 113.194H144.762C149.029 113.194 152.488 116.653 152.488 120.92C152.488 125.187 149.029 128.646 144.762 128.646Z" fill="#E2A700"/>
<path d="M280.483 113.892C276.215 113.892 272.757 110.433 272.757 106.166V76.9926C272.757 72.7256 276.216 69.2666 280.483 69.2666C284.751 69.2666 288.209 72.7256 288.209 76.9926V106.166C288.209 110.433 284.75 113.892 280.483 113.892Z" fill="#E2A700"/>
<path d="M280.483 172.574C276.215 172.574 272.757 169.115 272.757 164.848V135.675C272.757 131.408 276.216 127.949 280.483 127.949C284.751 127.949 288.209 131.408 288.209 135.675V164.848C288.209 169.115 284.75 172.574 280.483 172.574Z" fill="#E2A700"/>
<path d="M315.397 128.646H295.238C290.97 128.646 287.512 125.187 287.512 120.92C287.512 116.653 290.971 113.194 295.238 113.194H315.397C319.665 113.194 323.123 116.653 323.123 120.92C323.124 125.187 319.665 128.646 315.397 128.646Z" fill="#E2A700"/>
<path d="M265.728 128.646H245.569C241.301 128.646 237.843 125.187 237.843 120.92C237.843 116.653 241.302 113.194 245.569 113.194H265.728C269.996 113.194 273.454 116.653 273.454 120.92C273.455 125.187 269.996 128.646 265.728 128.646Z" fill="#E2A700"/>
<path d="M109.677 233.163V300.522H74.9058V177.901C95.4558 187.816 109.677 208.857 109.677 233.163Z" fill="#E2A700"/>
<path d="M365.094 177.901V300.522H330.323V233.163C330.323 208.857 344.544 187.816 365.094 177.901Z" fill="#E2A700"/>
<path d="M352.69 317.97H87.2998V339.2H352.69V317.97Z" fill="#E2A700"/>
<path d="M365.094 274.004V300.523H74.9058V268.916L84.8308 267.003C92.2818 265.561 100.003 264.259 107.805 263.127C139.191 258.5 174.373 256.057 209.505 256.057C253.269 256.057 295.882 259.752 332.747 266.743C340.749 268.255 348.5 269.938 355.791 271.72L365.094 274.004Z" fill="#E2A700"/>
<path d="M352.696 284.369V326.181H87.3042V279.783C94.5652 278.381 102.036 277.119 109.677 276.007C179.6 265.712 263.614 266.884 330.322 279.532C338.024 280.994 345.505 282.606 352.696 284.369Z" fill="#FFE69F"/>
<path d="M109.677 276.007V326.181H87.3042V279.783C94.5652 278.38 102.036 277.118 109.677 276.007Z" fill="#E2A700"/>
<path d="M352.696 284.369V326.181H330.323V279.532C338.024 280.994 345.505 282.606 352.696 284.369Z" fill="#E2A700"/>
<path d="M88.6419 425.874H42.4899C19.0589 425.874 0.0649414 406.88 0.0649414 383.449V233.165C0.0649414 206.493 21.6869 184.871 48.3589 184.871C75.0309 184.871 96.6529 206.493 96.6529 233.165V417.862C96.6539 422.287 93.0669 425.874 88.6419 425.874Z" fill="#FFCE00"/>
<path d="M397.51 425.874H351.358C346.933 425.874 343.346 422.287 343.346 417.862V233.165C343.346 206.493 364.968 184.871 391.64 184.871C418.312 184.871 439.934 206.493 439.934 233.165V383.449C439.935 406.88 420.941 425.874 397.51 425.874Z" fill="#FFCE00"/>
<path d="M159.517 145.807C145.724 145.807 134.503 134.586 134.503 120.792C134.503 106.999 145.724 95.7783 159.517 95.7783C173.31 95.7783 184.532 106.999 184.532 120.792C184.531 134.586 173.31 145.807 159.517 145.807Z" fill="#E2A700"/>
<path d="M159.52 132.412C165.939 132.412 171.142 127.209 171.142 120.79C171.142 114.371 165.939 109.168 159.52 109.168C153.101 109.168 147.898 114.371 147.898 120.79C147.898 127.209 153.101 132.412 159.52 132.412Z" fill="#FFE69F"/>
<path d="M280.483 145.807C266.69 145.807 255.469 134.586 255.469 120.792C255.469 106.999 266.69 95.7783 280.483 95.7783C294.277 95.7783 305.498 106.999 305.498 120.792C305.498 134.586 294.277 145.807 280.483 145.807Z" fill="#E2A700"/>
<path d="M280.48 132.412C286.899 132.412 292.102 127.209 292.102 120.79C292.102 114.371 286.899 109.168 280.48 109.168C274.061 109.168 268.858 114.371 268.858 120.79C268.858 127.209 274.061 132.412 280.48 132.412Z" fill="#FFE69F"/>
</svg>
