<svg width="512" height="512" viewBox="0 0 512 512" fill="none" xmlns="http://www.w3.org/2000/svg">
<path d="M477.849 456.123V502.945C477.849 507.941 473.79 512 468.794 512H43.2059C38.2099 512 34.1509 507.941 34.1509 502.945V456.123H477.849Z" fill="#D3A584"/>
<path d="M477.85 456.12H34.1499V497.41H477.85V456.12Z" fill="#B28769"/>
<path d="M443.936 9.055V467.403H68.064V9.055C68.064 4.059 72.123 0 77.119 0H434.88C439.877 0 443.936 4.059 443.936 9.055Z" fill="#D3A584"/>
<path d="M443.93 414.75H68.0601V467.403H443.93V414.75Z" fill="#B28769"/>
<path d="M410.59 34.6553H101.41V436.135H410.59V34.6553Z" fill="#95B6BA"/>
<path d="M397.19 48.0498H114.8V422.75H397.19V48.0498Z" fill="#B4D1D6"/>
<path d="M410.59 414.75H101.41V436.137H410.59V414.75Z" fill="#95B6BA"/>
<path d="M410.59 203.82H101.41V265.27H410.59V203.82Z" fill="#95B6BA"/>
<path d="M410.592 191.865V247.441L197.82 34.6572H253.385L410.592 191.865Z" fill="#DFEBEF"/>
<path d="M410.592 294.47V350.035L101.408 40.8612V34.6572H150.791L410.592 294.47Z" fill="#DFEBEF"/>
<path d="M403.879 436.133H253.215L101.408 284.326V133.662L403.879 436.133Z" fill="#DFEBEF"/>
<path d="M410.6 217.21H101.41V251.876H410.6V217.21Z" fill="#E5C2AA"/>
<path d="M483.41 484.019H28.5902C23.5882 484.019 19.5332 479.964 19.5332 474.962V437.202C19.5332 432.2 23.5882 428.145 28.5902 428.145H483.41C488.412 428.145 492.467 432.2 492.467 437.202V474.962C492.467 479.964 488.412 484.019 483.41 484.019Z" fill="#E5C2AA"/>
<path d="M297.562 370.735H387.283L377.992 428.104H306.852L297.562 370.735Z" fill="#FFA549"/>
<path d="M368.702 370.735L359.412 428.104H377.992L387.283 370.735H368.702Z" fill="#FF9200"/>
<path d="M318.368 275.735C335.329 282.025 342.423 305.054 342.423 305.054C342.423 305.054 322.018 317.886 305.057 311.596C288.096 305.306 281.003 282.277 281.003 282.277C281.003 282.277 301.407 269.446 318.368 275.735V275.735Z" fill="#98D72A"/>
<path d="M366.477 275.735C349.516 282.025 342.423 305.054 342.423 305.054C342.423 305.054 362.828 317.886 379.789 311.596C396.75 305.306 403.843 282.277 403.843 282.277C403.843 282.277 383.437 269.446 366.477 275.735Z" fill="#98D72A"/>
<path d="M396.55 278.574C392.678 284.373 387.168 290.279 379.788 293.015C369.159 296.956 357.179 293.389 349.715 290.176C347.914 292.873 346.473 295.541 345.358 297.863C344.404 297.442 343.352 297.204 342.242 297.204C341.247 297.204 340.3 297.399 339.426 297.741C338.319 295.448 336.899 292.827 335.129 290.177C327.664 293.39 315.684 296.958 305.055 293.016C297.675 290.28 292.166 284.374 288.293 278.575C283.846 280.489 281 282.278 281 282.278C281 282.278 288.093 305.307 305.054 311.597C315.399 315.433 327.017 312.156 334.514 309.016V342.166C334.514 346.433 337.973 349.893 342.241 349.893C346.509 349.893 349.968 346.433 349.968 342.166V308.865C357.448 312.049 369.277 315.495 379.787 311.597C396.748 305.307 403.842 282.278 403.842 282.278C403.842 282.278 400.997 280.488 396.55 278.574V278.574Z" fill="#8BC727"/>
<path d="M396.995 370.736H287.849C285.369 370.736 283.358 368.725 283.358 366.245V346.835C283.358 344.355 285.369 342.344 287.849 342.344H396.995C399.475 342.344 401.486 344.355 401.486 346.835V366.245C401.486 368.725 399.475 370.736 396.995 370.736Z" fill="#FFE2CB"/>
</svg>
