<svg width="512" height="512" viewBox="0 0 512 512" fill="none" xmlns="http://www.w3.org/2000/svg">
<path d="M347.487 422.382L324.827 430.876L308.573 436.972C307.157 437.499 305.638 437.354 304.398 436.683C303.344 436.125 302.486 435.195 302.032 433.996L301.474 432.498C301.464 432.488 301.464 432.467 301.453 432.457C266.886 338.697 264.626 338.036 265.618 333.229C266.114 331.906 267.158 330.801 268.584 330.263L284.827 324.177L307.487 315.683C310.101 314.701 313.046 316.045 314.028 318.659L350.462 415.841C351.445 418.455 350.102 421.4 347.487 422.382Z" fill="#3C6895"/>
<path d="M324.827 430.876L308.573 436.972L307.416 437.406C306.496 437.757 305.422 437.458 304.399 436.683C303.252 435.805 302.167 434.327 301.475 432.498C301.465 432.488 301.465 432.467 301.454 432.457C266.887 338.697 264.627 338.036 265.619 333.229C266.115 331.906 267.159 330.801 268.585 330.263L284.828 324.177C282.854 324.911 282.296 328.362 283.598 331.823L318.875 425.926C320.167 429.388 322.854 431.62 324.827 430.876Z" fill="#31557A"/>
<path d="M423.124 434.779L424.264 437.819C425.171 440.239 423.945 442.936 421.525 443.843L319.473 482.097C317.053 483.004 314.356 481.778 313.449 479.358L294.727 429.411C293.857 427.091 295.044 424.481 297.364 423.611L347.155 404.948C349.468 404.081 352.075 405.266 352.946 407.589L359.177 424.212C360.395 427.461 364.016 429.108 367.265 427.889L388.609 419.888C402.29 414.76 417.508 421.414 423.096 434.791L423.124 434.779Z" fill="#403F3F"/>
<path d="M329.017 467.887L312.145 422.878C311.276 420.56 312.462 417.953 314.78 417.084L297.364 423.612C295.046 424.481 293.861 427.088 294.729 429.406L312.642 477.195L332.838 469.625C331.304 470.201 329.593 469.423 329.017 467.887Z" fill="#1A1A1A"/>
<path d="M355.501 414.181L294.446 437.068C292.837 437.67 291.044 436.856 290.442 435.247L284.001 418.065C283.399 416.456 284.213 414.663 285.822 414.061L346.877 391.174C348.486 390.571 350.279 391.386 350.881 392.995L357.322 410.177C357.924 411.785 357.108 413.578 355.501 414.181Z" fill="#8B8A8A"/>
<path d="M307.591 428.007L301.684 412.247C300.934 410.245 301.374 408.231 302.667 407.746L285.251 414.274C283.958 414.759 283.518 416.774 284.268 418.775L290.175 434.535C290.925 436.537 292.582 437.765 293.874 437.282L311.29 430.754C309.997 431.237 308.341 430.009 307.591 428.007Z" fill="#656464"/>
<path d="M423.454 435.661L424.962 439.684C426.651 444.192 426.06 448.582 423.64 449.489L321.588 487.743C319.168 488.65 315.837 485.731 314.147 481.223L312.639 477.2L423.454 435.661Z" fill="#8B8A8A"/>
<path d="M339.006 481.212L321.59 487.74C319.171 488.647 315.836 485.724 314.146 481.218L312.639 477.198L330.055 470.67L331.562 474.69C333.251 479.196 336.587 482.119 339.006 481.212Z" fill="#656464"/>
<path d="M153.32 351.022V454.807C153.32 457.607 151.026 459.891 148.226 459.891H106.677C105.179 459.891 103.825 459.24 102.905 458.196C102.099 457.307 101.603 456.129 101.593 454.858V392.736C101.593 375.056 101.593 359.391 101.603 353.254C101.613 351.539 101.613 350.567 101.624 350.505C101.882 347.942 104.063 345.938 106.677 345.938H148.226C151.026 345.938 153.32 348.222 153.32 351.022Z" fill="#3C6895"/>
<path d="M124.036 459.891H106.677C105.179 459.891 103.825 459.24 102.905 458.196C102.099 457.307 101.603 456.129 101.593 454.858V390.384C101.592 366.545 101.584 357.078 101.603 353.253C101.603 350.504 101.603 350.67 101.624 350.504C101.882 347.941 104.063 345.937 106.677 345.937H124.036C121.928 345.937 120.192 348.965 120.192 352.664V453.163C120.192 456.863 121.928 459.891 124.036 459.891Z" fill="#31557A"/>
<path d="M214.708 498.047V501.294C214.708 503.878 212.614 505.973 210.029 505.973H101.043C98.4588 505.973 96.3638 503.878 96.3638 501.294V447.953C96.3638 445.475 98.3908 443.448 100.869 443.448H154.043C156.513 443.448 158.538 445.473 158.538 447.953V465.705C158.538 469.175 161.351 471.987 164.82 471.987H187.615C202.226 471.987 214.14 483.56 214.677 498.047H214.708Z" fill="#403F3F"/>
<path d="M114.968 496.017V447.949C114.968 445.474 116.993 443.449 119.468 443.449H100.869C98.3931 443.449 96.3691 445.474 96.3691 447.949V498.986H117.937C116.298 498.986 114.968 497.657 114.968 496.017Z" fill="#1A1A1A"/>
<path d="M158.618 455.023H93.4152C91.6982 455.023 90.3052 453.63 90.3052 451.913V433.564C90.3052 431.847 91.6982 430.454 93.4152 430.454H158.618C160.335 430.454 161.728 431.847 161.728 433.564V451.913C161.728 453.631 160.335 455.023 158.618 455.023Z" fill="#8B8A8A"/>
<path d="M108.904 451.153V434.323C108.904 432.186 110.023 430.453 111.404 430.453H92.8042C91.4242 430.453 90.3042 432.185 90.3042 434.323V451.153C90.3042 453.29 91.4232 455.023 92.8042 455.023H111.403C110.023 455.023 108.904 453.291 108.904 451.153Z" fill="#656464"/>
<path d="M214.708 498.988V503.283C214.708 508.097 212.614 512 210.029 512H101.043C98.4588 512 96.3638 508.097 96.3638 503.283V498.988H214.708Z" fill="#8B8A8A"/>
<path d="M119.645 512H101.046C98.4632 512 96.3652 508.092 96.3652 503.28V498.988H114.964V503.28C114.964 508.092 117.062 512 119.645 512Z" fill="#656464"/>
<path d="M344.046 364.744L319.704 357.931C314.331 356.428 308.099 359.226 306.458 363.88L298.297 387.02C296.105 393.235 286.35 395.54 281.419 391.006L276.157 386.17C272.102 382.443 264.373 383.226 260.662 387.743L250.551 400.042C246.682 404.749 238.532 405.356 234.664 401.227L223.426 389.227C219.083 384.59 209.662 386.036 206.603 391.81L200.424 403.472C197.262 409.44 187.402 410.724 183.291 405.702L172.677 392.738C169.102 388.371 160.864 388.652 156.726 393.283L140.889 411.003C136.455 415.964 127.495 415.85 124.403 410.795L118.048 400.406C115.401 396.08 108.216 395.23 103.302 398.663C95.8782 403.849 85.3862 398.93 88.0142 391.483C123.805 290.091 24.0272 23.3732 161.565 1.69322C308.715 -21.5038 273.858 250.169 356.259 352.635C361.208 358.789 352.745 367.179 344.046 364.744Z" fill="#DFEBEF"/>
<path d="M176.59 0C78.7741 37.974 156.073 277.605 130.758 373.407L120.184 403.9L118.042 400.403C115.396 396.078 108.215 395.226 103.3 398.661C95.8792 403.854 85.3852 398.925 88.0112 391.484C123.809 290.093 24.0311 23.376 161.564 1.696C166.813 0.87 171.811 0.307 176.59 0Z" fill="#B4D1D6"/>
<path d="M169.358 81.5241C178.093 81.5241 185.174 74.443 185.174 65.7081C185.174 56.9732 178.093 49.8921 169.358 49.8921C160.623 49.8921 153.542 56.9732 153.542 65.7081C153.542 74.443 160.623 81.5241 169.358 81.5241Z" fill="#1A1A1A"/>
<path d="M220.403 71.0461C229.138 71.0461 236.219 63.965 236.219 55.2301C236.219 46.4951 229.138 39.4141 220.403 39.4141C211.668 39.4141 204.587 46.4951 204.587 55.2301C204.587 63.965 211.668 71.0461 220.403 71.0461Z" fill="#1A1A1A"/>
<path d="M160.204 138.989L132.525 117.571C129.14 114.952 128.52 110.085 131.138 106.7C133.757 103.315 138.623 102.695 142.009 105.313L163.592 122.013L175.838 106.359C178.161 103.39 182.285 102.523 185.606 104.305L214.048 119.564C220.713 101.674 219.877 97.035 224.894 94.644C229.732 92.346 233.016 95.753 244.536 99.476L247.579 85.603C248.496 81.422 252.626 78.782 256.809 79.693C260.99 80.611 263.635 84.743 262.718 88.923L257.759 111.531C257.277 113.727 255.867 115.604 253.892 116.678C248.841 119.428 245.296 115.636 233.023 111.715L225.826 133.198C224.301 137.751 219.039 139.833 214.814 137.566L184.027 121.05L171.051 137.639C168.436 140.976 163.592 141.61 160.204 138.989Z" fill="#1A1A1A"/>
</svg>
