<svg xmlns="http://www.w3.org/2000/svg" id="Layer_1" enable-background="new 0 0 512 512" height="512" viewBox="0 0 512 512" width="512"><g><g fill="#5e7d84"><path d="m95.851 409.613h-48.246c-2.764 0-5.005 2.239-5.005 5v46.199c0 2.761 2.241 5 5.005 5h28.227c1.996 0 3.8-1.184 4.593-3.014l20.02-46.199c.67-1.545.516-3.324-.41-4.731s-2.498-2.255-4.184-2.255z"/><path d="m296.867 409.613h-48.247c-1.685 0-3.258.848-4.184 2.255-.925 1.407-1.079 3.186-.41 4.731l20.02 46.199c.793 1.83 2.598 3.014 4.593 3.014h28.227c2.764 0 5.005-2.239 5.005-5v-46.199c.001-2.761-2.24-5-5.004-5z"/></g><path d="m344.486 71.2v343.39c0 4.14-3.353 7.5-7.507 7.5h-309.412c-15.205 0-27.567-12.36-27.567-27.54v-323.35c0-15.18 12.362-27.54 27.567-27.54h289.353c15.204 0 27.566 12.36 27.566 27.54z" fill="#e9f6ff"/><path d="m316.919 43.66h-30.029c15.205 0 27.567 12.36 27.567 27.54v260.738l22.522 90.152c4.154 0 7.507-3.36 7.507-7.5v-343.39c0-15.18-12.362-27.54-27.567-27.54z" fill="#cee7f4"/><path d="m226.952 43.66h-199.385c-15.205 0-27.567 12.36-27.567 27.54v70.52h226.952l10.01-46.805z" fill="#5e7d84"/><path d="m344.486 71.2v70.52h-117.534v-98.06h89.968c15.204 0 27.566 12.36 27.566 27.54z" fill="#cee7f4"/><path d="m344.486 71.2v70.52h-30.029v-70.52c0-15.18-12.362-27.54-27.567-27.54h30.029c15.205 0 27.567 12.36 27.567 27.54z" fill="#afd7e8"/><path d="m182.674 88.969h-23.695c-4.146 0-7.507 3.358-7.507 7.5s3.361 7.5 7.507 7.5h23.695c4.146 0 7.507-3.358 7.507-7.5s-3.361-7.5-7.507-7.5z" fill="#3b5b60"/><path d="m297.567 88.969h-23.695c-4.146 0-7.507 3.358-7.507 7.5s3.361 7.5 7.507 7.5h23.695c4.146 0 7.507-3.358 7.507-7.5s-3.361-7.5-7.507-7.5z" fill="#afd7e8"/><path d="m278.312 277.8c0 58.43-47.576 105.96-106.064 105.96-3.884 0-7.728-.21-11.511-.63-53.092-5.74-94.562-50.79-94.562-105.33s41.47-99.59 94.562-105.33c3.784-.42 7.627-.63 11.511-.63 58.487 0 106.064 47.53 106.064 105.96z" fill="#5e7d84"/><path d="m278.312 277.8c0 58.43-47.576 105.96-106.064 105.96-3.884 0-7.728-.21-11.511-.63 53.092-5.74 94.552-50.79 94.552-105.33s-41.46-99.59-94.552-105.33c3.784-.42 7.627-.63 11.511-.63 58.487 0 106.064 47.53 106.064 105.96z" fill="#3b5b60"/><path d="m244.158 261.23c-1.161 1.85-3.083 3.11-5.245 3.44-6.016.91-10.64 5.89-11.211 11.86l-26.756 9.44-62.501 22.04-41.14-43.93c5.615-30.67 29.679-54.97 60.239-60.96 4.755-.94 9.679-1.43 14.704-1.43 33.483 0 62.701 21.43 72.701 53.32.661 2.09.371 4.36-.791 6.22z" fill="#fff"/><path d="m244.158 261.23c-1.161 1.85-3.083 3.11-5.245 3.44-6.016.91-10.64 5.89-11.211 11.86l-26.756 9.44c-1.772-2.27-2.833-5.12-2.833-8.17 0-.43.02-.85.07-1.27.571-5.97 5.195-10.95 11.211-11.86 2.162-.33 4.084-1.59 5.245-3.44 1.161-1.86 1.451-4.13.791-6.22-8.488-27.08-30.84-46.61-57.887-51.89 4.755-.94 9.679-1.43 14.704-1.43 33.483 0 62.701 21.43 72.701 53.32.662 2.09.372 4.36-.79 6.22z" fill="#e9f6ff"/><path d="m244.949 300.59c-10 31.89-39.218 53.32-72.701 53.32-5.035 0-9.95-.49-14.714-1.43-34.994-6.86-61.47-37.74-61.47-74.68 0-4.68.43-9.27 1.241-13.72 12.142.24 18.638 3.93 24.394 7.2 5.165 2.94 9.239 5.25 18.218 5.25s13.053-2.31 18.218-5.25c5.946-3.38 12.692-7.21 25.645-7.21 8.448 0 14.264 1.63 18.928 3.71 2.482 1.1 4.645 2.33 6.707 3.5 5.165 2.94 9.239 5.25 18.218 5.25h.07c-.05.42-.07.84-.07 1.27 0 6.51 4.845 12.16 11.281 13.13 2.162.33 4.084 1.59 5.245 3.44 1.161 1.86 1.451 4.13.79 6.22z" fill="#83ffe7"/><path d="m244.949 300.59c-10 31.89-39.218 53.32-72.701 53.32-5.035 0-9.95-.49-14.714-1.43 27.056-5.27 49.408-24.81 57.897-51.89.661-2.09.37-4.36-.791-6.22-1.161-1.85-3.083-3.11-5.245-3.44-6.436-.97-11.281-6.62-11.281-13.13 0-.43.02-.85.07-1.27.33-3.44 2.012-6.56 4.524-8.75 2.482 1.1 4.645 2.33 6.707 3.5 5.165 2.94 9.239 5.25 18.218 5.25h.07c-.05.42-.07.84-.07 1.27 0 6.51 4.845 12.16 11.281 13.13 2.162.33 4.084 1.59 5.245 3.44 1.161 1.86 1.451 4.13.79 6.22z" fill="#70e8fc"/><path d="m119.477 78.53v32.77c0 2.76-2.242 5-5.005 5h-78.847c-2.763 0-5.005-2.24-5.005-5v-32.77c0-2.76 2.242-5 5.005-5h78.847c2.762 0 5.005 2.24 5.005 5z" fill="#83ffe7"/><path d="m119.477 78.53v32.77c0 2.76-2.242 5-5.005 5h-28.888c2.763 0 5.005-2.24 5.005-5v-32.77c0-2.76-2.242-5-5.005-5h28.888c2.762 0 5.005 2.24 5.005 5z" fill="#70e8fc"/><path d="m512 315.87c0 4.14-3.363 7.5-7.507 7.5h-6.476l-16.716 122c-1.812 13.1-13.143 22.97-26.376 22.97h-101.78c-13.223 0-24.564-9.87-26.376-22.97l-16.716-122h-5.595c-4.154 0-7.507-3.36-7.507-7.5 0-4.15 3.353-7.5 7.507-7.5h200.035c4.144 0 7.507 3.35 7.507 7.5z" fill="#5e7d84"/><path d="m512 315.87c0 4.14-3.363 7.5-7.507 7.5h-6.476l-16.716 122c-1.812 13.1-13.143 22.97-26.376 22.97h-36.035c13.233 0 24.564-9.87 26.376-22.97l18.508-137h40.72c4.143 0 7.506 3.35 7.506 7.5z" fill="#3b5b60"/><path d="m489.058 289.33c0 10.52-8.528 19.04-19.049 19.04h-132.069c-5.265 0-10.02-2.13-13.473-5.57-3.443-3.45-5.575-8.21-5.575-13.47 0-10.51 8.528-19.03 19.049-19.03h132.069c5.265 0 10.02 2.13 13.473 5.57 3.443 3.45 5.575 8.21 5.575 13.46z" fill="#fff86e"/><path d="m489.058 251.29c0 10.51-8.528 19.03-19.049 19.03h-132.069c-5.265 0-10.02-2.13-13.473-5.57-3.443-3.45-5.575-8.21-5.575-13.46 0-10.52 8.528-19.04 19.049-19.04h132.069c5.265 0 10.02 2.13 13.473 5.57 3.443 3.45 5.575 8.21 5.575 13.47z" fill="#ff5ca6"/><path d="m489.058 289.33c0 10.52-8.528 19.04-19.049 19.04h-30.029c10.52 0 19.049-8.52 19.049-19.04 0-5.25-2.132-10.01-5.575-13.46-3.453-3.44-8.208-5.57-13.473-5.57h30.029c5.265 0 10.02 2.13 13.473 5.57 3.443 3.45 5.575 8.21 5.575 13.46z" fill="#ffda71"/><path d="m489.058 251.29c0 10.51-8.528 19.03-19.049 19.03h-30.029c10.52 0 19.049-8.52 19.049-19.03 0-5.26-2.132-10.02-5.575-13.47-3.453-3.44-8.208-5.57-13.473-5.57h30.029c5.265 0 10.02 2.13 13.473 5.57 3.443 3.45 5.575 8.21 5.575 13.47z" fill="#ff336d"/></g></svg>
