<svg width="512" height="496" viewBox="0 0 512 496" fill="none" xmlns="http://www.w3.org/2000/svg">
<path d="M96.4308 320L119.586 250.531C120.984 246.34 118.719 241.808 114.531 240.41C110.304 239.008 105.812 241.281 104.414 245.469L79.5708 320H96.4308Z" fill="#4B3F4E"/>
<path d="M415.569 320H432.428L407.585 245.469C406.194 241.281 401.702 239.008 397.468 240.41C393.28 241.808 391.015 246.34 392.413 250.531L415.569 320Z" fill="#4B3F4E"/>
<path d="M424 424.5H248V392L252.5 385L248 376V360C248 355.582 251.582 352 256 352H416C420.418 352 424 355.582 424 360V376L417 383L424 392V424.5Z" fill="#E2A700"/>
<path d="M248 376H424V392H248V376Z" fill="#FFCE00"/>
<path d="M199.758 422.059L186.789 370.178C184.118 359.494 174.519 352 163.508 352H108.492C97.4801 352 87.8821 359.494 85.2111 370.177L72.2421 422.058C71.1641 426.347 73.7731 430.691 78.0621 431.761C82.3281 432.839 86.6871 430.222 87.7571 425.941L92.7271 406.059C93.6171 402.498 96.8171 399.999 100.488 399.999H171.51C175.181 399.999 178.381 402.497 179.271 406.059L184.241 425.941C185.147 429.574 188.405 432.004 191.991 432C192.632 432 193.288 431.926 193.936 431.762C198.227 430.691 200.836 426.348 199.758 422.059V422.059Z" fill="#5D5360"/>
<path d="M472 448L486.177 490.53C487.266 493.797 490.323 496 493.766 496H496C500.418 496 504 492.418 504 488V448H472Z" fill="#C38C66"/>
<path d="M8 448V488C8 492.418 11.582 496 16 496H18.234C21.677 496 24.735 493.797 25.823 490.53L40 448H8Z" fill="#C38C66"/>
<path d="M496 312H16L7.66699 328V431C7.66699 439.824 14.847 447 23.667 447H496L512 440V328C512 319.176 504.82 312 496 312ZM496 416H16V328H496V416Z" fill="#D3A584"/>
<path d="M488 265.667H31C22.163 265.667 15 258.504 15 249.667V16L24 0H488C496.837 0 504 7.163 504 16V256L488 265.667Z" fill="#6F6571"/>
<path d="M480 240H32C27.582 240 24 236.418 24 232V24C24 19.582 27.582 16 32 16H480C484.418 16 488 19.582 488 24V232C488 236.418 484.418 240 480 240Z" fill="#AECBCE"/>
<path d="M448 224H64C50.745 224 40 213.255 40 200V56C40 42.745 50.745 32 64 32H448C461.255 32 472 42.745 472 56V200C472 213.255 461.255 224 448 224Z" fill="#DFEBEF"/>
<path d="M24 0C15.164 0 8 7.163 8 16V256C8 264.837 15.163 272 24 272H488C496.836 272 504 264.836 504 256H40C31.163 256 24 248.837 24 240V0Z" fill="#5D5360"/>
<path d="M16 328V312C7.18 312 0 319.176 0 328V440C0 448.837 7.163 456 16 456H496C504.82 456 512 448.824 512 440H32C23.163 440 16 432.837 16 424V328Z" fill="#ECBD83"/>
<path d="M104 384C112.837 384 120 376.837 120 368C120 359.163 112.837 352 104 352C95.1634 352 88 359.163 88 368C88 376.837 95.1634 384 104 384Z" fill="#6F6571"/>
<path d="M168 384C176.837 384 184 376.837 184 368C184 359.163 176.837 352 168 352C159.163 352 152 359.163 152 368C152 376.837 159.163 384 168 384Z" fill="#6F6571"/>
</svg>
