<svg xmlns="http://www.w3.org/2000/svg" id="Capa_1" enable-background="new 0 0 512 512" height="512" viewBox="0 0 512 512" width="512"><path d="m241.312 224.703h29.375v254.499h-29.375z" fill="#acacac"/><path d="m256 232.833h14.688v240.038h-14.688z" fill="#9c9c9c"/><path d="m283.044 232.833h-54.087c-5.212 0-9.438-4.225-9.438-9.438v-35.172h72.963v35.172c-.001 5.213-4.226 9.438-9.438 9.438z" fill="#5a5a5a"/><path d="m219.411 472.871h73.179c4.572 0 8.278 3.706 8.278 8.278v30.851h-89.735v-30.851c0-4.572 3.706-8.278 8.278-8.278z" fill="#5a5a5a"/><path d="m357.64 101.64c0 56.134-45.506 101.64-101.64 101.64-56.134 0-101.64-45.506-101.64-101.64 0-56.134 45.506-101.64 101.64-101.64 56.134 0 101.64 45.506 101.64 101.64z" fill="#0593fc"/><path d="m255.605 47.911s-24.43-.037-24.796 0c-5.179.51-9.521 4.96-10.035 10.11-.019.186-.055 86.169-.055 86.169 0 6.173 5.022 11.196 11.196 11.196s11.196-5.022 11.196-11.196v-25.822c4.632-.023 9.611-.044 12.495-.044 19.672 0 35.677-15.793 35.677-35.206-.001-19.414-16.006-35.207-35.678-35.207zm-12.391 48.064c-.023-4.591-.044-9.816-.044-12.858 0-2.532-.012-7.832-.026-12.814h12.462c7.202 0 13.285 5.868 13.285 12.814s-6.083 12.815-13.285 12.815c-2.425 0-6.657.014-12.392.043z" fill="#ebebeb"/><path d="m357.64 101.642c0 56.138-45.5 101.638-101.638 101.638-26.413 0-50.473-10.08-68.55-26.599 15.693 9.926 34.296 15.672 54.229 15.672 56.138 0 101.638-45.511 101.638-101.638 0-28.074-11.38-53.476-29.766-71.872-1.083-1.083-2.198-2.146-3.333-3.178 6.407 4.034 12.319 8.78 17.653 14.104 18.387 18.397 29.767 43.809 29.767 71.873z" fill="#0182fc"/></svg>
