<svg width="512" height="506" viewBox="0 0 512 506" fill="none" xmlns="http://www.w3.org/2000/svg">
<path d="M146.983 259.716C142.716 259.716 139.257 256.257 139.257 251.99V222.356C139.257 218.088 142.716 214.63 146.983 214.63C151.25 214.63 154.709 218.089 154.709 222.356V251.99C154.709 256.257 151.25 259.716 146.983 259.716Z" fill="#CCCCCC"/>
<path d="M185.096 238.892C183.15 238.892 181.203 238.162 179.701 236.696L172.924 230.082H136.702C132.435 230.082 128.976 226.623 128.976 222.356C128.976 218.088 132.435 214.63 136.702 214.63H176.069C178.086 214.63 180.022 215.419 181.465 216.826L190.493 225.636C193.547 228.617 193.607 233.508 190.627 236.563C189.113 238.114 187.105 238.892 185.096 238.892Z" fill="#E2A700"/>
<path d="M166.079 251.99H109.867V284.715H179.25V265.161C179.249 257.917 173.323 251.99 166.079 251.99Z" fill="#E6E6E6"/>
<path d="M139.259 251.989H109.87V284.714H139.259V251.989Z" fill="#CCCCCC"/>
<path d="M86.4132 222.356H34.6632C27.4192 222.356 21.4922 228.283 21.4922 235.527C21.4922 245.644 21.4922 274.698 21.4922 284.715H86.4132C86.4132 271.323 86.4132 234.831 86.4132 222.356Z" fill="#E6E6E6"/>
<path d="M62.4782 222.356H34.6632C27.4192 222.356 21.4922 228.283 21.4922 235.527C21.4922 245.644 21.4922 274.698 21.4922 284.715H49.3072C49.3072 274.698 49.3072 245.644 49.3072 235.527C49.3072 228.283 55.2342 222.356 62.4782 222.356Z" fill="#CCCCCC"/>
<path d="M180.715 27.445L167.147 14.52C136.279 -16.088 83.3232 5.66499 83.3232 49.435V284.715H112.958V49.435C112.958 33.068 132.632 22.715 146.623 35.897L159.753 48.406L180.715 27.445Z" fill="#E6E6E6"/>
<path d="M147.656 2.53456C118.052 -7.01444 83.3218 13.9876 83.3218 49.4346V284.715H112.957V49.4346C112.957 48.7746 113 48.1286 113.063 47.4886C113.886 24.8066 129.062 8.35256 147.656 2.53456Z" fill="#CCCCCC"/>
<path d="M408.321 452.183L419.846 483.66C423.11 491.99 419.002 501.388 410.673 504.651C402.346 507.915 392.946 503.811 389.681 495.478L373.526 452.183H408.321Z" fill="#D3A584"/>
<path d="M105.528 452.183L94.004 483.659C90.74 491.989 94.848 501.387 103.177 504.65C111.504 507.914 120.904 503.81 124.169 495.477L140.324 452.182H105.528V452.183V452.183Z" fill="#D3A584"/>
<path d="M406.421 495.478L390.266 452.183H373.526L389.681 495.478C392.946 503.81 402.346 507.914 410.673 504.651C411.545 504.309 412.359 503.887 413.135 503.419C410.188 501.641 407.774 498.93 406.421 495.478Z" fill="#B28769"/>
<path d="M110.744 483.659L122.269 452.182H105.529L94.0041 483.659C90.7411 491.989 94.8481 501.387 103.177 504.65C108.054 506.562 113.291 505.93 117.456 503.418C110.821 499.417 107.822 491.118 110.744 483.659Z" fill="#B28769"/>
<path d="M21.4922 339.862V363.695C21.4922 413.497 62.2402 454.243 112.043 454.243H401.806C451.609 454.243 492.357 413.496 492.357 363.695V339.862H21.4922V339.862Z" fill="#E6E6E6"/>
<path d="M77.1222 363.694V339.861H21.4922V363.694C21.4922 413.496 62.2402 454.242 112.043 454.242H167.673C117.87 454.242 77.1222 413.495 77.1222 363.694Z" fill="#CCCCCC"/>
<path d="M492.362 307.979H21.4922V340.897H492.362V307.979Z" fill="#CCCCCC"/>
<path d="M497.183 311.258H14.817C6.634 311.258 0 304.624 0 296.441C0 288.258 6.634 281.624 14.817 281.624H497.182C505.366 281.624 511.999 288.258 511.999 296.441C512 304.624 505.366 311.258 497.183 311.258Z" fill="#B4AEAE"/>
<path d="M205.097 21.9574C199.31 16.1704 189.929 16.1704 184.142 21.9574L154.616 51.4834C148.829 57.2704 148.829 66.6514 154.616 72.4374C160.403 78.2244 169.784 78.2244 175.571 72.4374L205.097 42.9114C210.884 37.1254 210.884 27.7444 205.097 21.9574Z" fill="#B4AEAE"/>
<path d="M185.544 99.3838C182.705 101.065 181.765 104.729 183.434 107.571C183.445 107.588 183.465 107.623 183.475 107.641C184.598 109.51 186.579 110.543 188.613 110.543C189.655 110.543 190.711 110.272 191.673 109.703C194.512 108.022 195.452 104.358 193.783 101.515C193.772 101.498 193.752 101.463 193.742 101.445C192.043 98.6196 188.382 97.7027 185.544 99.3838Z" fill="#87D1EA"/>
<path d="M211.168 132.961C209.687 130.009 206.104 128.847 203.14 130.323C200.178 131.8 198.995 135.425 200.476 138.378C201.526 140.472 203.645 141.684 205.844 141.684C206.745 141.684 207.661 141.479 208.522 141.051C211.484 139.574 212.685 135.984 211.204 133.032L211.168 132.961Z" fill="#87D1EA"/>
<path d="M236.747 200.644C235.953 197.464 232.722 195.516 229.523 196.288C226.308 197.064 224.335 200.286 225.114 203.485C225.131 203.556 225.17 203.702 225.189 203.77C225.932 206.4 228.334 208.119 230.951 208.119C231.488 208.119 232.033 208.047 232.576 207.895C235.725 207.013 237.574 203.782 236.747 200.644Z" fill="#87D1EA"/>
<path d="M218.074 162.632C214.991 163.804 213.449 167.275 214.608 170.355C215.511 172.755 217.796 174.235 220.224 174.235C220.924 174.235 221.636 174.112 222.33 173.853C225.431 172.694 227.002 169.248 225.839 166.156C225.832 166.136 225.797 166.044 225.789 166.024C224.597 162.956 221.156 161.465 218.074 162.632Z" fill="#87D1EA"/>
<path d="M236.663 231.209C233.499 231.91 231.48 234.986 232.066 238.142C232.08 238.221 232.096 238.299 232.112 238.375C232.733 241.166 235.212 243.064 237.961 243.064C238.392 243.064 238.83 243.018 239.267 242.92C242.43 242.219 244.451 239.142 243.863 235.986C243.849 235.907 243.833 235.829 243.817 235.755C243.1 232.526 239.896 230.49 236.663 231.209Z" fill="#87D1EA"/>
<path d="M210.569 78.8925C207.818 81.0073 207.397 85.0666 209.831 87.7097C212.058 90.139 215.843 90.3172 218.29 88.0769C220.685 85.883 220.885 82.1902 218.774 79.75C216.72 77.3393 213.111 76.938 210.569 78.8925Z" fill="#87D1EA"/>
<path d="M289.305 198.113C286.303 199.461 284.963 202.981 286.297 205.978C287.271 208.228 289.474 209.582 291.794 209.582C296.069 209.582 299.089 205.151 297.213 201.087C295.853 198.085 292.316 196.758 289.305 198.113Z" fill="#87D1EA"/>
<path d="M257.741 146.545C262.437 146.545 265.349 141.307 262.748 137.311L262.732 137.287C260.946 134.514 257.247 133.711 254.471 135.494C251.694 137.276 250.889 140.969 252.675 143.742C253.819 145.551 255.737 146.545 257.741 146.545Z" fill="#87D1EA"/>
<path d="M233.24 106.541C228.672 110.095 231.401 117.296 236.97 117.296C241.797 117.296 244.689 111.748 241.754 107.787C239.837 105.101 235.951 104.434 233.24 106.541Z" fill="#87D1EA"/>
<path d="M270.864 174.262C272.453 177.134 276.063 178.177 278.961 176.603C281.854 175.032 282.923 171.409 281.363 168.515L281.354 168.498C279.798 165.588 276.171 164.488 273.252 166.04C270.325 167.596 269.176 171.27 270.864 174.262Z" fill="#87D1EA"/>
<path d="M299.073 239.035C300.148 242.138 303.524 243.796 306.636 242.758C309.786 241.71 311.57 238.249 310.347 234.954C309.185 231.858 305.73 230.29 302.627 231.45C299.569 232.595 297.999 235.971 299.073 239.035Z" fill="#87D1EA"/>
<path d="M241.322 63.1877C243.42 60.6707 243.102 56.9401 240.625 54.8121C238.185 52.6895 234.483 52.8863 232.284 55.2848C230.05 57.7228 230.214 61.51 232.651 63.7449C235.287 66.1465 239.19 65.7466 241.322 63.1877Z" fill="#87D1EA"/>
<path d="M336.177 178.068C337.272 178.068 338.379 177.769 339.371 177.142C342.162 175.378 342.991 171.692 341.224 168.908C341.167 168.818 341.108 168.731 341.049 168.645C339.175 165.931 335.456 165.256 332.739 167.124C330.035 168.982 329.344 172.671 331.178 175.381C332.323 177.118 334.229 178.068 336.177 178.068Z" fill="#87D1EA"/>
<path d="M314.155 147.439C315.4 147.439 316.656 147.051 317.729 146.247C320.365 144.272 320.899 140.536 318.922 137.902L318.79 137.731C316.754 135.142 312.99 134.671 310.399 136.706C305.867 140.263 308.584 147.439 314.155 147.439Z" fill="#87D1EA"/>
<path d="M351.123 207.081C352.243 208.941 354.213 209.967 356.24 209.967C357.281 209.967 358.337 209.696 359.299 209.127C362.133 207.452 363.068 203.792 361.404 200.958L361.394 200.94C359.733 198.088 356.069 197.12 353.21 198.774C350.35 200.43 349.378 204.083 351.038 206.935L351.123 207.081Z" fill="#87D1EA"/>
<path d="M294.297 116.733C296.693 114.524 296.868 110.81 294.712 108.386C292.569 105.905 288.819 105.613 286.319 107.743C283.808 109.88 283.505 113.647 285.645 116.156C287.967 118.893 291.874 118.969 294.297 116.733Z" fill="#87D1EA"/>
<path d="M260.279 89.1846C262.651 91.4692 266.44 91.4105 268.72 89.0364C271.001 86.6606 270.944 82.8993 268.573 80.6155L268.563 80.6054C266.236 78.2761 262.465 78.2761 260.137 80.6054C257.811 82.9364 257.811 86.7147 260.137 89.0456L260.279 89.1846Z" fill="#87D1EA"/>
<path d="M374.418 243.045C375.318 243.045 376.232 242.841 377.093 242.412C380.051 240.935 381.25 237.343 379.771 234.388C379.727 234.301 379.662 234.178 379.615 234.094C377.993 231.215 374.341 230.196 371.458 231.813C368.624 233.405 367.588 236.956 369.095 239.811C370.155 241.861 372.247 243.045 374.418 243.045Z" fill="#87D1EA"/>
</svg>
