<svg width="512" height="512" viewBox="0 0 512 512" fill="none" xmlns="http://www.w3.org/2000/svg">
<path d="M307.594 471.129H271.598C267.457 471.129 264.098 467.773 264.098 463.629C264.098 459.488 267.457 456.129 271.598 456.129H307.594C311.734 456.129 315.094 459.488 315.094 463.629C315.094 467.773 311.734 471.129 307.594 471.129Z" fill="#BAB5B5"/>
<path d="M256 150.152C251.859 150.152 248.5 146.797 248.5 142.652V59.6719C248.5 32.8359 270.332 11 297.172 11C324.008 11 345.84 32.8359 345.84 59.6719V84.0938C345.84 88.2383 342.484 91.5938 338.34 91.5938C334.199 91.5938 330.84 88.2383 330.84 84.0938V59.6719C330.84 41.1055 315.738 26 297.172 26C278.605 26 263.5 41.1055 263.5 59.6719V142.652C263.5 146.797 260.141 150.152 256 150.152Z" fill="#B4AEAE"/>
<path d="M491.785 241.059H20.7461C9.41405 241.059 -0.207045 250.332 0.00389247 261.66C0.207017 272.645 9.17967 281.488 20.2148 281.488H32.8555C43.6523 281.488 52.9687 289.055 55.1914 299.617L67.25 356.953C75.5937 396.641 110.605 425.059 151.164 425.059H360.836C401.391 425.059 436.406 396.645 444.75 356.953L456.805 299.617C459.027 289.055 468.348 281.488 479.145 281.488H491.254C502.586 281.488 512.207 272.219 511.996 260.887C511.789 249.902 502.82 241.059 491.785 241.059V241.059Z" fill="#E6E6E6"/>
<path d="M511.996 260.891C511.793 249.902 502.82 241.062 491.785 241.062H465C476.035 241.062 485.008 249.902 485.211 260.891C485.426 272.219 475.801 281.492 464.473 281.492H452.363C441.566 281.492 432.246 289.055 430.023 299.621L417.969 356.953C409.621 396.645 374.609 425.059 334.051 425.059H360.836C401.395 425.059 436.406 396.645 444.754 356.953L456.809 299.621C459.031 289.055 468.352 281.492 479.145 281.492H491.258C502.586 281.492 512.211 272.219 511.996 260.891V260.891Z" fill="#CCCCCC"/>
<path d="M496.727 275.578C496.727 272.309 494.078 269.664 490.812 269.664H393.387C390.121 269.664 387.473 272.309 387.473 275.578C387.473 278.844 390.121 281.492 393.387 281.492H490.812C494.078 281.488 496.727 278.844 496.727 275.578Z" fill="#CCCCCC"/>
<path d="M132.438 205.426V183.578H109.641V205.426C109.641 209.207 106.578 212.27 102.797 212.27C97.3789 212.27 92.9883 216.664 92.9883 222.078V241.059H149.094V222.078C149.094 216.66 144.703 212.27 139.285 212.27C135.504 212.27 132.438 209.207 132.438 205.426Z" fill="#CCCCCC"/>
<path d="M402.359 205.426V183.578H379.562V205.426C379.562 209.207 376.496 212.27 372.719 212.27C367.301 212.27 362.91 216.664 362.91 222.078V241.059H419.012V222.078C419.012 216.66 414.621 212.27 409.203 212.27C405.422 212.27 402.359 209.207 402.359 205.426Z" fill="#CCCCCC"/>
<path d="M154.227 191.078H87.8516C83.7109 191.078 80.3516 187.719 80.3516 183.578C80.3516 179.434 83.7109 176.078 87.8516 176.078H154.227C158.371 176.078 161.727 179.434 161.727 183.578C161.727 187.719 158.371 191.078 154.227 191.078Z" fill="#B4AEAE"/>
<path d="M424.148 191.078H357.773C353.633 191.078 350.273 187.719 350.273 183.578C350.273 179.434 353.633 176.078 357.773 176.078H424.148C428.289 176.078 431.648 179.434 431.648 183.578C431.648 187.719 428.289 191.078 424.148 191.078Z" fill="#B4AEAE"/>
<path d="M279.379 214.668C273.426 214.668 268.598 209.844 268.598 203.887V155.25C268.598 148.293 262.957 142.652 256 142.652C249.043 142.652 243.402 148.293 243.402 155.25V203.887C243.402 209.844 238.574 214.668 232.621 214.668C223.684 214.668 216.438 221.914 216.438 230.852V241.059H295.562V230.852C295.562 221.914 288.32 214.668 279.379 214.668V214.668Z" fill="#CCCCCC"/>
<path d="M240.402 425.059V485.227C240.402 493.84 247.387 500.824 256 500.824C264.613 500.824 271.598 493.84 271.598 485.227V425.059H240.402Z" fill="#CCCCCC"/>
<path d="M240.402 425.059H271.598V449.785H240.402V425.059Z" fill="#BAB5B5"/>
<path d="M338.34 120.875C334.199 120.875 330.84 117.52 330.84 113.375V110.285C330.84 106.145 334.199 102.785 338.34 102.785C342.484 102.785 345.84 106.145 345.84 110.285V113.375C345.84 117.52 342.484 120.875 338.34 120.875Z" fill="#87D1EA"/>
<path d="M338.34 151.699C334.199 151.699 330.84 148.34 330.84 144.199V141.105C330.84 136.965 334.199 133.605 338.34 133.605C342.484 133.605 345.84 136.965 345.84 141.105V144.199C345.84 148.34 342.484 151.699 338.34 151.699Z" fill="#87D1EA"/>
</svg>
