<svg width="512" height="512" viewBox="0 0 512 512" fill="none" xmlns="http://www.w3.org/2000/svg">
<path opacity="0.4" d="M429.953 53.2102C429.953 38.8377 418.302 27.1865 403.929 27.1865H363.058H213.54H134.095C105.35 27.1865 82.0479 50.4898 82.0479 79.2339C82.0479 107.978 105.35 131.281 134.095 131.281L213.54 141.609L363.059 131.281H403.93C418.303 131.281 429.954 119.63 429.954 105.258C429.954 90.8851 418.303 79.2339 403.93 79.2339C418.302 79.2339 429.953 67.5828 429.953 53.2102V53.2102Z" fill="#D72D33"/>
<path opacity="0.6" d="M352.288 86.9804H193.684C189.406 86.9804 185.938 83.5123 185.938 79.2344C185.938 74.9565 189.406 71.4883 193.684 71.4883H352.288C356.567 71.4883 360.034 74.9565 360.034 79.2344C360.034 83.5123 356.567 86.9804 352.288 86.9804Z" fill="#D72D33"/>
<path opacity="0.4" d="M82.0479 209.351C82.0479 223.724 93.699 235.375 108.072 235.375H148.942L298.461 245.703L377.906 235.375C406.651 235.375 429.953 212.072 429.953 183.328C429.953 154.584 406.651 131.28 377.906 131.28H298.461H148.942H108.072C93.699 131.28 82.0479 142.931 82.0479 157.304C82.0479 171.677 93.699 183.328 108.072 183.328C93.699 183.328 82.0479 194.98 82.0479 209.351V209.351Z" fill="#3C6895"/>
<path d="M429.953 261.4C429.953 247.027 418.302 235.376 403.929 235.376H363.058H213.54H134.095C105.35 235.376 82.0479 258.679 82.0479 287.423C82.0479 316.169 105.35 339.471 134.095 339.471L213.54 349.799H363.059L403.93 339.471C418.303 339.471 429.954 327.82 429.954 313.447C429.954 299.075 418.303 287.423 403.93 287.423C418.302 287.422 429.953 275.771 429.953 261.4Z" fill="#F7F6F6"/>
<path opacity="0.6" d="M377.906 131.281H346.922C375.667 131.281 398.969 154.584 398.969 183.329C398.969 212.073 375.667 235.376 346.922 235.376H377.906C406.651 235.376 429.954 212.073 429.954 183.329C429.953 154.584 406.65 131.281 377.906 131.281V131.281Z" fill="#3C6895"/>
<path d="M403.93 287.422C418.302 287.422 429.953 275.771 429.953 261.399C429.953 247.026 418.302 235.375 403.93 235.375H372.945C387.318 235.375 398.969 247.026 398.969 261.399C398.969 275.771 387.318 287.422 372.945 287.422C387.318 287.422 398.969 299.074 398.969 313.446C398.969 327.819 387.318 339.47 372.945 339.47L390.474 349.798L403.93 339.47C418.302 339.47 429.953 327.819 429.953 313.446C429.952 299.074 418.301 287.422 403.93 287.422Z" fill="#EFEEEE"/>
<path opacity="0.6" d="M403.93 79.2339C418.302 79.2339 429.953 67.5828 429.953 53.2102C429.953 38.8377 418.302 27.1865 403.93 27.1865H372.945C387.318 27.1865 398.969 38.8377 398.969 53.2102C398.969 67.5818 387.318 79.2339 372.945 79.2339C387.318 79.2339 398.969 90.8851 398.969 105.258C398.969 119.63 387.318 131.281 372.945 131.281H403.93C418.302 131.281 429.953 119.63 429.953 105.258C429.952 90.8851 418.301 79.2339 403.93 79.2339Z" fill="#D72D33"/>
<path opacity="0.6" d="M359.629 191.074H180.368C176.09 191.074 172.622 187.606 172.622 183.328C172.622 179.05 176.09 175.582 180.368 175.582H359.629C363.908 175.582 367.375 179.05 367.375 183.328C367.375 187.606 363.907 191.074 359.629 191.074Z" fill="#3C6895"/>
<path d="M341.96 295.169H222.949C218.671 295.169 215.203 291.701 215.203 287.423C215.203 283.145 218.671 279.677 222.949 279.677H341.96C346.239 279.677 349.706 283.145 349.706 287.423C349.706 291.702 346.239 295.169 341.96 295.169Z" fill="#EFEEEE"/>
<path d="M433.399 377.725H486.77V446.564H433.399V377.725Z" fill="#C27E4E"/>
<path d="M297.343 377.725H350.713V446.564H297.343V377.725Z" fill="#C27E4E"/>
<path d="M161.287 377.725H214.658V446.564H161.287V377.725Z" fill="#C27E4E"/>
<path d="M25.2305 377.725H78.6009V446.564H25.2305V377.725Z" fill="#C27E4E"/>
<path d="M0 448.452V473.638C0 479.811 5.00293 484.813 11.175 484.813H500.825C506.997 484.813 512 479.811 512 473.638V448.452C512 442.28 506.997 437.277 500.825 437.277H11.175C5.00293 437.277 0 442.28 0 448.452H0Z" fill="#D8AB8C"/>
<path d="M0 350.65V375.837C0 382.009 5.00293 387.012 11.175 387.012H500.825C506.997 387.012 512 382.009 512 375.837V350.65C512 344.478 506.997 339.475 500.825 339.475H11.175C5.00293 339.475 0 344.478 0 350.65H0Z" fill="#D8AB8C"/>
<path d="M500.825 437.277H469.841C476.013 437.277 481.016 442.28 481.016 448.452V473.638C481.016 479.811 476.013 484.813 469.841 484.813H500.825C506.997 484.813 512 479.811 512 473.638V448.452C512 442.28 506.997 437.277 500.825 437.277Z" fill="#CF9875"/>
<path d="M500.825 339.475H469.841C476.013 339.475 481.016 344.478 481.016 350.65V375.837C481.016 382.009 476.013 387.012 469.841 387.012H500.825C506.997 387.012 512 382.009 512 375.837V350.65C512 344.479 506.997 339.475 500.825 339.475Z" fill="#CF9875"/>
</svg>
