<svg xmlns="http://www.w3.org/2000/svg" xmlns:xlink="http://www.w3.org/1999/xlink" version="1.1" id="Capa_1" x="0px" y="0px" viewBox="0 0 512 512" style="enable-background:new 0 0 512 512;" xml:space="preserve">
<rect x="240.878" y="406.704" style="fill:#84B0B5;" width="30.248" height="77.595"/>
<g>
	<path style="fill:#DCF3F4;" d="M336.642,504.461H175.357v-24.211c0-3.331,2.7-6.031,6.031-6.031h149.222   c3.331,0,6.031,2.7,6.031,6.031L336.642,504.461L336.642,504.461z"/>
	<path style="fill:#DCF3F4;" d="M412.389,195.016H99.607c-2.852,0-5.315,1.998-5.902,4.789L54.396,386.54h403.208l-39.313-186.736   C417.704,197.013,415.241,195.016,412.389,195.016z"/>
</g>
<g>
	<path style="fill:#B0CDCF;" d="M418.291,199.805l39.311,186.727h-30.238l-40.32-191.516h25.343   C415.241,195.016,417.704,197.013,418.291,199.805z"/>
	<path style="fill:#B0CDCF;" d="M336.642,504.461H306.4v-30.243h24.21c3.331,0,6.031,2.7,6.031,6.031L336.642,504.461   L336.642,504.461z"/>
</g>
<path style="fill:#25739E;" d="M451.57,416.784H60.428c-3.331,0-6.032-2.7-6.032-6.031v-24.211h403.206v24.211  C457.602,414.083,454.902,416.784,451.57,416.784z"/>
<path style="fill:#216486;" d="M427.364,416.77h24.206c3.331,0,6.031-2.7,6.031-6.032v-24.206h-30.238V416.77z"/>
<g>
	<polygon style="fill:#A8D2D7;" points="197.758,258.857 81.274,258.857 67.835,322.698 193.278,322.698  "/>
	<polygon style="fill:#A8D2D7;" points="314.24,258.857 430.724,258.857 444.163,322.698 318.72,322.698  "/>
	<polygon style="fill:#A8D2D7;" points="193.278,322.698 318.721,322.698 323.201,386.54 188.799,386.54  "/>
	<polygon style="fill:#A8D2D7;" points="197.758,258.857 202.236,195.016 309.76,195.016 314.24,258.857  "/>
</g>
<polygon style="fill:#84B0B5;" points="413.925,258.857 420.645,322.698 444.163,322.698 430.99,260.126 430.724,258.857 "/>
<circle style="fill:#FFD347;" cx="255.997" cy="78.098" r="30.238"/>
<path style="fill:#FFBE31;" d="M255.999,47.859c-3.535,0-6.927,0.612-10.081,1.728c11.744,4.153,20.161,15.348,20.161,28.514  c0,13.167-8.417,24.362-20.161,28.514c3.153,1.115,6.545,1.728,10.081,1.728c16.702,0,30.242-13.54,30.242-30.242  S272.701,47.859,255.999,47.859z"/>
<g>
	<path style="fill:#FFD347;" d="M255.999,25.158c-4.165,0-7.539-3.376-7.539-7.539V7.539c0-4.164,3.375-7.539,7.539-7.539   c4.165,0,7.539,3.376,7.539,7.539v10.08C263.538,21.783,260.164,25.158,255.999,25.158z"/>
	<path style="fill:#FFD347;" d="M213.233,42.873c-1.929,0-3.859-0.736-5.331-2.208l-7.128-7.127   c-2.945-2.944-2.945-7.718-0.001-10.663c2.945-2.944,7.719-2.944,10.663,0l7.128,7.127c2.945,2.944,2.945,7.718,0.001,10.663   C217.092,42.137,215.162,42.873,213.233,42.873z"/>
	<path style="fill:#FFD347;" d="M195.518,85.639h-10.08c-4.165,0-7.539-3.376-7.539-7.539s3.375-7.539,7.539-7.539h10.08   c4.165,0,7.539,3.376,7.539,7.539C203.057,82.265,199.683,85.639,195.518,85.639z"/>
	<path style="fill:#FFD347;" d="M206.104,135.535c-1.929,0-3.859-0.736-5.331-2.208c-2.945-2.944-2.945-7.718-0.001-10.663   l7.127-7.127c2.945-2.944,7.719-2.944,10.662,0c2.945,2.944,2.945,7.718,0.001,10.663l-7.127,7.127   C209.964,134.798,208.033,135.535,206.104,135.535z"/>
	<path style="fill:#FFD347;" d="M255.999,156.202c-4.165,0-7.539-3.376-7.539-7.539v-10.08c0-4.164,3.375-7.539,7.539-7.539   c4.165,0,7.539,3.376,7.539,7.539v10.08C263.538,152.826,260.164,156.202,255.999,156.202z"/>
	<path style="fill:#FFD347;" d="M305.894,135.535c-1.93,0-3.859-0.736-5.332-2.209l-7.127-7.127   c-2.944-2.944-2.944-7.718,0.001-10.663c2.944-2.944,7.718-2.942,10.663,0l7.127,7.127c2.944,2.944,2.944,7.718-0.001,10.663   C309.753,134.798,307.823,135.535,305.894,135.535z"/>
	<path style="fill:#FFD347;" d="M326.561,85.64h-10.08c-4.164,0-7.539-3.376-7.539-7.539c0-4.164,3.376-7.539,7.539-7.539h10.08   c4.165,0,7.539,3.376,7.539,7.539C334.1,82.265,330.725,85.64,326.561,85.64z"/>
	<path style="fill:#FFD347;" d="M298.766,42.873c-1.929,0-3.859-0.736-5.331-2.208c-2.945-2.944-2.945-7.718-0.001-10.663   l7.127-7.127c2.945-2.944,7.719-2.944,10.662,0c2.945,2.944,2.945,7.718,0.001,10.663l-7.127,7.127   C302.626,42.137,300.695,42.873,298.766,42.873z"/>
</g>
<polygon style="fill:#84B0B5;" points="413.926,322.698 444.164,322.698 430.724,258.857 400.486,258.857 "/>
<path style="fill:#E0B07B;" d="M417.272,512H94.716c-4.165,0-7.539-3.376-7.539-7.539c0-4.164,3.375-7.539,7.539-7.539h322.557  c4.165,0,7.539,3.376,7.539,7.539C424.812,508.624,421.436,512,417.272,512z"/>
<g>
</g>
<g>
</g>
<g>
</g>
<g>
</g>
<g>
</g>
<g>
</g>
<g>
</g>
<g>
</g>
<g>
</g>
<g>
</g>
<g>
</g>
<g>
</g>
<g>
</g>
<g>
</g>
<g>
</g>
</svg>
