<svg xmlns="http://www.w3.org/2000/svg" xmlns:xlink="http://www.w3.org/1999/xlink" version="1.1" id="Capa_1" x="0px" y="0px" viewBox="0 0 512 512" style="enable-background:new 0 0 512 512;" xml:space="preserve">
<g>
	<path style="fill:#CCCCCC;" d="M289.319,103.338c-1.602,0-3.217-0.503-4.592-1.545l-32.955-24.971   c-3.35-2.538-4.009-7.313-1.469-10.663c2.539-3.352,7.314-4.007,10.664-1.47l32.955,24.971c3.35,2.538,4.009,7.313,1.469,10.663   C293.895,102.299,291.619,103.338,289.319,103.338z"/>
	<path style="fill:#CCCCCC;" d="M223.421,103.338c-7.302,0-10.375-9.306-4.603-13.678l32.955-24.971   c3.351-2.539,8.125-1.882,10.664,1.47c2.539,3.35,1.881,8.125-1.469,10.663l-32.955,24.971   C226.637,102.834,225.022,103.338,223.421,103.338z"/>
</g>
<g>
	<path style="fill:#7F7E7D;" d="M269.702,167.842c-4.204,0-7.612-3.407-7.612-7.612c0-68.448,55.687-124.135,124.136-124.135h23.823   c4.204,0,7.612,3.407,7.612,7.612s-3.408,7.612-7.612,7.612h-23.823c-60.054,0-108.912,48.857-108.912,108.911   C277.314,164.434,273.906,167.842,269.702,167.842z"/>
	<path style="fill:#7F7E7D;" d="M242.298,167.842c-4.204,0-7.612-3.407-7.612-7.612c0-60.054-48.858-108.911-108.912-108.911   h-23.823c-4.204,0-7.612-3.407-7.612-7.612s3.408-7.612,7.612-7.612h23.823c68.448,0,124.135,55.687,124.135,124.135   C249.91,164.434,246.503,167.842,242.298,167.842z"/>
</g>
<path style="fill:#E6E6E6;" d="M256.123,0c-4.204,0-7.612,3.407-7.612,7.612V25.44v45.612V88.88c0,29.1,0,209.002,0,233.546  c0,4.204,3.408,7.612,7.612,7.612s7.612-3.407,7.612-7.612c0-237.232,0,27.871,0-233.546V71.052V25.44V7.612  C263.735,3.407,260.327,0,256.123,0z"/>
<path style="fill:#CCCCCC;" d="M268.548,187.635h-24.356c-7.536,0-13.702-6.166-13.702-13.702l0,0  c0-7.536,6.166-13.702,13.702-13.702h24.356c7.536,0,13.702,6.166,13.702,13.702l0,0  C282.25,181.469,276.085,187.635,268.548,187.635z"/>
<path style="fill:#B7B7B7;" d="M250.914,173.933c0-7.536,6.166-13.702,13.702-13.702h-20.425c-7.536,0-13.702,6.166-13.702,13.702  s6.166,13.702,13.702,13.702h20.425C257.08,187.635,250.914,181.469,250.914,173.933z"/>
<g>
	<path style="fill:#CCCCCC;" d="M381.596,78.367c-4.204,0-7.612-3.407-7.612-7.612V36.586c0-4.204,3.408-7.612,7.612-7.612   s7.612,3.407,7.612,7.612v34.169C389.208,74.959,385.8,78.367,381.596,78.367z"/>
	<path style="fill:#CCCCCC;" d="M130.405,78.367c-4.204,0-7.612-3.407-7.612-7.612V36.586c0-4.204,3.408-7.612,7.612-7.612   c4.204,0,7.612,3.407,7.612,7.612v34.169C138.016,74.959,134.608,78.367,130.405,78.367z"/>
</g>
<path style="fill:#7F7E7D;" d="M256.641,304.597L256.641,304.597c-7.717,0-13.972,6.256-13.972,13.972c0,0.234,0,8.156,0,7.951  c0,0.356,0,5.455,0,5.183c0,0.185,0,7.724,0,7.577c0,40.355,0,80.338,0,120.702h27.404c0-13.336,0-112.997,0-128.279v-2.791v-2.392  v-2.791c0-0.195,0-5.921,0-5.701C270.072,310.611,264.059,304.597,256.641,304.597z"/>
<path style="fill:#727272;" d="M256.37,328.913c0-0.356,0-5.455,0-5.183c0-0.344,0-5.406,0-5.16c0-5.194,2.84-9.716,7.046-12.124  c-8.913-5.225-20.748,1.2-20.748,12.124c0,0.234,0,8.156,0,7.951c0,0.356,0,5.455,0,5.183c0,0.185,0,7.724,0,7.577  c0,40.355,0,80.338,0,120.702h13.702C256.37,451.253,256.37,326.264,256.37,328.913z"/>
<rect x="242.671" y="353.15" style="fill:#666666;" width="27.404" height="52.02"/>
<path style="fill:#5B5A5A;" d="M242.668,353.148c0,15.984,0,35.652,0,52.022h13.702c0-16.356,0-36.048,0-52.022H242.668z"/>
<path style="fill:#E6E6E6;" d="M285.802,457.192c-12.122,0-38.716,0-58.865,0c-6.698,0-12.179,5.481-12.179,12.179v3.383  c0,5.169,0,10.775,0,15.225c29.687,0,51.93,0,83.222,0c0-3.005,0-11.298,0-15.225v-3.383  C297.981,462.672,292.5,457.192,285.802,457.192z"/>
<path style="fill:#CCCCCC;" d="M246.728,469.371c0-6.698,5.481-12.179,12.179-12.179c-6.714,0-21.952,0-31.969,0  c-6.698,0-12.179,5.481-12.179,12.179v3.383c0,5.169,0,10.775,0,15.225c6.584,0,21.567,0,31.97,0  C246.728,484.143,246.728,476.238,246.728,469.371z"/>
<path style="fill:#97BC31;" d="M354.568,497.636c-0.005-0.104-0.082-1.011-0.198-1.676c-0.087-0.499-0.168-0.845-0.258-1.175  c-1.553-5.862-6.879-10.189-13.23-10.189h-0.386c-40.168,0-127.844,0-168.637,0c-7.404,0-13.345,5.877-13.686,13.04  c-0.355,7.886,5.901,14.364,13.686,14.364h1.501c53.226,0,115.798,0,167.523,0C348.799,512,354.964,505.335,354.568,497.636z"/>
<path style="fill:#76A314;" d="M234.995,495.961c1.119-6.475,6.745-11.365,13.488-11.365c-28.164,0-52.118,0-76.625,0  c-7.445,0-13.335,5.91-13.686,13.04c-0.348,8.001,6.001,14.364,13.686,14.364h1.501c23.165,0,52.707,0,75.125,0  C240.008,512,233.51,504.345,234.995,495.961z"/>
<path style="fill:#FFB70D;" d="M410.932,96.606c6.387,7.034,10.28,18.404,10.28,28.654c0,21.879-17.737,39.617-39.616,39.617  c-21.88,0-39.617-17.737-39.617-39.617c0-10.25,3.893-21.62,10.28-28.654C352.259,96.606,410.932,96.606,410.932,96.606z"/>
<path style="fill:#EDA006;" d="M395.323,162.431c-25.732,9.506-53.343-9.522-53.343-37.171c0-10.25,3.893-21.62,10.28-28.654h27.453  c-6.388,7.034-10.28,18.404-10.28,28.654C369.434,142.313,380.21,156.848,395.323,162.431z"/>
<path style="fill:#E09105;" d="M381.596,126.681c-7.581,0-13.727-6.145-13.727-13.726v-16.35h27.453v16.35  C395.323,120.536,389.177,126.681,381.596,126.681z"/>
<path style="fill:#7F7E7D;" d="M344.727,98.636c-1.433,0-2.419-1.476-1.834-2.784c14.926-33.365,62.447-33.442,77.407,0  c0.585,1.308-0.401,2.783-1.834,2.783L344.727,98.636L344.727,98.636z"/>
<path style="fill:#727272;" d="M377.4,95.852c-0.585,1.308,0.401,2.784,1.834,2.784h-34.507c-1.433,0-2.419-1.476-1.834-2.784  c9.639-21.545,34.822-30.86,55.957-21.425C389.327,78.678,381.658,86.333,377.4,95.852z"/>
<path style="fill:#FFB70D;" d="M159.741,96.606c6.387,7.034,10.28,18.404,10.28,28.654c0,21.879-17.737,39.617-39.616,39.617  c-21.88,0-39.617-17.737-39.617-39.617c0-10.25,3.893-21.62,10.28-28.654C101.067,96.606,159.741,96.606,159.741,96.606z"/>
<path style="fill:#EDA006;" d="M144.13,162.431c-25.732,9.506-53.343-9.522-53.343-37.171c0-10.25,3.893-21.62,10.28-28.654h27.453  c-6.388,7.034-10.28,18.404-10.28,28.654C118.24,142.313,129.017,156.848,144.13,162.431z"/>
<path style="fill:#E09105;" d="M130.405,126.681c-7.581,0-13.726-6.145-13.726-13.726v-16.35h27.453v16.35  C144.13,120.536,137.984,126.681,130.405,126.681z"/>
<path style="fill:#7F7E7D;" d="M93.534,98.636c-1.433,0-2.419-1.476-1.834-2.784c14.926-33.365,62.447-33.442,77.407,0  c0.585,1.308-0.401,2.783-1.834,2.783L93.534,98.636L93.534,98.636z"/>
<path style="fill:#727272;" d="M126.207,95.852c-0.585,1.308,0.401,2.784,1.834,2.784H93.534c-1.433,0-2.419-1.476-1.834-2.784  c9.639-21.545,34.822-30.86,55.957-21.425C138.135,78.678,130.466,86.333,126.207,95.852z"/>
<g>
</g>
<g>
</g>
<g>
</g>
<g>
</g>
<g>
</g>
<g>
</g>
<g>
</g>
<g>
</g>
<g>
</g>
<g>
</g>
<g>
</g>
<g>
</g>
<g>
</g>
<g>
</g>
<g>
</g>
</svg>
