<svg xmlns="http://www.w3.org/2000/svg" id="Layer_1" enable-background="new 0 0 505.577 505.577" height="512" viewBox="0 0 505.577 505.577" width="512"><g><path d="m282.454 167.696c-12.096 0-22.856 5.889-29.633 14.979-6.777-9.09-17.537-14.979-29.633-14.979-20.458 0-37.101 16.837-37.101 37.533v8.149c0 11.485 9.344 20.83 20.83 20.83s20.83-9.344 20.83-20.83v-7.006c0-4.142-3.358-7.5-7.5-7.5s-7.5 3.358-7.5 7.5v7.006c0 3.214-2.615 5.83-5.83 5.83s-5.83-2.615-5.83-5.83v-8.149c0-12.425 9.914-22.533 22.101-22.533s22.101 10.108 22.101 22.533v220.014c0 4.142 3.358 7.5 7.5 7.5.011 0 .022-.002.033-.002s.022.002.033.002c4.143 0 7.5-3.358 7.5-7.5v-220.014c0-12.425 9.914-22.533 22.101-22.533s22.101 10.108 22.101 22.533v8.149c0 3.214-2.615 5.83-5.829 5.83-3.215 0-5.83-2.615-5.83-5.83v-7.006c0-4.142-3.357-7.5-7.5-7.5s-7.5 3.358-7.5 7.5v7.006c0 11.485 9.345 20.83 20.83 20.83s20.829-9.344 20.829-20.83v-8.149c-.002-20.696-16.646-37.533-37.103-37.533z" fill="#495e75"/><path d="m235.952 42.058c.102-20.531 17.065-42.058 17.065-42.058s16.752 21.078 16.647 42.226v43.478h-31.784z" fill="#57ad45"/><g><g><path d="m480.481 175.159h-455.386c-11.491 0-20.807-9.316-20.807-20.807v-.811c0-11.491 9.316-20.807 20.807-20.807h455.386c11.491 0 20.807 9.316 20.807 20.807v.811c0 11.491-9.315 20.807-20.807 20.807z" fill="#dbe4ee"/><path d="m480.481 132.734h-40c11.491 0 20.807 9.316 20.807 20.807v.811c0 11.491-9.316 20.807-20.807 20.807h40c11.491 0 20.807-9.316 20.807-20.807v-.811c0-11.491-9.315-20.807-20.807-20.807z" fill="#ccdbeb"/><path d="m309.095 435.453h-113.07l7.216-11.353c10.794-16.981 29.373-27.245 49.319-27.245 19.946 0 38.526 10.263 49.319 27.245z" fill="#dbe4ee"/><path d="m301.879 424.101c-10.794-16.981-29.373-27.245-49.319-27.245-6.921 0-13.676 1.238-20 3.561 11.901 4.372 22.271 12.594 29.319 23.684l7.216 11.353h40z" fill="#ccdbeb"/><g><g><path d="m437.548 505.577h-26.311c-17.932 0-34.785-7.064-47.456-19.892l-27.14-27.475c-9.83-9.952-22.895-15.433-36.784-15.433h-94.595c-13.89 0-26.954 5.481-36.785 15.433l-27.139 27.475c-12.671 12.828-29.524 19.892-47.456 19.892h-26.31c-9.697 0-9.697-15 0-15h26.311c13.89 0 26.954-5.481 36.784-15.433l27.139-27.475c12.671-12.828 29.524-19.892 47.457-19.892h94.595c17.932 0 34.785 7.064 47.456 19.892l27.14 27.475c9.83 9.952 22.895 15.433 36.784 15.433h26.311c9.696 0 9.696 15-.001 15z" fill="#495e75"/></g></g></g><g><g><g><path d="m421.928 132.734h-38.924c-6.381 0-11.818-4.635-12.826-10.936l-9.719-60.709h84.015l-9.719 60.709c-1.01 6.301-6.446 10.936-12.827 10.936z" fill="#fa7592"/><g><path d="m457.974 100.842h-42.388c-4.143 0-7.5-3.358-7.5-7.5s3.357-7.5 7.5-7.5h42.388c2.694 0 4.887-2.192 4.887-4.887s-2.192-4.887-4.887-4.887h-42.388c-4.143 0-7.5-3.358-7.5-7.5s3.357-7.5 7.5-7.5h42.388c10.966 0 19.887 8.921 19.887 19.887s-8.921 19.887-19.887 19.887z" fill="#fa7592"/></g></g></g><g><g><path d="m83.649 132.734h38.924c6.381 0 11.818-4.635 12.826-10.936l9.719-60.709h-84.014l9.719 60.709c1.008 6.301 6.445 10.936 12.826 10.936z" fill="#fa7592"/><g><path d="m90.49 100.863h-42.387c-10.966 0-19.887-8.921-19.887-19.887s8.921-19.887 19.887-19.887h42.387c4.142 0 7.5 3.358 7.5 7.5s-3.358 7.5-7.5 7.5h-42.387c-2.695 0-4.887 2.192-4.887 4.887s2.192 4.887 4.887 4.887h42.387c4.142 0 7.5 3.358 7.5 7.5s-3.358 7.5-7.5 7.5z" fill="#fa7592"/></g></g></g></g></g><path d="m284.596 78.396c12.78-18.921 10.386-47.891 10.386-47.891s-28.142 9.149-40.549 27.518c-.006.009-.012.018-.018.027-.785 1.165-2.469 1.165-3.254 0-.006-.009-.012-.018-.018-.027-12.407-18.369-40.549-27.518-40.549-27.518s-2.394 28.97 10.386 47.891l33.398 16.308z" fill="#67b856"/><path d="m252.788 131.734c-23.568 0-44.921-13.893-54.469-35.44l-7.636-17.23h124.21l-7.636 17.23c-9.548 21.547-30.901 35.44-54.469 35.44z" fill="#9b4f1d"/></g></svg>
