<svg xmlns="http://www.w3.org/2000/svg" id="Capa_1" enable-background="new 0 0 512 512" height="512" viewBox="0 0 512 512" width="512"><g><path d="m.001 389.833c.03 1.808.659 3.606 1.882 5.079l38.567 46.437c1.551 1.868 3.853 2.948 6.281 2.948h418.537c2.428 0 4.73-1.081 6.281-2.948l38.567-46.437c1.223-1.473 1.852-3.271 1.882-5.079l-255.998-27.049z" fill="#dfeaef"/><path d="m71.572 106.096-14.458-4.246-9.451 10.652c-1.056.283-1.683 1.368-1.4 2.424l18.2 67.923.79 27.71 23.742 88.606 29.593 14.188 13.401-14.188-26.622-99.354-13.171-24.392-18.2-67.923c-.283-1.057-1.368-1.683-2.424-1.4z" fill="#617881"/><path d="m66.186 78.346c-2.112-7.88-10.385-12.464-18.248-9.955-7.364 2.35-11.38 10.312-9.38 17.778l6.681 24.934c.283 1.056 1.368 1.683 2.424 1.4l23.909-6.406c1.056-.283 1.683-1.368 1.4-2.424z" fill="#738b95"/><path d="m440.428 106.096 16.029-4.246 7.88 10.652c1.056.283 1.683 1.368 1.4 2.424l-18.2 67.923-.79 27.71-23.742 88.606-23.177 9.782-19.816-9.782 26.622-99.354 13.171-24.392 18.2-67.923c.282-1.057 1.367-1.683 2.423-1.4z" fill="#617881"/><path d="m445.814 78.346c2.112-7.88 10.385-12.464 18.248-9.955 7.364 2.35 11.38 10.312 9.38 17.778l-6.681 24.934c-.283 1.056-1.368 1.683-2.424 1.4l-23.909-6.406c-1.056-.283-1.683-1.368-1.4-2.424z" fill="#738b95"/><path d="m445.814 78.346c2.112-7.88 10.385-12.464 18.248-9.955 7.364 2.35 11.38 10.312 9.38 17.778l-6.681 24.934c-.283 1.056-1.368 1.683-2.424 1.4l-23.909-6.406c-1.056-.283-1.683-1.368-1.4-2.424z" fill="#738b95"/><path d="m510.251 384.645-64.823-82.365c-1.548-1.967-3.913-3.115-6.416-3.115h-366.024c-2.503 0-4.868 1.148-6.416 3.115l-64.823 82.365c-1.197 1.521-1.778 3.359-1.747 5.188h511.998c.03-1.828-.551-3.666-1.749-5.188z" fill="#f1f4f6"/><circle cx="256" cy="254.806" fill="#93d8e4" r="18.604"/><path d="m196.758 179.425c34.63-27.257 83.855-27.257 118.484-.001 5.142 4.048 12.484 3.656 17.111-.972 5.44-5.44 4.948-14.432-1.092-19.197-43.972-34.688-106.55-34.687-150.522.001-6.04 4.765-6.532 13.757-1.092 19.197 4.627 4.628 11.969 5.02 17.111.972z" fill="#93d8e4"/><path d="m232.544 217.15c14.301-8.909 32.611-8.91 46.912-.001 5.108 3.182 11.722 2.479 15.977-1.777 5.827-5.827 4.79-15.605-2.193-19.982-22.683-14.22-51.797-14.22-74.481.001-6.983 4.377-8.02 14.155-2.193 19.982 4.256 4.256 10.87 4.96 15.978 1.777z" fill="#93d8e4"/><path d="m430.385 366.654h-348.77c-4.267 0-7.726-3.459-7.726-7.726s3.459-7.726 7.726-7.726h348.771c4.268 0 7.726 3.459 7.726 7.726s-3.459 7.726-7.727 7.726z" fill="#dfeaef"/><path d="m399.566 337.797h-287.133c-4.267 0-7.726-3.459-7.726-7.726s3.459-7.726 7.726-7.726h287.133c4.268 0 7.726 3.459 7.726 7.726.001 4.267-3.458 7.726-7.726 7.726z" fill="#dfeaef"/><g fill="#78d0b1"><circle cx="65.019" cy="417.065" r="7.726"/><circle cx="91.803" cy="417.065" r="7.726"/><circle cx="118.588" cy="417.065" r="7.726"/><circle cx="145.373" cy="417.065" r="7.726"/></g><path d="m445.441 424.792h-26.928c-4.268 0-7.726-3.459-7.726-7.726s3.459-7.726 7.726-7.726h26.928c4.268 0 7.726 3.459 7.726 7.726s-3.459 7.726-7.726 7.726z" fill="#f1f4f6"/></g></svg>
