<svg width="25" height="25" viewBox="0 0 25 25" fill="none" xmlns="http://www.w3.org/2000/svg">
  <path d="M24.9587 7.75738C24.5938 3.74078 21.7508 0.826653 18.1929 0.826653C15.8225 0.826653 13.6522 2.10221 12.431 4.14657C11.2208 2.07577 9.13941 0.826172 6.80705 0.826172C3.24961 0.826172 0.406162 3.7403 0.0417158 7.7569C0.0128678 7.93431 -0.105409 8.86803 0.254229 10.3907C0.772531 12.587 1.96972 14.5847 3.71551 16.1666L12.4252 24.0704L21.2844 16.167C23.0302 14.5847 24.2274 12.5875 24.7457 10.3907C25.1053 8.86851 24.987 7.9348 24.9587 7.75738ZM23.8096 10.1705C23.3365 12.1764 22.2398 14.0039 20.6411 15.4521L12.431 22.7771L4.3617 15.454C2.76016 14.003 1.66393 12.1759 1.19035 10.17C0.84994 8.72908 0.989853 7.91508 0.990333 7.90979L0.997546 7.86123C1.31007 4.34226 3.75301 1.78777 6.80705 1.78777C9.06056 1.78777 11.0443 3.17247 11.9857 5.40098L12.4286 6.45057L12.8714 5.40098C13.7979 3.20661 15.8865 1.78825 18.1933 1.78825C21.2469 1.78825 23.6903 4.34274 24.0091 7.90739C24.0101 7.91508 24.15 8.72956 23.8096 10.1705Z" fill="black"/>
</svg>
