<svg width="25" height="25" viewBox="0 0 25 25" fill="none" xmlns="http://www.w3.org/2000/svg">
  <g clip-path="url(#clip0)">
    <path d="M25.1354 11.4075L21.417 7.95468V2.29804H17.1336V3.97755L12.8502 0L0.565434 11.4075C0.392385 11.5686 0.382105 11.8397 0.543161 12.0132C0.703788 12.1862 0.974926 12.1961 1.14883 12.0355L2.57049 10.7153V25H9.42391H16.2773H23.1308V10.7149L24.5524 12.035C24.6347 12.1117 24.7396 12.1494 24.8441 12.1494C24.9593 12.1494 25.0737 12.1036 25.1577 12.0128C25.3187 11.8397 25.3084 11.5686 25.1354 11.4075ZM17.9903 3.15472H20.5603V7.15926L17.9903 4.77298V3.15472ZM3.42674 24.1433C3.42824 24.1411 3.42515 24.1456 3.42674 24.1433ZM22.2736 24.1433H3.42674C3.42824 24.1411 3.42515 24.1456 3.42674 24.1433V9.91947L12.8502 1.16894L18.9669 6.84871L21.417 9.12362L22.2736 9.91904V24.1433Z" fill="black"/>
  </g>
  <defs>
  <clipPath id="clip0">
  <rect width="25" height="25" fill="white"/>
  </clipPath>
  </defs>
</svg>
