<svg width="25" height="25" viewBox="0 0 25 25" fill="none" xmlns="http://www.w3.org/2000/svg">
  <path d="M3.12561 2.50012H14.3756C15.4095 2.50012 16.2506 3.34126 16.2506 4.37512V8.12512C16.2506 8.47029 15.9708 8.75012 15.6256 8.75012C15.2804 8.75012 15.0006 8.47029 15.0006 8.12512V4.37512C15.0006 4.03052 14.7202 3.75012 14.3756 3.75012H4.92058L9.72288 5.80825C10.5795 6.17539 11.2506 7.19309 11.2506 8.12512V20.0001H14.3756C14.7202 20.0001 15.0006 19.7197 15.0006 19.3751V15.6251C15.0006 15.2799 15.2804 15.0001 15.6256 15.0001C15.9708 15.0001 16.2506 15.2799 16.2506 15.6251V19.3751C16.2506 20.409 15.4095 21.2501 14.3756 21.2501H11.2506V23.1251C11.2506 23.6667 11.0252 24.1259 10.6322 24.385C10.4152 24.5281 10.1624 24.6002 9.89558 24.6002C9.6791 24.6002 9.45347 24.5527 9.23049 24.4572L2.77842 21.692C1.9217 21.3249 1.25061 20.3072 1.25061 19.3751V4.3751C1.25061 3.34124 2.0917 2.5001 3.12561 2.5001V2.50012ZM2.50061 19.3751C2.50061 19.8137 2.86768 20.3704 3.27078 20.543L9.72285 23.3082C9.84277 23.3596 9.92214 23.3559 9.94409 23.3415C9.96592 23.3271 10.0006 23.2556 10.0006 23.1251V8.12512C10.0006 7.6866 9.63355 7.12993 9.23045 6.9572L2.56436 4.10029C2.52354 4.1833 2.50061 4.27659 2.50061 4.37515V19.3751V19.3751Z" fill="black"/>
  <path d="M14.5581 11.4332L18.3081 7.68319C18.5521 7.4391 18.9479 7.4391 19.1919 7.68319C19.436 7.92729 19.436 8.32299 19.1919 8.56706L16.5089 11.2501H24.375C24.7202 11.2501 25 11.5299 25 11.8751C25 12.2203 24.7202 12.5001 24.375 12.5001H16.5089L19.1919 15.1832C19.436 15.4273 19.436 15.823 19.1919 16.0671C19.0699 16.1891 18.91 16.2501 18.75 16.2501C18.59 16.2501 18.4301 16.1891 18.3081 16.067L14.5581 12.317C14.314 12.073 14.314 11.6773 14.5581 11.4332Z" fill="black"/>
</svg>
