<svg width="25" height="19" viewBox="0 0 25 19" fill="none" xmlns="http://www.w3.org/2000/svg">
<path d="M24.9072 0.149972C24.8165 0.0384229 24.6758 -0.0136055 24.5355 0.00304363C24.5035 0.00470854 24.4735 0.0101195 24.4423 0.0192766L0.307307 6.58361C0.129993 6.6319 0.00512497 6.7909 0.000130234 6.97445C-0.00444828 7.15801 0.112096 7.32325 0.286495 7.38069L9.11761 10.2743L8.32761 16.5935C8.3068 16.76 8.38797 16.9227 8.53323 17.006C8.59774 17.043 8.66934 17.0613 8.74051 17.0613C8.83 17.0613 8.91949 17.0326 8.99358 16.9756L12.2256 14.5007L15.0589 18.5485C15.1371 18.6605 15.2645 18.7262 15.3998 18.7262C15.4089 18.7262 15.4185 18.7258 15.4281 18.7254C15.5737 18.7154 15.7032 18.6301 15.7698 18.4998L24.953 0.601996C25.0296 0.455484 25.0113 0.27817 24.9072 0.149972ZM22.0165 1.54184L9.51553 9.52843L1.8665 7.02232L22.0165 1.54184ZM9.27703 15.7103L9.85226 11.1097L11.7482 13.8181L9.27703 15.7103ZM15.3456 17.5054L10.1636 10.1024L23.5245 1.5664L15.3456 17.5054Z" fill="black"/>
</svg>
