<svg width="25" height="25" viewBox="0 0 25 25" fill="none" xmlns="http://www.w3.org/2000/svg">
<path d="M24.4042 24.2009L17.3908 16.9071C19.1796 15.113 20.2879 12.6397 20.2879 9.91202C20.2879 4.44625 15.8417 0 10.3759 0C4.91012 0 0.463867 4.44625 0.463867 9.91202C0.463867 15.3778 4.91012 19.824 10.3759 19.824C12.7751 19.824 14.977 18.9664 16.6931 17.5433L23.7236 24.8551C23.8161 24.9519 23.9398 25 24.0639 25C24.1819 25 24.2994 24.9561 24.391 24.8683C24.5789 24.6875 24.5845 24.3888 24.4042 24.2009ZM10.3759 18.88C5.43073 18.88 1.40787 14.8572 1.40787 9.91202C1.40787 4.96687 5.43073 0.944002 10.3759 0.944002C15.321 0.944002 19.3439 4.96687 19.3439 9.91202C19.3439 14.8572 15.3206 18.88 10.3759 18.88Z" fill="black"/>
</svg>
