<svg width="25" height="25" viewBox="0 0 25 25" fill="none" xmlns="http://www.w3.org/2000/svg">
<path d="M20.0062 17.8704L16.0257 15.8804C15.6503 15.6925 15.417 15.315 15.417 14.895V13.4862C15.5124 13.3696 15.6128 13.2367 15.7166 13.09C16.2328 12.3608 16.6466 11.5492 16.9474 10.6737C17.5353 10.4042 17.917 9.82292 17.917 9.16667V7.5C17.917 7.09875 17.767 6.71 17.5003 6.40625V4.19C17.5237 3.96083 17.6153 2.59667 16.6287 1.47125C15.7728 0.495 14.3841 0 12.5003 0C10.6166 0 9.22783 0.495 8.37199 1.47083C7.38533 2.59625 7.47699 3.96083 7.50033 4.19V6.40625C7.23366 6.71 7.08366 7.09875 7.08366 7.5V9.16667C7.08366 9.67375 7.31408 10.1467 7.70741 10.4621C8.08908 11.9733 8.88783 13.1121 9.16699 13.4775V14.8562C9.16699 15.2596 8.94699 15.6296 8.59324 15.8229L4.87616 17.8504C3.66741 18.51 2.91699 19.7742 2.91699 21.1508V22.5C2.91699 24.4775 9.18574 25 12.5003 25C15.8149 25 22.0837 24.4775 22.0837 22.5V21.2321C22.0837 19.7996 21.2874 18.5112 20.0062 17.8704ZM21.2503 22.5C21.2503 23.0654 18.162 24.1667 12.5003 24.1667C6.83866 24.1667 3.75033 23.0654 3.75033 22.5V21.1508C3.75033 20.0796 4.33449 19.095 5.27491 18.5825L8.99199 16.555C9.61408 16.2154 10.0003 15.5642 10.0003 14.8562V13.1817L9.90324 13.0658C9.89324 13.0537 8.87199 11.8183 8.48241 10.1221L8.44449 9.95708L8.30241 9.86542C8.06116 9.70958 7.91699 9.44833 7.91699 9.16667V7.5C7.91699 7.26625 8.01616 7.04833 8.19616 6.88542L8.33366 6.76167V4.16667L8.32991 4.11208C8.32866 4.10083 8.18699 2.94583 8.99866 2.02C9.68908 1.2325 10.8674 0.833333 12.5003 0.833333C14.1274 0.833333 15.3032 1.22958 15.9945 2.01167C16.8057 2.92875 16.6716 4.10208 16.6707 4.11208L16.667 6.76167L16.8045 6.88583C16.9845 7.04833 17.0837 7.26625 17.0837 7.5V9.16667C17.0837 9.53042 16.8453 9.84875 16.4912 9.95792L16.2837 10.0217L16.217 10.2279C15.9382 11.095 15.5412 11.8958 15.0362 12.6083C14.9124 12.7837 14.792 12.9392 14.6874 13.0579L14.5837 13.1762V14.895C14.5837 15.6325 14.9932 16.2954 15.6528 16.6254L19.6332 18.6154C20.6307 19.1142 21.2503 20.1167 21.2503 21.2321V22.5Z" fill="black"/>
</svg>
