<svg width="474" height="474" viewBox="0 0 474 474" fill="none" xmlns="http://www.w3.org/2000/svg">
<g clip-path="url(#clip0)">
<path fill-rule="evenodd" clip-rule="evenodd" d="M231.348 -0.0350432C232.634 -3.98841 238.232 -3.9883 239.517 -0.0348365L244.751 16.0568H261.689C265.849 16.0568 267.579 21.3771 264.213 23.8203L250.511 33.7645L255.744 49.8538C257.03 53.8079 252.5 57.0958 249.134 54.6514L235.433 44.7009L221.736 54.6504C218.37 57.0953 213.84 53.8072 215.126 49.8528L220.359 33.7648L206.654 23.8207C203.287 21.3778 205.016 16.0568 209.177 16.0568H226.114L231.348 -0.0350432ZM235.433 7.24208L231.536 19.2225C230.961 20.9904 229.312 22.1874 227.452 22.1874H214.845L225.047 29.5895C226.553 30.6822 227.183 32.6198 226.608 34.3884L222.713 46.3612L232.908 38.9561C234.413 37.8625 236.453 37.8624 237.958 38.9559L248.157 46.3631L244.263 34.3881C243.688 32.6197 244.318 30.6825 245.824 29.5897L256.023 22.1874H243.413C241.553 22.1874 239.904 20.9903 239.329 19.2222L235.433 7.24208Z" fill="black"/>
<path fill-rule="evenodd" clip-rule="evenodd" d="M231.348 411.466C232.634 407.511 238.232 407.512 239.518 411.466L244.751 427.565H261.689C265.849 427.565 267.579 432.885 264.213 435.329L250.511 445.273L255.744 461.363C257.03 465.316 252.502 468.604 249.136 466.161L235.433 456.217L221.734 466.16C218.368 468.604 213.84 465.316 215.126 461.362L220.359 445.273L206.654 435.329C203.287 432.886 205.016 427.565 209.177 427.565H226.114L231.348 411.466ZM235.433 418.745L231.536 430.73C230.961 432.498 229.312 433.696 227.451 433.696H214.845L225.047 441.098C226.553 442.19 227.183 444.128 226.608 445.897L222.712 457.873L232.909 450.472C234.414 449.379 236.452 449.379 237.957 450.471L248.159 457.875L244.263 445.896C243.688 444.128 244.318 442.191 245.824 441.098L256.023 433.696H243.413C241.553 433.696 239.904 432.498 239.329 430.73L235.433 418.745Z" fill="black"/>
<path fill-rule="evenodd" clip-rule="evenodd" d="M344.373 36.4398C345.658 32.485 351.258 32.4851 352.543 36.4398L357.773 52.5325H374.712C378.872 52.5325 380.602 57.8515 377.237 60.2953L363.532 70.2481L368.765 86.3371C370.051 90.2914 365.521 93.5796 362.155 91.1346L348.458 81.1852L334.757 91.1356C331.391 93.58 326.861 90.2922 328.147 86.338L333.38 70.2478L319.678 60.295C316.314 57.8509 318.044 52.5325 322.204 52.5325H339.144L344.373 36.4398ZM348.458 43.7203L344.566 55.697C343.991 57.4656 342.342 58.6631 340.481 58.6631H327.866L338.069 66.0746C339.574 67.1676 340.203 69.1042 339.628 70.872L335.734 82.8474L345.933 75.4401C347.439 74.3466 349.478 74.3467 350.983 75.4404L361.178 82.8455L357.283 70.8723C356.708 69.1043 357.338 67.1673 358.843 66.0744L369.048 58.6631H356.435C354.574 58.6631 352.925 57.4655 352.35 55.697L348.458 43.7203Z" fill="black"/>
<path fill-rule="evenodd" clip-rule="evenodd" d="M421.488 112.456C422.774 108.503 428.372 108.504 429.657 112.458L434.887 128.549H451.825C455.986 128.549 457.716 133.869 454.35 136.312L440.646 146.261L445.88 162.352C447.166 166.306 442.637 169.594 439.271 167.15L425.573 157.206L411.869 167.151C408.503 169.594 403.974 166.306 405.26 162.353L410.494 146.261L396.791 136.312C393.425 133.869 395.155 128.549 399.315 128.549H416.25L421.488 112.456ZM425.571 119.734L421.671 131.716C421.095 133.483 419.447 134.68 417.587 134.68H404.98L415.183 142.087C416.688 143.18 417.318 145.117 416.743 146.885L412.846 158.865L423.049 151.46C424.554 150.368 426.592 150.368 428.097 151.461L438.294 158.863L434.398 146.885C433.823 145.117 434.453 143.18 435.958 142.087L446.161 134.68H433.55C431.689 134.68 430.04 133.482 429.465 131.714L425.571 119.734Z" fill="black"/>
<path fill-rule="evenodd" clip-rule="evenodd" d="M423.323 304.532C424.609 300.578 430.208 300.578 431.493 304.533L436.723 320.63H453.659C457.82 320.63 459.549 325.95 456.183 328.393L442.483 338.337L447.718 354.422C449.005 358.376 444.477 361.665 441.111 359.222L427.408 349.281L413.704 359.223C410.338 361.665 405.81 358.377 407.096 354.424L412.33 338.337L398.628 328.393C395.262 325.95 396.991 320.63 401.152 320.63H418.09L423.323 304.532ZM427.407 311.812L423.511 323.795C422.937 325.563 421.288 326.76 419.427 326.76H406.818L417.018 334.162C418.524 335.255 419.154 337.193 418.578 338.961L414.682 350.938L424.885 343.535C426.39 342.444 428.427 342.444 429.932 343.535L440.132 350.936L436.234 338.962C435.658 337.193 436.288 335.255 437.794 334.162L447.993 326.76H435.385C433.524 326.76 431.875 325.563 431.3 323.794L427.407 311.812Z" fill="black"/>
<path d="M423.511 323.795L427.407 311.812L431.3 323.794C431.875 325.563 433.524 326.76 435.385 326.76H447.993L437.794 334.162C436.288 335.255 435.658 337.193 436.234 338.962L440.132 350.936L429.932 343.535C428.427 342.444 426.39 342.444 424.885 343.535L414.682 350.938L418.578 338.961C419.154 337.193 418.524 335.255 417.018 334.162L406.818 326.76H419.427C421.288 326.76 422.937 325.563 423.511 323.795Z" fill="black"/>
<path fill-rule="evenodd" clip-rule="evenodd" d="M44.0026 112.46C45.2879 108.506 50.8867 108.506 52.1721 112.46L57.4016 128.549H74.3359C78.496 128.549 80.2261 133.868 76.8609 136.312L63.1604 146.261L68.3907 162.353C69.6758 166.307 65.1468 169.594 61.7812 167.15L48.0869 157.206L34.3845 167.151C31.0185 169.594 26.4902 166.306 27.7759 162.353L33.0091 146.261L19.3089 136.312C15.9436 133.868 17.6737 128.549 21.8338 128.549H38.7731L44.0026 112.46ZM48.0873 119.74L44.1953 131.714C43.6205 133.482 41.9713 134.68 40.1105 134.68H27.4972L37.6978 142.087C39.2027 143.18 39.8324 145.117 39.2574 146.885L35.3614 158.865L45.5632 151.461C47.0685 150.368 49.1068 150.368 50.6119 151.461L60.8055 158.863L56.912 146.884C56.3374 145.117 56.9671 143.18 58.4718 142.087L68.6725 134.68H56.0641C54.2033 134.68 52.5542 133.482 51.9794 131.714L48.0873 119.74Z" fill="black"/>
<path fill-rule="evenodd" clip-rule="evenodd" d="M439.36 204.058C440.647 200.105 446.244 200.106 447.529 204.06L452.759 220.151H469.697C473.858 220.151 475.587 225.471 472.221 227.914L458.52 237.859L463.753 253.956C465.039 257.909 460.511 261.196 457.145 258.754L443.445 248.812L429.742 258.754C426.376 261.196 421.848 257.908 423.134 253.955L428.371 237.859L414.667 227.915C411.3 225.472 413.03 220.151 417.191 220.151H434.123L439.36 204.058ZM443.443 211.336L439.544 223.317C438.969 225.085 437.32 226.281 435.46 226.281H422.858L433.059 233.683C434.565 234.776 435.195 236.714 434.62 238.483L430.72 250.468L440.922 243.067C442.427 241.975 444.464 241.975 445.969 243.067L456.169 250.469L452.271 238.482C451.696 236.714 452.327 234.776 453.832 233.684L464.031 226.281H451.422C449.561 226.281 447.912 225.084 447.337 223.316L443.443 211.336Z" fill="black"/>
<path fill-rule="evenodd" clip-rule="evenodd" d="M26.4736 204.06C27.7596 200.106 33.3576 200.107 34.6428 204.061L39.8728 220.151H56.8054C60.9661 220.151 62.6958 225.471 59.3294 227.914L45.6286 237.858L50.8655 253.954C52.1518 257.907 47.6237 261.196 44.2574 258.753L30.5583 248.812L16.8532 258.755C13.4871 261.197 8.95987 257.909 10.2454 253.956L15.4801 237.859L1.77901 227.914C-1.58736 225.471 0.142306 220.151 4.30301 220.151H21.2398L26.4736 204.06ZM30.5575 211.338L26.6614 223.316C26.0864 225.084 24.4375 226.281 22.577 226.281H9.96898L20.168 233.684C21.6735 234.777 22.3036 236.714 21.7285 238.482L17.8302 250.47L28.0351 243.066C29.5401 241.975 31.5773 241.975 33.0821 243.067L43.2793 250.467L39.3802 238.483C38.8048 236.714 39.4348 234.777 40.9405 233.684L51.1394 226.281H38.5353C36.6745 226.281 35.0254 225.084 34.4506 223.316L30.5575 211.338Z" fill="black"/>
<path fill-rule="evenodd" clip-rule="evenodd" d="M41.515 304.533C42.8006 300.578 48.3997 300.578 49.6846 304.533L54.9146 320.63H71.8477C76.0081 320.63 77.738 325.949 74.3722 328.393L60.6744 338.337L65.9036 354.424C67.1887 358.378 62.6605 361.665 59.2948 359.222L45.5996 349.281L31.8966 359.223C28.5304 361.665 24.0028 358.377 25.2887 354.424L30.5215 338.337L16.8206 328.393C13.4542 325.95 15.1839 320.63 19.3446 320.63H36.2822L41.515 304.533ZM45.5993 311.813L41.7043 323.795C41.1294 325.563 39.4803 326.76 37.6196 326.76H25.0105L35.2094 334.163C36.7151 335.255 37.3451 337.193 36.7699 338.961L32.8741 350.938L43.0765 343.536C44.5816 342.444 46.6192 342.444 48.124 343.536L58.3189 350.936L54.426 338.96C53.8513 337.192 54.4812 335.256 55.9863 334.163L66.183 326.76H53.5769C51.716 326.76 50.0667 325.563 49.4921 323.794L45.5993 311.813Z" fill="black"/>
<path fill-rule="evenodd" clip-rule="evenodd" d="M347.7 383.794C348.986 379.84 354.584 379.841 355.869 383.795L361.099 399.884H378.038C382.198 399.884 383.928 405.204 380.562 407.647L366.855 417.6L372.091 433.69C373.378 437.643 368.849 440.932 365.482 438.489L351.784 428.545L338.078 438.49C334.711 440.933 330.183 437.644 331.47 433.691L336.707 417.6L323.003 407.647C319.637 405.203 321.367 399.884 325.528 399.884H342.467L347.7 383.794ZM351.784 391.073L347.889 403.05C347.314 404.818 345.665 406.015 343.804 406.015H331.191L341.396 413.426C342.902 414.519 343.531 416.457 342.956 418.225L339.057 430.203L349.261 422.799C350.766 421.707 352.804 421.707 354.309 422.8L364.504 430.201L360.607 418.225C360.031 416.456 360.661 414.519 362.166 413.426L372.373 406.015H359.762C357.901 406.015 356.252 404.818 355.677 403.049L351.784 391.073Z" fill="black"/>
<path d="M347.889 403.05L351.784 391.073L355.677 403.049C356.252 404.818 357.901 406.015 359.762 406.015H372.373L362.166 413.426C360.661 414.519 360.031 416.456 360.607 418.225L364.504 430.201L354.309 422.8C352.804 421.707 350.766 421.707 349.261 422.799L339.057 430.203L342.956 418.225C343.531 416.457 342.902 414.519 341.396 413.426L331.191 406.015H343.804C345.665 406.015 347.314 404.818 347.889 403.05Z" fill="black"/>
<path fill-rule="evenodd" clip-rule="evenodd" d="M121.984 36.438C123.27 32.4838 128.869 32.4846 130.154 36.4391L135.383 52.5325H152.322C156.482 52.5325 158.212 57.8513 154.847 60.2952L141.143 70.2478L146.379 86.3364C147.666 90.2907 143.136 93.5795 139.77 91.1349L126.07 81.1852L112.373 91.1348C109.007 93.5797 104.477 90.2918 105.763 86.3375L110.995 70.2481L97.2907 60.2952C93.9256 57.8513 95.6557 52.5325 99.8158 52.5325H116.751L121.984 36.438ZM126.068 43.718L122.172 55.6978C121.598 57.466 119.949 58.6631 118.088 58.6631H105.479L115.684 66.0745C117.189 67.1674 117.818 69.1042 117.243 70.8721L113.349 82.8459L123.544 75.4403C125.05 74.3467 127.089 74.3466 128.595 75.4401L138.791 82.8455L134.895 70.8728C134.32 69.1047 134.949 67.1675 136.454 66.0744L146.659 58.6631H134.045C132.184 58.6631 130.535 57.4655 129.96 55.6968L126.068 43.718Z" fill="black"/>
<path fill-rule="evenodd" clip-rule="evenodd" d="M113.615 382.401C114.9 378.446 120.499 378.447 121.784 382.401L127.017 398.5H143.954C148.115 398.5 149.844 403.821 146.477 406.264L132.778 416.203L138.012 432.296C139.297 436.249 134.77 439.537 131.404 437.095L117.7 427.155L103.999 437.094C100.633 439.536 96.1059 436.248 97.3915 432.295L102.625 416.203L88.9255 406.264C85.5584 403.821 87.2879 398.5 91.4489 398.5H108.381L113.615 382.401ZM117.699 389.68L113.803 401.665C113.228 403.433 111.579 404.631 109.718 404.631H97.1165L107.312 412.028C108.818 413.12 109.448 415.058 108.873 416.827L104.976 428.809L115.176 421.409C116.681 420.318 118.718 420.318 120.223 421.409L130.427 428.811L126.53 416.827C125.954 415.058 126.585 413.12 128.091 412.028L138.286 404.631H125.68C123.819 404.631 122.17 403.433 121.595 401.665L117.699 389.68Z" fill="black"/>
<path d="M113.803 401.665L117.699 389.68L121.595 401.665C122.17 403.433 123.819 404.631 125.68 404.631H138.286L128.091 412.028C126.585 413.12 125.954 415.058 126.53 416.827L130.427 428.811L120.223 421.409C118.718 420.318 116.681 420.318 115.176 421.409L104.976 428.809L108.873 416.827C109.448 415.058 108.818 413.12 107.312 412.028L97.1165 404.631H109.718C111.579 404.631 113.228 403.433 113.803 401.665Z" fill="black"/>
<path d="M26.6614 223.316L30.5575 211.338L34.4506 223.316C35.0254 225.084 36.6745 226.281 38.5353 226.281H51.1394L40.9405 233.684C39.4348 234.777 38.8048 236.714 39.3802 238.483L43.2793 250.467L33.0821 243.067C31.5773 241.975 29.5401 241.975 28.0351 243.066L17.8302 250.47L21.7285 238.482C22.3036 236.714 21.6735 234.777 20.168 233.684L9.96898 226.281H22.577C24.4375 226.281 26.0864 225.084 26.6614 223.316Z" fill="black"/>
<path d="M44.1953 131.714L48.0873 119.74L51.9794 131.714C52.5542 133.482 54.2033 134.68 56.0641 134.68H68.6725L58.4718 142.087C56.9671 143.18 56.3374 145.117 56.912 146.884L60.8055 158.863L50.6119 151.461C49.1068 150.368 47.0685 150.368 45.5632 151.461L35.3614 158.865L39.2574 146.885C39.8324 145.117 39.2027 143.18 37.6978 142.087L27.4972 134.68H40.1105C41.9713 134.68 43.6205 133.482 44.1953 131.714Z" fill="black"/>
<path d="M41.7043 323.795L45.5993 311.813L49.4921 323.794C50.0667 325.563 51.716 326.76 53.5769 326.76H66.183L55.9863 334.163C54.4812 335.256 53.8513 337.192 54.426 338.96L58.3189 350.936L48.124 343.536C46.6192 342.444 44.5816 342.444 43.0765 343.536L32.8741 350.938L36.7699 338.961C37.3451 337.193 36.7151 335.255 35.2094 334.163L25.0105 326.76H37.6196C39.4803 326.76 41.1294 325.563 41.7043 323.795Z" fill="black"/>
<path d="M122.172 55.6978L126.068 43.718L129.96 55.6968C130.535 57.4655 132.184 58.6631 134.045 58.6631H146.659L136.454 66.0744C134.949 67.1675 134.32 69.1047 134.895 70.8728L138.791 82.8455L128.595 75.4401C127.089 74.3466 125.05 74.3467 123.544 75.4403L113.349 82.8459L117.243 70.8721C117.818 69.1042 117.189 67.1674 115.684 66.0745L105.479 58.6631H118.088C119.949 58.6631 121.598 57.466 122.172 55.6978Z" fill="black"/>
<path d="M231.536 19.2225L235.433 7.24208L239.329 19.2222C239.904 20.9903 241.553 22.1874 243.413 22.1874H256.023L245.824 29.5897C244.318 30.6825 243.688 32.6197 244.263 34.3881L248.157 46.3631L237.958 38.9559C236.453 37.8624 234.413 37.8625 232.908 38.9561L222.713 46.3612L226.608 34.3884C227.183 32.6198 226.553 30.6822 225.047 29.5895L214.845 22.1874H227.452C229.312 22.1874 230.961 20.9904 231.536 19.2225Z" fill="black"/>
<path d="M344.566 55.697L348.458 43.7203L352.35 55.697C352.925 57.4655 354.574 58.6631 356.435 58.6631H369.048L358.843 66.0744C357.338 67.1673 356.708 69.1043 357.283 70.8723L361.178 82.8455L350.983 75.4404C349.478 74.3467 347.439 74.3466 345.933 75.4401L335.734 82.8474L339.628 70.872C340.203 69.1042 339.574 67.1676 338.069 66.0746L327.866 58.6631H340.481C342.342 58.6631 343.991 57.4656 344.566 55.697Z" fill="black"/>
<path d="M421.671 131.716L425.571 119.734L429.465 131.714C430.04 133.482 431.689 134.68 433.55 134.68H446.161L435.958 142.087C434.453 143.18 433.823 145.117 434.398 146.885L438.294 158.863L428.097 151.461C426.592 150.368 424.554 150.368 423.049 151.46L412.846 158.865L416.743 146.885C417.318 145.117 416.688 143.18 415.183 142.087L404.98 134.68H417.587C419.447 134.68 421.095 133.483 421.671 131.716Z" fill="black"/>
<path d="M439.544 223.317L443.443 211.336L447.337 223.316C447.912 225.084 449.561 226.281 451.422 226.281H464.031L453.832 233.684C452.327 234.776 451.696 236.714 452.271 238.482L456.169 250.469L445.969 243.067C444.464 241.975 442.427 241.975 440.922 243.067L430.72 250.468L434.62 238.483C435.195 236.714 434.565 234.776 433.059 233.683L422.858 226.281H435.46C437.32 226.281 438.969 225.085 439.544 223.317Z" fill="black"/>
<path d="M231.536 430.73L235.433 418.745L239.329 430.73C239.904 432.498 241.553 433.696 243.413 433.696H256.023L245.824 441.098C244.318 442.191 243.688 444.128 244.263 445.896L248.159 457.875L237.957 450.471C236.452 449.379 234.414 449.379 232.909 450.472L222.712 457.873L226.608 445.897C227.183 444.128 226.553 442.19 225.047 441.098L214.845 433.696H227.451C229.312 433.696 230.961 432.498 231.536 430.73Z" fill="black"/>
</g>
<defs>
<clipPath id="clip0">
<rect width="473.677" height="473.677" fill="white"/>
</clipPath>
</defs>
</svg>
