<svg width="19" height="24" viewBox="0 0 19 24" fill="none" xmlns="http://www.w3.org/2000/svg">
  <path fill-rule="evenodd" clip-rule="evenodd" d="M0.5 0C0.223858 0 0 0.223857 0 0.5V23.5C0 23.7761 0.223858 24 0.5 24H17.8607C18.1368 24 18.3607 23.7761 18.3607 23.5V0.5C18.3607 0.223858 18.1368 0 17.8607 0H0.5ZM0.862033 0.666656C0.723961 0.666656 0.612033 0.778585 0.612033 0.916656V23.0833C0.612033 23.2214 0.723961 23.3333 0.862033 23.3333H17.4986C17.6367 23.3333 17.7486 23.2214 17.7486 23.0833V0.916656C17.7486 0.778585 17.6367 0.666656 17.4986 0.666656H0.862033Z" fill="#1A1A1A"/>
  <path d="M7.97425 8.57642L6.9246 8.05461V7.94592C7.39432 7.69625 7.72468 7.28509 7.90904 6.72031C8.18862 6.57596 8.36722 6.29483 8.36722 5.97972V5.69887C8.36722 5.43881 8.24287 5.19756 8.03513 5.03917C7.85509 3.97757 7.09396 3.43946 5.7705 3.43946C5.70789 3.43946 5.64672 3.44171 5.587 3.44621C5.33771 3.46615 4.97273 3.44508 4.6568 3.23838C4.53879 3.16087 4.44963 3.0856 4.39279 3.01567C4.29585 2.89518 4.13283 2.85306 3.98828 2.91091C3.84344 2.96877 3.75833 3.10975 3.77651 3.26113C3.78862 3.36616 3.8068 3.48833 3.83421 3.6223C3.8899 3.89612 3.8899 3.89612 3.81171 4.05985C3.78228 4.12192 3.74592 4.19747 3.70322 4.29942C3.60772 4.52718 3.53992 4.77657 3.50097 5.04282C3.29611 5.20149 3.17378 5.44134 3.17378 5.69887V5.97972C3.17378 6.29483 3.35238 6.57596 3.63196 6.72031C3.81632 7.28537 4.14668 7.69653 4.6164 7.94592V8.05152L3.52895 8.57334C3.13194 8.78397 2.88525 9.18839 2.88525 9.62876V10.0009C2.88525 10.2264 2.88525 10.7541 5.7705 10.7541C8.65575 10.7541 8.65575 10.2264 8.65575 10.0009V9.65122C8.65575 9.19316 8.39463 8.78172 7.97425 8.57642ZM8.0787 9.93741C7.89866 10.0441 7.16638 10.1924 5.7705 10.1924C4.37462 10.1924 3.64234 10.0441 3.4623 9.93741V9.62876C3.4623 9.39425 3.59358 9.17856 3.79468 9.07212L4.90752 8.53823C5.08121 8.45566 5.19316 8.28069 5.19316 8.09225V7.58588L5.01889 7.51286C4.5812 7.32919 4.29672 6.97897 4.14899 6.44171L4.10773 6.29202L3.95597 6.24596C3.83537 6.20917 3.75083 6.09992 3.75083 5.97972V5.69887C3.75083 5.59721 3.81055 5.50284 3.90692 5.45285L4.04224 5.38264L4.05811 5.23407C4.08667 4.97064 4.14697 4.72771 4.23757 4.5123C4.27594 4.42102 4.30855 4.35278 4.33509 4.29689C4.4329 4.09243 4.46839 3.98683 4.44386 3.7703C4.78317 3.95903 5.19085 4.03935 5.63316 4.00649C5.67788 4.00284 5.72376 4.00116 5.77079 4.00116C6.85102 4.00116 7.37845 4.38199 7.48145 5.23632L7.49934 5.38292L7.6335 5.45201C7.72987 5.502 7.79017 5.59665 7.79017 5.69887V5.97972C7.79017 6.09992 7.70563 6.20917 7.58474 6.24568L7.43298 6.29174L7.39172 6.44143C7.24399 6.97869 6.95951 7.32891 6.52182 7.51258L6.34755 7.58588V8.09449C6.34755 8.28238 6.4543 8.45173 6.62569 8.53683L7.71487 9.07858C7.93934 9.18755 8.0787 9.40717 8.0787 9.65122V9.93741Z" fill="#1A1A1A"/>
  <path d="M9.79248 6.18578C9.79248 6.0047 9.93927 5.85791 10.1203 5.85791H13.1367C13.3178 5.85791 13.4646 6.0047 13.4646 6.18578V6.18578C13.4646 6.36686 13.3178 6.51365 13.1367 6.51365H10.1203C9.93927 6.51365 9.79248 6.36686 9.79248 6.18578V6.18578Z" fill="#1A1A1A"/>
  <path d="M9.79248 7.78148C9.79248 7.60041 9.93927 7.45361 10.1203 7.45361H15.2788C15.4599 7.45361 15.6067 7.60041 15.6067 7.78148V7.78148C15.6067 7.96256 15.4599 8.10935 15.2788 8.10935H10.1203C9.93927 8.10935 9.79248 7.96256 9.79248 7.78148V7.78148Z" fill="#1A1A1A"/>
  <path d="M9.79248 9.37706C9.79248 9.19599 9.93927 9.04919 10.1203 9.04919H15.2788C15.4599 9.04919 15.6067 9.19599 15.6067 9.37706V9.37706C15.6067 9.55814 15.4599 9.70493 15.2788 9.70493H10.1203C9.93927 9.70493 9.79248 9.55814 9.79248 9.37706V9.37706Z" fill="#1A1A1A"/>
  <path d="M2.448 12.6776C2.448 12.4935 2.59724 12.3442 2.78133 12.3442H15.5791C15.7632 12.3442 15.9125 12.4935 15.9125 12.6776V12.6776C15.9125 12.8617 15.7632 13.0109 15.5791 13.0109H2.78133C2.59724 13.0109 2.448 12.8617 2.448 12.6776V12.6776Z" fill="#1A1A1A"/>
  <path d="M2.448 14.2733C2.448 14.0892 2.59724 13.9399 2.78133 13.9399H15.5791C15.7632 13.9399 15.9125 14.0892 15.9125 14.2733V14.2733C15.9125 14.4574 15.7632 14.6066 15.5791 14.6066H2.78133C2.59724 14.6066 2.448 14.4574 2.448 14.2733V14.2733Z" fill="#1A1A1A"/>
  <path d="M2.448 15.8798C2.448 15.6957 2.59724 15.5465 2.78133 15.5465H15.5791C15.7632 15.5465 15.9125 15.6957 15.9125 15.8798V15.8798C15.9125 16.0639 15.7632 16.2132 15.5791 16.2132H2.78133C2.59724 16.2132 2.448 16.0639 2.448 15.8798V15.8798Z" fill="#1A1A1A"/>
  <path d="M2.448 17.4754C2.448 17.2913 2.59724 17.1421 2.78133 17.1421H15.5791C15.7632 17.1421 15.9125 17.2913 15.9125 17.4754V17.4754C15.9125 17.6595 15.7632 17.8088 15.5791 17.8088H2.78133C2.59724 17.8088 2.448 17.6595 2.448 17.4754V17.4754Z" fill="#1A1A1A"/>
  <path d="M2.448 19.082C2.448 18.8979 2.59724 18.7487 2.78133 18.7487H15.5791C15.7632 18.7487 15.9125 18.8979 15.9125 19.082V19.082C15.9125 19.2661 15.7632 19.4153 15.5791 19.4153H2.78133C2.59724 19.4153 2.448 19.2661 2.448 19.082V19.082Z" fill="#1A1A1A"/>
  <path d="M2.448 20.6776C2.448 20.4935 2.59724 20.3442 2.78133 20.3442H15.5791C15.7632 20.3442 15.9125 20.4935 15.9125 20.6776V20.6776C15.9125 20.8617 15.7632 21.0109 15.5791 21.0109H2.78133C2.59724 21.0109 2.448 20.8617 2.448 20.6776V20.6776Z" fill="#1A1A1A"/>
</svg>
