<svg width="24" height="17" viewBox="0 0 24 17" fill="none" xmlns="http://www.w3.org/2000/svg">
  <path fill-rule="evenodd" clip-rule="evenodd" d="M0 15.8934C0 16.1696 0.223857 16.3934 0.5 16.3934H23.5C23.7761 16.3934 24 16.1696 24 15.8934V0.49999C24 0.223848 23.7761 -9.53674e-06 23.5 -9.53674e-06H0.5C0.223858 -9.53674e-06 0 0.223848 0 0.49999L0 15.8934ZM0.655711 15.4877C0.655711 15.6258 0.767639 15.7377 0.90571 15.7377L23.0942 15.7377C23.2323 15.7377 23.3442 15.6258 23.3442 15.4877V0.905765C23.3442 0.767694 23.2323 0.655765 23.0942 0.655765L0.905711 0.655765C0.76764 0.655765 0.655711 0.767694 0.655711 0.905765L0.655711 15.4877Z" fill="#1A1A1A"/>
  <rect x="11.541" y="5.24597" width="6.29508" height="0.655738" rx="0.327869" fill="#1A1A1A"/>
  <rect x="11.541" y="6.95081" width="9.96721" height="0.655738" rx="0.327869" fill="#1A1A1A"/>
  <rect x="11.541" y="8.65576" width="6.29508" height="0.655738" rx="0.327869" fill="#1A1A1A"/>
  <rect x="11.541" y="10.3606" width="9.96721" height="0.655738" rx="0.327869" fill="#1A1A1A"/>
  <rect x="2.4917" y="13.3771" width="1.44262" height="0.655738" rx="0.327869" fill="#1A1A1A"/>
  <rect x="4.85254" y="13.3771" width="2.4918" height="0.655738" rx="0.327869" fill="#1A1A1A"/>
  <rect x="7.73755" y="13.3771" width="1.04918" height="0.655738" rx="0.327869" fill="#1A1A1A"/>
  <rect x="9.18018" y="13.3771" width="1.70492" height="0.655738" rx="0.327869" fill="#1A1A1A"/>
  <path d="M9.2465 9.08113L7.93443 8.42886V8.293C8.52158 7.98091 8.93453 7.46696 9.16499 6.76098C9.51447 6.58054 9.73771 6.22913 9.73771 5.83525V5.48419C9.73771 5.15911 9.58227 4.85755 9.3226 4.65955C9.09755 3.33255 8.14614 2.65993 6.49181 2.65993C6.41355 2.65993 6.33709 2.66274 6.26243 2.66835C5.95083 2.69328 5.4946 2.66695 5.09968 2.40857C4.95217 2.31168 4.84073 2.21759 4.76968 2.13018C4.6485 1.97958 4.44473 1.92692 4.26404 1.99924C4.08299 2.07155 3.9766 2.24778 3.99932 2.437C4.01447 2.5683 4.03719 2.72101 4.07145 2.88847C4.14106 3.23075 4.14106 3.23075 4.04332 3.43541C4.00653 3.513 3.96109 3.60743 3.90771 3.73487C3.78834 4.01957 3.70358 4.33131 3.65489 4.66412C3.39883 4.86246 3.24591 5.16227 3.24591 5.48419V5.83525C3.24591 6.22913 3.46916 6.58054 3.81863 6.76098C4.04909 7.46731 4.46204 7.98126 5.04919 8.293V8.425L3.68988 9.07726C3.19361 9.34056 2.88525 9.84608 2.88525 10.3965V10.8617C2.88525 11.1436 2.88525 11.8032 6.49181 11.8032C10.0984 11.8032 10.0984 11.1436 10.0984 10.8617V10.4246C10.0984 9.85205 9.77198 9.33775 9.2465 9.08113ZM9.37706 10.7824C9.15201 10.9158 8.23666 11.1011 6.49181 11.1011C4.74696 11.1011 3.83161 10.9158 3.60657 10.7824V10.3965C3.60657 10.1034 3.77066 9.83379 4.02204 9.70074L5.41309 9.03338C5.6302 8.93017 5.77014 8.71146 5.77014 8.4759V7.84295L5.5523 7.75167C5.00519 7.52208 4.64958 7.08431 4.46493 6.41274L4.41335 6.22562L4.22365 6.16805C4.07289 6.12206 3.96722 5.9855 3.96722 5.83525V5.48419C3.96722 5.3571 4.04188 5.23915 4.16234 5.17666L4.33148 5.0889L4.35132 4.90319C4.38702 4.57389 4.4624 4.27023 4.57565 4.00097C4.62361 3.88687 4.66437 3.80157 4.69755 3.73171C4.81981 3.47614 4.86417 3.34414 4.83352 3.07347C5.25765 3.30938 5.76725 3.40979 6.32014 3.36871C6.37604 3.36415 6.43339 3.36204 6.49217 3.36204C7.84247 3.36204 8.50175 3.83808 8.6305 4.906L8.65286 5.08925L8.82057 5.17561C8.94102 5.2381 9.0164 5.3564 9.0164 5.48419V5.83525C9.0164 5.9855 8.91073 6.12206 8.75961 6.1677L8.56991 6.22527L8.51834 6.41238C8.33368 7.08396 7.97807 7.52173 7.43096 7.75132L7.21312 7.84295V8.47871C7.21312 8.71357 7.34657 8.92526 7.5608 9.03163L8.92227 9.70882C9.20286 9.84503 9.37706 10.1196 9.37706 10.4246V10.7824Z" fill="#1A1A1A"/>
</svg>
