<svg width="22" height="24" viewBox="0 0 22 24" fill="none" xmlns="http://www.w3.org/2000/svg">
  <path d="M20.9876 4.72131H19.9308C19.4988 4.72131 19.1476 5.07253 19.1476 5.50426V6.55738V8.13115V17.9058L20.1968 19.7419V20.1967C20.1968 20.3418 20.314 20.459 20.4591 20.459C20.6041 20.459 20.7214 20.3418 20.7214 20.1967V19.7419L21.7705 17.9058V8.13115V6.55738V5.50426C21.7705 5.07253 21.4193 4.72131 20.9876 4.72131ZM19.6722 7.08197H21.2459V7.60656H19.6722V7.08197ZM20.4591 19.1433L19.8618 18.0984H21.0563L20.4591 19.1433ZM21.2459 17.5738H19.6722V8.13115H21.2459V17.5738ZM19.6722 6.55738V5.50426C19.6722 5.36184 19.7881 5.2459 19.9305 5.2459H20.9873C21.13 5.2459 21.2459 5.36184 21.2459 5.50426V6.55738H19.6722Z" fill="#1A1A1A"/>
  <path fill-rule="evenodd" clip-rule="evenodd" d="M0.5 0C0.223858 0 0 0.223857 0 0.5V23.5C0 23.7761 0.223858 24 0.5 24H17.8607C18.1368 24 18.3607 23.7761 18.3607 23.5V0.5C18.3607 0.223858 18.1368 0 17.8607 0H0.5ZM0.862033 0.666664C0.723961 0.666664 0.612033 0.778593 0.612033 0.916664V23.0833C0.612033 23.2214 0.723961 23.3333 0.862033 23.3333H17.4986C17.6367 23.3333 17.7486 23.2214 17.7486 23.0833V0.916664C17.7486 0.778593 17.6367 0.666664 17.4986 0.666664H0.862033Z" fill="#1A1A1A"/>
  <rect x="7.34424" y="3.80328" width="3.67213" height="0.655738" rx="0.327869" fill="#1A1A1A"/>
  <rect x="6.29504" y="2.62292" width="5.81421" height="0.655738" rx="0.327869" fill="#1A1A1A"/>
  <rect x="11.2787" y="6.2951" width="4.59016" height="0.655738" rx="0.327869" fill="#1A1A1A"/>
  <rect x="10.0984" y="20.459" width="5.81421" height="0.655738" rx="0.327869" fill="#1A1A1A"/>
  <rect x="2.44812" y="9.06555" width="13.4645" height="0.666667" rx="0.333333" fill="#1A1A1A"/>
  <rect x="2.44812" y="10.6612" width="13.4645" height="0.666667" rx="0.333333" fill="#1A1A1A"/>
  <rect x="2.44812" y="12.2678" width="13.4645" height="0.666667" rx="0.333333" fill="#1A1A1A"/>
  <rect x="2.44812" y="13.8634" width="13.4645" height="0.666667" rx="0.333333" fill="#1A1A1A"/>
  <rect x="2.44812" y="15.47" width="13.4645" height="0.666667" rx="0.333333" fill="#1A1A1A"/>
  <rect x="2.44812" y="17.0656" width="13.4645" height="0.666667" rx="0.333333" fill="#1A1A1A"/>
</svg>
