<svg width="20" height="20" viewBox="0 0 20 20" fill="none" xmlns="http://www.w3.org/2000/svg">
<path d="M19.8418 1.12023C19.705 0.998389 19.5103 0.966276 19.3412 1.03711L1.29105 8.59296C1.10865 8.66947 0.992752 8.84986 1.00035 9.04632C1.00795 9.24277 1.13715 9.41372 1.32525 9.47605L6.70039 11.2573V16.5842C6.70039 16.7845 6.82674 16.962 7.01675 17.0291C7.069 17.047 7.1222 17.0565 7.1754 17.0565C7.316 17.0565 7.45185 16.9941 7.544 16.8817L10.1689 13.6696L14.441 17.864C14.5313 17.9528 14.651 18 14.7745 18C14.8144 18 14.8543 17.9953 14.8933 17.9849C15.0548 17.9433 15.183 17.8205 15.2305 17.6609L19.9805 1.60475C20.0328 1.43002 19.9777 1.24112 19.8409 1.11928L19.8418 1.12023ZM16.324 3.32465L7.0861 10.3894L2.82247 8.97642L16.324 3.32465V3.32465ZM7.6504 11.1497L16.5947 4.30974L9.76037 12.6722C9.76037 12.6722 9.76037 12.6731 9.75942 12.6731L7.6504 15.2544V11.1497V11.1497ZM14.5437 16.6381L10.7702 12.9338L18.4016 3.59571L14.5437 16.6371V16.6381Z" fill="black"/>
</svg>
