<svg width="20" height="20" viewBox="0 0 20 20" fill="none" xmlns="http://www.w3.org/2000/svg">
<path d="M18.5 2H16V1.5C16 1.224 15.776 1 15.5 1C15.224 1 15 1.224 15 1.5V2H5V1.5C5 1.224 4.776 1 4.5 1C4.224 1 4 1.224 4 1.5V2H1.5C0.673 2 0 2.673 0 3.5V17.5C0 18.327 0.673 19 1.5 19H18.5C19.327 19 20 18.327 20 17.5V3.5C20 2.673 19.327 2 18.5 2ZM1.5 3H4V4.5C4 4.776 4.224 5 4.5 5C4.776 5 5 4.776 5 4.5V3H15V4.5C15 4.776 15.224 5 15.5 5C15.776 5 16 4.776 16 4.5V3H18.5C18.776 3 19 3.224 19 3.5V6H1V3.5C1 3.224 1.224 3 1.5 3ZM18.5 18H1.5C1.224 18 1 17.776 1 17.5V7H19V17.5C19 17.776 18.776 18 18.5 18Z" fill="black"/>
<path d="M8.50001 15.5002C8.37201 15.5002 8.24401 15.4512 8.14601 15.3542L6.14601 13.3542C5.95101 13.1592 5.95101 12.8422 6.14601 12.6472C6.34101 12.4522 6.65801 12.4522 6.85301 12.6472L8.49901 14.2932L13.145 9.64723C13.34 9.45223 13.657 9.45223 13.852 9.64723C14.047 9.84223 14.047 10.1592 13.852 10.3542L8.85201 15.3542C8.75401 15.4522 8.62601 15.5002 8.49801 15.5002H8.50001Z" fill="black"/>
</svg>
