<svg width="20" height="20" viewBox="0 0 20 20" fill="none" xmlns="http://www.w3.org/2000/svg">
<path d="M8.5 3C8.368 3 8.24 2.947 8.147 2.853C8.054 2.759 8 2.631 8 2.5C8 2.369 8.053 2.24 8.147 2.147C8.24 2.054 8.369 2 8.5 2C8.631 2 8.761 2.053 8.853 2.147C8.946 2.24 9 2.369 9 2.5C9 2.631 8.947 2.761 8.853 2.853C8.76 2.946 8.631 3 8.5 3Z" fill="black"/>
<path d="M15.5 7H15V4.5C15 3.673 14.327 3 13.5 3H12.554C12.345 2.71 12.067 2.474 11.723 2.303C11.448 2.165 11.176 2.09 10.959 2.049C10.746 0.885 9.724 0 8.5 0C7.276 0 6.254 0.885 6.041 2.049C5.823 2.09 5.552 2.165 5.277 2.303C4.934 2.475 4.655 2.711 4.446 3H3.5C2.673 3 2 3.673 2 4.5V15.5C2 16.327 2.673 17 3.5 17H6V18.5C6 19.327 6.673 20 7.5 20H15.5C16.327 20 17 19.327 17 18.5V8.5C17 7.673 16.327 7 15.5 7ZM5.698 3.21C6.087 3.007 6.498 3 6.5 3C6.776 3 7 2.776 7 2.5C7 1.673 7.673 1 8.5 1C9.327 1 10 1.673 10 2.5C10 2.776 10.221 3 10.497 3C10.501 3 10.913 3.007 11.302 3.21C11.633 3.383 11.844 3.643 11.94 4H5.06C5.156 3.644 5.367 3.383 5.698 3.21ZM3.5 16C3.224 16 3 15.776 3 15.5V4.5C3 4.224 3.224 4 3.5 4H4.04C4.013 4.159 4 4.326 4 4.5C4 4.776 4.224 5 4.5 5H12.5C12.5 5 12.5 5 12.501 5C12.777 5 13.001 4.776 13.001 4.5C13.001 4.491 13.001 4.482 13 4.473C12.999 4.309 12.985 4.151 12.96 4H13.5C13.776 4 14 4.224 14 4.5V7H9C8.867 7 8.74 7.053 8.646 7.146L6.146 9.646C6.052 9.74 6 9.867 6 10V16H3.5ZM9 8.207V9.5C9 9.776 8.776 10 8.5 10H7.207L9 8.207ZM16 18.5C16 18.776 15.776 19 15.5 19H7.5C7.224 19 7 18.776 7 18.5V11H8.5C9.327 11 10 10.327 10 9.5V8H15.5C15.776 8 16 8.224 16 8.5V18.5Z" fill="black"/>
</svg>
