<svg width="20" height="20" viewBox="0 0 20 20" fill="none" xmlns="http://www.w3.org/2000/svg">
<path d="M19.104 0.896391C18.542 0.334391 17.795 0.0253906 17 0.0253906C16.205 0.0253906 15.458 0.334391 14.896 0.896391L2.14595 13.6464C2.09395 13.6984 2.05495 13.7604 2.02995 13.8294L0.0299518 19.3294C-0.0360482 19.5124 0.00895178 19.7164 0.145952 19.8534C0.240952 19.9484 0.368952 19.9994 0.499952 19.9994C0.556952 19.9994 0.614952 19.9894 0.670952 19.9694L6.17095 17.9694C6.23995 17.9444 6.30195 17.9044 6.35395 17.8534L19.104 5.10339C19.666 4.54139 19.975 3.79439 19.975 2.99939C19.975 2.20439 19.666 1.45739 19.104 0.895391V0.896391ZM5.72495 17.0684L1.33595 18.6644L2.93195 14.2754L14 3.20739L16.793 6.00039L5.72495 17.0684ZM18.396 4.39639L17.5 5.29239L14.707 2.49939L15.603 1.60339C15.976 1.23039 16.472 1.02539 16.999 1.02539C17.526 1.02539 18.022 1.23039 18.395 1.60339C18.768 1.97639 18.973 2.47239 18.973 2.99939C18.973 3.52639 18.768 4.02239 18.395 4.39539L18.396 4.39639Z" fill="black"/>
</svg>
