<svg width="512" height="512" viewBox="0 0 512 512" fill="none" xmlns="http://www.w3.org/2000/svg">
<path d="M141.26 397.408C174.223 397.37 205.826 384.251 229.135 360.928C252.444 337.605 265.556 305.983 265.594 273C265.569 252.352 271.613 232.153 282.974 214.916C294.335 197.679 310.511 184.166 329.489 176.059C348.468 167.951 369.41 165.607 389.709 169.318C410.009 173.03 428.769 182.632 443.656 196.931C458.543 211.23 468.898 229.594 473.433 249.737C477.968 269.88 476.483 290.913 469.163 310.217C461.842 329.522 449.009 346.247 432.261 358.309C415.513 370.372 395.589 377.239 374.97 378.058L387.126 365.895C388.868 364.09 389.832 361.672 389.81 359.163C389.788 356.654 388.783 354.254 387.009 352.479C385.236 350.705 382.837 349.699 380.329 349.677C377.822 349.655 375.406 350.62 373.602 352.363L344.909 381.072C343.116 382.867 342.109 385.301 342.109 387.838C342.109 390.376 343.116 392.809 344.909 394.604L373.602 423.314C375.406 425.057 377.822 426.021 380.329 426C382.837 425.978 385.236 424.971 387.009 423.197C388.783 421.423 389.788 419.022 389.81 416.513C389.832 414.004 388.868 411.587 387.126 409.782L374.568 397.217C398.974 396.463 422.616 388.531 442.544 374.413C462.471 360.294 477.8 340.614 486.617 317.831C495.433 295.047 497.346 270.17 492.117 246.305C486.887 222.44 474.747 200.646 457.213 183.643C439.679 166.641 417.527 155.184 393.524 150.703C369.521 146.222 344.73 148.916 322.248 158.448C299.766 167.981 280.589 183.929 267.111 204.302C253.633 224.674 246.453 248.568 246.465 273C246.49 293.648 240.446 313.847 229.085 331.084C217.724 348.321 201.548 361.834 182.57 369.941C163.591 378.049 142.649 380.393 122.35 376.682C102.05 372.97 83.2897 363.368 68.4031 349.069C53.5165 334.77 43.1611 316.406 38.6259 296.263C34.0907 276.12 35.5759 255.087 42.8967 235.783C50.2174 216.478 63.0504 199.753 79.7985 187.691C96.5466 175.628 116.47 168.761 137.09 167.942L124.933 180.105C124.02 180.988 123.291 182.044 122.79 183.212C122.289 184.379 122.025 185.635 122.014 186.906C122.003 188.176 122.245 189.437 122.726 190.613C123.207 191.789 123.917 192.857 124.815 193.756C125.713 194.654 126.781 195.365 127.956 195.846C129.132 196.327 130.391 196.569 131.661 196.558C132.931 196.547 134.186 196.283 135.353 195.782C136.52 195.28 137.575 194.551 138.457 193.637L167.15 164.928C168.943 163.133 169.95 160.699 169.95 158.162C169.95 155.624 168.943 153.191 167.15 151.396L138.457 122.686C136.653 120.943 134.237 119.979 131.73 120C129.222 120.022 126.823 121.029 125.05 122.803C123.277 124.577 122.271 126.978 122.249 129.487C122.227 131.996 123.191 134.413 124.933 136.218L137.491 148.783C104.876 149.775 73.9599 163.563 51.4185 187.17C28.8771 210.776 16.5195 242.307 17.0143 274.952C17.5091 307.598 30.8166 338.739 54.0631 361.651C77.3095 384.562 108.63 397.406 141.26 397.408Z" fill="black"/>
</svg>
