<svg xmlns="http://www.w3.org/2000/svg" xmlns:xlink="http://www.w3.org/1999/xlink" version="1.1" id="Layer" x="0px" y="0px" width="512" height="512" viewBox="0 0 64 64" enable-background="new 0 0 64 64" xml:space="preserve">
<path d="M22,55h20c0.552,0,1-0.447,1-1v-7.667l5.8-7.733c0.13-0.173,0.2-0.383,0.2-0.6V22v-8c0-2.757-2.243-5-5-5  c-1.641,0-3.088,0.806-4,2.031C39.088,9.806,37.641,9,36,9s-3.088,0.806-4,2.031C31.088,9.806,29.641,9,28,9s-3.088,0.806-4,2.031  C23.088,9.806,21.641,9,20,9c-2.757,0-5,2.243-5,5v24c0,0.217,0.07,0.427,0.2,0.6l5.8,7.733V54C21,54.553,21.448,55,22,55z M44,11  c1.654,0,3,1.346,3,3v7h-6v-7C41,12.346,42.346,11,44,11z M36,11c1.654,0,3,1.346,3,3v7h-6v-7C33,12.346,34.346,11,36,11z M28,11  c1.654,0,3,1.346,3,3v8v4c0,1.654-1.346,3-3,3s-3-1.346-3-3V14C25,12.346,26.346,11,28,11z M17,14c0-1.654,1.346-3,3-3s3,1.346,3,3  v12c0,1.654-1.346,3-3,3s-3-1.346-3-3V14z M17,37.667v-7.693C17.838,30.609,18.87,31,20,31c1.641,0,3.088-0.806,4-2.031  C24.912,30.194,26.359,31,28,31s3.088-0.806,4-2.031C32.912,30.194,34.359,31,36,31h0.356C34.312,32.651,33,35.174,33,38  c0,0.553,0.448,1,1,1s1-0.447,1-1c0-3.859,3.14-7,7-7c0.552,0,1-0.448,1-1s-0.448-1-1-1h-6c-1.654,0-3-1.346-3-3v-3h14v14.667  L41.2,45.4C41.07,45.573,41,45.783,41,46v7H23v-7c0-0.217-0.07-0.427-0.2-0.6L17,37.667z"/>
</svg>
