<svg width="20" height="20" viewBox="0 0 20 20" fill="none" xmlns="http://www.w3.org/2000/svg">
<g clip-path="url(#clip0)">
<path d="M18.763 1.0745C18.616 0.983502 18.432 0.975502 18.277 1.0525L12.501 3.9405L6.72495 1.0525C6.58395 0.982502 6.41895 0.982502 6.27795 1.0525L0.277953 4.0525C0.108953 4.1375 0.00195312 4.3105 0.00195312 4.4995V19.4995C0.00195312 19.6725 0.0919531 19.8335 0.238953 19.9245C0.318953 19.9745 0.409953 19.9995 0.501953 19.9995C0.577953 19.9995 0.654953 19.9815 0.725953 19.9465L6.50195 17.0585L12.278 19.9465C12.419 20.0165 12.585 20.0165 12.725 19.9465L18.725 16.9465C18.894 16.8615 19.001 16.6885 19.001 16.4995V1.4995C19.001 1.3265 18.911 1.1655 18.764 1.0745H18.763ZM5.99995 16.1905L0.999953 18.6905V4.8085L5.99995 2.3085V16.1905ZM6.99995 2.3085L12 4.8085V18.6905L6.99995 16.1905V2.3085ZM18 16.1905L13 18.6905V4.8085L18 2.3085V16.1905Z" fill="black"/>
</g>
<defs>
<clipPath id="clip0">
<path d="M0 0H20V20H0V0Z" fill="white"/>
</clipPath>
</defs>
</svg>
