<svg width="20" height="20" viewBox="0 0 20 20" fill="none" xmlns="http://www.w3.org/2000/svg">
<g clip-path="url(#clip0)">
<path d="M13 6.46698C12.996 6.30098 12.962 5.55798 12.649 4.80798C12.435 4.29398 12.135 3.87998 11.758 3.57898C11.662 3.50198 11.56 3.43298 11.455 3.37098C11.793 3.01298 12 2.53098 12 2.00098C12 0.897976 11.103 0.000976562 10 0.000976562C8.897 0.000976562 8 0.897976 8 2.00098C8 2.53098 8.208 3.01298 8.545 3.37098C8.44 3.43298 8.339 3.50198 8.242 3.57898C7.865 3.88098 7.565 4.29498 7.351 4.80798C7.004 5.64098 7 6.46598 7 6.49998C7 6.77598 7.224 6.99998 7.5 6.99998H12.5C12.5 6.99998 12.5 6.99998 12.501 6.99998C12.777 6.99998 13.001 6.77598 13.001 6.49998C13.001 6.48898 13.001 6.47798 13 6.46698ZM9 1.99998C9 1.44898 9.449 0.999977 10 0.999977C10.551 0.999977 11 1.44898 11 1.99998C11 2.55098 10.551 2.99998 10 2.99998C9.449 2.99998 9 2.55098 9 1.99998ZM8.05 5.99998C8.088 5.76598 8.156 5.47698 8.274 5.19198C8.608 4.38998 9.173 3.99998 10 3.99998C11.429 3.99998 11.837 5.26798 11.953 5.99998H8.049H8.05Z" fill="black"/>
<path d="M6 17.467C5.996 17.301 5.962 16.558 5.649 15.808C5.435 15.294 5.135 14.881 4.758 14.579C4.662 14.502 4.56 14.433 4.455 14.371C4.793 14.013 5 13.531 5 13.001C5 11.898 4.103 11.001 3 11.001C1.897 11.001 1 11.898 1 13.001C1 13.531 1.208 14.013 1.545 14.371C1.44 14.433 1.339 14.502 1.242 14.579C0.865 14.881 0.565 15.295 0.351 15.808C0.00400001 16.641 0 17.466 0 17.5C0 17.776 0.224 18 0.5 18H5.5C5.5 18 5.5 18 5.501 18C5.777 18 6.001 17.776 6.001 17.5C6.001 17.489 6.001 17.478 6 17.467ZM2 13C2 12.449 2.449 12 3 12C3.551 12 4 12.449 4 13C4 13.551 3.551 14 3 14C2.449 14 2 13.551 2 13ZM1.05 17C1.088 16.766 1.156 16.477 1.274 16.192C1.608 15.39 2.173 15 3 15C4.429 15 4.837 16.268 4.953 17H1.049H1.05Z" fill="black"/>
<path d="M20 17.467C19.996 17.301 19.962 16.558 19.649 15.808C19.435 15.294 19.135 14.881 18.758 14.579C18.662 14.502 18.56 14.433 18.455 14.371C18.793 14.013 19 13.531 19 13.001C19 11.898 18.103 11.001 17 11.001C15.897 11.001 15 11.898 15 13.001C15 13.531 15.208 14.013 15.545 14.371C15.44 14.433 15.339 14.502 15.242 14.579C14.865 14.881 14.565 15.295 14.351 15.808C14.004 16.641 14 17.466 14 17.5C14 17.776 14.224 18 14.5 18H19.5C19.5 18 19.5 18 19.501 18C19.777 18 20.001 17.776 20.001 17.5C20.001 17.489 20.001 17.478 20 17.467V17.467ZM16 13C16 12.449 16.449 12 17 12C17.551 12 18 12.449 18 13C18 13.551 17.551 14 17 14C16.449 14 16 13.551 16 13ZM15.05 17C15.088 16.766 15.156 16.477 15.274 16.192C15.608 15.39 16.173 15 17 15C18.429 15 18.837 16.268 18.953 17H15.049H15.05Z" fill="black"/>
<path d="M10.0001 19.9999C8.70009 19.9999 7.40909 19.6809 6.26609 19.0769C6.02209 18.9479 5.9291 18.6449 6.05809 18.4009C6.18709 18.1569 6.4901 18.0639 6.7341 18.1929C7.7331 18.7209 8.86209 18.9999 10.0001 18.9999C11.1381 18.9999 12.2671 18.7209 13.2661 18.1929C13.5101 18.0639 13.8131 18.1569 13.9421 18.4009C14.0711 18.6449 13.9781 18.9479 13.7341 19.0769C12.5921 19.6809 11.3011 19.9999 10.0001 19.9999Z" fill="black"/>
<path d="M17.2299 10.5005C17.0109 10.5005 16.8089 10.3555 16.7479 10.1335C16.2839 8.45347 15.2129 7.01347 13.7329 6.07747C13.4999 5.92947 13.4299 5.62147 13.5769 5.38747C13.7239 5.15347 14.0329 5.08447 14.2669 5.23147C15.9589 6.30047 17.1819 7.94647 17.7119 9.86647C17.7849 10.1325 17.6289 10.4085 17.3629 10.4815C17.3189 10.4935 17.2739 10.4995 17.2299 10.4995V10.5005Z" fill="black"/>
<path d="M2.76999 10.5004C2.72599 10.5004 2.68099 10.4944 2.63699 10.4824C2.37099 10.4094 2.21499 10.1334 2.28799 9.86745C2.81799 7.94745 4.04199 6.30145 5.73299 5.23245C5.96599 5.08545 6.27499 5.15445 6.42299 5.38845C6.57099 5.62245 6.50099 5.93045 6.26699 6.07845C4.78599 7.01345 3.71499 8.45445 3.25199 10.1344C3.19099 10.3564 2.98999 10.5014 2.76999 10.5014V10.5004Z" fill="black"/>
</g>
<defs>
<clipPath id="clip0">
<path d="M0 0H20V20H0V0Z" fill="white"/>
</clipPath>
</defs>
</svg>
