<svg width="20" height="20" viewBox="0 0 20 20" fill="none" xmlns="http://www.w3.org/2000/svg">
<path fill-rule="evenodd" clip-rule="evenodd" d="M12.0379 2.8875L19.8864 11.0139L19.8846 11.013C20.05 11.1838 20.0357 11.4461 19.8535 11.601C19.6713 11.7559 19.3904 11.7426 19.2259 11.5718L17.3334 9.61228V16.2896C17.3334 16.9783 16.7351 17.5388 15.9999 17.5388H6.2216C5.48644 17.5388 4.88818 16.9783 4.88818 16.2896V14.0521C4.88818 13.8064 5.08738 13.6072 5.3331 13.6072V13.6072C5.57882 13.6072 5.77801 13.8064 5.77801 14.0521V16.2896C5.77801 16.5194 5.97714 16.706 6.22248 16.706H8.44484V12.9584C8.44484 12.2697 9.0431 11.7092 9.77825 11.7092H12.4451C13.1802 11.7092 13.7785 12.2697 13.7785 12.9584V16.706H16.0008C16.2462 16.706 16.4453 16.5194 16.4453 16.2896V8.69205L11.3783 3.44547C11.3055 3.36969 11.2103 3.32805 11.1117 3.32805C11.013 3.32805 10.9179 3.36969 10.845 3.44547L7.75036 6.64979C7.58843 6.81746 7.32889 6.84318 7.13719 6.71055V6.71055C6.89246 6.54123 6.86139 6.19136 7.07247 5.98157L10.1854 2.8875C10.4298 2.63517 10.7588 2.49609 11.1117 2.49609C11.4655 2.49609 11.7944 2.63517 12.0379 2.8875ZM9.33378 12.9584V16.706H12.8895V12.9584C12.8895 12.7286 12.6904 12.542 12.4451 12.542H9.77825C9.5329 12.542 9.33378 12.7286 9.33378 12.9584Z" fill="black"/>
<path d="M8.0273 8.85231L5.14462 5.96963C4.95725 5.78226 4.65264 5.78226 4.46527 5.96963C4.27789 6.15701 4.27789 6.46161 4.46527 6.64898L6.52734 8.71106H0.480446C0.21524 8.71106 0 8.9263 0 9.1915C0 9.45671 0.21524 9.67195 0.480446 9.67195H6.52734L4.46527 11.734C4.27789 11.9214 4.27789 12.226 4.46527 12.4134C4.55944 12.5075 4.68243 12.5537 4.80542 12.5537C4.92842 12.5537 5.05141 12.5066 5.14558 12.4134L8.02826 9.5307C8.21563 9.34333 8.21563 9.03872 8.02826 8.85135L8.0273 8.85231Z" fill="#1A1A1A"/>
</svg>
