<svg width="20" height="20" viewBox="0 0 20 20" fill="none" xmlns="http://www.w3.org/2000/svg">
<path d="M16.5 20H2.5C1.673 20 1 19.327 1 18.5V5.5C1 4.673 1.673 4 2.5 4H16.5C17.327 4 18 4.673 18 5.5V18.5C18 19.327 17.327 20 16.5 20ZM2.5 5C2.224 5 2 5.224 2 5.5V18.5C2 18.776 2.224 19 2.5 19H16.5C16.776 19 17 18.776 17 18.5V5.5C17 5.224 16.776 5 16.5 5H2.5Z" fill="black"/>
<path d="M16.5 3H2.5C2.224 3 2 2.776 2 2.5C2 2.224 2.224 2 2.5 2H16.5C16.776 2 17 2.224 17 2.5C17 2.776 16.776 3 16.5 3Z" fill="black"/>
<path d="M15.5 1H3.5C3.224 1 3 0.776 3 0.5C3 0.224 3.224 0 3.5 0H15.5C15.776 0 16 0.224 16 0.5C16 0.776 15.776 1 15.5 1Z" fill="black"/>
<path d="M11.5 13C10.673 13 10 12.327 10 11.5C10 10.673 10.673 10 11.5 10C12.327 10 13 10.673 13 11.5C13 12.327 12.327 13 11.5 13ZM11.5 11C11.224 11 11 11.224 11 11.5C11 11.776 11.224 12 11.5 12C11.776 12 12 11.776 12 11.5C12 11.224 11.776 11 11.5 11Z" fill="black"/>
<path d="M14.5 8H4.5C4.224 8 4 8.224 4 8.5V15.5C4 15.776 4.224 16 4.5 16H14.5C14.776 16 15 15.776 15 15.5V8.5C15 8.224 14.776 8 14.5 8ZM5 13.675L6.266 12.093C6.339 12.002 6.43 11.951 6.525 11.949C6.62 11.947 6.714 11.993 6.791 12.08L9.387 15H5V13.675V13.675ZM14 15H10.725L7.538 11.415C7.266 11.109 6.887 10.939 6.499 10.949C6.111 10.959 5.741 11.148 5.485 11.468L5 12.074V8.999H14V14.999V15Z" fill="black"/>
</svg>
