<svg width="20" height="20" viewBox="0 0 20 20" fill="none" xmlns="http://www.w3.org/2000/svg">
<path d="M20 17.5C20 17.776 19.776 18 19.5 18H11.5C11.224 18 11 17.776 11 17.5C11 17.224 11.224 17 11.5 17H19.5C19.776 17 20 17.224 20 17.5Z" fill="black"/>
<path d="M6 17.5C6 17.776 5.776 18 5.5 18H0.5C0.224 18 0 17.776 0 17.5C0 17.224 0.224 17 0.5 17H5.5C5.776 17 6 17.224 6 17.5Z" fill="black"/>
<path d="M10 16.5V18.5C10 19.327 9.327 20 8.5 20C7.673 20 7 19.327 7 18.5V16.5C7 15.673 7.673 15 8.5 15C9.327 15 10 15.673 10 16.5ZM8 18.5C8 18.776 8.224 19 8.5 19C8.776 19 9 18.776 9 18.5V16.5C9 16.224 8.776 16 8.5 16C8.224 16 8 16.224 8 16.5V18.5Z" fill="black"/>
<path d="M20 10.5C20 10.776 19.776 11 19.5 11H15.5C15.224 11 15 10.776 15 10.5C15 10.224 15.224 10 15.5 10H19.5C19.776 10 20 10.224 20 10.5Z" fill="black"/>
<path d="M10 10.5C10 10.776 9.776 11 9.5 11H0.5C0.224 11 0 10.776 0 10.5C0 10.224 0.224 10 0.5 10H9.5C9.776 10 10 10.224 10 10.5Z" fill="black"/>
<path d="M14 9.5V11.5C14 12.327 13.327 13 12.5 13C11.673 13 11 12.327 11 11.5V9.5C11 8.673 11.673 8 12.5 8C13.327 8 14 8.673 14 9.5ZM12 11.5C12 11.776 12.224 12 12.5 12C12.776 12 13 11.776 13 11.5V9.5C13 9.224 12.776 9 12.5 9C12.224 9 12 9.224 12 9.5V11.5Z" fill="black"/>
<path d="M20 3.5C20 3.776 19.776 4 19.5 4L9.5 4C9.224 4 9 3.776 9 3.5C9 3.224 9.224 3 9.5 3L19.5 3C19.776 3 20 3.224 20 3.5Z" fill="black"/>
<path d="M4 3.5C4 3.776 3.776 4 3.5 4H0.5C0.224 4 0 3.776 0 3.5C0 3.224 0.224 3 0.5 3H3.5C3.776 3 4 3.224 4 3.5Z" fill="black"/>
<path d="M8 2.5V4.5C8 5.327 7.327 6 6.5 6C5.673 6 5 5.327 5 4.5V2.5C5 1.673 5.673 1 6.5 1C7.327 1 8 1.673 8 2.5ZM6 4.5C6 4.776 6.224 5 6.5 5C6.776 5 7 4.776 7 4.5V2.5C7 2.224 6.776 2 6.5 2C6.224 2 6 2.224 6 2.5V4.5Z" fill="black"/>
</svg>
