<svg width="18" height="18" viewBox="0 0 18 18" fill="none" xmlns="http://www.w3.org/2000/svg">
<path d="M16.8956 17.3296L12.2038 12.1424C13.2609 11.0216 13.842 9.556 13.842 8C13.842 6.3976 13.2262 4.8904 12.1075 3.7576C10.9888 2.6248 9.50228 2 7.92099 2C6.33969 2 4.85234 2.624 3.73445 3.7576C2.61657 4.8912 2 6.3976 2 8C2 9.6024 2.61578 11.1096 3.73445 12.2424C4.85313 13.3752 6.33969 14 7.92099 14C9.2836 14 10.5752 13.5368 11.622 12.684L16.3138 17.8704C16.3919 17.9568 16.4977 18 16.6051 18C16.7006 18 16.7961 17.9656 16.8719 17.8952C17.033 17.7456 17.0433 17.4928 16.8964 17.3304L16.8956 17.3296ZM2.78868 8C2.78868 5.1328 5.09075 2.8 7.9202 2.8C10.7496 2.8 13.0517 5.1328 13.0517 8C13.0517 10.8672 10.7496 13.2 7.9202 13.2C5.09075 13.2 2.78868 10.8672 2.78868 8Z" fill="#1A1A1A"/>
</svg>
