<?xml version="1.0" encoding="iso-8859-1"?>
<!-- Generator: Adobe Illustrator 19.0.0, SVG Export Plug-In . SVG Version: 6.00 Build 0)  -->
<svg version="1.1" id="Layer_1" xmlns="http://www.w3.org/2000/svg" xmlns:xlink="http://www.w3.org/1999/xlink" x="0px" y="0px"
	 viewBox="0 0 512 512" style="enable-background:new 0 0 512 512;" xml:space="preserve">
<rect x="8.258" y="200.946" style="fill:#164FCE;" width="495.484" height="110.108"/>
<path style="fill:#F2A643;" d="M8.258,311.054h495.484v75.5c0,19.114-15.494,34.608-34.608,34.608H42.866
	c-19.114,0-34.608-15.494-34.608-34.608V311.054z"/>
<path style="fill:#ED1F34;" d="M40.692,90.839H471.31c17.912,0,32.433,14.521,32.433,32.432v77.675H8.258v-77.675
	C8.258,105.36,22.779,90.839,40.692,90.839z"/>
<path style="fill:#1A1C20;" d="M511.937,312.088c-0.509,4.192-4.286,7.224-8.509,7.224H8.572c-4.222,0-8-3.032-8.509-7.224
	c-0.61-5.022,3.294-9.292,8.195-9.292h495.484C508.643,302.796,512.547,307.066,511.937,312.088z M74.323,209.204h429.106
	c4.223,0,8-3.032,8.509-7.224c0.61-5.023-3.294-9.292-8.195-9.292H74.637c-4.222,0-8,3.032-8.509,7.224
	C65.517,204.935,69.422,209.204,74.323,209.204z M8.258,209.204h32.718c4.223,0,8-3.032,8.509-7.224
	c0.61-5.022-3.294-9.292-8.195-9.292H8.572c-4.222,0-8,3.032-8.509,7.224C-0.547,204.935,3.357,209.204,8.258,209.204z"/>
<path style="fill:#FFFFFF;" d="M382.564,237.649v-36.702h40.393v-36.702h40.393v-36.702h40.392v-3.12
	c0-18.548-15.035-33.583-33.583-33.583h-52.588v36.702h-40.393v36.702h-40.392v36.703h-40.393v36.702H256v36.702h40.393v36.703
	h40.393v36.702h40.393v36.702h40.393v36.703h52.587c18.548,0,33.583-15.035,33.583-33.583v-3.119h-40.393v-36.702h-40.393v-36.703
	h-40.393v-36.702H342.17V237.65h40.394V237.649z"/>
<path style="fill:#1A1C20;" d="M468.325,82.581H43.677C19.593,82.581,0,102.173,0,126.257v259.487
	c0,24.083,19.593,43.675,43.676,43.675h424.648c24.083,0,43.675-19.593,43.675-43.675V126.257
	C512,102.173,492.408,82.581,468.325,82.581z M471.607,376.201v-28.444c0-4.561-3.697-8.258-8.258-8.258h-32.135v-28.445
	c0-4.561-3.697-8.258-8.258-8.258h-32.135v-28.444c0-4.561-3.697-8.258-8.258-8.258h-32.135v-20.187h32.135
	c4.561,0,8.258-3.697,8.258-8.258v-28.444h32.135c4.561,0,8.258-3.697,8.258-8.258v-28.444h32.135c4.561,0,8.258-3.697,8.258-8.258
	V135.8h23.877v240.401H471.607z M16.516,385.744V126.257c0-14.977,12.183-27.16,27.16-27.16h365.637v20.186h-32.135
	c-4.561,0-8.258,3.697-8.258,8.258v28.444h-32.135c-4.561,0-8.258,3.697-8.258,8.258v28.445h-32.135
	c-4.561,0-8.258,3.697-8.258,8.258v28.444H256c-4.561,0-8.258,3.697-8.258,8.258v36.703c0,4.561,3.697,8.258,8.258,8.258h32.135
	v28.444c0,4.561,3.697,8.258,8.258,8.258h32.135v28.444c0,4.561,3.697,8.258,8.258,8.258h32.135v28.444
	c0,4.561,3.697,8.258,8.258,8.258h32.135v20.187H43.677C28.7,412.903,16.516,400.72,16.516,385.744z M468.325,412.903H425.83
	v-28.444c0-4.561-3.697-8.258-8.258-8.258h-32.135v-28.444c0-4.561-3.697-8.258-8.258-8.258h-32.135v-28.445
	c0-4.561-3.697-8.258-8.258-8.258h-32.135v-28.444c0-4.561-3.697-8.258-8.258-8.258h-32.135v-20.187h32.135
	c4.561,0,8.258-3.697,8.258-8.258v-28.444h32.135c4.561,0,8.258-3.697,8.258-8.258v-28.444h32.135c4.561,0,8.258-3.697,8.258-8.258
	V135.8h32.135c4.561,0,8.258-3.697,8.258-8.258V99.097h42.495c12.565,0,23.161,8.58,26.249,20.186H463.35
	c-4.561,0-8.258,3.697-8.258,8.258v28.444h-32.136c-4.561,0-8.258,3.697-8.258,8.258v28.445h-32.135
	c-4.561,0-8.258,3.697-8.258,8.258v28.444H342.17c-4.561,0-8.258,3.697-8.258,8.258v36.703c0,4.561,3.697,8.258,8.258,8.258h32.135
	v28.444c0,4.561,3.697,8.258,8.258,8.258h32.135v28.444c0,4.561,3.697,8.258,8.258,8.258h32.135v28.444
	c0,4.561,3.697,8.258,8.258,8.258h31.223C491.486,404.324,480.89,412.903,468.325,412.903z"/>
<g>
</g>
<g>
</g>
<g>
</g>
<g>
</g>
<g>
</g>
<g>
</g>
<g>
</g>
<g>
</g>
<g>
</g>
<g>
</g>
<g>
</g>
<g>
</g>
<g>
</g>
<g>
</g>
<g>
</g>
</svg>
