<?xml version="1.0" encoding="iso-8859-1"?>
<!-- Generator: Adobe Illustrator 19.0.0, SVG Export Plug-In . SVG Version: 6.00 Build 0)  -->
<svg version="1.1" id="Layer_1" xmlns="http://www.w3.org/2000/svg" xmlns:xlink="http://www.w3.org/1999/xlink" x="0px" y="0px"
	 viewBox="0 0 512 512" style="enable-background:new 0 0 512 512;" xml:space="preserve">
<g>
	<path style="fill:#FFFFFF;" d="M8.258,393.634h495.484l0,0c0,15.203-12.324,27.527-27.527,27.527H35.785
		C20.582,421.161,8.258,408.837,8.258,393.634L8.258,393.634z"/>
	<path style="fill:#FFFFFF;" d="M37.743,90.839h436.515c15.067,0,27.282,12.324,27.282,27.527l0,0H10.46l0,0
		C10.46,103.163,22.674,90.839,37.743,90.839z"/>
</g>
<rect x="8.258" y="118.366" style="fill:#ED1F34;" width="495.484" height="27.527"/>
<rect x="8.258" y="145.892" style="fill:#FFFFFF;" width="495.484" height="220.215"/>
<g>
	<rect x="8.258" y="366.108" style="fill:#ED1F34;" width="495.484" height="27.527"/>
	<path style="fill:#ED1F34;" d="M265.964,315.151c-32.669,0-59.151-26.483-59.151-59.151s26.483-59.151,59.151-59.151
		c9.944,0,19.307,2.465,27.532,6.799c-14.078-15.199-34.197-24.724-56.549-24.724c-42.568,0-77.075,34.508-77.075,77.075
		s34.508,77.075,77.075,77.075c22.352,0,42.471-9.524,56.549-24.724C285.27,312.687,275.906,315.151,265.964,315.151z"/>
	<polygon style="fill:#ED1F34;" points="315.892,225.17 314.719,247.87 293.495,256 314.719,264.13 315.892,286.83 330.182,269.155 
		352.129,275.054 339.738,256 352.129,236.946 330.182,242.845 	"/>
</g>
<g>
	<path style="fill:#1A1C20;" d="M236.946,341.333c23.676,0,46.497-9.976,62.608-27.369c2.734-2.952,2.943-7.445,0.494-10.638
		c-2.45-3.193-6.845-4.154-10.402-2.28c-7.362,3.879-15.331,5.847-23.683,5.847c-28.062,0-50.893-22.831-50.893-50.893
		s22.831-50.893,50.893-50.893c8.352,0,16.32,1.968,23.683,5.847c1.281,0.675,2.676,0.991,4.04,0.95
		c4.483-0.09,8.09-3.752,8.09-8.257c0-2.362-0.991-4.492-2.581-5.998c-16.091-17.154-38.748-26.983-62.249-26.983
		c-47.053,0-85.333,38.28-85.333,85.333S189.893,341.333,236.946,341.333z M236.946,187.183c6.037,0,12.006,0.805,17.757,2.349
		c-31.828,5.374-56.148,33.135-56.148,66.469s24.321,61.093,56.148,66.469c-5.751,1.544-11.719,2.349-17.757,2.349
		c-37.945,0-68.817-30.872-68.817-68.817S199,187.183,236.946,187.183z"/>
	<path style="fill:#1A1C20;" d="M285.238,256c0,3.421,2.11,6.488,5.304,7.712l16.208,6.209l0.895,17.335
		c0.176,3.417,2.442,6.371,5.696,7.428c0.839,0.273,1.699,0.405,2.55,0.405c2.45,0,4.827-1.092,6.423-3.066l10.912-13.498
		l16.763,4.506c0.766,0.206,1.543,0.299,2.313,0.282c4.492-0.079,8.109-3.746,8.109-8.257c0-1.862-0.615-3.58-1.655-4.96
		l-9.166-14.094l9.465-14.552c1.865-2.868,1.768-6.589-0.242-9.357s-5.523-4.008-8.824-3.12l-16.763,4.506l-10.912-13.498
		c-2.15-2.66-5.72-3.717-8.973-2.661c-3.254,1.057-5.52,4.011-5.696,7.428l-0.895,17.335l-16.208,6.209
		C287.348,249.512,285.238,252.579,285.238,256z M317.673,255.582c3.051-1.168,5.124-4.024,5.294-7.286l0.061-1.165l0.732,0.906
		c2.053,2.54,5.411,3.629,8.564,2.784l1.129-0.304l-0.638,0.981c-1.78,2.737-1.78,6.267,0,9.005l0.638,0.981l-1.129-0.304
		c-3.15-0.846-6.511,0.243-8.564,2.784l-0.732,0.906l-0.061-1.165c-0.168-3.261-2.243-6.118-5.294-7.286L316.581,256
		L317.673,255.582z"/>
	<path style="fill:#1A1C20;" d="M468.324,82.581H43.676C19.593,82.581,0,102.173,0,126.256v259.487
		c0,24.084,19.593,43.676,43.676,43.676h424.648c24.082,0,43.675-19.593,43.675-43.676V126.256
		C512,102.173,492.406,82.581,468.324,82.581z M495.484,357.849H74.323c-4.561,0-8.258,3.697-8.258,8.258
		c0,4.561,3.697,8.258,8.258,8.258h421.161v11.377c0,14.977-12.183,27.16-27.16,27.16H43.676c-14.977,0-27.16-12.183-27.16-27.16
		v-11.377H41.29c4.561,0,8.258-3.697,8.258-8.258c0-4.561-3.697-8.258-8.258-8.258H16.516V154.151h478.968V357.849z
		 M495.484,137.634H16.516v-11.379c0-14.976,12.183-27.159,27.16-27.159h424.648c14.976,0,27.159,12.183,27.159,27.159V137.634z"/>
</g>
<g>
</g>
<g>
</g>
<g>
</g>
<g>
</g>
<g>
</g>
<g>
</g>
<g>
</g>
<g>
</g>
<g>
</g>
<g>
</g>
<g>
</g>
<g>
</g>
<g>
</g>
<g>
</g>
<g>
</g>
</svg>
