<?xml version="1.0" encoding="iso-8859-1"?>
<!-- Generator: Adobe Illustrator 19.0.0, SVG Export Plug-In . SVG Version: 6.00 Build 0)  -->
<svg version="1.1" id="Layer_1" xmlns="http://www.w3.org/2000/svg" xmlns:xlink="http://www.w3.org/1999/xlink" x="0px" y="0px"
	 viewBox="0 0 512 512" style="enable-background:new 0 0 512 512;" xml:space="preserve">
<path style="fill:#FFE000;" d="M8.258,126.257v259.486c0,19.562,15.858,35.418,35.418,35.418h424.648
	c8.715,0,16.689-3.152,22.858-8.373L20.818,99.211C13.139,105.709,8.258,115.41,8.258,126.257z"/>
<path style="fill:#ED1F34;" d="M468.324,90.839H43.676c-8.715,0-16.689,3.152-22.858,8.373l470.365,313.576
	c7.679-6.496,12.56-16.199,12.56-27.046V126.257C503.742,106.695,487.884,90.839,468.324,90.839z"/>
<path style="fill:#E7D3CD;" d="M271.462,232.59l-3.588-67.715c-0.358-6.461-5.599-9.866-11.647-7.567l-79.029,30.047
	c14.019,8.621,50.1,7.493,68.049,0.207l-2.596,43.753"/>
<path style="fill:#1A1C20;" d="M279.709,232.154l-3.59-67.735c-0.318-5.74-3.028-10.674-7.437-13.539
	c-4.409-2.864-10.019-3.333-15.391-1.292l-72.813,27.684l-7.831-11.997c-2.493-3.821-7.612-4.895-11.429-2.401
	c-3.82,2.493-4.894,7.61-2.403,11.429l15.532,23.796c1.584,2.427,4.227,3.745,6.924,3.745c1.548,0,3.114-0.435,4.506-1.344
	c0.422-0.275,0.804-0.587,1.157-0.921c14.714,3.188,34.12,2.617,49.371-0.744l-1.898,31.992c-0.27,4.553,3.202,8.463,7.754,8.734
	c4.566,0.26,8.463-3.203,8.733-7.755l2.596-43.753c0.167-2.829-1.126-5.547-3.43-7.2c-2.303-1.652-5.295-2.007-7.919-0.941
	c-9.273,3.762-23.341,5.537-35.952,5.255l52.972-20.14c0.161-0.062,0.301-0.104,0.417-0.13c0.022,0.113,0.04,0.252,0.048,0.414
	l3.588,67.715c0.233,4.407,3.878,7.822,8.239,7.822c0.146,0,0.295-0.003,0.444-0.012
	C276.455,240.596,279.951,236.708,279.709,232.154z"/>
<path style="fill:#E7D3CD;" d="M227.995,254.314l-56.849,36.965c-5.417,3.54-5.744,9.781-0.729,13.869l65.536,53.416
	c0.457-16.451-18.562-47.135-33.845-59.035l39.189-19.629"/>
<path style="fill:#1A1C20;" d="M243.048,344.563c-0.449-0.228-0.911-0.403-1.376-0.542c-4.597-14.337-14.793-30.855-25.329-42.384
	l28.653-14.351c4.078-2.043,5.728-7.004,3.685-11.081c-2.042-4.078-7.003-5.729-11.082-3.686l-39.189,19.629
	c-2.535,1.27-4.24,3.75-4.519,6.571c-0.28,2.82,0.907,5.587,3.144,7.329c7.896,6.147,16.461,17.452,22.528,28.507l-43.927-35.804
	c-0.134-0.11-0.24-0.21-0.322-0.298c0.088-0.074,0.198-0.16,0.335-0.249l56.849-36.965c3.824-2.487,4.907-7.602,2.421-11.426
	s-7.602-4.906-11.425-2.421l-56.865,36.976c-4.812,3.144-7.73,7.959-8.005,13.207c-0.276,5.25,2.121,10.344,6.577,13.976
	l60.382,49.215l-6.475,12.78c-2.061,4.068-0.434,9.038,3.635,11.099c1.197,0.607,2.471,0.894,3.726,0.894
	c3.014,0,5.918-1.656,7.373-4.528l12.843-25.349C248.744,351.592,247.117,346.624,243.048,344.563z"/>
<path style="fill:#E7D3CD;" d="M268.542,281.096l60.437,30.75c5.774,2.921,11.343,0.085,12.376-6.304l13.493-83.464
	c-14.476,7.83-31.539,39.642-34.204,58.828l-36.594-24.125"/>
<path style="fill:#1A1C20;" d="M384.04,220.479c-0.249-4.553-4.144-8.024-8.696-7.795l-28.375,1.553
	c-4.554,0.25-8.044,4.143-7.795,8.697c0.028,0.503,0.105,0.99,0.217,1.464c-10.117,11.148-19.325,28.238-24.04,43.126
	l-26.756-17.639c-3.808-2.508-8.93-1.457-11.44,2.35c-2.51,3.807-1.459,8.929,2.35,11.44l36.594,24.125
	c2.366,1.559,5.368,1.797,7.95,0.629c2.582-1.168,4.386-3.58,4.775-6.387c1.376-9.912,6.883-22.982,13.423-33.762l-9.043,55.945
	c-0.028,0.17-0.062,0.312-0.096,0.426c-0.109-0.037-0.238-0.091-0.383-0.164l-60.437-30.751c-4.063-2.068-9.037-0.449-11.105,3.615
	c-2.068,4.065-0.449,9.037,3.616,11.105l60.455,30.76c2.68,1.355,5.495,2.036,8.242,2.036c2.51,0,4.963-0.568,7.2-1.708
	c4.684-2.386,7.896-7.009,8.813-12.683l12.431-76.9l14.306-0.783C380.799,228.928,384.29,225.034,384.04,220.479z"/>
<circle style="fill:#E7D3CD;" cx="256" cy="256" r="28.056"/>
<path style="fill:#F2A643;" d="M256,292.313c-20.024,0-36.313-16.29-36.313-36.313s16.29-36.313,36.313-36.313
	c20.023,0,36.313,16.29,36.313,36.313S276.024,292.313,256,292.313z M256,236.203c-10.917,0-19.797,8.881-19.797,19.797
	c0,10.916,8.881,19.797,19.797,19.797c10.916,0,19.797-8.881,19.797-19.797C275.797,245.084,266.917,236.203,256,236.203z"/>
<path style="fill:#1A1C20;" d="M468.324,429.419H43.676C19.593,429.419,0,409.826,0,385.743V126.257
	c0-24.083,19.593-43.676,43.676-43.676h424.648c24.083,0,43.675,19.594,43.675,43.676v259.486
	C512,409.826,492.407,429.419,468.324,429.419z M43.676,99.097c-14.977,0-27.16,12.183-27.16,27.16v259.486
	c0,14.977,12.183,27.16,27.16,27.16h424.648c14.976,0,27.159-12.183,27.159-27.16V126.257c0-14.977-12.183-27.16-27.16-27.16H43.676
	z"/>
<g>
</g>
<g>
</g>
<g>
</g>
<g>
</g>
<g>
</g>
<g>
</g>
<g>
</g>
<g>
</g>
<g>
</g>
<g>
</g>
<g>
</g>
<g>
</g>
<g>
</g>
<g>
</g>
<g>
</g>
</svg>
