<svg width="20" height="20" viewBox="0 0 20 20" fill="none" xmlns="http://www.w3.org/2000/svg">
<path d="M17.5 18H16.5C16.224 18 16 17.776 16 17.5C16 17.224 16.224 17 16.5 17H17.5C17.776 17 18 17.224 18 17.5C18 17.776 17.776 18 17.5 18Z" fill="black"/>
<path d="M2.5 18H1.5C1.224 18 1 17.776 1 17.5C1 17.224 1.224 17 1.5 17H2.5C2.776 17 3 17.224 3 17.5C3 17.776 2.776 18 2.5 18Z" fill="black"/>
<path d="M18.658 11.393L16.29 4.29002C16.091 3.69402 15.522 3.20402 14.902 3.05002C14.88 2.95502 14.856 2.86402 14.828 2.78002C14.601 2.10002 14.212 1.99902 14 1.99902H10C9.873 1.99902 9.682 2.03602 9.5 2.21202C9.318 2.03602 9.127 1.99902 9 1.99902H5C4.788 1.99902 4.399 2.10102 4.172 2.78002C4.144 2.86402 4.119 2.95402 4.098 3.05002C3.477 3.20402 2.908 3.69302 2.71 4.29002L0.342 11.393C0.15 11.968 0 12.894 0 13.5V15.5C0 16.327 0.673 17 1.5 17H17.5C18.327 17 19 16.327 19 15.5V13.5C19 12.894 18.85 11.968 18.658 11.393ZM10.157 3.00002H13.843C13.913 3.15702 14 3.51402 14 4.00002C14 4.48602 13.913 4.84302 13.843 5.00002H10.157C10.087 4.84302 10 4.48602 10 4.00002C10 3.51402 10.087 3.15702 10.157 3.00002ZM5.157 3.00002H8.843C8.913 3.15702 9 3.51402 9 4.00002C9 4.48602 8.913 4.84302 8.843 5.00002H5.157C5.087 4.84302 5 4.48602 5 4.00002C5 3.51402 5.087 3.15702 5.157 3.00002ZM3.658 4.60702C3.712 4.44502 3.843 4.29002 4.003 4.17802C4.017 4.56602 4.075 4.93002 4.172 5.21902C4.399 5.89902 4.788 6.00002 5 6.00002H9C9.127 6.00002 9.318 5.96302 9.5 5.78702C9.682 5.96302 9.873 6.00002 10 6.00002H14C14.212 6.00002 14.601 5.89802 14.828 5.21902C14.924 4.93002 14.983 4.56502 14.997 4.17802C15.157 4.29102 15.288 4.44502 15.342 4.60702L16.14 7.00002H2.861L3.659 4.60702H3.658ZM2.527 8.00002H16.473L17.709 11.709C17.741 11.804 17.771 11.913 17.8 12.03C17.703 12.01 17.603 12 17.5 12H1.5C1.397 12 1.297 12.01 1.2 12.03C1.229 11.913 1.259 11.804 1.291 11.709L2.528 8.00002H2.527ZM18 15.5C18 15.776 17.776 16 17.5 16H1.5C1.224 16 1 15.776 1 15.5V13.5C1 13.224 1.224 13 1.5 13H17.5C17.776 13 18 13.224 18 13.5V15.5Z" fill="black"/>
</svg>
