<svg width="20" height="20" viewBox="0 0 20 20" fill="none" xmlns="http://www.w3.org/2000/svg">
<g clip-path="url(#clip0)">
<path d="M9 10H10V11H9V10Z" fill="#1A1A1A"/>
<path d="M11 10H12V11H11V10Z" fill="#1A1A1A"/>
<path d="M13 10H14V11H13V10Z" fill="#1A1A1A"/>
<path d="M15 10H16V11H15V10Z" fill="#1A1A1A"/>
<path d="M9 13H10V14H9V13Z" fill="#1A1A1A"/>
<path d="M11 13H12V14H11V13Z" fill="#1A1A1A"/>
<path d="M13 13H14V14H13V13Z" fill="#1A1A1A"/>
<path d="M15 13H16V14H15V13Z" fill="#1A1A1A"/>
<path d="M9 16H10V17H9V16Z" fill="#1A1A1A"/>
<path d="M11 16H12V17H11V16Z" fill="#1A1A1A"/>
<path d="M13 16H14V17H13V16Z" fill="#1A1A1A"/>
<path d="M15 16H16V17H15V16Z" fill="#1A1A1A"/>
<path d="M17.5 7.00002H17V4.50002C17 4.36702 16.947 4.24002 16.854 4.14602L15 2.29202V0.499023C15 0.223023 14.776 -0.000976562 14.5 -0.000976562C14.224 -0.000976562 14 0.223023 14 0.499023V2.29202L12.146 4.14602C12.052 4.24002 12 4.36702 12 4.50002V5.00002H10V2.50002C10 2.22402 9.776 2.00002 9.5 2.00002H1.5C1.224 2.00002 1 2.22402 1 2.50002V19.5C1 19.776 1.224 20 1.5 20H17.5C17.776 20 18 19.776 18 19.5V7.50002C18 7.22402 17.776 7.00002 17.5 7.00002ZM13 4.70702L14.5 3.20702L16 4.70702V7.00002H15V5.50002C15 5.22402 14.776 5.00002 14.5 5.00002H13V4.70702ZM14 6.00002V7.00002H10V6.00002H14ZM7 7.50002V19H2V3.00002H9V7.00002H7.5C7.224 7.00002 7 7.22402 7 7.50002ZM17 19H8V8.00002H17V19Z" fill="#1A1A1A"/>
<path d="M7 4H8V6H7V4Z" fill="#1A1A1A"/>
<path d="M5 4H6V6H5V4Z" fill="#1A1A1A"/>
<path d="M3 4H4V6H3V4Z" fill="#1A1A1A"/>
<path d="M3 7H4V9H3V7Z" fill="#1A1A1A"/>
<path d="M5 7H6V9H5V7Z" fill="#1A1A1A"/>
<path d="M3 10H4V12H3V10Z" fill="#1A1A1A"/>
<path d="M5 10H6V12H5V10Z" fill="#1A1A1A"/>
<path d="M3 13H4V15H3V13Z" fill="#1A1A1A"/>
<path d="M5 13H6V15H5V13Z" fill="#1A1A1A"/>
<path d="M3 16H4V18H3V16Z" fill="#1A1A1A"/>
<path d="M5 16H6V18H5V16Z" fill="#1A1A1A"/>
</g>
<defs>
<clipPath id="clip0">
<rect width="20" height="20" fill="white"/>
</clipPath>
</defs>
</svg>
