<svg width="24" height="24" viewBox="0 0 24 24" fill="none" xmlns="http://www.w3.org/2000/svg">
  <path d="M12.8484 12.6L19.6236 5.8248C19.8576 5.5908 19.8576 5.2104 19.6236 4.9764C19.3896 4.7424 19.0092 4.7424 18.7752 4.9764L12 11.7516L5.22483 4.9764C4.99083 4.7424 4.61043 4.7424 4.37643 4.9764C4.14243 5.2104 4.14243 5.5908 4.37643 5.8248L11.1516 12.6L4.37643 19.3752C4.14243 19.6092 4.14243 19.9896 4.37643 20.2236C4.49403 20.3412 4.64763 20.3988 4.80123 20.3988C4.95483 20.3988 5.10843 20.34 5.22603 20.2236L12.0012 13.4484L18.7764 20.2236C18.894 20.3412 19.0476 20.3988 19.2012 20.3988C19.3548 20.3988 19.5084 20.34 19.626 20.2236C19.86 19.9896 19.86 19.6092 19.626 19.3752L12.8508 12.6H12.8484Z" fill="#1A1A1A"/>
</svg>
