<svg width="12" height="12" viewBox="0 0 12 12" fill="none" xmlns="http://www.w3.org/2000/svg">
<g clip-path="url(#clip0)">
<path d="M9.73034 9.90627L6.12409 6.30003L9.73034 2.69379C9.84743 2.57669 9.84743 2.38662 9.73034 2.26952C9.61324 2.15243 9.42317 2.15243 9.30607 2.26952L5.69983 5.87577L2.09358 2.26952C1.97649 2.15243 1.78642 2.15243 1.66932 2.26952C1.55222 2.38662 1.55222 2.57669 1.66932 2.69379L5.27557 6.30003L1.66932 9.90627C1.55222 10.0234 1.55222 10.2134 1.66932 10.3305C1.78642 10.4476 1.97649 10.4476 2.09358 10.3305L5.69983 6.72429L9.30607 10.3305C9.42317 10.4476 9.61324 10.4476 9.73034 10.3305C9.84743 10.2134 9.84743 10.0234 9.73034 9.90627Z" fill="white"/>
</g>
<defs>
<clipPath id="clip0">
<rect x="-0.00012207" width="12" height="12" fill="white"/>
</clipPath>
</defs>
</svg>
