<svg width="16" height="16" viewBox="0 0 16 16" fill="none" xmlns="http://www.w3.org/2000/svg">
<circle cx="8" cy="8" r="8" fill="#D72D33"/>
<path d="M3.61523 4.96094C3.61523 4.3457 3.81576 3.84896 4.2168 3.4707C4.61784 3.09245 5.1556 2.90332 5.83008 2.90332C6.51367 2.90332 7.05371 3.09245 7.4502 3.4707C7.84668 3.8444 8.04492 4.35254 8.04492 4.99512V5.4873C8.04492 6.10254 7.84668 6.59701 7.4502 6.9707C7.05371 7.3444 6.51823 7.53125 5.84375 7.53125C5.17383 7.53125 4.63379 7.34668 4.22363 6.97754C3.81803 6.60384 3.61523 6.09342 3.61523 5.44629V4.96094ZM5.09863 5.4873C5.09863 5.72428 5.16471 5.91797 5.29688 6.06836C5.42904 6.21419 5.61133 6.28711 5.84375 6.28711C6.32227 6.28711 6.56152 5.98177 6.56152 5.37109V4.96094C6.56152 4.72396 6.49772 4.53027 6.37012 4.37988C6.24251 4.22493 6.0625 4.14746 5.83008 4.14746C5.60677 4.14746 5.42904 4.22266 5.29688 4.37305C5.16471 4.51888 5.09863 4.7194 5.09863 4.97461V5.4873ZM8.3457 10.5596C8.3457 9.93978 8.54622 9.44303 8.94727 9.06934C9.35286 8.69564 9.89062 8.50879 10.5605 8.50879C11.2396 8.50879 11.7796 8.69336 12.1807 9.0625C12.5817 9.43164 12.7822 9.94661 12.7822 10.6074V11.0859C12.7822 11.7057 12.584 12.2025 12.1875 12.5762C11.791 12.9499 11.2533 13.1367 10.5742 13.1367C9.9043 13.1367 9.36426 12.9521 8.9541 12.583C8.5485 12.2093 8.3457 11.6989 8.3457 11.0518V10.5596ZM9.82227 11.0859C9.82227 11.3001 9.89518 11.4893 10.041 11.6533C10.1868 11.8128 10.3646 11.8926 10.5742 11.8926C11.0163 11.8926 11.2555 11.6829 11.292 11.2637L11.2988 10.5596C11.2988 10.318 11.2327 10.1243 11.1006 9.97852C10.9684 9.82812 10.7884 9.75293 10.5605 9.75293C10.3418 9.75293 10.1663 9.82357 10.0342 9.96484C9.90202 10.1016 9.83138 10.2884 9.82227 10.5254V11.0859ZM6.28125 12.2549L5.20801 11.7148L10.0684 3.93555L11.1416 4.47559L6.28125 12.2549Z" fill="white"/>
</svg>
