<svg width="20" height="20" viewBox="0 0 20 20" fill="none" xmlns="http://www.w3.org/2000/svg">
<rect width="20" height="20" rx="10" fill="#EF9B29"/>
<path d="M6.70968 8.06088C7.05991 8.06088 7.34101 7.94214 7.553 7.70466C7.77419 7.45769 7.88479 7.13472 7.88479 6.73575C7.88479 6.34629 7.77419 6.02807 7.553 5.78109C7.34101 5.53411 7.05991 5.41062 6.70968 5.41062C6.35945 5.41062 6.07373 5.53411 5.85253 5.78109C5.64055 6.02807 5.53456 6.34629 5.53456 6.73575C5.53456 7.13472 5.64055 7.45769 5.85253 7.70466C6.07373 7.94214 6.35945 8.06088 6.70968 8.06088ZM6.70968 9.4715C6.21198 9.4715 5.75576 9.35751 5.34101 9.12953C4.93548 8.90155 4.60829 8.57858 4.35945 8.16062C4.11982 7.74266 4 7.2677 4 6.73575C4 6.2418 4.1106 5.79059 4.3318 5.38212C4.56221 4.96416 4.88479 4.63169 5.29954 4.38472C5.7235 4.12824 6.19355 4 6.70968 4C7.19816 4 7.64977 4.11399 8.06452 4.34197C8.47926 4.56995 8.80645 4.89767 9.04608 5.32513C9.29493 5.74309 9.41936 6.2133 9.41936 6.73575C9.41936 7.23921 9.30415 7.69991 9.07373 8.11788C8.85254 8.52634 8.53456 8.85406 8.11982 9.10104C7.70507 9.34801 7.23502 9.4715 6.70968 9.4715ZM12.7926 4.22798H14.4931L7.1659 14.829H5.46544L12.7926 4.22798ZM13.2903 13.5894C13.6406 13.5894 13.9217 13.4706 14.1336 13.2332C14.3548 12.9862 14.4654 12.6632 14.4654 12.2642C14.4654 11.8748 14.3548 11.5566 14.1336 11.3096C13.9217 11.0626 13.6406 10.9391 13.2903 10.9391C12.9401 10.9391 12.6544 11.0626 12.4332 11.3096C12.2212 11.5566 12.1152 11.8748 12.1152 12.2642C12.1152 12.6632 12.2212 12.9862 12.4332 13.2332C12.6544 13.4706 12.9401 13.5894 13.2903 13.5894ZM13.2903 15C12.7926 15 12.3364 14.886 11.9217 14.658C11.5161 14.4301 11.1889 14.1071 10.9401 13.6891C10.7005 13.2712 10.5806 12.7962 10.5806 12.2642C10.5806 11.7703 10.6912 11.3191 10.9124 10.9106C11.1429 10.4927 11.4654 10.1602 11.8802 9.91321C12.3041 9.65674 12.7742 9.5285 13.2903 9.5285C13.7788 9.5285 14.2304 9.64249 14.6452 9.87047C15.0599 10.0984 15.3871 10.4262 15.6267 10.8536C15.8756 11.2716 16 11.7418 16 12.2642C16 12.7677 15.8848 13.2284 15.6544 13.6464C15.4332 14.0548 15.1152 14.3826 14.7005 14.6295C14.2857 14.8765 13.8157 15 13.2903 15Z" fill="white"/>
</svg>