<svg width="512" height="512" viewBox="0 0 512 512" fill="none" xmlns="http://www.w3.org/2000/svg">
<path d="M250.217 437.03C339.707 437.03 412.253 418.449 412.253 395.528C412.253 372.607 339.707 354.025 250.217 354.025C160.727 354.025 88.1816 372.607 88.1816 395.528C88.1816 418.449 160.727 437.03 250.217 437.03Z" fill="#1B998B"/>
<path d="M315.56 308.107L269.201 406.123L257.28 411.422L237.412 406.123L228.582 386.255L213.129 353.583L186.638 308.107L150.434 264.839L129.241 233.05L117.32 195.08V154.019L144.253 100.154L180.015 63.5085L228.582 44.5234H272.733L325.715 63.5085L361.478 100.154L384.878 142.981L380.021 225.544L315.56 308.107Z" fill="white" stroke="black"/>
<path d="M251.542 277.202C197.006 277.202 152.643 232.838 152.643 178.302C152.643 123.767 197.006 79.4033 251.542 79.4033C306.078 79.4033 350.441 123.767 350.441 178.302C350.441 232.838 306.078 277.202 251.542 277.202Z" fill="#E6BA1C"/>
<path d="M299.635 349.772C313.876 323.819 332.236 298.691 354.686 274.743C379.284 248.507 392.826 214.252 392.826 178.303C392.826 138.171 375.667 99.7975 345.75 73.01C315.423 45.8551 276.217 33.3867 235.435 37.9078C169.928 45.1628 117.59 98.0668 110.992 163.701C106.852 204.864 120.705 245.561 148.99 275.379C171.419 299.016 189.659 323.932 203.717 349.751C142.985 354.548 82 369.22 82 397.294V425.55C82 458.018 167.293 475 251.541 475C335.789 475 421.083 458.018 421.083 425.55V397.294C421.083 369.27 360.253 354.597 299.635 349.772ZM125.049 165.114C130.99 106.071 178.066 58.4789 236.989 51.9515C241.934 51.4005 246.851 51.1321 251.718 51.1321C283.09 51.1321 312.703 62.3783 336.333 83.5357C363.255 107.646 378.697 142.19 378.697 178.303C378.697 210.65 366.512 241.471 344.379 265.08C309.051 302.767 283.224 343.337 267.627 385.666L263.925 395.725C262.025 400.889 257.044 404.358 251.541 404.358C246.038 404.358 241.058 400.889 239.158 395.725L234.573 383.271C219.293 341.797 193.954 302.23 159.247 265.652C133.788 238.822 121.319 202.18 125.049 165.114ZM210.731 363.428C214.652 371.594 218.241 379.824 221.314 388.152L225.898 400.607C229.84 411.302 240.147 418.486 251.541 418.486C262.936 418.486 273.243 411.302 277.185 400.607L280.886 390.547C284.249 381.42 288.184 372.392 292.542 363.442C367.169 368.577 406.954 386.21 406.954 397.294C406.954 411.698 346.414 432.615 251.541 432.615C156.669 432.615 96.1284 411.698 96.1284 397.294C96.1284 386.189 135.978 368.549 210.731 363.428ZM251.541 460.872C156.669 460.872 96.1284 439.954 96.1284 425.55V418.352C123.778 437.058 187.942 446.743 251.541 446.743C315.141 446.743 379.305 437.058 406.954 418.352V425.55C406.954 439.954 346.414 460.872 251.541 460.872Z" fill="black"/>
</svg>
