<svg width="14" height="14" viewBox="0 0 14 14" fill="none" xmlns="http://www.w3.org/2000/svg">
<path d="M1.75034 1.40007H8.05034C8.6293 1.40007 9.10034 1.87111 9.10034 2.45007V4.55007C9.10034 4.74336 8.94363 4.90007 8.75034 4.90007C8.55705 4.90007 8.40034 4.74336 8.40034 4.55007V2.45007C8.40034 2.25709 8.24332 2.10007 8.05034 2.10007H2.75553L5.44481 3.25262C5.92453 3.45822 6.30034 4.02813 6.30034 4.55007V11.2001H8.05034C8.24332 11.2001 8.40034 11.043 8.40034 10.8501V8.75007C8.40034 8.55676 8.55705 8.40007 8.75034 8.40007C8.94363 8.40007 9.10034 8.55676 9.10034 8.75007V10.8501C9.10034 11.429 8.6293 11.9001 8.05034 11.9001H6.30034V12.9501C6.30034 13.2533 6.1741 13.5105 5.95402 13.6556C5.83253 13.7358 5.69093 13.7761 5.54153 13.7761C5.4203 13.7761 5.29394 13.7495 5.16908 13.696L1.55591 12.1475C1.07615 11.9419 0.700342 11.372 0.700342 10.8501V2.45006C0.700342 1.87109 1.17135 1.40005 1.75034 1.40005V1.40007ZM1.40034 10.8501C1.40034 11.0957 1.6059 11.4074 1.83163 11.5041L5.4448 13.0526C5.51195 13.0814 5.5564 13.0793 5.56869 13.0712C5.58091 13.0632 5.60034 13.0231 5.60034 12.9501V4.55007C5.60034 4.30449 5.39479 3.99276 5.16905 3.89603L1.43604 2.29616C1.41318 2.34265 1.40034 2.39489 1.40034 2.45008V10.8501V10.8501Z" fill="black"/>
<path d="M8.15252 6.40259L10.2525 4.30259C10.3892 4.1659 10.6108 4.1659 10.7475 4.30259C10.8842 4.43928 10.8842 4.66088 10.7475 4.79755L9.24496 6.30007H13.65C13.8433 6.30007 14 6.45677 14 6.65007C14 6.84336 13.8433 7.00007 13.65 7.00007H9.24496L10.7475 8.50259C10.8842 8.63927 10.8842 8.86088 10.7475 8.99755C10.6791 9.06589 10.5896 9.10006 10.5 9.10006C10.4104 9.10006 10.3209 9.0659 10.2525 8.99754L8.15252 6.89754C8.01583 6.76086 8.01583 6.53927 8.15252 6.40259Z" fill="black"/>
</svg>
