<svg width="14" height="14" viewBox="0 0 14 14" fill="none" xmlns="http://www.w3.org/2000/svg">
<path d="M8.05 5.60009C8.24331 5.60009 8.4 5.44338 8.4 5.25009V2.45009C8.4 1.87112 7.92899 1.40009 7.35 1.40009H1.05C0.471037 1.40009 0 1.87112 0 2.45009V10.8501C0 11.372 0.375812 11.9419 0.855531 12.1475L4.46871 13.696C4.59359 13.7496 4.7199 13.7761 4.84113 13.7761C4.99051 13.7761 5.13218 13.7357 5.25365 13.6556C5.47375 13.5105 5.6 13.2533 5.6 12.9501V11.9001H7.35C7.92899 11.9001 8.4 11.4291 8.4 10.8501V8.05009C8.4 7.85678 8.24331 7.70009 8.05 7.70009C7.85669 7.70009 7.7 7.85678 7.7 8.05009V10.8501C7.7 11.0431 7.54298 11.2001 7.35 11.2001H5.6V4.55009C5.6 4.02815 5.22419 3.45824 4.74447 3.25264L2.05518 2.10009H7.35C7.54298 2.10009 7.7 2.25711 7.7 2.45009V5.25009C7.7 5.44338 7.85669 5.60009 8.05 5.60009ZM4.46871 3.89605C4.69443 3.99278 4.9 4.30452 4.9 4.55009V12.9501C4.9 13.0231 4.88057 13.0632 4.86832 13.0712C4.85605 13.0793 4.81158 13.0814 4.74444 13.0526L1.13127 11.5041C0.905557 11.4074 0.7 11.0957 0.7 10.8501V2.45009C0.7 2.39489 0.712838 2.34264 0.735697 2.29617L4.46871 3.89604V3.89605Z" fill="black"/>
<path d="M12.8475 6.40259L10.7475 4.30259C10.6108 4.1659 10.3892 4.1659 10.2525 4.30259C10.1158 4.43927 10.1158 4.66088 10.2525 4.79755L11.7551 6.30007H7.35C7.15669 6.30007 7 6.45677 7 6.65007C7 6.84336 7.15669 7.00007 7.35 7.00007H11.7551L10.2525 8.50259C10.1158 8.63927 10.1158 8.86088 10.2525 8.99755C10.3209 9.06589 10.4104 9.10007 10.5 9.10007C10.5896 9.10007 10.6791 9.0659 10.7475 8.99754L12.8475 6.89754C12.9842 6.76086 12.9842 6.53927 12.8475 6.40259Z" fill="black"/>
</svg>
