<svg width="14" height="14" viewBox="0 0 14 14" fill="none" xmlns="http://www.w3.org/2000/svg">
  <path d="M4.79012 6.71834C4.69734 6.62556 4.54737 6.62556 4.45459 6.71834C4.36181 6.81112 4.36181 6.96108 4.45459 7.05386L6.82249 9.42176C6.86663 9.46661 6.9269 9.49153 6.99002 9.49153C6.99168 9.49153 6.99334 9.49058 6.995 9.49058C6.99666 9.49058 6.99809 9.49153 6.99998 9.49153C7.079 9.49153 7.14544 9.45047 7.18863 9.39115L9.53564 7.04414C9.62842 6.95136 9.62842 6.80139 9.53564 6.70861C9.44286 6.61583 9.2929 6.61583 9.20012 6.70861L7.23727 8.67146V0.237288C7.23727 0.106068 7.1312 0 6.99998 0C6.86876 0 6.7627 0.106068 6.7627 0.237288V8.69139L4.79012 6.71834Z" fill="#B0AFAF"/>
  <path d="M8.6609 3.79663C8.52968 3.79663 8.42361 3.9027 8.42361 4.03392C8.42361 4.16514 8.52968 4.27121 8.6609 4.27121H11.7456V13.5254H2.25412V4.27121H5.33886C5.47008 4.27121 5.57615 4.16514 5.57615 4.03392C5.57615 3.9027 5.47008 3.79663 5.33886 3.79663H1.77954V14H12.2202V3.79663H8.6609Z" fill="#B0AFAF"/>
</svg>
