<svg width="12" height="10" viewBox="0 0 12 10" fill="none" xmlns="http://www.w3.org/2000/svg">
<path d="M11.9551 0.577601C11.9115 0.524058 11.844 0.499085 11.7767 0.507076C11.7613 0.507875 11.7469 0.510473 11.7319 0.514868L0.147261 3.66571C0.0621519 3.68888 0.00221581 3.7652 -0.000181629 3.85331C-0.00237929 3.94141 0.053561 4.02073 0.137272 4.0483L4.37615 5.43722L3.99695 8.47038C3.98697 8.5503 4.02592 8.62841 4.09565 8.66837C4.12662 8.68615 4.16098 8.69494 4.19514 8.69494C4.2381 8.69494 4.28105 8.68116 4.31661 8.65379L5.86796 7.46585L7.22791 9.40878C7.26547 9.46252 7.3266 9.49409 7.39153 9.49409C7.39593 9.49409 7.40052 9.49389 7.40512 9.49369C7.47505 9.4889 7.53718 9.44794 7.56914 9.38541L11.977 0.794569C12.0138 0.724244 12.005 0.639135 11.9551 0.577601ZM10.5675 1.24569L4.56715 5.0792L0.895663 3.87628L10.5675 1.24569ZM4.45267 8.04643L4.72877 5.83819L5.6388 7.1382L4.45267 8.04643ZM7.36556 8.90812L4.87821 5.35471L11.2914 1.25748L7.36556 8.90812Z" fill="#B0AFAF"/>
</svg>
