<svg width="16" height="16" viewBox="0 0 16 16" fill="none" xmlns="http://www.w3.org/2000/svg">
  <g clip-path="url(#clip0)">
    <path stroke-width="0" d="M15.8973 8.13241C15.8594 8.09025 14.9518 7.08825 13.5325 6.0745C12.6952 5.47642 11.8528 4.99909 11.0289 4.65575C9.98454 4.22062 8.96549 4 8.00002 4C7.03455 4 6.01549 4.22063 4.97118 4.65578C4.14718 4.99911 3.30483 5.47645 2.46752 6.07453C1.04827 7.08825 0.140645 8.09025 0.102691 8.13241C-0.0342305 8.28453 -0.0342305 8.51545 0.102691 8.66758C0.140645 8.70975 1.04827 9.71175 2.46752 10.7255C3.30482 11.3236 4.14718 11.8009 4.97118 12.1442C6.0155 12.5794 7.03455 12.8 8.00002 12.8C8.96549 12.8 9.98455 12.5794 11.0289 12.1442C11.8528 11.8009 12.6952 11.3236 13.5325 10.7255C14.9518 9.71175 15.8594 8.70975 15.8973 8.66759C16.0343 8.51547 16.0343 8.28452 15.8973 8.13239V8.13241ZM10.0592 5.15067C10.7851 5.7612 11.2 6.64947 11.2 7.6C11.2 9.36447 9.76449 10.8 8.00002 10.8C6.23552 10.8 4.80002 9.36447 4.80002 7.6C4.80002 6.64945 5.21493 5.76117 5.94086 5.15067C6.59878 4.93592 7.29402 4.8 8.00002 4.8C8.70605 4.8 9.4013 4.93592 10.0592 5.15067ZM13.0534 10.0846C11.8271 10.9584 9.95485 12 8.00002 12C6.04519 12 4.17299 10.9584 2.94664 10.0846C2.02102 9.42505 1.31268 8.75817 0.955113 8.4C1.31274 8.04175 2.02108 7.37491 2.94664 6.71542C3.37055 6.41337 3.87164 6.09133 4.42664 5.79913C4.14905 6.3495 4.00002 6.9635 4.00002 7.6C4.00002 9.80562 5.79443 11.6 8.00002 11.6C10.2056 11.6 12 9.80562 12 7.6C12 6.96353 11.851 6.3495 11.5734 5.79913C12.1284 6.09133 12.6295 6.41337 13.0534 6.71542C13.979 7.37495 14.6874 8.04183 15.0449 8.4C14.6873 8.75825 13.9789 9.42509 13.0534 10.0846H13.0534Z" fill="#B0AFAF"/>
  </g>
  <defs>
    <clipPath id="clip0">
      <rect width="16" height="16" fill="white"/>
    </clipPath>
  </defs>
</svg>
