<svg width="20" height="20" viewBox="0 0 20 20" fill="none" xmlns="http://www.w3.org/2000/svg">
<path d="M18.8368 19.9336C19.4423 19.9336 19.9333 19.4426 19.9333 18.8371V1.16331C19.9333 0.557613 19.4423 0.0667775 18.8368 0.0667775H1.1631C0.557412 0.0667775 0.0666504 0.557613 0.0666504 1.16331V18.8371C0.0666504 19.4426 0.557412 19.9336 1.1631 19.9336H18.8368Z" fill="#3B5998"/>
<path d="M13.7743 19.9336V12.2402H16.3567L16.7434 9.24186H13.7743V7.32757C13.7743 6.45948 14.0153 5.86793 15.2602 5.86793L16.8479 5.86719V3.18553C16.5733 3.14906 15.6308 3.0674 14.5344 3.0674C12.2452 3.0674 10.6781 4.46465 10.6781 7.03071V9.24186H8.08911V12.2402H10.6781V19.9336H13.7743Z" fill="white"/>
</svg>
