<svg width="16" height="16" viewBox="0 0 16 16" fill="none" xmlns="http://www.w3.org/2000/svg">
<path d="M16 14C16 14.2208 15.8208 14.4 15.6 14.4H9.20005C8.97925 14.4 8.80005 14.2208 8.80005 14C8.80005 13.7792 8.97925 13.6 9.20005 13.6H15.6C15.8208 13.6 16 13.7792 16 14Z" fill="#1A1A1A"/>
<path d="M4.8 14C4.8 14.2208 4.6208 14.4 4.4 14.4H0.4C0.1792 14.4 0 14.2208 0 14C0 13.7792 0.1792 13.6 0.4 13.6H4.4C4.6208 13.6 4.8 13.7792 4.8 14Z" fill="#1A1A1A"/>
<path d="M7.99998 13.2V14.8C7.99998 15.4616 7.46158 16 6.79998 16C6.13838 16 5.59998 15.4616 5.59998 14.8V13.2C5.59998 12.5384 6.13838 12 6.79998 12C7.46158 12 7.99998 12.5384 7.99998 13.2ZM6.39998 14.8C6.39998 15.0208 6.57918 15.2 6.79998 15.2C7.02078 15.2 7.19998 15.0208 7.19998 14.8V13.2C7.19998 12.9792 7.02078 12.8 6.79998 12.8C6.57918 12.8 6.39998 12.9792 6.39998 13.2V14.8Z" fill="#1A1A1A"/>
<path d="M16 8.40005C16 8.62085 15.8208 8.80005 15.6 8.80005H12.4C12.1792 8.80005 12 8.62085 12 8.40005C12 8.17925 12.1792 8.00005 12.4 8.00005H15.6C15.8208 8.00005 16 8.17925 16 8.40005Z" fill="#1A1A1A"/>
<path d="M8 8.40005C8 8.62085 7.8208 8.80005 7.6 8.80005H0.4C0.1792 8.80005 0 8.62085 0 8.40005C0 8.17925 0.1792 8.00005 0.4 8.00005H7.6C7.8208 8.00005 8 8.17925 8 8.40005Z" fill="#1A1A1A"/>
<path d="M11.2 7.60002V9.20002C11.2 9.86162 10.6616 10.4 10 10.4C9.33845 10.4 8.80005 9.86162 8.80005 9.20002V7.60002C8.80005 6.93842 9.33845 6.40002 10 6.40002C10.6616 6.40002 11.2 6.93842 11.2 7.60002ZM9.60005 9.20002C9.60005 9.42082 9.77925 9.60002 10 9.60002C10.2208 9.60002 10.4 9.42082 10.4 9.20002V7.60002C10.4 7.37922 10.2208 7.20002 10 7.20002C9.77925 7.20002 9.60005 7.37922 9.60005 7.60002V9.20002Z" fill="#1A1A1A"/>
<path d="M16 2.79995C16 3.02075 15.8208 3.19995 15.6 3.19995L7.59995 3.19995C7.37915 3.19995 7.19995 3.02075 7.19995 2.79995C7.19995 2.57915 7.37915 2.39995 7.59995 2.39995L15.6 2.39995C15.8208 2.39995 16 2.57915 16 2.79995Z" fill="#1A1A1A"/>
<path d="M3.2 2.79995C3.2 3.02075 3.0208 3.19995 2.8 3.19995H0.4C0.1792 3.19995 0 3.02075 0 2.79995C0 2.57915 0.1792 2.39995 0.4 2.39995H2.8C3.0208 2.39995 3.2 2.57915 3.2 2.79995Z" fill="#1A1A1A"/>
<path d="M6.4 2.00005V3.60005C6.4 4.26165 5.8616 4.80005 5.2 4.80005C4.5384 4.80005 4 4.26165 4 3.60005V2.00005C4 1.33845 4.5384 0.800049 5.2 0.800049C5.8616 0.800049 6.4 1.33845 6.4 2.00005ZM4.8 3.60005C4.8 3.82085 4.9792 4.00005 5.2 4.00005C5.4208 4.00005 5.6 3.82085 5.6 3.60005V2.00005C5.6 1.77925 5.4208 1.60005 5.2 1.60005C4.9792 1.60005 4.8 1.77925 4.8 2.00005V3.60005Z" fill="#1A1A1A"/>
</svg>
