<svg width="50" height="50" viewBox="0 0 50 50" fill="none" xmlns="http://www.w3.org/2000/svg">
<g clip-path="url(#clip0)">
<path d="M0.00624845 32.2584C0.0403228 32.0252 0.203565 31.8315 0.427586 31.7585L3.84879 30.6437L4.86957 27.1935C4.93639 26.9683 5.12573 26.7995 5.35773 26.7598C5.58972 26.7202 5.82486 26.8155 5.96333 27.0049L8.08041 29.9144L11.6779 29.8198C11.921 29.8098 12.132 29.9417 12.2415 30.1501C12.3509 30.3585 12.333 30.611 12.1951 30.8015L10.0823 33.7141L11.2838 37.1056C11.3623 37.3271 11.3085 37.5752 11.144 37.7435C10.9794 37.9118 10.7337 37.9737 10.5098 37.9006L7.08682 36.7913L4.23231 38.9826C4.12223 39.0673 3.9892 39.1107 3.85556 39.1107C3.76276 39.1107 3.66875 39.0897 3.58212 39.047C3.37115 38.9425 3.2369 38.7278 3.2369 38.4926L3.23376 34.8945L0.267966 32.8567C0.0742744 32.723 -0.027705 32.491 0.00624845 32.2584ZM4.20318 34.0592C4.3709 34.1749 4.47107 34.3648 4.47167 34.5684L4.47348 37.2379L6.59177 35.6121C6.70124 35.528 6.83428 35.4841 6.96852 35.4841C7.0328 35.4841 7.09721 35.494 7.15907 35.5144L9.6993 36.3372L8.80781 33.8212C8.73978 33.6288 8.77011 33.4165 8.89009 33.2513L10.4578 31.0898L7.78824 31.1604C7.58403 31.1592 7.39167 31.07 7.27169 30.9061L5.70028 28.747L4.94243 31.3077C4.88431 31.5026 4.7346 31.6566 4.54091 31.7203L2.00189 32.5474L4.20318 34.0592Z" fill="#E6BA1C"/>
<path d="M27.1361 9.85498L32.4323 6.87179L32.9768 0.817079C32.9978 0.582667 33.1507 0.380276 33.3702 0.295574C33.5892 0.210871 33.8386 0.25727 34.0117 0.416888L38.4866 4.53141L44.4127 3.17835C44.6435 3.12386 44.8817 3.20868 45.0308 3.39114C45.1799 3.57359 45.2114 3.8248 45.113 4.03891L42.5821 9.56655L45.7008 14.7849C45.8201 14.9865 45.8158 15.2402 45.6884 15.4382C45.5604 15.6355 45.3315 15.7469 45.0976 15.7166L39.0589 15.0175L35.0599 19.5955C34.9411 19.7316 34.7704 19.8071 34.5941 19.8071C34.5416 19.8071 34.4877 19.8003 34.4351 19.7867C34.2075 19.726 34.0342 19.5416 33.9872 19.3103L32.7864 13.3515L27.1963 10.9629C26.9797 10.8701 26.835 10.6629 26.8219 10.4277C26.8089 10.1927 26.9308 9.97061 27.1361 9.85498ZM33.572 12.3419C33.7594 12.4224 33.895 12.5888 33.9351 12.7892L34.9527 17.838L38.3412 13.9584C38.4594 13.8229 38.6295 13.7468 38.807 13.7468C38.8306 13.7468 38.8546 13.748 38.8782 13.7512L43.9944 14.3432L41.3521 9.92228C41.2475 9.7478 41.2357 9.53248 41.3205 9.34761L43.4649 4.66445L38.4439 5.81077C38.2466 5.85657 38.0374 5.80026 37.8877 5.66348L34.0967 2.17679L33.6351 7.30726C33.6165 7.50953 33.4996 7.69078 33.3226 7.79046L28.8356 10.3182L33.572 12.3419Z" fill="#E6BA1C"/>
<path d="M3.13357 15.6666L6.77432 10.7991L4.8281 5.03943C4.75258 4.81674 4.81082 4.56928 4.9772 4.4035C5.14419 4.23651 5.39045 4.18021 5.61374 4.25621L11.3684 6.21427L16.2441 2.58464C16.4328 2.44302 16.6852 2.42188 16.8949 2.52954C17.1046 2.63659 17.2351 2.85312 17.232 3.08874L17.1479 9.16701L22.107 12.6828C22.2994 12.8189 22.3971 13.0522 22.36 13.2848C22.3229 13.5174 22.1572 13.7092 21.9325 13.7785L16.1259 15.577L14.3151 21.3793C14.2452 21.6039 14.0534 21.7697 13.8208 21.8061C13.7887 21.8111 13.7565 21.8135 13.7249 21.8135C13.5256 21.8135 13.3364 21.7176 13.2194 21.5512L9.71474 16.5847L3.63647 16.6559C3.63405 16.6559 3.63151 16.6559 3.6291 16.6559C3.3965 16.6559 3.18299 16.5254 3.07726 16.3174C2.97081 16.107 2.99244 15.8552 3.13357 15.6666ZM10.0253 15.3436C10.2275 15.3722 10.4206 15.4389 10.5382 15.606L13.5077 19.814L15.042 14.8981C15.1027 14.7038 15.2548 14.5517 15.4497 14.4917L20.3698 12.9679L16.1679 9.98902C16.0016 9.87145 15.9044 9.6797 15.9068 9.4761L15.9786 4.32581L11.8473 7.40179C11.6833 7.52432 11.4699 7.55827 11.2788 7.49145L6.40313 5.8322L8.05187 10.7122C8.11687 10.9052 8.0834 11.1175 7.96148 11.2807L4.87692 15.4053L10.0253 15.3436Z" fill="#E6BA1C"/>
<path d="M40.7538 24.9258C41.6867 23.8673 42.9754 23.2356 44.3834 23.146C45.794 23.055 47.1507 23.5209 48.2092 24.4538C49.2677 25.3862 49.9 26.6754 49.989 28.0835C50.1734 30.9905 47.9586 33.5054 45.0521 33.6897C44.9377 33.697 44.8239 33.7008 44.7101 33.7008C43.4251 33.7008 42.199 33.2392 41.2264 32.3818C40.1673 31.4489 39.535 30.1602 39.4459 28.7522C39.3563 27.3441 39.8209 25.9849 40.7538 24.9258ZM40.6808 28.673C40.7489 29.7513 41.2333 30.7387 42.0443 31.4526C42.8553 32.1672 43.8996 32.5216 44.9736 32.4542C47.1995 32.3132 48.8959 30.3878 48.7547 28.1619C48.6867 27.0836 48.2023 26.0962 47.3913 25.3823C46.6465 24.7252 45.7079 24.372 44.7237 24.372C44.6371 24.372 44.5492 24.3752 44.462 24.3807C43.3837 24.4488 42.3969 24.9332 41.6824 25.7436C40.9678 26.5541 40.6127 27.5947 40.6808 28.673Z" fill="#E3941B"/>
<path d="M21.11 21.1478C21.7634 20.4067 22.666 19.9637 23.6521 19.9012C25.6776 19.7799 27.4487 21.3235 27.5774 23.3589C27.7061 25.3949 26.1551 27.1563 24.1197 27.2849C24.0405 27.2899 23.9619 27.2923 23.8833 27.2923C21.9494 27.2923 20.318 25.784 20.1943 23.8273C20.1313 22.841 20.4567 21.8896 21.11 21.1478ZM21.4292 23.7486C21.5146 25.1035 22.6857 26.1391 24.0418 26.0499C25.396 25.9639 26.4285 24.7922 26.3425 23.4373C26.2602 22.1356 25.1744 21.131 23.8871 21.131C23.8351 21.131 23.7826 21.1322 23.73 21.136C23.0737 21.1774 22.4729 21.4719 22.0386 21.9656C21.6042 22.4593 21.3877 23.0922 21.4292 23.7486Z" fill="#E3941B"/>
<path d="M35.0947 23.9689C35.3527 23.7456 35.7431 23.7716 35.9676 24.0302C36.1922 24.2882 36.1649 24.6786 35.9069 24.9031C27.3763 32.3232 26.4057 41.3951 26.3964 41.4854C26.3654 41.8052 26.0964 42.0446 25.7809 42.0446C25.761 42.0446 25.7412 42.0434 25.7208 42.0415C25.3812 42.0087 25.1319 41.7074 25.164 41.3671C25.2018 40.9783 26.1744 31.7287 35.0947 23.9689Z" fill="#90BF61"/>
<path d="M3.1979 20.2694C3.30556 19.9452 3.65512 19.7695 3.97991 19.8766C17.3837 24.3234 20.1831 37.4451 20.2097 37.5775C20.2777 37.9122 20.0612 38.2388 19.7259 38.3068C19.6844 38.3155 19.6436 38.3191 19.6027 38.3191C19.3144 38.3191 19.0565 38.1168 18.9971 37.823C18.9718 37.698 16.3208 25.2748 3.59023 21.0513C3.26592 20.943 3.09024 20.5929 3.1979 20.2694Z" fill="#1B998B"/>
<path d="M33.1978 44.2769C33.3364 44.0195 36.6678 37.9789 42.8154 37.9697H42.8166C43.1581 37.9697 43.4347 38.2457 43.4353 38.5872C43.4359 38.9292 43.1593 39.2064 42.8173 39.207C37.4152 39.2157 34.3169 44.809 34.286 44.8653C34.174 45.0719 33.9612 45.1895 33.7415 45.1895C33.642 45.1895 33.5411 45.1653 33.4477 45.1146C33.1477 44.9518 33.0352 44.5776 33.1978 44.2769Z" fill="#1B998B"/>
<path d="M6.77527 42.088C15.6999 40.9126 19.0623 48.8121 19.0951 48.892C19.225 49.2081 19.0747 49.5694 18.7586 49.7C18.6819 49.7315 18.6022 49.7464 18.5235 49.7464C18.2804 49.7464 18.0496 49.6022 17.9512 49.3635C17.9221 49.2929 14.9316 42.2718 6.93609 43.3149C6.60079 43.3589 6.28711 43.1212 6.24192 42.7823C6.19806 42.4425 6.43622 42.1319 6.77527 42.088Z" fill="#90BF61"/>
</g>
<defs>
<clipPath id="clip0">
<rect width="50" height="50" transform="matrix(-1 0 0 1 50 0)" fill="white"/>
</clipPath>
</defs>
</svg>
