<svg width="50" height="50" viewBox="0 0 50 50" fill="none" xmlns="http://www.w3.org/2000/svg">
<g clip-path="url(#clip0)">
<path d="M49.9938 32.2584C49.9597 32.0252 49.7964 31.8315 49.5724 31.7585L46.1512 30.6437L45.1304 27.1935C45.0636 26.9683 44.8743 26.7995 44.6423 26.7598C44.4103 26.7202 44.1751 26.8155 44.0367 27.0049L41.9196 29.9144L38.3221 29.8198C38.079 29.8098 37.868 29.9417 37.7585 30.1501C37.6491 30.3585 37.667 30.611 37.8049 30.8015L39.9177 33.7141L38.7162 37.1056C38.6377 37.3271 38.6915 37.5752 38.856 37.7435C39.0206 37.9118 39.2663 37.9737 39.4902 37.9006L42.9132 36.7913L45.7677 38.9826C45.8778 39.0673 46.0108 39.1107 46.1444 39.1107C46.2372 39.1107 46.3312 39.0897 46.4179 39.047C46.6289 38.9425 46.7631 38.7278 46.7631 38.4926L46.7662 34.8945L49.732 32.8567C49.9257 32.723 50.0277 32.491 49.9938 32.2584ZM45.7968 34.0592C45.6291 34.1749 45.5289 34.3648 45.5283 34.5684L45.5265 37.2379L43.4082 35.6121C43.2988 35.528 43.1657 35.4841 43.0315 35.4841C42.9672 35.4841 42.9028 35.494 42.8409 35.5144L40.3007 36.3372L41.1922 33.8212C41.2602 33.6288 41.2299 33.4165 41.1099 33.2513L39.5422 31.0898L42.2118 31.1604C42.416 31.1592 42.6083 31.07 42.7283 30.9061L44.2997 28.747L45.0576 31.3077C45.1157 31.5026 45.2654 31.6566 45.4591 31.7203L47.9981 32.5474L45.7968 34.0592Z" fill="#E6BA1C"/>
<path d="M22.8639 9.85498L17.5677 6.87179L17.0232 0.817079C17.0022 0.582667 16.8493 0.380276 16.6298 0.295574C16.4108 0.210871 16.1614 0.25727 15.9883 0.416888L11.5134 4.53141L5.58729 3.17835C5.35651 3.12386 5.11835 3.20868 4.96924 3.39114C4.82014 3.57359 4.7886 3.8248 4.88696 4.03891L7.41788 9.56655L4.29924 14.7849C4.17986 14.9865 4.18421 15.2402 4.31156 15.4382C4.43964 15.6355 4.6685 15.7469 4.90242 15.7166L10.9411 15.0175L14.9401 19.5955C15.0589 19.7316 15.2296 19.8071 15.4059 19.8071C15.4584 19.8071 15.5123 19.8003 15.5649 19.7867C15.7925 19.726 15.9658 19.5416 16.0128 19.3103L17.2136 13.3515L22.8037 10.9629C23.0203 10.8701 23.165 10.6629 23.1781 10.4277C23.1911 10.1927 23.0692 9.97061 22.8639 9.85498ZM16.428 12.3419C16.2406 12.4224 16.105 12.5888 16.0649 12.7892L15.0473 17.838L11.6588 13.9584C11.5406 13.8229 11.3705 13.7468 11.193 13.7468C11.1694 13.7468 11.1454 13.748 11.1218 13.7512L6.00561 14.3432L8.64794 9.92228C8.75245 9.7478 8.7643 9.53248 8.67947 9.34761L6.53509 4.66445L11.5561 5.81077C11.7534 5.85657 11.9626 5.80026 12.1123 5.66348L15.9033 2.17679L16.3649 7.30726C16.3835 7.50953 16.5004 7.69078 16.6774 7.79046L21.1644 10.3182L16.428 12.3419Z" fill="#E6BA1C"/>
<path d="M46.8664 15.6666L43.2257 10.7991L45.1719 5.03943C45.2474 4.81674 45.1892 4.56928 45.0228 4.4035C44.8558 4.23651 44.6096 4.18021 44.3863 4.25621L38.6316 6.21427L33.7559 2.58464C33.5672 2.44302 33.3148 2.42188 33.1051 2.52954C32.8954 2.63659 32.7649 2.85312 32.768 3.08874L32.8521 9.16701L27.893 12.6828C27.7006 12.8189 27.6029 13.0522 27.64 13.2848C27.6771 13.5174 27.8428 13.7092 28.0675 13.7785L33.8741 15.577L35.6849 21.3793C35.7548 21.6039 35.9466 21.7697 36.1792 21.8061C36.2113 21.8111 36.2435 21.8135 36.2751 21.8135C36.4744 21.8135 36.6636 21.7176 36.7806 21.5512L40.2853 16.5847L46.3635 16.6559C46.3659 16.6559 46.3685 16.6559 46.3709 16.6559C46.6035 16.6559 46.817 16.5254 46.9227 16.3174C47.0292 16.107 47.0076 15.8552 46.8664 15.6666ZM39.9747 15.3436C39.7725 15.3722 39.5794 15.4389 39.4618 15.606L36.4923 19.814L34.958 14.8981C34.8973 14.7038 34.7452 14.5517 34.5503 14.4917L29.6302 12.9679L33.8321 9.98902C33.9984 9.87145 34.0956 9.6797 34.0932 9.4761L34.0214 4.32581L38.1527 7.40179C38.3167 7.52432 38.5301 7.55827 38.7212 7.49145L43.5969 5.8322L41.9481 10.7122C41.8831 10.9052 41.9166 11.1175 42.0385 11.2807L45.1231 15.4053L39.9747 15.3436Z" fill="#E6BA1C"/>
<path d="M9.24619 24.9258C8.31325 23.8673 7.02459 23.2356 5.61655 23.146C4.20597 23.055 2.84929 23.5209 1.79081 24.4538C0.732331 25.3862 0.100023 26.6754 0.0109712 28.0835C-0.173417 30.9905 2.04141 33.5054 4.94787 33.6897C5.0623 33.697 5.17612 33.7008 5.28995 33.7008C6.57486 33.7008 7.80105 33.2392 8.77362 32.3818C9.8327 31.4489 10.465 30.1602 10.5541 28.7522C10.6437 27.3441 10.1791 25.9849 9.24619 24.9258ZM9.31917 28.673C9.25114 29.7513 8.76673 30.7387 7.95571 31.4526C7.1447 32.1672 6.10036 32.5216 5.02641 32.4542C2.80047 32.3132 1.10413 30.3878 1.24526 28.1619C1.31328 27.0836 1.7977 26.0962 2.60871 25.3823C3.35351 24.7252 4.29213 24.372 5.27629 24.372C5.36293 24.372 5.45077 24.3752 5.53801 24.3807C6.6163 24.4488 7.60313 24.9332 8.3176 25.7436C9.03219 26.5541 9.38732 27.5947 9.31917 28.673Z" fill="#E3941B"/>
<path d="M28.89 21.1478C28.2366 20.4067 27.334 19.9637 26.3479 19.9012C24.3224 19.7799 22.5513 21.3235 22.4226 23.3589C22.2939 25.3949 23.8449 27.1563 25.8803 27.2849C25.9595 27.2899 26.0381 27.2923 26.1167 27.2923C28.0506 27.2923 29.682 25.784 29.8057 23.8273C29.8687 22.841 29.5433 21.8896 28.89 21.1478ZM28.5708 23.7486C28.4854 25.1035 27.3143 26.1391 25.9582 26.0499C24.604 25.9639 23.5715 24.7922 23.6575 23.4373C23.7398 22.1356 24.8256 21.131 26.1129 21.131C26.1649 21.131 26.2174 21.1322 26.27 21.136C26.9263 21.1774 27.5271 21.4719 27.9614 21.9656C28.3958 22.4593 28.6123 23.0922 28.5708 23.7486Z" fill="#E3941B"/>
<path d="M14.9053 23.9689C14.6473 23.7456 14.2569 23.7716 14.0324 24.0302C13.8078 24.2882 13.8351 24.6786 14.0931 24.9031C22.6237 32.3232 23.5943 41.3951 23.6036 41.4854C23.6346 41.8052 23.9036 42.0446 24.2191 42.0446C24.239 42.0446 24.2588 42.0434 24.2792 42.0415C24.6188 42.0087 24.8681 41.7074 24.836 41.3671C24.7982 40.9783 23.8256 31.7287 14.9053 23.9689Z" fill="#90BF61"/>
<path d="M46.8021 20.2694C46.6944 19.9452 46.3449 19.7695 46.0201 19.8766C32.6163 24.3234 29.8169 37.4451 29.7903 37.5775C29.7223 37.9122 29.9388 38.2388 30.2741 38.3068C30.3156 38.3155 30.3564 38.3191 30.3973 38.3191C30.6856 38.3191 30.9435 38.1168 31.0029 37.823C31.0282 37.698 33.6792 25.2748 46.4098 21.0513C46.7341 20.943 46.9098 20.5929 46.8021 20.2694Z" fill="#1B998B"/>
<path d="M16.8022 44.2769C16.6636 44.0195 13.3322 37.9789 7.18456 37.9697H7.18335C6.84188 37.9697 6.5653 38.2457 6.5647 38.5872C6.56409 38.9292 6.84068 39.2064 7.18275 39.207C12.5848 39.2157 15.6831 44.809 15.714 44.8653C15.826 45.0719 16.0388 45.1895 16.2585 45.1895C16.358 45.1895 16.4589 45.1653 16.5523 45.1146C16.8523 44.9518 16.9648 44.5776 16.8022 44.2769Z" fill="#1B998B"/>
<path d="M43.2247 42.088C34.3001 40.9126 30.9377 48.8121 30.9049 48.892C30.775 49.2081 30.9253 49.5694 31.2414 49.7C31.3181 49.7315 31.3978 49.7464 31.4765 49.7464C31.7196 49.7464 31.9504 49.6022 32.0488 49.3635C32.0779 49.2929 35.0684 42.2718 43.0639 43.3149C43.3992 43.3589 43.7129 43.1212 43.7581 42.7823C43.8019 42.4425 43.5638 42.1319 43.2247 42.088Z" fill="#90BF61"/>
</g>
<defs>
<clipPath id="clip0">
<rect width="50" height="50" fill="white"/>
</clipPath>
</defs>
</svg>
