<svg width="12" height="12" viewBox="0 0 12 12" fill="none" xmlns="http://www.w3.org/2000/svg">
<g clip-path="url(#clip0)">
<path d="M0.899855 11.3999C0.734175 11.3999 0.599854 11.2656 0.599854 11.0999V2.09993C0.599854 1.93425 0.734175 1.79993 0.899855 1.79993C1.06554 1.79993 1.19986 1.93425 1.19986 2.09993V11.0999C1.19986 11.2656 1.06554 11.3999 0.899855 11.3999Z" fill="#B0AFAF"/>
<path d="M2.09984 6.00005C2.03719 6.00005 1.97405 5.98051 1.92006 5.94003C1.78752 5.84061 1.76065 5.65256 1.86006 5.52005C1.90049 5.46614 2.8654 4.20005 4.20006 4.20005C5.21625 4.20005 5.88801 4.55942 6.4807 4.87648C7.00585 5.15741 7.45939 5.40004 8.10006 5.40004C9.41545 5.40004 10.3546 4.15211 10.8902 3.16944C10.4714 3.40753 9.93618 3.60004 9.30006 3.60004C7.97579 3.60004 7.2916 2.91583 6.68794 2.31216C6.09116 1.71542 5.57581 1.20004 4.50006 1.20004C3.1655 1.20004 2.34816 2.26923 2.34006 2.28004C2.24065 2.41258 2.0526 2.43945 1.92006 2.34004C1.78752 2.24063 1.76065 2.05258 1.86006 1.92004C1.90049 1.86613 2.86881 0.600037 4.50006 0.600037C5.82432 0.600037 6.50853 1.28425 7.11218 1.88792C7.70896 2.48466 8.22434 3.00004 9.30006 3.00004C10.6346 3.00004 11.452 1.93084 11.4601 1.92004C11.5484 1.80235 11.7089 1.76604 11.8393 1.83431C11.9696 1.9026 12.0312 2.05534 11.9847 2.19491C11.9719 2.23322 11.6649 3.14364 11.0497 4.06644C10.6824 4.61735 10.2805 5.05848 9.85506 5.37754C9.30432 5.7906 8.71384 6.00004 8.10006 6.00004C7.309 6.00004 6.74403 5.69781 6.19766 5.40551C5.61561 5.09414 5.06584 4.80004 4.20006 4.80004C3.16206 4.80004 2.34816 5.86923 2.34006 5.88004C2.28113 5.95862 2.19104 6.00006 2.09984 6.00006V6.00005Z" fill="#B0AFAF"/>
</g>
<defs>
<clipPath id="clip0">
<rect width="12" height="12" fill="white"/>
</clipPath>
</defs>
</svg>
