<svg width="20" height="20" viewBox="0 0 20 20" fill="none" xmlns="http://www.w3.org/2000/svg">
<path d="M3.5 19H1.5C0.673 19 0 18.327 0 17.5V15.5C0 14.673 0.673 14 1.5 14H3.5C4.327 14 5 14.673 5 15.5V17.5C5 18.327 4.327 19 3.5 19ZM1.5 15C1.224 15 1 15.224 1 15.5V17.5C1 17.776 1.224 18 1.5 18H3.5C3.776 18 4 17.776 4 17.5V15.5C4 15.224 3.776 15 3.5 15H1.5Z" fill="black"/>
<path d="M10.5 19H8.5C7.673 19 7 18.327 7 17.5V15.5C7 14.673 7.673 14 8.5 14H10.5C11.327 14 12 14.673 12 15.5V17.5C12 18.327 11.327 19 10.5 19ZM8.5 15C8.224 15 8 15.224 8 15.5V17.5C8 17.776 8.224 18 8.5 18H10.5C10.776 18 11 17.776 11 17.5V15.5C11 15.224 10.776 15 10.5 15H8.5Z" fill="black"/>
<path d="M17.5 19H15.5C14.673 19 14 18.327 14 17.5V15.5C14 14.673 14.673 14 15.5 14H17.5C18.327 14 19 14.673 19 15.5V17.5C19 18.327 18.327 19 17.5 19ZM15.5 15C15.224 15 15 15.224 15 15.5V17.5C15 17.776 15.224 18 15.5 18H17.5C17.776 18 18 17.776 18 17.5V15.5C18 15.224 17.776 15 17.5 15H15.5Z" fill="black"/>
<path d="M3.5 12H1.5C0.673 12 0 11.327 0 10.5V8.5C0 7.673 0.673 7 1.5 7H3.5C4.327 7 5 7.673 5 8.5V10.5C5 11.327 4.327 12 3.5 12ZM1.5 8C1.224 8 1 8.224 1 8.5V10.5C1 10.776 1.224 11 1.5 11H3.5C3.776 11 4 10.776 4 10.5V8.5C4 8.224 3.776 8 3.5 8H1.5Z" fill="black"/>
<path d="M10.5 12H8.5C7.673 12 7 11.327 7 10.5V8.5C7 7.673 7.673 7 8.5 7H10.5C11.327 7 12 7.673 12 8.5V10.5C12 11.327 11.327 12 10.5 12ZM8.5 8C8.224 8 8 8.224 8 8.5V10.5C8 10.776 8.224 11 8.5 11H10.5C10.776 11 11 10.776 11 10.5V8.5C11 8.224 10.776 8 10.5 8H8.5Z" fill="black"/>
<path d="M17.5 12H15.5C14.673 12 14 11.327 14 10.5V8.5C14 7.673 14.673 7 15.5 7H17.5C18.327 7 19 7.673 19 8.5V10.5C19 11.327 18.327 12 17.5 12ZM15.5 8C15.224 8 15 8.224 15 8.5V10.5C15 10.776 15.224 11 15.5 11H17.5C17.776 11 18 10.776 18 10.5V8.5C18 8.224 17.776 8 17.5 8H15.5Z" fill="black"/>
<path d="M3.5 5H1.5C0.673 5 0 4.327 0 3.5V1.5C0 0.673 0.673 0 1.5 0H3.5C4.327 0 5 0.673 5 1.5V3.5C5 4.327 4.327 5 3.5 5ZM1.5 1C1.224 1 1 1.224 1 1.5V3.5C1 3.776 1.224 4 1.5 4H3.5C3.776 4 4 3.776 4 3.5V1.5C4 1.224 3.776 1 3.5 1H1.5Z" fill="black"/>
<path d="M10.5 5H8.5C7.673 5 7 4.327 7 3.5V1.5C7 0.673 7.673 0 8.5 0H10.5C11.327 0 12 0.673 12 1.5V3.5C12 4.327 11.327 5 10.5 5ZM8.5 1C8.224 1 8 1.224 8 1.5V3.5C8 3.776 8.224 4 8.5 4H10.5C10.776 4 11 3.776 11 3.5V1.5C11 1.224 10.776 1 10.5 1H8.5Z" fill="black"/>
<path d="M17.5 5H15.5C14.673 5 14 4.327 14 3.5V1.5C14 0.673 14.673 0 15.5 0H17.5C18.327 0 19 0.673 19 1.5V3.5C19 4.327 18.327 5 17.5 5ZM15.5 1C15.224 1 15 1.224 15 1.5V3.5C15 3.776 15.224 4 15.5 4H17.5C17.776 4 18 3.776 18 3.5V1.5C18 1.224 17.776 1 17.5 1H15.5Z" fill="black"/>
</svg>
