<svg width="52" height="52" viewBox="0 0 52 52" fill="none" xmlns="http://www.w3.org/2000/svg">
  <g clip-path="url(#clip0)">
    <path name="outline" d="M51.914 16.3129C51.155 8.01856 45.2416 2.00081 37.8412 2.00081C32.9108 2.00081 28.3966 4.63488 25.8564 8.85653C23.3392 4.58027 19.01 1.99982 14.1587 1.99982C6.75919 1.99982 0.844817 8.01756 0.0867688 16.3119C0.026765 16.6783 -0.219251 18.6065 0.528797 21.7509C1.60686 26.2863 4.09702 30.4116 7.72825 33.6781L25.8444 49.9998L44.2716 33.6791C47.9028 30.4116 50.393 26.2873 51.471 21.7509C52.2191 18.6074 51.9731 16.6793 51.914 16.3129ZM49.5239 21.2961C48.5398 25.4384 46.2587 29.2122 42.9335 32.2027L25.8564 47.329L9.07234 32.2067C5.74113 29.2102 3.46098 25.4374 2.47592 21.2951C1.76788 18.3195 2.05889 16.6386 2.05989 16.6277L2.07489 16.5274C2.72494 9.26063 7.80626 3.98554 14.1587 3.98554C18.846 3.98554 22.9722 6.84499 24.9303 11.4469L25.8514 13.6143L26.7725 11.4469C28.6996 6.91548 33.0439 3.98654 37.8422 3.98654C44.1936 3.98654 49.2759 9.26162 49.9389 16.6227C49.9409 16.6386 50.2319 18.3205 49.5239 21.2961Z" fill="#D72D33"/>
    <path name="fill" d="M23 6.5L26 10.5L28 8L30.5 5.5L33 4L35.5 3.5H38.5H42L44.5 5.5L47.5 8L49.5 11L50.5 16V20L49 25L47.5 29.5L26 48.5L16 39.5L8.5 33L5 29L3 25.5L1.5 22L1 17L2.5 11L6.5 6L10.5 3.5L17 3L23 6.5Z" fill="#D72D33"/>
  </g>
  <defs>
    <clipPath id="clip0">
      <rect width="51.997" height="51.997" fill="white"/>
    </clipPath>
  </defs>
</svg>
