<svg width="20" height="20" viewBox="0 0 20 20" fill="none" xmlns="http://www.w3.org/2000/svg">
<g clip-path="url(#clip0)">
<path d="M19.871 12.1645L11.042 2.40652C10.768 2.10352 10.398 1.93652 10 1.93652C9.603 1.93652 9.233 2.10352 8.958 2.40652L0.129001 12.1645C-0.0559986 12.3695 -0.0399986 12.6855 0.164001 12.8705C0.260001 12.9575 0.380001 12.9995 0.499001 12.9995C0.635001 12.9995 0.771001 12.9445 0.870001 12.8345L2.999 10.4815V18.4995C2.999 19.3265 3.672 19.9995 4.499 19.9995H15.499C16.326 19.9995 16.999 19.3265 16.999 18.4995V10.4815L19.128 12.8345C19.313 13.0395 19.629 13.0555 19.834 12.8695C20.039 12.6835 20.055 12.3685 19.869 12.1635L19.871 12.1645ZM12 18.9995H8V14.4995C8 14.2235 8.224 13.9995 8.5 13.9995H11.5C11.776 13.9995 12 14.2235 12 14.4995V18.9995ZM16 18.4995C16 18.7755 15.776 18.9995 15.5 18.9995H13V14.4995C13 13.6725 12.327 12.9995 11.5 12.9995H8.5C7.673 12.9995 7 13.6725 7 14.4995V18.9995H4.5C4.224 18.9995 4 18.7755 4 18.4995V9.37652L9.7 3.07652C9.782 2.98552 9.889 2.93552 10 2.93552C10.111 2.93552 10.218 2.98552 10.3 3.07652L16 9.37652V18.4995Z" fill="black"/>
</g>
<defs>
<clipPath id="clip0">
<path d="M0 0H20V20H0V0Z" fill="white"/>
</clipPath>
</defs>
</svg>
