<svg width="496" height="496" viewBox="0 0 496 496" fill="none" xmlns="http://www.w3.org/2000/svg">
<path d="M235.211 169.16H319.791V211.45H235.211V169.16Z" fill="#E6BA1C"/>
<path d="M235.211 324.223H319.791V429.948H235.211V324.223Z" fill="#E6BA1C"/>
<path d="M481.901 373.515V204.402H467.805V367.12C464.098 366.387 460.185 366.26 456.176 366.852C448.188 349.548 430.942 338.321 411.418 338.321C391.894 338.321 374.648 349.548 366.66 366.852C360.007 365.874 353.62 366.866 347.983 369.34V299.307L277.499 252.316L207.015 299.307V369.326C201.385 366.859 195.004 365.874 188.338 366.852C180.35 349.548 163.104 338.321 143.58 338.321C124.056 338.321 106.81 349.548 98.8225 366.852C94.8131 366.26 90.9 366.387 87.1934 367.12V204.402H73.0967V373.522C64.5754 379.992 59 390.282 59 401.756C59 421.187 74.8106 436.998 94.2418 436.998H460.756C480.187 436.998 495.998 421.187 495.998 401.756C495.998 390.282 490.43 379.985 481.901 373.515ZM277.499 269.262L333.886 306.851V380.604C329.474 386.524 326.838 393.868 326.838 401.756C326.838 409.72 329.594 416.996 334.068 422.901H220.93C225.404 416.996 228.161 409.72 228.161 401.756C228.161 393.854 225.531 386.51 221.112 380.584V306.851L277.499 269.262ZM94.2418 422.901C82.5852 422.901 73.0967 413.413 73.0967 401.756C73.0967 390.1 82.5852 380.611 94.2418 380.611C96.3136 380.611 98.499 381.014 100.932 381.823L107.774 384.129L109.911 377.228C114.499 362.392 128.031 352.418 143.58 352.418C159.129 352.418 172.662 362.392 177.249 377.235L179.386 384.135L186.228 381.83C188.662 381.014 190.847 380.611 192.919 380.611C204.575 380.611 214.064 390.1 214.064 401.756C214.064 413.413 204.575 422.901 192.919 422.901H94.2418ZM460.756 422.901H362.079C350.423 422.901 340.934 413.413 340.934 401.756C340.934 390.1 350.423 380.611 362.079 380.611C364.151 380.611 366.337 381.014 368.77 381.823L375.612 384.129L377.749 377.228C382.336 362.392 395.869 352.418 411.418 352.418C426.967 352.418 440.499 362.392 445.087 377.235L447.224 384.135L454.066 381.83C456.499 381.014 458.684 380.611 460.756 380.611C472.413 380.611 481.901 390.1 481.901 401.756C481.901 413.413 472.413 422.901 460.756 422.901Z" fill="black"/>
<path d="M73.0938 401.756C73.0938 413.413 82.5822 422.902 94.2388 422.902H192.916C204.572 422.902 214.061 413.413 214.061 401.756C214.061 390.1 204.572 380.611 192.916 380.611C190.844 380.611 188.659 381.014 186.225 381.83L179.384 384.136L177.246 377.235C172.659 362.392 159.126 352.418 143.577 352.418C128.028 352.418 114.496 362.392 109.908 377.228L107.771 384.129L100.929 381.823C98.4961 381.014 96.3106 380.611 94.2388 380.611C82.5822 380.611 73.0938 390.1 73.0938 401.756Z" fill="#1B998B"/>
<path d="M340.934 401.756C340.934 413.413 350.422 422.902 362.079 422.902H460.756C472.412 422.902 481.901 413.413 481.901 401.756C481.901 390.1 472.412 380.611 460.756 380.611C458.684 380.611 456.498 381.014 454.065 381.83L447.223 384.136L445.086 377.235C440.499 362.392 426.966 352.418 411.417 352.418C395.868 352.418 382.336 362.392 377.748 377.228L375.611 384.129L368.769 381.823C366.336 381.014 364.15 380.611 362.079 380.611C350.422 380.611 340.934 390.1 340.934 401.756Z" fill="#EFEEEE"/>
<path d="M120.356 84.5803H434.648L468.221 178.577L481.498 173.834L444.581 70.4836H404.369V42.2901H390.272V0H347.982V42.2901H333.886V70.4836H221.112V42.2901H207.015V0H164.725V42.2901H150.628V70.4836H110.417L73.5059 173.841L86.7835 178.584L120.356 84.5803ZM362.079 14.0967H376.176V42.2901H362.079V14.0967ZM347.982 56.3869H390.272V70.4836H347.982V56.3869ZM178.822 14.0967H192.918V42.2901H178.822V14.0967ZM164.725 56.3869H207.015V70.4836H164.725V56.3869Z" fill="black"/>
<path d="M425.514 246.692V152.809L435.205 160.56L444.009 149.55L369.127 89.6494L294.238 149.56L303.042 160.567L312.74 152.809V246.692H425.514ZM355.03 232.595V190.305C355.03 186.423 358.197 183.257 362.079 183.257H376.175C380.058 183.257 383.224 186.423 383.224 190.305V232.595H355.03ZM411.417 141.538V232.595H397.32V190.305C397.32 178.649 387.832 169.16 376.175 169.16H362.079C350.422 169.16 340.934 178.649 340.934 190.305V232.595H326.837V141.538L369.127 107.704L411.417 141.538Z" fill="black"/>
<path d="M242.256 246.692V152.809L251.948 160.56L260.751 149.55L185.869 89.6494L110.98 149.56L119.784 160.567L129.482 152.809V246.692H242.256ZM171.773 232.595V190.305C171.773 186.423 174.939 183.257 178.821 183.257H192.918C196.8 183.257 199.966 186.423 199.966 190.305V232.595H171.773ZM228.159 141.538V232.595H214.063V190.305C214.063 178.649 204.574 169.16 192.918 169.16H178.821C167.164 169.16 157.676 178.649 157.676 190.305V232.595H143.579V141.538L185.869 107.704L228.159 141.538Z" fill="black"/>
<path d="M362.082 126.871H376.179V140.968H362.082V126.871Z" fill="black"/>
<path d="M178.824 126.871H192.921V140.968H178.824V126.871Z" fill="black"/>
<path d="M481.902 169.16H425.516V211.45H481.902C489.677 211.45 495.999 205.128 495.999 197.354V183.257C495.999 175.482 489.677 169.16 481.902 169.16Z" fill="#E6BA1C"/>
<path d="M73.0967 169.16C65.3222 169.16 59 175.482 59 183.257V197.354C59 205.128 65.3222 211.45 73.0967 211.45H129.484V169.16H73.0967Z" fill="#E6BA1C"/>
<path d="M126.256 486.087C120.291 490.263 112.095 485.995 112.095 478.714V449.838C112.095 444.867 108.066 440.838 103.095 440.838H9.00001C4.02945 440.838 0 436.809 0 431.838V360.162C0 355.191 4.02944 351.162 9 351.162H103.095C108.066 351.162 112.095 347.133 112.095 342.162V313.286C112.095 306.005 120.291 301.738 126.256 305.913L244.416 388.627C249.535 392.21 249.535 399.79 244.416 403.373L126.256 486.087Z" fill="#1B998B"/>
</svg>
