<svg width="12" height="12" viewBox="0 0 12 12" fill="none" xmlns="http://www.w3.org/2000/svg">
<g clip-path="url(#clip0)">
<path d="M11.1 10.8001H0.9C0.403746 10.8001 0 10.3963 0 9.90007V2.10007C0 1.60382 0.403746 1.20007 0.9 1.20007H11.1C11.5963 1.20007 12 1.60382 12 2.10007V9.90007C12 10.3963 11.5963 10.8001 11.1 10.8001ZM0.9 1.80007C0.73459 1.80007 0.6 1.93466 0.6 2.10007V9.90007C0.6 10.0655 0.73459 10.2001 0.9 10.2001H11.1C11.2654 10.2001 11.4 10.0655 11.4 9.90007V2.10007C11.4 1.93466 11.2654 1.80007 11.1 1.80007H0.9Z" fill="#B0AFAF"/>
<path d="M5.70029 3.6H2.10029C1.93461 3.6 1.80029 3.46568 1.80029 3.3C1.80029 3.13432 1.93461 3 2.10029 3H5.70029C5.86597 3 6.00029 3.13432 6.00029 3.3C6.00029 3.46568 5.86597 3.6 5.70029 3.6Z" fill="#B0AFAF"/>
<path d="M5.70029 5.39993H2.10029C1.93461 5.39993 1.80029 5.26562 1.80029 5.09993C1.80029 4.93424 1.93461 4.79993 2.10029 4.79993H5.70029C5.86597 4.79993 6.00029 4.93424 6.00029 5.09993C6.00029 5.26562 5.86597 5.39993 5.70029 5.39993Z" fill="#B0AFAF"/>
<path d="M5.70029 6.6H2.10029C1.93461 6.6 1.80029 6.46569 1.80029 6.3C1.80029 6.13431 1.93461 6 2.10029 6H5.70029C5.86597 6 6.00029 6.13431 6.00029 6.3C6.00029 6.46569 5.86597 6.6 5.70029 6.6Z" fill="#B0AFAF"/>
<path d="M5.70029 7.80013H2.10029C1.93461 7.80013 1.80029 7.66583 1.80029 7.50013C1.80029 7.33444 1.93461 7.20013 2.10029 7.20013H5.70029C5.86597 7.20013 6.00029 7.33444 6.00029 7.50013C6.00029 7.66583 5.86597 7.80013 5.70029 7.80013Z" fill="#B0AFAF"/>
<path d="M5.10029 8.99996H2.10029C1.93461 8.99996 1.80029 8.86566 1.80029 8.69996C1.80029 8.53427 1.93461 8.39996 2.10029 8.39996H5.10029C5.26597 8.39996 5.40029 8.53427 5.40029 8.69996C5.40029 8.86566 5.26597 8.99996 5.10029 8.99996Z" fill="#B0AFAF"/>
<path d="M10.7656 3.9262L10.2775 3.57161L10.0911 2.9979H9.48789L8.99985 2.64331L8.51183 2.9979H7.9086L7.72217 3.57161L7.23413 3.9262L7.42056 4.49991L7.23413 5.07363L7.72217 5.42822L7.80129 5.67167C7.80039 5.68097 7.79985 5.69038 7.79985 5.69991V8.69991C7.79985 8.82126 7.87294 8.93065 7.98504 8.97707C8.09717 9.02354 8.22619 8.99781 8.31199 8.91203L8.99985 8.22417L9.68773 8.91205C9.74513 8.96946 9.82183 8.99995 9.89992 8.99992C9.93857 8.99992 9.97755 8.99246 10.0147 8.97708C10.1268 8.93064 10.1998 8.82125 10.1998 8.6999V5.6999C10.1998 5.69037 10.1993 5.68096 10.1984 5.67166L10.2775 5.42821L10.7656 5.07362L10.5791 4.4999L10.7656 3.92619L10.7656 3.9262ZM7.93946 4.15538L8.23254 3.94245L8.34451 3.59792H8.70676L8.99985 3.38495L9.29295 3.5979H9.6552L9.76716 3.94243L10.0602 4.15536L9.94829 4.49991L10.0602 4.84444L9.76716 5.05738L9.6552 5.40192H9.29295L8.99985 5.61488L8.70676 5.40194H8.34451L8.23254 5.05741L7.93946 4.84447L8.05142 4.49991L7.93946 4.15538ZM9.21196 7.58779C9.09481 7.47064 8.90486 7.47064 8.78771 7.58779L8.39984 7.97566V6.00192H8.51181L8.99984 6.3565L9.48787 6.00194H9.59984V7.97568L9.21196 7.5878V7.58779Z" fill="#B0AFAF"/>
</g>
<defs>
<clipPath id="clip0">
<rect width="12" height="12" fill="white"/>
</clipPath>
</defs>
</svg>
