<svg width="14" height="14" viewBox="0 0 14 14" fill="none" xmlns="http://www.w3.org/2000/svg">
  <path d="M7.00009 14C6.89269 14 6.79123 13.9507 6.72488 13.8662C6.68481 13.8152 5.73248 12.5966 4.76667 10.7967C4.19818 9.7373 3.74481 8.69719 3.4191 7.70529C3.00836 6.45433 2.80008 5.27501 2.80008 4.2C2.80008 1.88412 4.6842 0 7.00008 0C9.31596 0 11.2001 1.88412 11.2001 4.2C11.2001 5.27501 10.9918 6.45433 10.581 7.70528C10.2554 8.69717 9.80197 9.73731 9.23348 10.7967C8.26769 12.5966 7.31534 13.8152 7.27527 13.8662C7.20894 13.9507 7.10749 14 7.00008 14L7.00009 14ZM7.00009 0.699986C5.0702 0.699986 3.50009 2.27009 3.50009 4.19999C3.50009 6.47768 4.52431 8.8645 5.3835 10.4658C6.01495 11.6425 6.64998 12.5754 7.00002 13.0626C7.35151 12.5733 7.99026 11.6348 8.62271 10.4545C9.47916 8.85624 10.5001 6.47377 10.5001 4.19999C10.5001 2.27009 8.93001 0.699986 7.00009 0.699986V0.699986Z" fill="#8B8A8A"/>
  <path d="M7.00003 6.29985C5.84208 6.29985 4.90002 5.35781 4.90002 4.19985C4.90002 3.0419 5.84208 2.09985 7.00003 2.09985C8.15799 2.09985 9.10004 3.0419 9.10004 4.19985C9.10004 5.35781 8.15799 6.29985 7.00003 6.29985V6.29985ZM7.00003 2.79985C6.22806 2.79985 5.60003 3.42789 5.60003 4.19985C5.60003 4.97182 6.22806 5.59985 7.00003 5.59985C7.77201 5.59985 8.40004 4.97182 8.40004 4.19985C8.40004 3.42789 7.77201 2.79985 7.00003 2.79985V2.79985Z" fill="#8B8A8A"/>
  <defs>
    <clipPath id="clip0">
      <rect width="14" height="14" fill="white"/>
    </clipPath>
  </defs>
</svg>
