<svg width="74" height="53" viewBox="0 0 74 53" fill="none" xmlns="http://www.w3.org/2000/svg">
<path d="M72.2567 27.1571C71.3366 27.1571 70.5247 27.9048 70.4445 28.8267C70.2116 31.4925 67.8583 33.6609 65.1981 33.6609C62.5379 33.6609 60.563 31.4925 60.7955 28.8267C61.0284 26.1613 63.382 23.9924 66.0424 23.9924C66.8406 23.9924 67.5839 24.181 68.2505 24.5527C69.0255 24.985 70.0613 24.6748 70.5638 23.8603C71.0667 23.0458 70.8451 22.0351 70.0698 21.6027C68.9556 20.9817 67.6635 20.6529 66.3338 20.6529C63.6888 20.6529 61.2239 21.921 59.5609 23.8825C58.2407 21.921 55.9966 20.6529 53.3521 20.6529C48.8544 20.6529 44.8747 24.3197 44.4809 28.8266C44.2484 31.4923 41.8953 33.6608 39.2346 33.6608C36.5742 33.6608 34.5994 31.4923 34.8323 28.8266L35.063 26.1827C35.55 25.8635 36.0105 25.4954 36.4352 25.0832L36.44 25.0873C36.4608 25.068 36.4815 25.0491 36.5018 25.0298C36.5167 25.016 36.5317 25.0016 36.5488 24.9865C41.4885 20.6603 44.2927 16.3394 44.4445 12.8209C44.5263 10.9281 43.8522 9.31629 42.4949 8.16041C40.9904 6.87847 38.7575 6.6369 36.8058 7.54452C35.7253 8.04692 33.1721 9.67167 32.8035 13.8917L31.9104 24.1193C31.4745 24.241 31.0257 24.3045 30.5762 24.3045C29.332 24.3045 28.1924 23.8309 27.3675 22.9708C27.3642 22.9671 27.3596 22.9637 27.356 22.9601C26.0114 21.5327 24.087 20.6529 21.884 20.6529C17.3865 20.6529 13.4066 24.3197 13.0131 28.8266C12.7805 31.4923 10.4269 33.6608 7.76669 33.6608C5.10631 33.6608 3.13141 31.4923 3.36413 28.8266C3.59701 26.1612 5.9506 23.9923 8.61098 23.9923C9.40924 23.9923 10.1525 24.1809 10.8189 24.5526C11.5941 24.9848 12.6299 24.6746 13.1324 23.8601C13.6352 23.0457 13.4137 22.035 12.6384 21.6026C11.5242 20.9815 10.2323 20.6527 8.90258 20.6527C4.40473 20.6527 0.42517 24.3195 0.0314598 28.8264C-0.361786 33.3332 2.97755 37 7.47493 37C10.12 37 12.5854 35.7322 14.2481 33.7708C15.5684 35.7322 17.8121 37 20.4567 37C24.9548 37 28.9341 33.3333 29.3278 28.8264C29.3644 28.4058 29.3686 27.9926 29.3422 27.5887C29.6513 27.6246 29.9662 27.6434 30.2847 27.6434C30.729 27.6434 31.1729 27.6071 31.6121 27.5358L31.4995 28.8264C31.1059 33.3332 34.4457 37 38.9434 37C41.5882 37 44.0533 35.7322 45.716 33.7708C47.0364 35.7322 49.2798 37 51.9249 37C54.5695 37 57.0347 35.7322 58.6974 33.7708C60.0179 35.7322 62.2616 37 64.9062 37C69.4039 37 73.384 33.3333 73.7773 28.8264C73.858 27.905 73.177 27.1571 72.2567 27.1571ZM36.1363 14.2023C36.2798 12.5616 36.9571 11.3441 37.9946 10.8606C38.3038 10.7175 38.6301 10.6465 38.947 10.6465C39.4106 10.6465 39.855 10.7976 40.1982 11.0899C40.8463 11.6417 41.1421 12.3579 41.1021 13.2792C41.0533 14.4097 40.497 15.8156 39.493 17.3448C38.5189 18.8294 37.1634 20.3852 35.4571 21.9797L36.1363 14.2023ZM25.9948 29.1373C25.7623 31.803 23.4084 33.9714 20.748 33.9714C18.0881 33.9714 16.1133 31.803 16.3462 29.1373C16.5788 26.4718 18.9319 24.3029 21.5923 24.3029C22.9105 24.3029 24.0601 24.8362 24.8565 25.6977C24.8565 25.6977 24.8569 25.698 24.8569 25.6985C24.8575 25.6996 24.8591 25.6999 24.8599 25.7015C25.6687 26.5788 26.112 27.7946 25.9948 29.1373ZM52.2163 33.9714C49.5559 33.9714 47.5815 31.803 47.8141 29.1373C48.0467 26.4718 50.4002 24.3029 53.0606 24.3029C55.7205 24.3029 57.6957 26.4718 57.4627 29.1373C57.2301 31.803 54.8765 33.9714 52.2163 33.9714Z" fill="white"/>
</svg>
