<svg width="93" height="41" viewBox="0 0 93 41" fill="none" xmlns="http://www.w3.org/2000/svg">
<path d="M88.708 26.1886C87.604 26.1886 86.6297 27.0858 86.5333 28.1921C86.2539 31.391 83.43 33.9931 80.2377 33.9931C77.0454 33.9931 74.6756 31.391 74.9546 28.1921C75.2341 24.9936 78.0584 22.3909 81.2508 22.3909C82.2088 22.3909 83.1007 22.6173 83.9006 23.0633C84.8306 23.5819 86.0735 23.2097 86.6765 22.2323C87.2801 21.255 87.0142 20.0421 86.0838 19.5233C84.7467 18.778 83.1963 18.3834 81.6006 18.3834C78.4265 18.3834 75.4687 19.9052 73.4731 22.259C71.8888 19.9052 69.196 18.3834 66.0225 18.3834C60.6252 18.3834 55.8496 22.7836 55.3771 28.1919C55.098 31.3908 52.2743 33.9929 49.0815 33.9929C45.889 33.9929 43.5193 31.3908 43.7988 28.1919L44.0756 25.0193C44.66 24.6363 45.2126 24.1945 45.7222 23.6999L45.728 23.7047C45.7529 23.6816 45.7778 23.6589 45.8022 23.6358C45.82 23.6192 45.8381 23.6019 45.8585 23.5838C51.7862 18.3924 55.1512 13.2073 55.3334 8.98504C55.4316 6.71378 54.6226 4.77955 52.9939 3.3925C51.1885 1.85417 48.509 1.56428 46.167 2.65342C44.8703 3.25631 41.8065 5.206 41.3642 10.27L40.2925 22.5431C39.7695 22.6892 39.2308 22.7654 38.6914 22.7654C37.1984 22.7654 35.8309 22.1971 34.841 21.165C34.8371 21.1605 34.8315 21.1564 34.8272 21.1521C33.2137 19.4392 30.9044 18.3834 28.2608 18.3834C22.8638 18.3834 18.0879 22.7836 17.6157 28.1919C17.3366 31.3908 14.5123 33.9929 11.32 33.9929C8.12758 33.9929 5.75769 31.3908 6.03696 28.1919C6.31642 24.9934 9.14072 22.3907 12.3332 22.3907C13.2911 22.3907 14.183 22.6171 14.9827 23.0631C15.9129 23.5818 17.1559 23.2095 17.7588 22.2322C18.3622 21.2548 18.0965 20.0419 17.1661 19.5231C15.8291 18.7779 14.2788 18.3833 12.6831 18.3833C7.28568 18.3833 2.5102 22.7834 2.03775 28.1917C1.56586 33.5998 5.57306 38 10.9699 38C14.144 38 17.1025 36.4786 19.0977 34.125C20.6821 36.4786 23.3745 38 26.548 38C31.9458 38 36.7209 33.6 37.1934 28.1917C37.2373 27.687 37.2423 27.1911 37.2107 26.7065C37.5816 26.7495 37.9594 26.7721 38.3417 26.7721C38.8747 26.7721 39.4074 26.7285 39.9346 26.643L39.7994 28.1917C39.3271 33.5998 43.3349 38 48.7321 38C51.9058 38 54.864 36.4786 56.8592 34.125C58.4437 36.4786 61.1358 38 64.3099 38C67.4833 38 70.4417 36.4786 72.4369 34.125C74.0214 36.4786 76.7139 38 79.8874 38C85.2846 38 90.0609 33.6 90.5327 28.1917C90.6296 27.086 89.8125 26.1886 88.708 26.1886ZM45.3636 10.6428C45.5358 8.67391 46.3485 7.21289 47.5935 6.63274C47.9646 6.46096 48.3562 6.37582 48.7364 6.37582C49.2927 6.37582 49.826 6.5571 50.2378 6.90791C51.0155 7.57004 51.3705 8.42947 51.3225 9.53502C51.2639 10.8917 50.5964 12.5787 49.3916 14.4138C48.2227 16.1953 46.5961 18.0622 44.5485 19.9756L45.3636 10.6428ZM33.1938 28.5647C32.9147 31.7636 30.09 34.3657 26.8976 34.3657C23.7057 34.3657 21.336 31.7636 21.6154 28.5647C21.8945 25.3662 24.7183 22.7635 27.9107 22.7635C29.4926 22.7635 30.8721 23.4035 31.8277 24.4373L31.8283 24.4382C31.8283 24.4382 31.8309 24.4399 31.8318 24.4418C32.8024 25.4946 33.3344 26.9535 33.1938 28.5647ZM64.6596 34.3657C61.4671 34.3657 59.0978 31.7636 59.3769 28.5647C59.656 25.3662 62.4803 22.7635 65.6727 22.7635C68.8646 22.7635 71.2349 25.3662 70.9552 28.5647C70.6762 31.7636 67.8519 34.3657 64.6596 34.3657Z" fill="url(#paint0_linear)"/>
<path fill-rule="evenodd" clip-rule="evenodd" d="M26.8976 34.3649C23.7057 34.3649 21.336 31.7627 21.6155 28.5638C21.8946 25.3653 24.7183 22.7626 27.9108 22.7626C29.4927 22.7626 30.8721 23.4026 31.8278 24.4364L31.8284 24.4373C31.8284 24.4373 31.831 24.439 31.8319 24.4409C32.8025 25.4937 33.3344 26.9527 33.1938 28.5638C32.9148 31.7627 30.0901 34.3649 26.8976 34.3649ZM30.2299 25.6622C29.6596 25.1138 28.8622 24.7626 27.9108 24.7626C25.7654 24.7626 23.7977 26.5626 23.6079 28.7377C23.4295 30.7803 24.8916 32.3649 26.8976 32.3649C29.0436 32.3649 31.0117 30.5649 31.2014 28.39C31.2857 27.4236 31.0026 26.5857 30.5049 25.9635L30.3496 25.8633L30.2299 25.6622Z" fill="white"/>
<path fill-rule="evenodd" clip-rule="evenodd" d="M64.6596 34.3649C61.4672 34.3649 59.0979 31.7627 59.377 28.5638C59.487 27.3025 59.9929 26.1338 60.7611 25.1809C61.9408 23.7173 63.7393 22.7626 65.6728 22.7626C67.3197 22.7626 68.7479 23.4556 69.7062 24.5657C70.6052 25.6071 71.0907 27.0157 70.9553 28.5638C70.6762 31.7627 67.8519 34.3649 64.6596 34.3649ZM64.6596 32.3649C62.6531 32.3649 61.1912 30.7806 61.3694 28.7377C61.5262 26.9409 62.8967 25.3999 64.5783 24.9184C64.9322 24.817 65.2998 24.7626 65.6728 24.7626C65.8638 24.7626 66.0499 24.777 66.2301 24.8048C67.9426 25.0686 69.1244 26.542 68.9629 28.3897C68.7731 30.5647 66.8052 32.3649 64.6596 32.3649Z" fill="white"/>
<path fill-rule="evenodd" clip-rule="evenodd" d="M50.2378 6.90705C51.0156 7.56918 51.3705 8.42861 51.3226 9.53415C51.264 10.8908 50.5965 12.5778 49.3917 14.413C48.6785 15.4998 47.7951 16.6184 46.7496 17.76C46.0813 18.4897 45.3469 19.2287 44.5485 19.9748L45.3636 10.6419C45.5358 8.67305 46.3485 7.21203 47.5935 6.63188C47.9646 6.4601 48.3562 6.37496 48.7364 6.37496C49.2928 6.37496 49.826 6.55624 50.2378 6.90705ZM47.0547 14.2661C47.2932 13.9446 47.5148 13.6277 47.7195 13.3157C48.8362 11.6149 49.2882 10.2863 49.3244 9.44789C49.3482 8.89943 49.2065 8.65563 48.9414 8.42992C48.9243 8.41539 48.8626 8.37496 48.7364 8.37496C48.6539 8.37496 48.5494 8.39372 48.4361 8.44574C48.1009 8.60338 47.4959 9.21759 47.3561 10.8159L47.0547 14.2661Z" fill="white"/>
<path fill-rule="evenodd" clip-rule="evenodd" d="M75.1431 18.2288C77.0475 17.0661 79.2642 16.3826 81.6006 16.3826C83.5226 16.3826 85.4104 16.8574 87.0575 17.7754C89.1115 18.9209 89.5001 21.4648 88.3787 23.2816C88.1056 23.7241 87.7519 24.1103 87.3447 24.4226C87.7741 24.2705 88.2333 24.1877 88.7081 24.1877C90.9974 24.1877 92.723 26.1026 92.5252 28.3654C91.9636 34.7973 86.331 39.9991 79.8875 39.9991C76.9213 39.9991 74.2678 38.8932 72.3122 37.0495C70.1143 38.8718 67.3105 39.9991 64.3099 39.9991C61.3433 39.9991 58.69 38.8932 56.7345 37.0495C54.5366 38.8718 51.7328 39.9991 48.7322 39.9991C43.6239 39.9991 39.5195 36.7366 38.205 32.2074C36.2298 36.7475 31.6431 39.9991 26.5481 39.9991C23.5819 39.9991 20.9285 38.8932 18.973 37.0495C16.7749 38.8718 13.9709 39.9991 10.97 39.9991C4.38735 39.9991 -0.52738 34.5811 0.0453976 28.0168C0.607261 21.585 6.23895 16.3824 12.6831 16.3824C14.6052 16.3824 16.4931 16.8574 18.1403 17.7755C18.9699 18.2382 19.5277 18.9289 19.8241 19.7077C22.0971 17.6503 25.0801 16.3826 28.2609 16.3826C31.4321 16.3826 34.2523 17.6472 36.2432 19.7378L36.2662 19.7608C36.2739 19.7687 36.2819 19.777 36.2903 19.7859C36.8326 20.3483 37.5759 20.6995 38.4409 20.7563L39.3718 10.0951C39.8956 4.09864 43.6069 1.63733 45.3237 0.839073C48.2943 -0.54239 51.8258 -0.230915 54.291 1.86932C56.1065 3.41551 57.1247 5.49119 57.3104 7.82933C57.3427 8.23561 57.3498 8.64981 57.3316 9.07054C57.2199 11.6596 56.1489 14.3578 54.4282 17.0089C52.7003 19.6714 50.2459 22.3976 47.189 25.0764L47.1837 25.0813L47.1786 25.086L47.173 25.0913C47.1452 25.1176 47.1118 25.1484 47.0958 25.1631L47.0879 25.1704L45.9804 26.1973L45.7913 28.3649C45.6128 30.4074 47.0748 31.9921 49.0815 31.9921C51.2276 31.9921 53.195 30.1924 53.3848 28.0172C53.4554 27.2086 53.6062 26.4195 53.8286 25.6576C55.3755 20.3595 60.3887 16.3826 66.0225 16.3826C68.9888 16.3826 71.6424 17.4888 73.5981 19.3327C74.0848 18.9291 74.6013 18.5595 75.1431 18.2288ZM15.6233 28.0171C15.7053 27.0778 15.8955 26.1648 16.1805 25.2903C15.4562 25.3437 14.7076 25.1987 14.0088 24.809C13.5208 24.5369 12.9664 24.3898 12.3332 24.3898C10.1877 24.3898 8.21954 26.1901 8.02943 28.3651C7.85119 30.4076 9.3133 31.9921 11.3201 31.9921C13.4657 31.9921 15.4336 30.1922 15.6233 28.0171ZM84.5409 28.0178C84.6451 26.8211 85.2683 25.7607 86.1755 25.0608C85.1489 25.4282 83.981 25.3972 82.9266 24.8092C82.4383 24.5369 81.8841 24.39 81.2509 24.39C79.1054 24.39 77.1373 26.1901 76.9471 28.3651C76.7689 30.4077 78.2312 31.9923 80.2378 31.9923C82.3829 31.9923 84.3506 30.193 84.5409 28.0178ZM72.1571 20.7237C70.5754 19.2643 68.4382 18.3826 66.0225 18.3826C61.5528 18.3826 57.5093 21.4004 55.9833 25.5094C55.6666 26.3621 55.4584 27.2617 55.3772 28.191C55.0981 31.3899 52.2744 33.9921 49.0815 33.9921C45.8891 33.9921 43.5194 31.3899 43.7988 28.191L44.0757 25.0184C44.6601 24.6354 45.2127 24.1937 45.7223 23.699L45.7281 23.7039C45.753 23.6808 45.7779 23.658 45.8023 23.6349L45.8169 23.6212C45.8301 23.6088 45.8437 23.5961 45.8586 23.5829C46.3684 23.1364 46.8593 22.69 47.3309 22.2441C52.3416 17.5067 55.167 12.8433 55.3335 8.98418C55.3715 8.10396 55.2733 7.27436 55.044 6.50762C54.7574 5.54953 54.266 4.68957 53.5797 3.95161C53.398 3.75626 53.2027 3.56945 52.9939 3.39164C51.5481 2.15971 49.5418 1.72843 47.5971 2.16485C47.1134 2.2734 46.6335 2.43562 46.1671 2.65256C44.8704 3.25545 41.8066 5.20514 41.3642 10.2691L40.2925 22.5422C39.7695 22.6883 39.2309 22.7645 38.6915 22.7645C37.1984 22.7645 35.8309 22.1963 34.841 21.1641C34.839 21.1618 34.8365 21.1596 34.834 21.1574L34.8331 21.1566L34.8311 21.1549L34.8273 21.1513C33.2137 19.4384 30.9045 18.3826 28.2609 18.3826C24.8696 18.3826 21.7235 20.12 19.7364 22.7531C19.6168 22.9115 19.5012 23.0736 19.3902 23.2384C19.2346 23.4694 19.0876 23.7065 18.9498 23.9491C18.2202 25.2335 17.7483 26.6725 17.6157 28.191C17.3367 31.3899 14.5123 33.9921 11.3201 33.9921C8.12764 33.9921 5.75775 31.3899 6.03702 28.191C6.31647 24.9925 9.14078 22.3898 12.3332 22.3898C13.2911 22.3898 14.1831 22.6162 14.9828 23.0622C15.7349 23.4816 16.6915 23.3185 17.3489 22.7241C17.5046 22.5833 17.6435 22.4184 17.7589 22.2313C17.8506 22.0828 17.9221 21.9289 17.9744 21.7729C18.2662 20.9015 17.9552 19.9623 17.1662 19.5222C15.8291 18.777 14.2788 18.3824 12.6831 18.3824C7.28573 18.3824 2.51026 22.7826 2.03781 28.1909C1.56591 33.599 5.57312 37.9991 10.97 37.9991C13.4472 37.9991 15.7931 37.0725 17.6523 35.5467C18.1753 35.1175 18.6598 34.6409 19.0978 34.1242C19.4761 34.6862 19.9177 35.2008 20.4139 35.6586C21.9955 37.1176 24.1325 37.9991 26.5481 37.9991C31.7724 37.9991 36.4133 33.8775 37.1346 28.7092C37.1586 28.5375 37.1782 28.3647 37.1934 28.1909C37.2373 27.6862 37.2423 27.1902 37.2107 26.7056C37.4435 26.7326 37.679 26.7516 37.9166 26.7619C38.0576 26.7681 38.1994 26.7712 38.3417 26.7712C38.6334 26.7712 38.925 26.7582 39.2156 26.7323C39.4561 26.7109 39.6959 26.6808 39.9346 26.6421L39.7994 28.1909C39.785 28.3566 39.7747 28.5214 39.7686 28.6851C39.5741 33.8645 43.5003 37.9991 48.7322 37.9991C51.2091 37.9991 53.5547 37.0725 55.4138 35.5467C55.9367 35.1175 56.4212 34.6409 56.8592 34.1242C57.2376 34.6862 57.6792 35.2008 58.1754 35.6585C59.757 37.1176 61.8938 37.9991 64.3099 37.9991C66.7867 37.9991 69.1324 37.0725 70.9915 35.5467C71.5145 35.1175 71.9989 34.6409 72.437 34.1242C72.8154 34.6862 73.2569 35.2008 73.7531 35.6585C75.3349 37.1176 77.4718 37.9991 79.8875 37.9991C85.2847 37.9991 90.0609 33.5991 90.5328 28.1909C90.5697 27.7698 90.474 27.379 90.2805 27.0564C89.979 26.5539 89.4399 26.217 88.794 26.1895C88.7656 26.1883 88.7369 26.1877 88.7081 26.1877C87.604 26.1877 86.6297 27.0849 86.5334 28.1912C86.254 31.3901 83.43 33.9923 80.2378 33.9923C77.0455 33.9923 74.6756 31.3901 74.9547 28.1912C75.0958 26.5767 75.8853 25.1139 77.0433 24.0611C78.1793 23.0283 79.67 22.39 81.2509 22.39C81.6889 22.39 82.1132 22.4374 82.5212 22.5314C83.0053 22.643 83.4665 22.8204 83.9006 23.0624C84.8307 23.5811 86.0736 23.2088 86.6766 22.2315C87.2801 21.2541 87.0142 20.0413 86.0838 19.5224C84.7468 18.7772 83.1963 18.3826 81.6006 18.3826C80.0389 18.3826 78.5295 18.751 77.1613 19.4057C76.3593 19.7895 75.6058 20.2716 74.9187 20.8355C74.3957 21.2648 73.9113 21.7414 73.4732 22.2581C73.0949 21.6961 72.6533 21.1814 72.1571 20.7237Z" fill="white"/>
<defs>
<linearGradient id="paint0_linear" x1="21.8286" y1="52.6981" x2="70.6566" y2="3.96821" gradientUnits="userSpaceOnUse">
<stop stop-color="#F71818"/>
<stop offset="0.1124" stop-color="#F9441B"/>
<stop offset="0.3315" stop-color="#FB7B1E"/>
<stop offset="0.7191" stop-color="#FEC600"/>
<stop offset="0.7968" stop-color="#FECA06"/>
<stop offset="0.8697" stop-color="#FED50E"/>
<stop offset="0.9405" stop-color="#FEE916"/>
<stop offset="1" stop-color="#FFFF25"/>
</linearGradient>
</defs>
</svg>
