<svg width="89" height="42" viewBox="0 0 89 42" fill="none" xmlns="http://www.w3.org/2000/svg">
<path d="M86.708 27.1886C85.604 27.1886 84.6297 28.0858 84.5333 29.1921C84.2539 32.391 81.43 34.9931 78.2377 34.9931C75.0454 34.9931 72.6756 32.391 72.9546 29.1921C73.2341 25.9936 76.0584 23.3909 79.2508 23.3909C80.2088 23.3909 81.1007 23.6173 81.9006 24.0633C82.8306 24.5819 84.0735 24.2097 84.6765 23.2323C85.2801 22.255 85.0142 21.0421 84.0838 20.5233C82.7467 19.778 81.1963 19.3834 79.6006 19.3834C76.4265 19.3834 73.4687 20.9052 71.4731 23.259C69.8888 20.9052 67.196 19.3834 64.0225 19.3834C58.6252 19.3834 53.8496 23.7836 53.3771 29.1919C53.098 32.3908 50.2743 34.9929 47.0815 34.9929C43.889 34.9929 41.5193 32.3908 41.7988 29.1919L42.0756 26.0193C42.66 25.6363 43.2126 25.1945 43.7222 24.6999L43.728 24.7047C43.7529 24.6816 43.7778 24.6589 43.8022 24.6358C43.82 24.6192 43.8381 24.6019 43.8585 24.5838C49.7862 19.3924 53.1512 14.2073 53.3334 9.98504C53.4316 7.71378 52.6226 5.77955 50.9939 4.3925C49.1885 2.85417 46.509 2.56428 44.167 3.65342C42.8703 4.25631 39.8065 6.206 39.3642 11.27L38.2925 23.5431C37.7695 23.6892 37.2308 23.7654 36.6914 23.7654C35.1984 23.7654 33.8309 23.1971 32.841 22.165C32.8371 22.1605 32.8315 22.1564 32.8272 22.1521C31.2137 20.4392 28.9044 19.3834 26.2608 19.3834C20.8638 19.3834 16.0879 23.7836 15.6157 29.1919C15.3366 32.3908 12.5123 34.9929 9.32003 34.9929C6.12758 34.9929 3.75769 32.3908 4.03696 29.1919C4.31642 25.9934 7.14072 23.3907 10.3332 23.3907C11.2911 23.3907 12.183 23.6171 12.9827 24.0631C13.9129 24.5818 15.1559 24.2095 15.7588 23.2322C16.3622 22.2548 16.0965 21.0419 15.1661 20.5231C13.8291 19.7779 12.2788 19.3833 10.6831 19.3833C5.28568 19.3833 0.510204 23.7834 0.0377517 29.1917C-0.434143 34.5998 3.57306 39 8.96992 39C12.144 39 15.1025 37.4786 17.0977 35.125C18.6821 37.4786 21.3745 39 24.548 39C29.9458 39 34.7209 34.6 35.1934 29.1917C35.2373 28.687 35.2423 28.1911 35.2107 27.7065C35.5816 27.7495 35.9594 27.7721 36.3417 27.7721C36.8747 27.7721 37.4074 27.7285 37.9346 27.643L37.7994 29.1917C37.3271 34.5998 41.3349 39 46.7321 39C49.9058 39 52.864 37.4786 54.8592 35.125C56.4437 37.4786 59.1358 39 62.3099 39C65.4833 39 68.4417 37.4786 70.4369 35.125C72.0214 37.4786 74.7139 39 77.8874 39C83.2846 39 88.0609 34.6 88.5327 29.1917C88.6296 28.086 87.8125 27.1886 86.708 27.1886ZM43.3636 11.6428C43.5358 9.67391 44.3485 8.21289 45.5935 7.63274C45.9646 7.46096 46.3562 7.37582 46.7364 7.37582C47.2927 7.37582 47.826 7.5571 48.2378 7.90791C49.0155 8.57004 49.3705 9.42947 49.3225 10.535C49.2639 11.8917 48.5964 13.5787 47.3916 15.4138C46.2227 17.1953 44.5961 19.0622 42.5485 20.9756L43.3636 11.6428ZM31.1938 29.5647C30.9147 32.7636 28.09 35.3657 24.8976 35.3657C21.7057 35.3657 19.336 32.7636 19.6154 29.5647C19.8945 26.3662 22.7183 23.7635 25.9107 23.7635C27.4926 23.7635 28.8721 24.4035 29.8277 25.4373C29.8277 25.4373 29.8283 25.4377 29.8283 25.4382C29.829 25.4395 29.8309 25.4399 29.8318 25.4418C30.8024 26.4946 31.3344 27.9535 31.1938 29.5647ZM62.6596 35.3657C59.4671 35.3657 57.0978 32.7636 57.3769 29.5647C57.656 26.3662 60.4803 23.7635 63.6727 23.7635C66.8646 23.7635 69.2349 26.3662 68.9552 29.5647C68.6762 32.7636 65.8519 35.3657 62.6596 35.3657Z" fill="url(#paint0_linear)"/>
<defs>
<linearGradient id="paint0_linear" x1="19.8286" y1="53.6981" x2="68.6566" y2="4.96821" gradientUnits="userSpaceOnUse">
<stop stop-color="#F71818"/>
<stop offset="0.1124" stop-color="#F9441B"/>
<stop offset="0.3315" stop-color="#FB7B1E"/>
<stop offset="0.7191" stop-color="#FEC600"/>
<stop offset="0.7968" stop-color="#FECA06"/>
<stop offset="0.8697" stop-color="#FED50E"/>
<stop offset="0.9405" stop-color="#FEE916"/>
<stop offset="1" stop-color="#FFFF25"/>
</linearGradient>
</defs>
</svg>
