<svg width="512" height="512" viewBox="0 0 512 512" fill="none" xmlns="http://www.w3.org/2000/svg">
<rect x="296" y="245" width="161" height="161" rx="80.5" fill="#D6D4D4"/>
<ellipse cx="254.5" cy="414" rx="183.5" ry="47" fill="#E6BA1C"/>
<path d="M328.5 315L276 426L262.5 432L240 426L230 403.5L212.5 366.5L182.5 315L141.5 266L117.5 230L104 187V140.5L134.5 79.5L175 38L230 16.5H280L340 38L380.5 79.5L407 128L401.5 221.5L328.5 315Z" fill="white" stroke="black"/>
<path d="M256 280C194.24 280 144 229.76 144 168C144 106.24 194.24 56 256 56C317.76 56 368 106.24 368 168C368 229.76 317.76 280 256 280Z" fill="#1B998B"/>
<path d="M327.681 132.44C324.489 126.008 320.433 120.024 315.625 114.664L303.713 125.336C307.553 129.632 310.801 134.416 313.361 139.56L327.681 132.44Z" fill="black"/>
<path d="M336 168C336 162 335.336 156.024 334.016 150.232L318.416 153.768C319.464 158.408 320 163.192 320 168C320 203.288 291.288 232 256 232V248C300.112 248 336 212.112 336 168Z" fill="black"/>
<path d="M280 296H296V312H280V296Z" fill="black"/>
<path d="M216 296H232V312H216V296Z" fill="black"/>
<path d="M248 296H264V312H248V296Z" fill="black"/>
<path d="M154.017 415.344C148.513 414.28 143.433 413.168 138.777 412.024L134.961 427.56C139.849 428.76 145.193 429.936 150.977 431.056L154.017 415.344Z" fill="black"/>
<path d="M185.056 420.088C179.608 419.448 174.4 418.744 169.464 417.992L167.064 433.816C172.176 434.592 177.552 435.32 183.192 435.984L185.056 420.088Z" fill="black"/>
<path d="M216.48 422.848C211.056 422.52 205.808 422.136 200.744 421.688L199.352 437.624C204.56 438.08 209.952 438.48 215.528 438.808L216.48 422.848Z" fill="black"/>
<path d="M385.04 406.528C380.24 405.192 374.912 403.864 369.048 402.592L365.648 418.224C371.168 419.424 376.208 420.68 380.728 421.944L385.04 406.528Z" fill="black"/>
<path d="M353 399.488C347.928 398.624 342.56 397.8 336.896 397.04L334.768 412.896C340.224 413.624 345.408 414.424 350.296 415.256L353 399.488Z" fill="black"/>
<path d="M320.752 395.136C315.56 394.608 310.176 394.128 304.584 393.72L303.416 409.68C308.84 410.072 314.08 410.536 319.12 411.048L320.752 395.136Z" fill="black"/>
<path d="M310.464 362.184C326.592 332.792 347.384 304.336 372.808 277.216C400.664 247.504 416 208.712 416 168C416 122.552 396.568 79.0956 362.688 48.7596C328.344 18.0076 283.944 3.88759 237.76 9.00759C163.576 17.2236 104.304 77.1356 96.832 151.464C92.144 198.08 107.832 244.168 139.864 277.936C165.264 304.704 185.92 332.92 201.84 362.16C133.064 367.592 64 384.208 64 416V448C64 484.768 160.592 504 256 504C351.408 504 448 484.768 448 448V416C448 384.264 379.112 367.648 310.464 362.184V362.184ZM112.752 153.064C119.48 86.1996 172.792 32.3036 239.52 24.9116C245.12 24.2876 250.688 23.9836 256.2 23.9836C291.728 23.9836 325.264 36.7196 352.024 60.6796C382.512 87.9836 400 127.104 400 168C400 204.632 386.2 239.536 361.136 266.272C321.128 308.952 291.88 354.896 274.216 402.832L270.024 414.224C267.872 420.072 262.232 424 256 424C249.768 424 244.128 420.072 241.976 414.224L236.784 400.12C219.48 353.152 190.784 308.344 151.48 266.92C122.648 236.536 108.528 195.04 112.752 153.064V153.064ZM209.784 377.648C214.224 386.896 218.288 396.216 221.768 405.648L226.96 419.752C231.424 431.864 243.096 440 256 440C268.904 440 280.576 431.864 285.04 419.752L289.232 408.36C293.04 398.024 297.496 387.8 302.432 377.664C386.944 383.48 432 403.448 432 416C432 432.312 363.44 456 256 456C148.56 456 80 432.312 80 416C80 403.424 125.128 383.448 209.784 377.648ZM256 488C148.56 488 80 464.312 80 448V439.848C111.312 461.032 183.976 472 256 472C328.024 472 400.688 461.032 432 439.848V448C432 464.312 363.44 488 256 488Z" fill="black"/>
</svg>
