<svg width="508" height="508" viewBox="0 0 508 508" fill="none" xmlns="http://www.w3.org/2000/svg">
<path d="M109.281 288.744L34 419.238L121.863 414.573L161.782 493L231.422 372.269C181.524 359.36 138.677 329.313 109.281 288.744Z" fill="#D72D33"/>
<path d="M397.529 288.094C368.349 328.771 325.502 358.927 275.713 372.052L345.57 493L385.488 414.574L473.351 419.238L397.529 288.094Z" fill="#1B998B"/>
<path d="M253.288 400.343C351.966 400.343 431.96 320.349 431.96 221.671C431.96 122.994 351.966 43 253.288 43C154.611 43 74.6172 122.994 74.6172 221.671C74.6172 320.349 154.611 400.343 253.288 400.343Z" fill="#FECE1F"/>
<path d="M253.287 351.18C324.812 351.18 382.795 293.197 382.795 221.672C382.795 150.147 324.812 92.1641 253.287 92.1641C181.762 92.1641 123.779 150.147 123.779 221.672C123.779 293.197 181.762 351.18 253.287 351.18Z" fill="#E6BA1C"/>
<path d="M342.866 207.92C346.852 204.022 344.638 197.201 339.146 196.404L288.034 188.963C285.819 188.609 283.959 187.28 282.984 185.243L260.13 138.914C257.65 133.865 250.474 133.865 247.994 138.914L225.228 185.243C224.254 187.191 222.305 188.609 220.179 188.963L169.067 196.404C163.575 197.201 161.36 204.022 165.347 207.92L202.286 243.973C203.88 245.567 204.589 247.782 204.234 249.908L195.553 300.754C194.579 306.247 200.425 310.499 205.386 307.841L251.095 283.835C253.043 282.772 255.435 282.772 257.384 283.835L303.093 307.841C308.053 310.41 313.811 306.247 312.925 300.754L304.156 249.908C303.801 247.693 304.51 245.479 306.104 243.973L342.866 207.92Z" fill="#C69F10"/>
</svg>
