<svg width="512" height="512" viewBox="0 0 512 512" fill="none" xmlns="http://www.w3.org/2000/svg">
<path d="M428 160H228V360H428V160Z" fill="#EFEEEE"/>
<path d="M408 441.472V272H392V440H209.312C233.032 418.064 248 386.784 248 352C248 288.528 198.44 236.552 136 232.408V24H392V240H408V8H120V232.408C57.56 236.552 8 288.528 8 352C8 409.952 49.288 458.432 104 469.584V480C104 493.232 114.768 504 128 504H400C413.232 504 424 493.232 424 480V464C424 453.584 417.288 444.784 408 441.472ZM24 352C24 294.656 70.656 248 128 248C185.344 248 232 294.656 232 352C232 409.344 185.344 456 128 456C70.656 456 24 409.344 24 352ZM408 480C408 484.416 404.416 488 400 488H128C123.584 488 120 484.416 120 480V471.592C122.656 471.768 125.296 472 128 472C149.704 472 170.024 466.12 187.616 456H400C404.416 456 408 459.584 408 464V480Z" fill="#1A1A1A"/>
<path d="M388.224 274.688L373.488 268.456C368.472 280.328 356.888 288 344 288C326.352 288 312 273.648 312 256C312 238.352 326.352 224 344 224C356.728 224 368.24 231.536 373.344 243.2L388 236.8C380.36 219.304 363.088 208 344 208C317.528 208 296 229.528 296 256C296 282.472 317.528 304 344 304C363.328 304 380.688 292.496 388.224 274.688Z" fill="#1A1A1A"/>
<path d="M152 166H168V182H152V166Z" fill="#1A1A1A"/>
<path d="M152 134H168V150H152V134Z" fill="#1A1A1A"/>
<path d="M152 102H168V118H152V102Z" fill="#1A1A1A"/>
<path d="M360 376H376V392H360V376Z" fill="#1A1A1A"/>
<path d="M360 408H376V424H360V408Z" fill="#1A1A1A"/>
<path d="M360 344H376V360H360V344Z" fill="#1A1A1A"/>
<path d="M480 280H352C338.768 280 328 269.232 328 256C328 242.768 338.768 232 352 232H480C493.232 232 504 242.768 504 256C504 269.232 493.232 280 480 280Z" fill="#E6BA1C"/>
<path d="M79.9589 367.44C70.6804 376.718 70.6804 391.762 79.9589 401.04C89.2375 410.319 104.281 410.319 113.56 401.04L125.585 389.015C126.366 388.234 127.633 388.234 128.414 389.015L140.44 401.041C149.719 410.32 164.762 410.32 174.041 401.041C183.32 391.763 183.32 376.719 174.041 367.441L162.015 355.414C161.233 354.633 161.233 353.367 162.015 352.586L174.041 340.559C183.32 331.281 183.32 316.237 174.041 306.959C164.762 297.68 149.719 297.68 140.44 306.959L128.414 318.985C127.633 319.766 126.366 319.766 125.585 318.985L113.56 306.96C104.281 297.681 89.2376 297.681 79.9591 306.96C70.6805 316.238 70.6805 331.282 79.9591 340.56L91.9847 352.586C92.7657 353.367 92.7657 354.633 91.9847 355.414L79.9589 367.44Z" fill="#D72D33"/>
</svg>
