<svg width="512" height="512" viewBox="0 0 512 512" fill="none" xmlns="http://www.w3.org/2000/svg">
<path d="M428 160H228V360H428V160Z" fill="#EFEEEE"/>
<path d="M408 441.472V272H392V440H209.312C233.032 418.064 248 386.784 248 352C248 288.528 198.44 236.552 136 232.408V24H392V240H408V8H120V232.408C57.56 236.552 8 288.528 8 352C8 409.952 49.288 458.432 104 469.584V480C104 493.232 114.768 504 128 504H400C413.232 504 424 493.232 424 480V464C424 453.584 417.288 444.784 408 441.472ZM24 352C24 294.656 70.656 248 128 248C185.344 248 232 294.656 232 352C232 409.344 185.344 456 128 456C70.656 456 24 409.344 24 352ZM408 480C408 484.416 404.416 488 400 488H128C123.584 488 120 484.416 120 480V471.592C122.656 471.768 125.296 472 128 472C149.704 472 170.024 466.12 187.616 456H400C404.416 456 408 459.584 408 464V480Z" fill="#1A1A1A"/>
<path d="M388.224 274.688L373.488 268.456C368.472 280.328 356.888 288 344 288C326.352 288 312 273.648 312 256C312 238.352 326.352 224 344 224C356.728 224 368.24 231.536 373.344 243.2L388 236.8C380.36 219.304 363.088 208 344 208C317.528 208 296 229.528 296 256C296 282.472 317.528 304 344 304C363.328 304 380.688 292.496 388.224 274.688Z" fill="#1A1A1A"/>
<path d="M152 166H168V182H152V166Z" fill="#1A1A1A"/>
<path d="M152 134H168V150H152V134Z" fill="#1A1A1A"/>
<path d="M152 102H168V118H152V102Z" fill="#1A1A1A"/>
<path d="M360 376H376V392H360V376Z" fill="#1A1A1A"/>
<path d="M360 408H376V424H360V408Z" fill="#1A1A1A"/>
<path d="M360 344H376V360H360V344Z" fill="#1A1A1A"/>
<path d="M480 280H352C338.768 280 328 269.232 328 256C328 242.768 338.768 232 352 232H480C493.232 232 504 242.768 504 256C504 269.232 493.232 280 480 280Z" fill="#E6BA1C"/>
<path d="M132.882 410.493C129.569 412.812 125.015 410.442 125.015 406.397V389.006C125.015 386.245 122.777 384.006 120.015 384.006H65C62.2386 384.006 60 381.767 60 379.006V336.994C60 334.233 62.2386 331.994 65 331.994H120.015C122.777 331.994 125.015 329.755 125.015 326.994V309.603C125.015 305.558 129.569 303.188 132.882 305.507L202.019 353.904C204.862 355.894 204.862 360.106 202.019 362.096L132.882 410.493Z" fill="#1B998B"/>
</svg>
