<svg width="496" height="496" viewBox="0 0 496 496" fill="none" xmlns="http://www.w3.org/2000/svg">
<path d="M167.34 160.645H247.662V200.806H167.34V160.645Z" fill="#D72D33"/>
<path d="M167.34 307.902H247.662V408.306H167.34V307.902Z" fill="#EFEEEE"/>
<path d="M374.84 301.21H294.518V247.661H374.84V301.21Z" fill="#D6D4D4"/>
<path d="M120.485 301.21H40.1621V247.661H120.485V301.21Z" fill="#D6D4D4"/>
<path d="M401.613 354.713V194.113H388.226V348.64C384.706 347.944 380.99 347.823 377.182 348.385C369.596 331.952 353.219 321.291 334.677 321.291C316.136 321.291 299.759 331.952 292.173 348.385C285.855 347.457 279.789 348.398 274.435 350.748V284.241L207.5 239.615L140.565 284.241V350.735C135.218 348.392 129.158 347.457 122.827 348.385C115.241 331.952 98.8638 321.291 80.3226 321.291C61.7813 321.291 45.4037 331.952 37.8179 348.385C34.0103 347.823 30.2942 347.944 26.7742 348.64V194.113H13.3871V354.719C5.2947 360.864 0 370.636 0 381.533C0 399.986 15.0147 415 33.4677 415H381.532C399.985 415 415 399.986 415 381.533C415 370.636 409.712 360.857 401.613 354.713ZM207.5 255.708L261.048 291.405V361.445C256.858 367.067 254.355 374.042 254.355 381.533C254.355 389.096 256.973 396.005 261.222 401.613H153.778C158.027 396.005 160.645 389.096 160.645 381.533C160.645 374.029 158.148 367.054 153.952 361.426V291.405L207.5 255.708ZM33.4677 401.613C22.3979 401.613 13.3871 392.602 13.3871 381.533C13.3871 370.463 22.3979 361.452 33.4677 361.452C35.4353 361.452 37.5107 361.834 39.8214 362.602L46.3188 364.792L48.3485 358.239C52.7052 344.149 65.5562 334.678 80.3226 334.678C95.0889 334.678 107.94 344.149 112.297 358.246L114.326 364.799L120.824 362.609C123.134 361.834 125.21 361.452 127.177 361.452C138.247 361.452 147.258 370.463 147.258 381.533C147.258 392.602 138.247 401.613 127.177 401.613H33.4677ZM381.532 401.613H287.823C276.753 401.613 267.742 392.602 267.742 381.533C267.742 370.463 276.753 361.452 287.823 361.452C289.79 361.452 291.866 361.834 294.176 362.602L300.674 364.792L302.703 358.239C307.06 344.149 319.911 334.678 334.677 334.678C349.444 334.678 362.295 344.149 366.652 358.246L368.681 364.799L375.179 362.609C377.489 361.834 379.565 361.452 381.532 361.452C392.602 361.452 401.613 370.463 401.613 381.533C401.613 392.602 392.602 401.613 381.532 401.613Z" fill="#1A1A1A"/>
<path d="M13.3867 381.533C13.3867 392.602 22.3975 401.613 33.4674 401.613H127.177C138.247 401.613 147.258 392.602 147.258 381.533C147.258 370.463 138.247 361.452 127.177 361.452C125.21 361.452 123.134 361.834 120.823 362.609L114.326 364.799L112.296 358.246C107.94 344.149 95.0885 334.678 80.3222 334.678C65.5559 334.678 52.7048 344.149 48.3481 358.239L46.3185 364.792L39.821 362.602C37.5103 361.834 35.4349 361.452 33.4674 361.452C22.3975 361.452 13.3867 370.463 13.3867 381.533Z" fill="#1B998B"/>
<path d="M267.742 381.533C267.742 392.602 276.753 401.613 287.823 401.613H381.533C392.602 401.613 401.613 392.602 401.613 381.533C401.613 370.463 392.602 361.452 381.533 361.452C379.565 361.452 377.49 361.834 375.179 362.609L368.681 364.799L366.652 358.246C362.295 344.149 349.444 334.678 334.678 334.678C319.911 334.678 307.06 344.149 302.704 358.239L300.674 364.792L294.176 362.602C291.866 361.834 289.79 361.452 287.823 361.452C276.753 361.452 267.742 370.463 267.742 381.533Z" fill="#1B998B"/>
<path d="M58.2672 80.3226H356.738L388.621 169.587L401.23 165.084L366.17 66.9355H327.983V40.1613H314.596V0H274.435V40.1613H261.048V66.9355H153.951V40.1613H140.564V0H100.403V40.1613H87.0155V66.9355H48.8283L13.7754 165.09L26.3846 169.594L58.2672 80.3226ZM287.822 13.3871H301.209V40.1613H287.822V13.3871ZM274.435 53.5484H314.596V66.9355H274.435V53.5484ZM113.79 13.3871H127.177V40.1613H113.79V13.3871ZM100.403 53.5484H140.564V66.9355H100.403V53.5484Z" fill="#1A1A1A"/>
<path d="M348.064 234.274V145.117L357.267 152.477L365.628 142.022L294.515 85.1367L223.396 142.032L231.757 152.484L240.967 145.117V234.274H348.064ZM281.128 220.887V180.726C281.128 177.039 284.135 174.032 287.822 174.032H301.209C304.896 174.032 307.903 177.039 307.903 180.726V220.887H281.128ZM334.677 134.413V220.887H321.29V180.726C321.29 169.656 312.279 160.645 301.209 160.645H287.822C276.752 160.645 267.741 169.656 267.741 180.726V220.887H254.354V134.413L294.515 102.282L334.677 134.413Z" fill="#1A1A1A"/>
<path d="M174.033 234.274V145.117L183.236 152.477L191.597 142.022L120.484 85.1367L49.3652 142.032L57.7256 152.484L66.9358 145.117V234.274H174.033ZM107.097 220.887V180.726C107.097 177.039 110.104 174.032 113.791 174.032H127.178C130.864 174.032 133.871 177.039 133.871 180.726V220.887H107.097ZM160.645 134.413V220.887H147.258V180.726C147.258 169.656 138.248 160.645 127.178 160.645H113.791C102.721 160.645 93.71 169.656 93.71 180.726V220.887H80.3229V134.413L120.484 102.282L160.645 134.413Z" fill="#1A1A1A"/>
<path d="M287.822 120.483H301.209V133.87H287.822V120.483Z" fill="black"/>
<path d="M113.791 120.483H127.178V133.87H113.791V120.483Z" fill="black"/>
<path d="M401.613 160.646H348.064V200.807H401.613C408.996 200.807 415 194.803 415 187.42V174.033C415 166.649 408.996 160.646 401.613 160.646Z" fill="#D72D33"/>
<path d="M13.3871 160.646C6.00393 160.646 0 166.649 0 174.033V187.42C0 194.803 6.00393 200.807 13.3871 200.807H66.9355V160.646H13.3871Z" fill="#D72D33"/>
<path d="M480.5 368C480.5 430.132 430.132 480.5 368 480.5C305.868 480.5 255.5 430.132 255.5 368C255.5 305.868 305.868 255.5 368 255.5C430.132 255.5 480.5 305.868 480.5 368Z" fill="#E6BA1C" stroke="#1A1A1A" stroke-width="15"/>
<path d="M327.689 339.682L327.687 339.668C327.477 338.324 327.327 335.589 327.215 332.314C327.103 329.014 327.028 325.096 326.978 321.341C326.929 317.586 326.904 313.991 326.891 311.334C326.885 310.006 326.882 308.912 326.88 308.15C326.88 307.769 326.879 307.471 326.879 307.269L326.879 307.037L326.879 306.978L326.879 306.963L326.879 306.959L326.879 306.958C326.879 306.958 326.879 306.958 327.879 306.958H326.879V305.958H327.879H336.809H337.809V306.958V331.525C337.809 340.798 342.051 349.024 348.73 353.081C349.529 353.567 350.222 354.183 350.841 354.791H385.292C385.909 354.184 386.599 353.567 387.399 353.081L387.399 353.081C394.082 349.024 398.323 340.798 398.323 331.525V306.958V305.958H399.323H408.254H409.224L409.253 306.928L408.254 306.958C409.253 306.928 409.253 306.928 409.253 306.928L409.253 306.929L409.253 306.933L409.254 306.948L409.256 307.008L409.262 307.239C409.268 307.443 409.276 307.741 409.286 308.122C409.306 308.885 409.332 309.98 409.359 311.309C409.412 313.968 409.466 317.567 409.468 321.327C409.471 325.085 409.422 329.013 409.27 332.326C409.194 333.982 409.092 335.495 408.955 336.761C408.825 337.973 408.657 339.019 408.43 339.755C406.406 350.643 400.766 359.439 392.44 364.494C391.846 364.859 391.393 365.653 391.393 366.642C391.393 367.631 391.846 368.424 392.443 368.79C392.444 368.79 392.444 368.79 392.444 368.79L391.923 369.644C401.998 375.764 408.254 388.07 408.254 401.759L327.689 339.682ZM327.689 339.682L327.692 339.696C329.657 350.28 335.343 359.427 343.689 364.495M327.689 339.682L343.689 364.495M343.689 364.495C344.287 364.86 344.74 365.653 344.74 366.642C344.74 367.631 344.287 368.425 343.693 368.79C333.263 375.124 326.879 387.783 326.879 401.759V426.326V427.326H327.879H336.809H337.809V426.326V401.759C337.809 392.486 342.051 384.261 348.734 380.203L348.735 380.202C352.807 377.72 355.358 372.942 355.644 367.642H380.489L343.689 364.495Z" fill="#1A1A1A" stroke="#1A1A1A" stroke-width="2"/>
<rect x="317" y="421" width="102" height="14" rx="3" fill="#1A1A1A" stroke="#1A1A1A" stroke-width="2"/>
<rect x="317" y="302" width="102" height="14" rx="3" fill="#1A1A1A" stroke="#1A1A1A" stroke-width="2"/>
</svg>
