<svg width="18" height="18" viewBox="0 0 18 18" fill="none" xmlns="http://www.w3.org/2000/svg">
<path d="M16.9822 17.2458L11.6335 11.4102C12.8386 10.1493 13.501 8.5005 13.501 6.75C13.501 4.9473 12.799 3.2517 11.5237 1.9773C10.2484 0.7029 8.55368 0 6.75098 0C4.94828 0 3.25268 0.702 1.97828 1.9773C0.703877 3.2526 0.000976562 4.9473 0.000976562 6.75C0.000976562 8.5527 0.702977 10.2483 1.97828 11.5227C3.25358 12.7971 4.94828 13.5 6.75098 13.5C8.30438 13.5 9.77678 12.9789 10.9702 12.0195L16.3189 17.8542C16.408 17.9514 16.5286 18 16.651 18C16.7599 18 16.8688 17.9613 16.9552 17.8821C17.1388 17.7138 17.1505 17.4294 16.9831 17.2467L16.9822 17.2458ZM0.900077 6.75C0.900077 3.5244 3.52448 0.9 6.75008 0.9C9.97568 0.9 12.6001 3.5244 12.6001 6.75C12.6001 9.9756 9.97568 12.6 6.75008 12.6C3.52448 12.6 0.900077 9.9756 0.900077 6.75Z" fill="#8B8A8A"/>
</svg>
