<svg width="298" height="148" viewBox="0 0 298 148" fill="none" xmlns="http://www.w3.org/2000/svg">
<path d="M64.5391 115.949C64.1484 116.665 63.4648 117.967 62.4883 119.855C61.5768 121.743 60.3073 123.892 58.6797 126.301C57.1172 128.645 55.2292 131.086 53.0156 133.625C50.8021 136.164 48.263 138.508 45.3984 140.656C42.5339 142.74 39.3112 144.465 35.7305 145.832C32.2148 147.199 28.3737 147.883 24.207 147.883C20.4961 147.883 17.2083 147.199 14.3438 145.832C11.4792 144.53 9.03776 142.674 7.01953 140.266C5.0013 137.792 3.47135 134.895 2.42969 131.574C1.38802 128.254 0.867188 124.576 0.867188 120.539C0.867188 116.633 1.42057 112.987 2.52734 109.602C3.63411 106.151 5.13151 103.156 7.01953 100.617C8.97266 98.0781 11.2188 96.0924 13.7578 94.6602C16.2969 93.1628 18.9987 92.4141 21.8633 92.4141C24.0117 92.4141 25.9648 92.8047 27.7227 93.5859C29.4805 94.3021 30.9453 95.2786 32.1172 96.5156C33.3542 97.7526 34.2982 99.1198 34.9492 100.617C35.6654 102.115 36.0234 103.612 36.0234 105.109C36.0234 106.542 35.8281 107.876 35.4375 109.113C35.112 110.35 34.6562 111.457 34.0703 112.434C33.5495 113.345 32.931 114.094 32.2148 114.68C31.4987 115.201 30.7826 115.461 30.0664 115.461C28.9596 115.461 28.0482 115.103 27.332 114.387C26.681 113.671 26.3555 112.792 26.3555 111.75C26.3555 111.229 26.4531 110.773 26.6484 110.383C26.9089 109.992 27.1693 109.602 27.4297 109.211C27.7552 108.755 28.0156 108.234 28.2109 107.648C28.4714 106.997 28.6016 106.184 28.6016 105.207C28.6016 103.84 27.9505 102.603 26.6484 101.496C25.4115 100.389 23.8164 99.8359 21.8633 99.8359C20.0404 99.8359 18.2826 100.389 16.5898 101.496C14.9622 102.603 13.5299 104.1 12.293 105.988C11.056 107.811 10.0469 109.992 9.26562 112.531C8.54948 115.005 8.19141 117.642 8.19141 120.441C8.19141 123.111 8.51693 125.65 9.16797 128.059C9.81901 130.467 10.7956 132.616 12.0977 134.504C13.3997 136.327 15.0273 137.792 16.9805 138.898C18.9987 140.005 21.375 140.559 24.1094 140.559C27.625 140.559 30.8802 139.94 33.875 138.703C36.8698 137.401 39.6042 135.773 42.0781 133.82C44.5521 131.867 46.7331 129.751 48.6211 127.473C50.5091 125.129 52.1042 122.948 53.4062 120.93C54.7734 118.846 55.8151 117.056 56.5312 115.559C57.3125 113.996 57.7682 113.02 57.8984 112.629C58.1589 111.978 58.582 111.49 59.168 111.164C59.819 110.773 60.5026 110.578 61.2188 110.578C62.3255 110.578 63.2044 110.969 63.8555 111.75C64.5716 112.531 64.9297 113.41 64.9297 114.387C64.9297 114.777 64.7995 115.298 64.5391 115.949Z" fill="black"/>
<path d="M102.918 132.258C101.29 132.258 99.8581 132.128 98.6211 131.867C97.6445 133.82 96.4727 135.643 95.1055 137.336C93.7383 138.964 92.1432 140.396 90.3203 141.633C88.5625 142.87 86.5768 143.846 84.3633 144.562C82.1497 145.279 79.7409 145.637 77.1367 145.637C74.0768 145.637 71.2773 145.083 68.7383 143.977C66.1992 142.935 63.9857 141.47 62.0977 139.582C60.2096 137.629 58.7448 135.318 57.7031 132.648C56.6615 129.914 56.1406 126.919 56.1406 123.664C56.1406 119.497 56.8893 115.884 58.3867 112.824C59.8841 109.699 61.6094 107.128 63.5625 105.109C65.5156 103.026 67.4688 101.496 69.4219 100.52C71.375 99.4779 72.8398 98.957 73.8164 98.957C74.9232 98.957 75.737 99.25 76.2578 99.8359C76.8438 100.422 77.1367 101.203 77.1367 102.18C77.1367 103.286 76.7786 104.133 76.0625 104.719C75.4115 105.24 74.5651 105.76 73.5234 106.281C72.4818 106.802 71.375 107.551 70.2031 108.527C69.0312 109.439 67.9245 110.611 66.8828 112.043C65.9062 113.475 65.0924 115.168 64.4414 117.121C63.7904 119.074 63.4648 121.255 63.4648 123.664C63.4648 125.812 63.7904 127.831 64.4414 129.719C65.0924 131.542 66.0365 133.137 67.2734 134.504C68.5104 135.806 69.9753 136.848 71.668 137.629C73.3607 138.345 75.2487 138.703 77.332 138.703C81.043 138.703 84.1029 137.857 86.5117 136.164C88.9857 134.406 90.8737 132.193 92.1758 129.523C88.3346 127.505 85.1771 124.641 82.7031 120.93C80.2292 117.219 78.9922 113.052 78.9922 108.43C78.9922 104.719 79.8711 101.691 81.6289 99.3477C83.4518 97.0039 85.8281 95.832 88.7578 95.832C90.5156 95.832 92.1758 96.2552 93.7383 97.1016C95.3008 97.9479 96.668 99.2826 97.8398 101.105C99.0768 102.928 100.053 105.272 100.77 108.137C101.486 111.001 101.844 114.419 101.844 118.391C101.844 120.474 101.583 122.655 101.062 124.934C101.453 124.999 101.844 125.031 102.234 125.031C102.625 125.031 103.048 125.031 103.504 125.031C105.717 125.031 107.703 124.771 109.461 124.25C111.219 123.729 112.814 122.948 114.246 121.906C115.678 120.865 116.948 119.53 118.055 117.902C119.227 116.275 120.333 114.387 121.375 112.238C121.57 111.848 121.993 111.49 122.645 111.164C123.296 110.773 123.947 110.578 124.598 110.578C125.444 110.578 126.225 110.936 126.941 111.652C127.723 112.303 128.113 113.182 128.113 114.289C128.113 114.81 127.983 115.396 127.723 116.047C127.462 116.633 127.202 117.186 126.941 117.707C125.835 119.66 124.533 121.548 123.035 123.371C121.603 125.129 119.878 126.691 117.859 128.059C115.906 129.361 113.693 130.402 111.219 131.184C108.745 131.965 105.978 132.323 102.918 132.258ZM86.2188 107.648C86.2188 108.885 86.3815 110.188 86.707 111.555C87.0326 112.922 87.5208 114.289 88.1719 115.656C88.888 116.958 89.7344 118.228 90.7109 119.465C91.7526 120.637 92.957 121.646 94.3242 122.492C94.5195 121.125 94.6172 119.79 94.6172 118.488C94.6172 116.73 94.487 114.94 94.2266 113.117C93.9661 111.294 93.5755 109.634 93.0547 108.137C92.599 106.574 92.013 105.337 91.2969 104.426C90.5807 103.449 89.7344 102.961 88.7578 102.961C88.3672 102.961 87.8464 103.254 87.1953 103.84C86.5443 104.426 86.2188 105.695 86.2188 107.648Z" fill="black"/>
<path d="M176.746 115.949C176.03 117.447 175.118 119.237 174.012 121.32C172.97 123.339 171.766 125.454 170.398 127.668C169.031 129.882 167.501 132.095 165.809 134.309C164.116 136.457 162.26 138.41 160.242 140.168C158.289 141.861 156.173 143.228 153.895 144.27C151.681 145.376 149.305 145.93 146.766 145.93C142.859 145.93 139.507 144.725 136.707 142.316C133.908 139.908 131.531 136.75 129.578 132.844C127.625 128.938 126.03 124.51 124.793 119.562C123.621 114.549 122.71 109.471 122.059 104.328C121.408 99.1198 120.952 94.0742 120.691 89.1914C120.496 84.3086 120.398 79.9792 120.398 76.2031C120.398 70.7344 120.561 65.0703 120.887 59.2109C121.277 53.3516 121.863 47.6224 122.645 42.0234C123.426 36.4245 124.402 31.1185 125.574 26.1055C126.811 21.0924 128.243 16.6979 129.871 12.9219C131.564 9.14583 133.484 6.15104 135.633 3.9375C137.781 1.72396 140.223 0.617188 142.957 0.617188C145.105 0.617188 147.026 1.13802 148.719 2.17969C150.477 3.15625 151.941 4.78385 153.113 7.0625C154.285 9.34115 155.197 12.3034 155.848 15.9492C156.499 19.5951 156.824 24.0547 156.824 29.3281C156.824 35.8385 156.141 42.5768 154.773 49.543C153.406 56.444 151.551 63.4102 149.207 70.4414C146.863 77.4727 144.096 84.5039 140.906 91.5352C137.716 98.5013 134.298 105.305 130.652 111.945C132.28 120.214 134.461 126.724 137.195 131.477C139.93 136.164 143.217 138.508 147.059 138.508C149.663 138.508 152.169 137.499 154.578 135.48C156.987 133.397 159.201 130.956 161.219 128.156C163.237 125.357 164.995 122.525 166.492 119.66C168.055 116.73 169.259 114.387 170.105 112.629C170.431 111.978 170.887 111.49 171.473 111.164C172.059 110.773 172.71 110.578 173.426 110.578C174.533 110.578 175.411 110.969 176.062 111.75C176.779 112.531 177.137 113.41 177.137 114.387C177.137 114.777 177.007 115.298 176.746 115.949ZM127.82 76.6914C127.82 80.8581 127.918 84.862 128.113 88.7031C128.309 92.5443 128.569 96.2227 128.895 99.7383C131.629 94.4648 134.233 88.8659 136.707 82.9414C139.181 76.9518 141.362 70.9297 143.25 64.875C145.138 58.7552 146.635 52.7005 147.742 46.7109C148.914 40.6562 149.5 34.8945 149.5 29.4258C149.5 21.7435 148.882 16.2422 147.645 12.9219C146.408 9.60156 144.747 7.94141 142.664 7.94141C141.297 7.94141 139.962 8.88542 138.66 10.7734C137.423 12.6615 136.251 15.2331 135.145 18.4883C134.038 21.7435 133.029 25.5846 132.117 30.0117C131.206 34.4388 130.424 39.1914 129.773 44.2695C129.188 49.3477 128.699 54.6536 128.309 60.1875C127.983 65.7214 127.82 71.2227 127.82 76.6914Z" fill="black"/>
<path d="M215.223 132.258C213.595 132.258 212.163 132.128 210.926 131.867C209.949 133.82 208.777 135.643 207.41 137.336C206.043 138.964 204.448 140.396 202.625 141.633C200.867 142.87 198.882 143.846 196.668 144.562C194.454 145.279 192.046 145.637 189.441 145.637C186.382 145.637 183.582 145.083 181.043 143.977C178.504 142.935 176.29 141.47 174.402 139.582C172.514 137.629 171.049 135.318 170.008 132.648C168.966 129.914 168.445 126.919 168.445 123.664C168.445 119.497 169.194 115.884 170.691 112.824C172.189 109.699 173.914 107.128 175.867 105.109C177.82 103.026 179.773 101.496 181.727 100.52C183.68 99.4779 185.145 98.957 186.121 98.957C187.228 98.957 188.042 99.25 188.562 99.8359C189.148 100.422 189.441 101.203 189.441 102.18C189.441 103.286 189.083 104.133 188.367 104.719C187.716 105.24 186.87 105.76 185.828 106.281C184.786 106.802 183.68 107.551 182.508 108.527C181.336 109.439 180.229 110.611 179.188 112.043C178.211 113.475 177.397 115.168 176.746 117.121C176.095 119.074 175.77 121.255 175.77 123.664C175.77 125.812 176.095 127.831 176.746 129.719C177.397 131.542 178.341 133.137 179.578 134.504C180.815 135.806 182.28 136.848 183.973 137.629C185.665 138.345 187.553 138.703 189.637 138.703C193.348 138.703 196.408 137.857 198.816 136.164C201.29 134.406 203.178 132.193 204.48 129.523C200.639 127.505 197.482 124.641 195.008 120.93C192.534 117.219 191.297 113.052 191.297 108.43C191.297 104.719 192.176 101.691 193.934 99.3477C195.757 97.0039 198.133 95.832 201.062 95.832C202.82 95.832 204.48 96.2552 206.043 97.1016C207.605 97.9479 208.973 99.2826 210.145 101.105C211.382 102.928 212.358 105.272 213.074 108.137C213.79 111.001 214.148 114.419 214.148 118.391C214.148 120.474 213.888 122.655 213.367 124.934C213.758 124.999 214.148 125.031 214.539 125.031C214.93 125.031 215.353 125.031 215.809 125.031C218.022 125.031 220.008 124.771 221.766 124.25C223.523 123.729 225.118 122.948 226.551 121.906C227.983 120.865 229.253 119.53 230.359 117.902C231.531 116.275 232.638 114.387 233.68 112.238C233.875 111.848 234.298 111.49 234.949 111.164C235.6 110.773 236.251 110.578 236.902 110.578C237.749 110.578 238.53 110.936 239.246 111.652C240.027 112.303 240.418 113.182 240.418 114.289C240.418 114.81 240.288 115.396 240.027 116.047C239.767 116.633 239.507 117.186 239.246 117.707C238.139 119.66 236.837 121.548 235.34 123.371C233.908 125.129 232.182 126.691 230.164 128.059C228.211 129.361 225.997 130.402 223.523 131.184C221.049 131.965 218.283 132.323 215.223 132.258ZM198.523 107.648C198.523 108.885 198.686 110.188 199.012 111.555C199.337 112.922 199.826 114.289 200.477 115.656C201.193 116.958 202.039 118.228 203.016 119.465C204.057 120.637 205.262 121.646 206.629 122.492C206.824 121.125 206.922 119.79 206.922 118.488C206.922 116.73 206.792 114.94 206.531 113.117C206.271 111.294 205.88 109.634 205.359 108.137C204.904 106.574 204.318 105.337 203.602 104.426C202.885 103.449 202.039 102.961 201.062 102.961C200.672 102.961 200.151 103.254 199.5 103.84C198.849 104.426 198.523 105.695 198.523 107.648Z" fill="black"/>
<path d="M297.352 115.949C296.961 116.665 296.277 117.967 295.301 119.855C294.389 121.743 293.12 123.892 291.492 126.301C289.93 128.645 288.042 131.086 285.828 133.625C283.615 136.164 281.076 138.508 278.211 140.656C275.346 142.74 272.124 144.465 268.543 145.832C265.027 147.199 261.186 147.883 257.02 147.883C253.309 147.883 250.021 147.199 247.156 145.832C244.292 144.53 241.85 142.674 239.832 140.266C237.814 137.792 236.284 134.895 235.242 131.574C234.201 128.254 233.68 124.576 233.68 120.539C233.68 116.633 234.233 112.987 235.34 109.602C236.447 106.151 237.944 103.156 239.832 100.617C241.785 98.0781 244.031 96.0924 246.57 94.6602C249.109 93.1628 251.811 92.4141 254.676 92.4141C256.824 92.4141 258.777 92.8047 260.535 93.5859C262.293 94.3021 263.758 95.2786 264.93 96.5156C266.167 97.7526 267.111 99.1198 267.762 100.617C268.478 102.115 268.836 103.612 268.836 105.109C268.836 106.542 268.641 107.876 268.25 109.113C267.924 110.35 267.469 111.457 266.883 112.434C266.362 113.345 265.743 114.094 265.027 114.68C264.311 115.201 263.595 115.461 262.879 115.461C261.772 115.461 260.861 115.103 260.145 114.387C259.493 113.671 259.168 112.792 259.168 111.75C259.168 111.229 259.266 110.773 259.461 110.383C259.721 109.992 259.982 109.602 260.242 109.211C260.568 108.755 260.828 108.234 261.023 107.648C261.284 106.997 261.414 106.184 261.414 105.207C261.414 103.84 260.763 102.603 259.461 101.496C258.224 100.389 256.629 99.8359 254.676 99.8359C252.853 99.8359 251.095 100.389 249.402 101.496C247.775 102.603 246.342 104.1 245.105 105.988C243.868 107.811 242.859 109.992 242.078 112.531C241.362 115.005 241.004 117.642 241.004 120.441C241.004 123.111 241.329 125.65 241.98 128.059C242.632 130.467 243.608 132.616 244.91 134.504C246.212 136.327 247.84 137.792 249.793 138.898C251.811 140.005 254.188 140.559 256.922 140.559C260.438 140.559 263.693 139.94 266.688 138.703C269.682 137.401 272.417 135.773 274.891 133.82C277.365 131.867 279.546 129.751 281.434 127.473C283.322 125.129 284.917 122.948 286.219 120.93C287.586 118.846 288.628 117.056 289.344 115.559C290.125 113.996 290.581 113.02 290.711 112.629C290.971 111.978 291.395 111.49 291.98 111.164C292.632 110.773 293.315 110.578 294.031 110.578C295.138 110.578 296.017 110.969 296.668 111.75C297.384 112.531 297.742 113.41 297.742 114.387C297.742 114.777 297.612 115.298 297.352 115.949Z" fill="black"/>
</svg>
