<svg width="496" height="496" viewBox="0 0 496 496" fill="none" xmlns="http://www.w3.org/2000/svg">
<path d="M139 220H301V383H139V220Z" fill="#EFEEEE"/>
<rect x="10" y="114" width="437" height="62" fill="#EFEEEE"/>
<path d="M66.5 119.5V68.5H91V119.5H66.5Z" fill="#1B998B"/>
<path d="M363 120V69H387.5V120H363Z" fill="#1B998B"/>
<path d="M439.999 415.999C439.999 420.414 436.415 423.999 431.999 423.999H24.0008C19.5839 423.999 15.9999 420.415 15.9999 415.999V184H439.999V287.999H455.999V128C455.999 114.768 445.232 103.999 431.999 103.999H399.999V79.9998C399.999 66.7681 389.231 55.999 375.998 55.999C362.766 55.999 351.997 66.7663 351.997 79.9998V104.001H104V79.9998C104 66.7681 93.2332 55.999 79.9997 55.999C66.7663 55.999 55.999 66.7663 55.999 79.9998V104.001H23.9991C10.7673 104.001 0 114.768 0 128V415.999C0 429.23 10.7673 439.999 24.0008 439.999H432C445.232 439.999 456.001 429.232 456.001 415.999V399.999H440.001V415.999H439.999ZM367.999 79.9998C367.999 75.5915 371.583 71.999 376 71.999C380.416 71.999 383.999 75.5915 383.999 79.9998V112C383.999 116.408 380.415 120.001 375.998 120.001C371.581 120.001 367.997 116.408 367.997 112V79.9998H367.999ZM72.0006 79.9998C72.0006 75.5915 75.5846 71.999 80.0014 71.999C84.4183 71.999 88.0023 75.5915 88.0023 79.9998V112C88.0023 116.408 84.4183 120.001 80.0014 120.001C75.5846 120.001 72.0006 116.408 72.0006 112V79.9998ZM24.0008 120.001H57.4735C60.7861 129.288 69.5857 136 80.0014 136C90.4172 136 99.2167 129.288 102.529 120.001H353.48C356.793 129.288 365.592 136 376.008 136C386.424 136 395.223 129.288 398.536 120.001H432C436.415 120.001 440.001 123.593 440.001 128.001V168.004H15.9999V128C15.9999 123.591 19.5839 120.001 24.0008 120.001Z" fill="#1A1A1A"/>
<path d="M480.5 368C480.5 430.132 430.132 480.5 368 480.5C305.868 480.5 255.5 430.132 255.5 368C255.5 305.868 305.868 255.5 368 255.5C430.132 255.5 480.5 305.868 480.5 368Z" fill="#E6BA1C" stroke="black" stroke-width="15"/>
<path d="M408 347.875V342.969C408 325.718 395.084 311.529 378.375 309.125V289H358.625V309.125C341.916 311.529 329 325.718 329 342.969C329 361.907 344.504 377.312 363.562 377.312H373.438C381.604 377.312 388.25 383.916 388.25 392.031C388.25 400.146 381.604 406.75 373.438 406.75H363.562C355.396 406.75 348.75 400.146 348.75 392.031V387.125H329V392.031C329 409.282 341.916 423.47 358.625 425.875V446H378.375V425.875C395.084 423.47 408 409.282 408 392.031C408 373.093 392.496 357.688 373.438 357.688H363.562C355.396 357.688 348.75 351.084 348.75 342.969C348.75 334.854 355.396 328.25 363.562 328.25H373.438C381.604 328.25 388.25 334.854 388.25 342.969V347.875H408Z" fill="#1A1A1A"/>
<path d="M99.6677 303.309C89.4441 313.532 89.4441 330.108 99.6677 340.331C109.891 350.555 126.467 350.555 136.691 340.331L150.085 326.937C150.866 326.156 152.133 326.156 152.914 326.937L166.309 340.332C176.533 350.556 193.109 350.556 203.332 340.332C213.556 330.109 213.556 313.533 203.332 303.31L189.937 289.914C189.156 289.133 189.156 287.867 189.937 287.086L203.332 273.69C213.556 263.467 213.556 246.891 203.332 236.668C193.109 226.444 176.533 226.444 166.309 236.668L152.914 250.063C152.133 250.844 150.866 250.844 150.085 250.063L136.691 236.669C126.467 226.445 109.891 226.445 99.6679 236.669C89.4442 246.892 89.4442 263.468 99.6679 273.691L113.062 287.086C113.843 287.867 113.843 289.133 113.062 289.914L99.6677 303.309Z" fill="#D72D33"/>
<path d="M41 352H57V368H41V352Z" fill="#1A1A1A"/>
<path d="M41 384H57V400H41V384Z" fill="#1A1A1A"/>
<path d="M41 320H57V336H41V320Z" fill="#1A1A1A"/>
</svg>
