<svg width="20" height="20" viewBox="0 0 20 20" fill="none" xmlns="http://www.w3.org/2000/svg">
<g clip-path="url(#clip0)">
<path d="M18.927 16.158C18.57 15.777 18.136 15.445 17.631 15.161C17.328 14.557 16.733 13.762 15.573 13.128C15.098 12.868 14.561 12.653 13.966 12.482C15.179 11.794 16 10.491 16 8.99998C16 7.38098 15.033 5.98298 13.646 5.35498C13.349 4.69698 12.883 4.13398 12.286 3.71798C12.083 3.57598 11.868 3.45498 11.646 3.35398C11.349 2.69698 10.883 2.13398 10.286 1.71798C9.61302 1.24898 8.82302 1.00098 8.00002 1.00098C5.79402 1.00098 4.00002 2.79498 4.00002 5.00098C4.00002 5.82398 4.24802 6.61398 4.71702 7.28698C5.13302 7.88398 5.69602 8.34998 6.35302 8.64698C6.45402 8.86998 6.57502 9.08398 6.71702 9.28698C6.90502 9.55598 7.12302 9.79798 7.36502 10.011C5.86702 10.058 4.56802 10.274 3.49602 10.655C2.48702 11.014 1.67202 11.52 1.07202 12.159C0.0110235 13.29 -0.000976562 14.452 -0.000976562 14.501C-0.000976562 15.328 0.672023 16.001 1.49902 16.001H2.06702C2.00102 16.292 1.99902 16.482 1.99902 16.501C1.99902 17.328 2.67202 18.001 3.49902 18.001H4.06702C4.00102 18.292 3.99902 18.482 3.99902 18.501C3.99902 19.328 4.67202 20.001 5.49902 20.001H18.499C19.326 20.001 19.999 19.328 19.999 18.501C19.999 18.452 19.987 17.29 18.926 16.159L18.927 16.158ZM15 8.99998C15 10.654 13.654 12 12 12C10.346 12 9.00002 10.654 9.00002 8.99998C9.00002 7.34598 10.346 5.99998 12 5.99998C13.654 5.99998 15 7.34598 15 8.99998ZM5.00002 4.99998C5.00002 3.34598 6.34602 1.99998 8.00002 1.99998C8.86602 1.99998 9.67902 2.38198 10.24 3.00798C10.16 3.00298 10.081 2.99998 10 2.99998C7.79402 2.99998 6.00002 4.79398 6.00002 6.99998C6.00002 7.07998 6.00302 7.15998 6.00802 7.23998C5.38202 6.67898 5.00002 5.86598 5.00002 4.99998ZM7.00002 6.99998C7.00002 5.34598 8.34602 3.99998 10 3.99998C10.865 3.99998 11.678 4.38198 12.239 5.00698C12.16 5.00198 12.08 4.99998 12 4.99998C9.79402 4.99998 8.00002 6.79398 8.00002 8.99998C8.00002 9.07998 8.00302 9.15998 8.00702 9.23898C7.38102 8.67798 7.00002 7.86498 7.00002 6.99998ZM1.50002 15C1.22502 15 1.00202 14.777 1.00002 14.503C1.00102 14.448 1.03702 13.624 1.85502 12.787C2.65202 11.972 4.36502 11 8.00002 11C8.18302 11 8.36402 11.003 8.54202 11.008C8.76202 11.386 9.04202 11.724 9.36902 12.01C7.87002 12.057 6.57002 12.273 5.49702 12.654C4.48802 13.013 3.67302 13.519 3.07302 14.158C2.80602 14.443 2.60602 14.73 2.45502 15H1.50002ZM3.50002 17C3.22502 17 3.00202 16.777 3.00002 16.503C3.00202 16.447 3.03802 15.623 3.85502 14.787C4.65202 13.972 6.36502 13 10 13C13.035 13 14.753 13.668 15.725 14.417C14.658 14.14 13.41 14 12 14C10.232 14 8.71702 14.22 7.49702 14.654C6.48802 15.013 5.67302 15.519 5.07302 16.158C4.80602 16.443 4.60602 16.73 4.45502 17H3.50002ZM18.5 19H5.50002C5.22502 19 5.00202 18.777 5.00002 18.503C5.00102 18.448 5.03702 17.624 5.85502 16.787C6.65202 15.972 8.36502 15 12 15C15.635 15 17.348 15.972 18.145 16.787C18.963 17.624 18.998 18.448 19 18.503C18.998 18.777 18.775 19 18.5 19Z" fill="black"/>
</g>
<defs>
<clipPath id="clip0">
<path d="M0 0H20V20H0V0Z" fill="white"/>
</clipPath>
</defs>
</svg>
