<svg width="12" height="12" viewBox="0 0 12 12" fill="none" xmlns="http://www.w3.org/2000/svg">
<path d="M9.59839 12C8.53488 12 7.40368 11.6988 6.23626 11.1049C5.15982 10.5572 4.09637 9.77297 3.16084 8.83702C2.22548 7.90124 1.44175 6.83752 0.894386 5.76087C0.30092 4.59357 0 3.46281 0 2.4C0 1.71124 0.642214 1.0459 0.91832 0.791812C1.31527 0.426539 1.93977 0 2.39347 0C2.61915 0 2.88369 0.147527 3.226 0.46425C3.48143 0.700617 3.7686 1.02101 4.05642 1.39082C4.2299 1.61372 5.09531 2.75332 5.09531 3.3C5.09531 3.74847 4.58813 4.05999 4.0512 4.38982C3.84371 4.51726 3.62913 4.64906 3.47394 4.77337C3.30843 4.90597 3.27875 4.97596 3.27387 4.99168C3.84381 6.41115 5.58569 8.15165 7.00535 8.72039C7.01807 8.7164 7.08822 8.68876 7.22337 8.5203C7.34777 8.36521 7.47965 8.15079 7.60719 7.94342C7.93723 7.40683 8.24895 6.9 8.69775 6.9C9.24478 6.9 10.3852 7.76482 10.6082 7.93819C10.9783 8.22584 11.2989 8.51278 11.5354 8.76807C11.8524 9.11012 12 9.37448 12 9.6C12 10.0535 11.5734 10.6795 11.2081 11.0777C10.9537 11.355 10.2877 12 9.59837 12H9.59839ZM2.3897 0.600046C2.22868 0.603117 1.79593 0.799898 1.32504 1.2332C0.878074 1.64451 0.60042 2.0916 0.60042 2.40001C0.60042 6.43738 5.56192 11.4 9.59839 11.4C9.90657 11.4 10.3538 11.1212 10.7655 10.6723C11.1995 10.1992 11.3965 9.7651 11.3996 9.60379C11.3801 9.48979 11.0645 9.04641 10.2007 8.38172C9.45817 7.81029 8.85569 7.50415 8.70087 7.50004C8.69002 7.50325 8.62282 7.52895 8.48654 7.70186C8.36806 7.85223 8.24131 8.05832 8.11872 8.25761C7.78236 8.80448 7.46467 9.32101 7.00325 9.32101C6.92895 9.32101 6.85553 9.30673 6.78504 9.27855C5.20925 8.64866 3.34547 6.78615 2.71515 5.21143C2.63944 5.02231 2.62737 4.72611 2.99978 4.38896C3.19775 4.20975 3.47178 4.04143 3.73678 3.87866C3.93621 3.75616 4.14241 3.6295 4.29289 3.51109C4.46591 3.37493 4.49165 3.30774 4.49484 3.2969C4.49072 3.14218 4.18438 2.54012 3.61256 1.79805C2.94742 0.934862 2.50375 0.619523 2.38967 0.600046H2.3897Z" fill="#B0AFAF"/>
</svg>
