<svg width="496" height="496" viewBox="0 0 496 496" fill="none" xmlns="http://www.w3.org/2000/svg">
<path d="M441.5 389.5V438H64.5L164.5 337L206 326.5L234.5 337L272.5 369L297.5 348L339 326.5L381 337L441.5 389.5Z" fill="#1B998B" stroke="black"/>
<rect x="6" y="93" width="180" height="180" rx="90" fill="#D6D4D4"/>
<path d="M202.584 328C221.344 328 239.248 335.808 252.008 349.552L272.848 372L300.552 346.144C313.056 334.48 329.504 328 346.584 328C348.248 328 349.896 328.136 351.544 328.256C351.824 325.544 352 322.792 352 320C352 275.888 316.112 240 272 240C227.888 240 192 275.888 192 320C192 322.984 192.168 325.936 192.48 328.832C195.816 328.328 199.176 328 202.584 328Z" fill="#E6BA1C"/>
<path d="M482.376 160L279.528 27.368C277.264 11.928 264.064 0 248 0C231.936 0 218.736 11.928 216.472 27.368L13.624 160H0V496H496V160H482.376ZM248 16C256.824 16 264 23.176 264 32C264 40.824 256.824 48 248 48C239.176 48 232 40.824 232 32C232 23.176 239.176 16 248 16ZM218.8 44.96C223.784 56.152 234.968 64 248 64C261.032 64 272.216 56.152 277.2 44.96L453.152 160H42.848L218.8 44.96ZM480 480H16V176H480V480Z" fill="#1A1A1A"/>
<path d="M448 208H48V448H448V208ZM432 224V376.552L401.872 344.112C387.64 328.792 367.496 320 346.584 320C327.416 320 309.12 327.2 295.096 340.288L273.256 360.672L257.872 344.104C243.64 328.792 223.496 320 202.584 320C183.416 320 165.12 327.2 151.096 340.288L64 421.584V224H432ZM339.488 432L320.344 411.384L308.624 422.272L317.656 432H76.304L162.024 351.992C173.072 341.68 187.48 336 202.584 336C219.056 336 234.936 342.92 246.152 355L298.48 411.352L310.2 400.464L284.144 372.408L306.016 351.992C317.072 341.68 331.48 336 346.584 336C363.056 336 378.936 342.92 390.152 355L432 400.064V432H339.488Z" fill="#1A1A1A"/>
</svg>
