<svg width="496" height="496" viewBox="0 0 496 496" fill="none" xmlns="http://www.w3.org/2000/svg">
<g clip-path="url(#clip0)">
<path d="M313.617 485.625L85.4456 417.532C85.1943 417.457 85.058 417.204 85.133 416.953L151.099 195.912C151.129 195.811 151.206 195.698 151.334 195.62C151.337 195.618 151.34 195.617 151.343 195.616L301.524 108.492C301.532 108.49 301.545 108.488 301.564 108.486C301.64 108.479 301.761 108.486 301.905 108.528C302.048 108.571 302.153 108.633 302.213 108.68C302.228 108.692 302.238 108.701 302.244 108.707L380.123 263.905C380.123 263.907 380.123 263.908 380.124 263.908C380.188 264.04 380.192 264.171 380.162 264.271L314.196 485.313C314.121 485.564 313.869 485.7 313.617 485.625Z" fill="#EFEEEE" stroke="black" stroke-width="15" stroke-linejoin="round"/>
<path d="M197.123 415.427L220.475 422.396L227.457 399L239.133 402.484C258.445 408.248 278.86 397.192 284.635 377.843L288.126 366.145C293.9 346.796 282.883 326.36 263.571 320.597L216.867 306.659C210.434 304.739 206.759 297.922 208.682 291.476L212.174 279.778C214.097 273.332 220.907 269.644 227.341 271.564L274.045 285.502C280.478 287.422 284.153 294.239 282.229 300.685L305.581 307.654C311.356 288.305 300.339 267.869 281.027 262.105L269.351 258.621L276.333 235.224L252.981 228.255L245.999 251.652L234.323 248.167C215.011 242.404 194.596 253.46 188.822 272.809L185.331 284.507C179.556 303.856 190.573 324.292 209.885 330.055L256.589 343.993C263.022 345.913 266.697 352.73 264.774 359.176L261.283 370.874C259.359 377.32 252.549 381.008 246.115 379.088L199.412 365.15C192.978 363.23 189.303 356.413 191.227 349.967L167.875 342.998C162.1 362.347 173.117 382.783 192.429 388.546L204.105 392.031L197.123 415.427Z" fill="#1A1A1A"/>
<path d="M256.306 126.661L269.519 118.995L261.211 91.9302C258.325 82.5271 258.283 72.5746 261.096 63.1482C268.929 36.9013 296.657 21.9191 322.904 29.752L327.525 31.1309C353.771 38.9638 368.754 66.6924 360.921 92.9393C358.108 102.366 352.615 110.674 345.048 116.958L303.791 151.199C300.145 148.27 295.916 145.944 291.167 144.527C271.509 138.661 250.743 149.881 244.876 169.539C239.009 189.198 250.23 209.964 269.888 215.831C289.546 221.698 310.313 210.477 316.18 190.819C319.097 181.043 317.777 170.997 313.305 162.642L354.553 128.406C364.391 120.238 371.526 109.445 375.182 97.1951C385.362 63.0835 365.892 27.0502 331.78 16.8701L327.16 15.4912C293.048 5.31121 257.015 24.7807 246.835 58.8923C243.179 71.1423 243.232 84.0797 246.984 96.3041L256.306 126.661ZM291.909 161.064L284.364 167.323L281.486 157.946C283.288 158.025 285.1 158.248 286.912 158.788C288.723 159.328 290.361 160.136 291.909 161.064ZM301.919 186.563C298.399 198.357 285.938 205.09 274.144 201.57C262.35 198.051 255.617 185.589 259.137 173.795C260.569 168.997 263.517 165.101 267.265 162.329L273.416 182.359C274.149 184.744 276.018 186.599 278.4 187.309C280.781 188.02 283.361 187.493 285.279 185.907L301.403 172.524C303.02 176.89 303.351 181.764 301.919 186.563Z" fill="black"/>
</g>
<defs>
<clipPath id="clip0">
<rect width="496" height="496" fill="white"/>
</clipPath>
</defs>
</svg>
