<svg width="496" height="496" viewBox="0 0 496 496" fill="none" xmlns="http://www.w3.org/2000/svg">
<path d="M179.84 172.645H266.162V215.806H179.84V172.645Z" fill="#D72D33"/>
<path d="M179.84 330.902H266.162V438.806H179.84V330.902Z" fill="#EFEEEE"/>
<path d="M402.84 323.709H316.518V266.16H402.84V323.709Z" fill="#D6D4D4"/>
<path d="M129.485 323.709H43.1621V266.16H129.485V323.709Z" fill="#D6D4D4"/>
<path d="M431.613 381.209V208.613H417.226V374.683C413.443 373.935 409.449 373.805 405.357 374.409C397.205 356.748 379.604 345.291 359.677 345.291C339.751 345.291 322.15 356.748 313.998 374.409C307.208 373.412 300.689 374.423 294.935 376.949V305.473L223 257.514L151.065 305.473V376.935C145.318 374.416 138.806 373.412 132.002 374.409C123.85 356.748 106.249 345.291 86.3226 345.291C66.3963 345.291 48.7953 356.748 40.6428 374.409C36.5508 373.805 32.5571 373.935 28.7742 374.683V208.613H14.3871V381.216C5.69021 387.82 0 398.322 0 410.033C0 429.864 16.1363 446 35.9677 446H410.032C429.864 446 446 429.864 446 410.033C446 398.322 440.317 387.813 431.613 381.209ZM223 274.809L280.548 313.173V388.445C276.045 394.486 273.355 401.982 273.355 410.033C273.355 418.161 276.168 425.586 280.735 431.613H165.265C169.832 425.586 172.645 418.161 172.645 410.033C172.645 401.968 169.962 394.472 165.452 388.424V313.173L223 274.809ZM35.9677 431.613C24.071 431.613 14.3871 421.929 14.3871 410.033C14.3871 398.136 24.071 388.452 35.9677 388.452C38.0823 388.452 40.3127 388.863 42.796 389.688L49.7788 392.042L51.96 384.999C56.6422 369.857 70.4532 359.678 86.3226 359.678C102.192 359.678 116.003 369.857 120.685 385.006L122.866 392.049L129.849 389.695C132.332 388.863 134.563 388.452 136.677 388.452C148.574 388.452 158.258 398.136 158.258 410.033C158.258 421.929 148.574 431.613 136.677 431.613H35.9677ZM410.032 431.613H309.323C297.426 431.613 287.742 421.929 287.742 410.033C287.742 398.136 297.426 388.452 309.323 388.452C311.437 388.452 313.668 388.863 316.151 389.688L323.134 392.042L325.315 384.999C329.997 369.857 343.808 359.678 359.677 359.678C375.547 359.678 389.358 369.857 394.04 385.006L396.221 392.049L403.204 389.695C405.687 388.863 407.918 388.452 410.032 388.452C421.929 388.452 431.613 398.136 431.613 410.033C431.613 421.929 421.929 431.613 410.032 431.613Z" fill="black"/>
<path d="M14.3867 410.033C14.3867 421.929 24.0706 431.613 35.9674 431.613H136.677C148.574 431.613 158.258 421.929 158.258 410.033C158.258 398.136 148.574 388.452 136.677 388.452C134.563 388.452 132.332 388.863 129.849 389.695L122.866 392.049L120.685 385.006C116.003 369.857 102.192 359.678 86.3222 359.678C70.4528 359.678 56.6418 369.857 51.9597 384.999L49.7784 392.042L42.7956 389.688C40.3123 388.863 38.0819 388.452 35.9674 388.452C24.0706 388.452 14.3867 398.136 14.3867 410.033Z" fill="#1B998B"/>
<path d="M287.742 410.033C287.742 421.929 297.426 431.613 309.323 431.613H410.033C421.929 431.613 431.613 421.929 431.613 410.033C431.613 398.136 421.929 388.452 410.033 388.452C407.918 388.452 405.688 388.863 403.204 389.695L396.221 392.049L394.04 385.006C389.358 369.857 375.547 359.678 359.678 359.678C343.808 359.678 329.997 369.857 325.315 384.999L323.134 392.042L316.151 389.688C313.668 388.863 311.437 388.452 309.323 388.452C297.426 388.452 287.742 398.136 287.742 410.033Z" fill="#1B998B"/>
<path d="M62.62 86.3226H383.386L417.65 182.255L431.202 177.415L393.523 71.9355H352.483V43.1613H338.096V0H294.935V43.1613H280.548V71.9355H165.451V43.1613H151.064V0H107.903V43.1613H93.5157V71.9355H52.476L14.8047 177.422L28.3558 182.262L62.62 86.3226ZM309.322 14.3871H323.709V43.1613H309.322V14.3871ZM294.935 57.5484H338.096V71.9355H294.935V57.5484ZM122.29 14.3871H136.677V43.1613H122.29V14.3871ZM107.903 57.5484H151.064V71.9355H107.903V57.5484Z" fill="black"/>
<path d="M374.064 251.774V155.957L383.955 163.867L392.94 152.631L316.515 91.4961L240.084 152.641L249.069 163.874L258.967 155.957V251.774H374.064ZM302.128 237.387V194.225C302.128 190.263 305.36 187.032 309.322 187.032H323.709C327.671 187.032 330.903 190.263 330.903 194.225V237.387H302.128ZM359.677 144.454V237.387H345.29V194.225C345.29 182.329 335.606 172.645 323.709 172.645H309.322C297.425 172.645 287.741 182.329 287.741 194.225V237.387H273.354V144.454L316.515 109.923L359.677 144.454Z" fill="black"/>
<path d="M187.033 251.774V155.957L196.924 163.867L205.909 152.631L129.484 91.4961L53.0527 152.641L62.0376 163.874L71.9358 155.957V251.774H187.033ZM115.097 237.387V194.225C115.097 190.263 118.329 187.032 122.291 187.032H136.678C140.64 187.032 143.871 190.263 143.871 194.225V237.387H115.097ZM172.645 144.454V237.387H158.258V194.225C158.258 182.329 148.574 172.645 136.678 172.645H122.291C110.394 172.645 100.71 182.329 100.71 194.225V237.387H86.3229V144.454L129.484 109.923L172.645 144.454Z" fill="black"/>
<path d="M309.322 129.484H323.709V143.871H309.322V129.484Z" fill="black"/>
<path d="M122.291 129.484H136.678V143.871H122.291V129.484Z" fill="black"/>
<path d="M431.613 172.645H374.064V215.806H431.613C439.548 215.806 446 209.353 446 201.419V187.032C446 179.097 439.548 172.645 431.613 172.645Z" fill="#D72D33"/>
<path d="M14.3871 172.645C6.45242 172.645 0 179.097 0 187.032V201.419C0 209.353 6.45242 215.806 14.3871 215.806H71.9355V172.645H14.3871Z" fill="#D72D33"/>
<path d="M480.5 368C480.5 430.132 430.132 480.5 368 480.5C305.868 480.5 255.5 430.132 255.5 368C255.5 305.868 305.868 255.5 368 255.5C430.132 255.5 480.5 305.868 480.5 368Z" fill="#E6BA1C" stroke="black" stroke-width="15"/>
<path d="M408 347.875V342.969C408 325.718 395.084 311.529 378.375 309.125V289H358.625V309.125C341.916 311.529 329 325.718 329 342.969C329 361.907 344.504 377.312 363.562 377.312H373.438C381.604 377.312 388.25 383.916 388.25 392.031C388.25 400.146 381.604 406.75 373.438 406.75H363.562C355.396 406.75 348.75 400.146 348.75 392.031V387.125H329V392.031C329 409.282 341.916 423.47 358.625 425.875V446H378.375V425.875C395.084 423.47 408 409.282 408 392.031C408 373.093 392.496 357.688 373.438 357.688H363.562C355.396 357.688 348.75 351.084 348.75 342.969C348.75 334.854 355.396 328.25 363.562 328.25H373.438C381.604 328.25 388.25 334.854 388.25 342.969V347.875H408Z" fill="#1A1A1A"/>
</svg>
