<svg width="512" height="512" viewBox="0 0 512 512" fill="none" xmlns="http://www.w3.org/2000/svg">
<path d="M410.11 207.246L453.363 192.289V331.75H376.962L349.879 309.517H197.887L169.59 331.75H98.041V192.289H115.019L169.59 219.373H206.376L257.309 192.289H294.094L349.879 219.373H376.962L410.11 207.246Z" fill="#EFEEEE"/>
<path d="M81.4668 373.789H469.531V399.66H81.4668V373.789Z" fill="#D6D4D4"/>
<path d="M152.812 153.887H255.895C263.818 147.989 269.031 138.63 269.031 128.016V102.145C269.031 84.3138 254.523 69.8066 236.692 69.8066H172.014C154.183 69.8066 139.676 84.3138 139.676 102.145V128.016C139.676 138.63 144.889 147.989 152.812 153.887Z" fill="#E6BA1C"/>
<path d="M295.103 153.887H398.186C406.109 147.989 411.322 138.63 411.322 128.016V102.145C411.322 84.3138 396.814 69.8066 378.983 69.8066H314.306C296.474 69.8066 281.967 84.3138 281.967 102.145V128.016C281.967 138.63 287.18 147.989 295.103 153.887Z" fill="#E6BA1C"/>
<path d="M476 328.516H463.065V166.823C463.065 158.402 457.638 151.287 450.129 148.609V50.4032C450.129 39.7056 441.423 31 430.726 31H120.274C109.577 31 100.871 39.7056 100.871 50.4032V148.609C93.3619 151.287 87.9355 158.402 87.9355 166.823V328.516H75V406.129H102.294L108.755 432H144.729L151.19 406.129H399.81L406.271 432H442.245L448.706 406.129H476V328.516ZM120.274 43.9355H430.726C434.296 43.9355 437.194 46.8395 437.194 50.4032V147.419H113.806V50.4032C113.806 46.8395 116.704 43.9355 120.274 43.9355ZM107.339 160.355H443.661C447.231 160.355 450.129 163.259 450.129 166.823V186.465C430.027 187.603 418.851 193.877 408.102 200.015C397.223 206.224 386.946 212.097 366.023 212.097C345.099 212.097 334.822 206.224 323.943 200.015C312.075 193.23 299.812 186.226 275.448 186.226C251.097 186.226 238.841 193.237 226.985 200.015C216.113 206.231 205.842 212.097 184.939 212.097C164.022 212.097 153.758 206.231 142.879 200.015C132.136 193.871 120.96 187.597 100.871 186.465V166.823C100.871 163.259 103.769 160.355 107.339 160.355V160.355ZM100.871 199.394C117.532 200.481 126.781 205.713 136.463 211.243C148.325 218.028 160.588 225.032 184.939 225.032C209.29 225.032 221.546 218.021 233.401 211.243C244.274 205.028 254.545 199.161 275.448 199.161C296.371 199.161 306.649 205.034 317.527 211.243C329.396 218.028 341.659 225.032 366.023 225.032C390.386 225.032 402.649 218.028 414.518 211.243C424.2 205.713 433.455 200.481 450.129 199.394V328.516H382.813C373.221 312.463 356.062 302.645 337.131 302.645H213.875C194.938 302.645 177.785 312.463 168.194 328.516H100.871V199.394ZM176.013 341.452L177.798 337.875C184.673 324.125 198.495 315.581 213.869 315.581H337.125C352.498 315.581 366.32 324.125 373.195 337.875L374.987 341.452H463.065V367.323H87.9355V341.452H176.013ZM134.626 419.065H118.858L115.617 406.129H137.86L134.626 419.065ZM432.142 419.065H416.374L413.134 406.129H435.376L432.142 419.065ZM87.9355 393.194V380.258H463.065V393.194H87.9355Z" fill="black"/>
<path d="M424.258 302.645H437.193V315.58H424.258V302.645Z" fill="black"/>
<path d="M424.258 276.775H437.193V289.711H424.258V276.775Z" fill="black"/>
<path d="M424.258 250.904H437.193V263.84H424.258V250.904Z" fill="black"/>
<path d="M113.809 225.031H126.744V237.967H113.809V225.031Z" fill="black"/>
<path d="M113.809 250.904H126.744V263.84H113.809V250.904Z" fill="black"/>
<path d="M113.809 276.775H126.744V289.711H113.809V276.775Z" fill="black"/>
<path d="M126.256 486.087C120.291 490.263 112.095 485.995 112.095 478.714V449.838C112.095 444.867 108.066 440.838 103.095 440.838H9.00001C4.02945 440.838 0 436.809 0 431.838V360.162C0 355.191 4.02944 351.162 9 351.162H103.095C108.066 351.162 112.095 347.133 112.095 342.162V313.286C112.095 306.005 120.291 301.738 126.256 305.913L244.416 388.627C249.535 392.21 249.535 399.79 244.416 403.373L126.256 486.087Z" fill="#1B998B"/>
</svg>
