<svg width="512" height="512" viewBox="0 0 512 512" fill="none" xmlns="http://www.w3.org/2000/svg">
<path d="M376.5 240.5L355 261L400 308.5L423 286L376.5 240.5Z" fill="#E6BA1C"/>
<path d="M392 224V144H248V272H344L392 224Z" fill="#EFEEEE"/>
<path d="M88 352H168V424H88V352Z" fill="#1B998B"/>
<path d="M504 192C504 174.352 489.648 160 472 160H468.688L456 172.688V108.688L355.312 8H56V139.672L8 180.288V200H24V312H56V504H456V315.312L480 291.312C485.16 286.144 488 279.288 488 272C488 264.712 485.16 257.848 480 252.688L475.312 248L480 243.312V240C480 233.792 478.944 227.832 477.064 222.248L504 195.312V192ZM463.872 236.816L424 276.688L387.312 240L427.184 200.128C446.704 201.672 462.328 217.288 463.872 236.816V236.816ZM228.336 407.648L256.352 435.664L219 445.008L228.336 407.648ZM272 428.688L235.312 392L352 275.312L388.688 312L272 428.688ZM400 300.688L363.312 264L376 251.312L412.688 288L400 300.688ZM344 88H312V56H344V88ZM216 88V56H248V88H216ZM264 56H296V88H264V56ZM360 35.312L428.688 104H360V35.312ZM120 106.48L211.616 184H28.384L120 106.48ZM40 200H200V296H40V200ZM440 488H72V312H216V200H232V180.288L120 85.52L72 126.136V24H344V40H200V104H344V120H440V186.36C434.928 184.84 429.56 184 424 184H420.688L392 212.688V200H248V216H388.688L372.688 232H248V248H356.688L340.688 264H248V280H324.688L216.776 387.904L197 466.992L276.088 447.224L440 283.312V308.688L415.312 333.376C410.664 338.024 408 344.456 408 351.032C408 364.8 419.2 376 432.968 376H440V488ZM440 360H432.968C428.024 360 424 355.976 424 351.032C424 348.672 424.96 346.36 426.624 344.688L440 331.312V360ZM468.68 264C470.824 266.144 472 268.976 472 272C472 275.024 470.824 277.856 468.688 280L456 292.688V267.312L464 259.312L468.68 264ZM469.376 207.312C465.848 202.432 461.568 198.152 456.688 194.624L475.024 176.288C481.424 177.512 486.48 182.568 487.712 188.976L469.376 207.312Z" fill="#1A1A1A"/>
<path d="M178.416 451.2C175.072 446.736 170.024 440 160.024 440C150.024 440 144.976 446.744 141.632 451.2C138.608 455.232 137.72 456 136.048 456C134.36 456 133.464 455.232 130.416 451.192C127.064 446.736 122 440 112 440C101.992 440 96.944 446.744 93.6 451.2C90.576 455.232 89.68 456 88 456V472C98.008 472 103.056 465.256 106.4 460.8C109.424 456.768 110.32 456 112 456C113.688 456 114.584 456.768 117.632 460.808C120.984 465.264 126.04 472 136.04 472C146.04 472 151.088 465.256 154.432 460.8C157.456 456.768 158.344 456 160.024 456C161.696 456 162.584 456.768 165.608 460.8C168.952 465.256 174 472 184 472V456C182.328 456 181.44 455.232 178.416 451.2V451.2Z" fill="black"/>
<path d="M152 408H168V424H152V408Z" fill="black"/>
<path d="M120 408H136V424H120V408Z" fill="black"/>
<path d="M88 408H104V424H88V408Z" fill="black"/>
<path d="M88 376H168V392H88V376Z" fill="black"/>
<path d="M88 344H168V360H88V344Z" fill="black"/>
<path d="M248 136H392V152H248V136Z" fill="#1A1A1A"/>
<path d="M248 168H392V184H248V168Z" fill="#1A1A1A"/>
<path d="M408 456H424V472H408V456Z" fill="black"/>
<path d="M344 456H360V472H344V456Z" fill="black"/>
<path d="M376 456H392V472H376V456Z" fill="black"/>
<path d="M86.897 255.458C80.3677 261.987 80.3677 272.573 86.897 279.102C93.4264 285.632 104.013 285.632 110.542 279.102L118.586 271.059C119.367 270.278 120.633 270.278 121.414 271.059L129.458 279.103C135.987 285.632 146.574 285.632 153.103 279.103C159.632 272.574 159.632 261.988 153.103 255.458L145.059 247.414C144.278 246.633 144.278 245.367 145.059 244.586L153.103 236.542C159.632 230.012 159.632 219.426 153.103 212.897C146.574 206.368 135.987 206.368 129.458 212.897L121.414 220.941C120.633 221.722 119.367 221.722 118.586 220.941L110.542 212.898C104.013 206.368 93.4265 206.368 86.8971 212.898C80.3677 219.427 80.3677 230.013 86.8971 236.542L94.9406 244.586C95.7216 245.367 95.7216 246.633 94.9406 247.414L86.897 255.458Z" fill="#D72D33"/>
</svg>
