<svg width="20" height="20" viewBox="0 0 20 20" fill="none" xmlns="http://www.w3.org/2000/svg">
  <path d="M15.5 19.0001C15.4179 19.0001 15.3355 18.9799 15.2606 18.939L10.0001 16.0697L4.73949 18.939C4.57156 19.0307 4.36609 19.0184 4.21023 18.9075C4.05435 18.7967 3.97543 18.6066 4.00685 18.4179L4.96455 12.6717L1.14652 8.85363C1.01408 8.72119 0.966774 8.52585 1.02392 8.34749C1.08107 8.16913 1.23314 8.03769 1.41787 8.00691L7.16672 7.04874L9.55285 2.2765C9.63754 2.10708 9.81066 2.00009 10.0001 2.00009C10.1895 2.00009 10.3626 2.10708 10.4473 2.2765L12.8334 7.04874L18.5823 8.00691C18.767 8.03769 18.9191 8.16915 18.9762 8.34749C19.0334 8.52583 18.9861 8.72119 18.8536 8.85363L15.0356 12.6717L15.9933 18.4179C16.0247 18.6066 15.9458 18.7967 15.7899 18.9075C15.7036 18.9689 15.602 19.0001 15.5001 19.0001H15.5ZM10.0001 15.0001C10.0825 15.0001 10.1649 15.0204 10.2395 15.0611L14.838 17.5695L14.0069 12.5823C13.9803 12.423 14.0323 12.2607 14.1465 12.1466L17.4595 8.83355L12.4179 7.99328C12.2601 7.96699 12.1244 7.86677 12.0528 7.72369L10.0001 3.61812L7.9473 7.72369C7.87574 7.86677 7.74008 7.96701 7.58226 7.99328L2.54064 8.83355L5.85361 12.1466C5.96779 12.2607 6.0198 12.423 5.99326 12.5823L5.16207 17.5695L9.76062 15.0611C9.83525 15.0204 9.91765 15.0001 10.0001 15.0001H10.0001Z" fill="#1B998B"/>
</svg>
