<svg width="20" height="20" viewBox="0 0 20 20" fill="none" xmlns="http://www.w3.org/2000/svg">
<path stroke-width="0" d="M18.5 15H13C12.257 15 11.439 14.468 11.137 13.789L10 11.231L8.863 13.789C8.561 14.468 7.743 15 7 15H1.5C0.673 15 0 14.327 0 13.5V7.5C0 6.673 0.673 6 1.5 6H18.5C19.327 6 20 6.673 20 7.5V13.5C20 14.327 19.327 15 18.5 15ZM10 10.037C10.169 10.037 10.593 10.103 10.863 10.711L12.051 13.383C12.194 13.706 12.647 14 13 14H18.5C18.776 14 19 13.776 19 13.5V7.5C19 7.224 18.776 7 18.5 7H1.5C1.224 7 1 7.224 1 7.5V13.5C1 13.776 1.224 14 1.5 14H7C7.353 14 7.806 13.706 7.949 13.383L9.137 10.711C9.407 10.103 9.831 10.037 10 10.037V10.037Z" fill="white"/>
<path stroke-width="0" d="M17.5 13H13.5C13.311 13 13.137 12.893 13.053 12.724L11.053 8.72398C10.976 8.56898 10.984 8.38498 11.075 8.23798C11.166 8.09098 11.327 8.00098 11.5 8.00098H17.5C17.776 8.00098 18 8.22498 18 8.50098V12.501C18 12.777 17.776 13.001 17.5 13.001V13ZM13.809 12H17V8.99998H12.309L13.809 12V12Z" fill="white"/>
<path stroke-width="0" d="M6.5 13H2.5C2.224 13 2 12.776 2 12.5V8.5C2 8.224 2.224 8 2.5 8H8.5C8.673 8 8.834 8.09 8.925 8.237C9.016 8.384 9.024 8.568 8.947 8.723L6.947 12.723C6.862 12.892 6.689 12.999 6.5 12.999V13ZM3 12H6.191L7.691 9H3V12Z" fill="white"/>
</svg>
