<svg width="16" height="16" viewBox="0 0 16 16" fill="none" xmlns="http://www.w3.org/2000/svg">
  <path stroke-width="0" d="M10.35 5.66675C10.1567 5.66675 10 5.82346 10 6.01675V13.0167C10 13.2101 10.1567 13.3667 10.35 13.3667C10.5433 13.3667 10.7 13.2101 10.7 13.0167V6.01675C10.7 5.82346 10.5433 5.66675 10.35 5.66675Z" fill="white"/>
  <path stroke-width="0" d="M8.25039 5.66675C8.0571 5.66675 7.90039 5.82346 7.90039 6.01675V13.0167C7.90039 13.2101 8.0571 13.3667 8.25039 13.3667C8.44368 13.3667 8.60039 13.2101 8.60039 13.0167V6.01675C8.60039 5.82346 8.44368 5.66675 8.25039 5.66675Z" fill="white"/>
  <path stroke-width="0" d="M6.15078 5.66675C5.95749 5.66675 5.80078 5.82346 5.80078 6.01675V13.0167C5.80078 13.2101 5.95749 13.3667 6.15078 13.3667C6.34407 13.3667 6.50078 13.2101 6.50078 13.0167V6.01675C6.50078 5.82346 6.34407 5.66675 6.15078 5.66675Z" fill="white"/>
  <path stroke-width="0" d="M12.45 2.4H10V2.05C10 1.47104 9.52896 1 8.95 1H7.55C6.97104 1 6.5 1.47104 6.5 2.05V2.4H4.05C3.47104 2.4 3 2.87104 3 3.45V4.15C3 4.60627 3.29262 4.99532 3.7 5.1398V13.95C3.7 14.529 4.17104 15 4.75 15H11.75C12.329 15 12.8 14.529 12.8 13.95V5.1398C13.2074 4.99532 13.5 4.60627 13.5 4.15V3.45C13.5 2.87104 13.029 2.4 12.45 2.4V2.4ZM7.2 2.05C7.2 1.85702 7.35702 1.7 7.55 1.7H8.95C9.14298 1.7 9.3 1.85702 9.3 2.05V2.4H7.2V2.05V2.05ZM11.75 14.3H4.75C4.55702 14.3 4.4 14.143 4.4 13.95V5.2H12.1V13.95C12.1 14.143 11.943 14.3 11.75 14.3ZM12.8 4.15C12.8 4.34298 12.643 4.5 12.45 4.5H4.05C3.85702 4.5 3.7 4.34298 3.7 4.15V3.45C3.7 3.25702 3.85702 3.1 4.05 3.1H12.45C12.643 3.1 12.8 3.25702 12.8 3.45V4.15V4.15Z" fill="white"/>
</svg>
