<svg width="512" height="512" viewBox="0 0 512 512" fill="none" xmlns="http://www.w3.org/2000/svg">
<rect x="228" y="160" width="200" height="200" fill="#EFEEEE"/>
<path d="M408 441.472V272H392V440H209.312C233.032 418.064 248 386.784 248 352C248 288.528 198.44 236.552 136 232.408V24H392V240H408V8H120V232.408C57.56 236.552 8 288.528 8 352C8 409.952 49.288 458.432 104 469.584V480C104 493.232 114.768 504 128 504H400C413.232 504 424 493.232 424 480V464C424 453.584 417.288 444.784 408 441.472ZM24 352C24 294.656 70.656 248 128 248C185.344 248 232 294.656 232 352C232 409.344 185.344 456 128 456C70.656 456 24 409.344 24 352ZM408 480C408 484.416 404.416 488 400 488H128C123.584 488 120 484.416 120 480V471.592C122.656 471.768 125.296 472 128 472C149.704 472 170.024 466.12 187.616 456H400C404.416 456 408 459.584 408 464V480Z" fill="#1A1A1A"/>
<path d="M388.224 274.688L373.488 268.456C368.472 280.328 356.888 288 344 288C326.352 288 312 273.648 312 256C312 238.352 326.352 224 344 224C356.728 224 368.24 231.536 373.344 243.2L388 236.8C380.36 219.304 363.088 208 344 208C317.528 208 296 229.528 296 256C296 282.472 317.528 304 344 304C363.328 304 380.688 292.496 388.224 274.688V274.688Z" fill="#1A1A1A"/>
<path d="M152 166H168V182H152V166Z" fill="#1A1A1A"/>
<path d="M152 134H168V150H152V134Z" fill="#1A1A1A"/>
<path d="M152 102H168V118H152V102Z" fill="#1A1A1A"/>
<path d="M360 376H376V392H360V376Z" fill="#1A1A1A"/>
<path d="M360 408H376V424H360V408Z" fill="#1A1A1A"/>
<path d="M360 344H376V360H360V344Z" fill="#1A1A1A"/>
<path d="M480 280H352C338.768 280 328 269.232 328 256C328 242.768 338.768 232 352 232H480C493.232 232 504 242.768 504 256C504 269.232 493.232 280 480 280Z" fill="#E6BA1C"/>
<path d="M128 430L100.841 411.88C89.8833 404.566 80.6703 397.204 72.6819 389.365C54.5921 371.614 47.4522 355.48 48.0325 333.667C48.6609 310.063 66.7387 290.481 89.1909 289.087C104.655 288.13 119.295 295.307 128 307.784C136.705 295.311 151.349 288.118 166.809 289.087C189.257 290.481 207.339 310.059 207.967 333.663C208.548 355.476 201.404 371.614 183.318 389.361C175.33 397.2 166.117 404.562 155.159 411.876L128 430Z" fill="#1B998B"/>
</svg>
