<svg width="24" height="24" viewBox="0 0 24 24" fill="none" xmlns="http://www.w3.org/2000/svg">
<path d="M19.1382 23.3888H14.748C14.5748 23.3888 14.4345 23.2484 14.4345 23.0752V22.1212C13.6965 22.2762 12.936 22.3559 12.1731 22.3559C11.1374 22.3559 10.1208 22.213 9.14522 21.9306V23.0752C9.14522 23.2484 9.00488 23.3888 8.83167 23.3888H4.81629C4.64309 23.3888 4.50275 23.2484 4.50275 23.0752V18.9946C3.96922 18.3605 3.54606 17.6628 3.24882 16.9221H1.46437C1.44543 16.9221 1.42674 16.9203 1.40856 16.9172C1.39426 16.9186 1.37996 16.9196 1.36554 16.9202C0.653289 16.9596 0.055923 16.1324 0.0036237 15.0491C-0.0199549 14.5616 0.0726036 14.0929 0.264117 13.7296C0.436943 13.4016 0.675237 13.1835 0.949652 13.0968C0.992169 13.0743 1.03945 13.0616 1.08811 13.0616H1.11169C1.13402 13.0589 1.15647 13.0569 1.17917 13.0558L1.17954 13.063L1.17917 13.0558C1.23159 13.0532 1.28339 13.0553 1.33443 13.0616H2.85814C3.13845 11.3871 3.71913 10.2796 4.86683 9.22379L4.39025 7.19227C4.36215 7.07249 4.40667 6.94745 4.50412 6.87233C4.60145 6.79708 4.73389 6.78604 4.84238 6.84361L6.61466 7.78336C8.16884 6.78591 10.0377 6.2806 12.1731 6.2806C17.0868 6.2806 21.1348 9.50096 21.5651 13.5954C21.8193 13.4901 22.1887 13.296 22.5701 12.9538C23.2497 12.3438 23.3762 11.6431 23.3773 11.6361C23.4064 11.4654 23.5682 11.3508 23.7391 11.3799C23.9098 11.4089 24.0246 11.5709 23.9953 11.7417C23.9889 11.7791 23.8293 12.6663 22.9889 13.4205C22.4378 13.9149 21.905 14.149 21.6026 14.2515C21.6027 14.2737 21.6029 14.2961 21.6029 14.3183C21.6029 16.1825 20.84 17.992 19.4516 19.4278V23.0753C19.4517 23.2484 19.3112 23.3888 19.1382 23.3888ZM16.7572 22.7617H18.8246V19.2995C18.8246 19.2165 18.8576 19.1368 18.9162 19.078C20.2443 17.7462 20.9759 16.0557 20.9759 14.3181C20.9759 10.2319 17.027 6.90757 12.1731 6.90757C10.0983 6.90757 8.29727 7.40912 6.82022 8.39829L5.4188 9.57057C4.22645 10.6233 3.68916 11.6669 3.43719 13.4197C3.41499 13.5739 3.2828 13.6887 3.12678 13.6887H2.18816C2.38983 14.0161 2.52014 14.4476 2.54334 14.9269C2.5688 15.4546 2.45931 15.937 2.25525 16.295H4.7739C4.77917 16.295 4.78443 16.2951 4.78983 16.2954C4.81065 16.297 5.37453 16.312 5.77285 15.864C5.8303 15.7995 5.91169 15.7616 5.99798 15.7589C6.08427 15.7537 6.1678 15.7896 6.22887 15.8506L6.5512 16.173C6.67361 16.2955 6.67361 16.494 6.5512 16.6163C6.42854 16.7388 6.23013 16.7387 6.10772 16.6163L5.99948 16.5081C5.46608 16.9257 4.85943 16.9251 4.76851 16.9221H3.92984C4.43 18.0419 5.25099 19.0485 6.32545 19.8537C6.40446 19.913 6.45086 20.006 6.45086 20.1047V22.7618H8.51826V21.5047C8.51826 21.4039 8.56679 21.3092 8.64856 21.2504C8.73034 21.1913 8.83569 21.1751 8.93113 21.2074C9.96734 21.5535 11.058 21.729 12.1732 21.729C13.6155 21.729 15.0478 21.4273 16.315 20.8568C16.4118 20.813 16.5244 20.8216 16.614 20.8794C16.7033 20.9372 16.7573 21.0363 16.7573 21.1428V22.7617H16.7572ZM15.0616 22.7617H16.1301V21.6148C15.7828 21.7515 15.4258 21.8699 15.0616 21.9697V22.7617ZM5.12984 22.7617H5.82365V20.2598C5.57958 20.0702 5.34806 19.8707 5.12984 19.6621V22.7617ZM0.674359 15.3772C0.787361 15.933 1.07871 16.3054 1.33531 16.294C1.34936 16.2932 1.36341 16.2913 1.37745 16.2883C1.38071 16.2875 1.3841 16.2865 1.38749 16.2857C1.39589 16.2836 1.40429 16.2811 1.4127 16.2782C1.62352 16.2033 1.82394 15.8718 1.89254 15.4153C1.66617 15.4045 1.48519 15.217 1.48519 14.988C1.48519 14.7691 1.65036 14.5882 1.86257 14.5631C1.81378 14.3415 1.73427 14.1403 1.63067 13.9827C1.52683 13.8246 1.40793 13.723 1.29392 13.6919C1.28314 13.6892 1.27248 13.6869 1.26182 13.6854C1.25793 13.6848 1.25392 13.6842 1.25015 13.6834C1.23836 13.682 1.2262 13.6819 1.21504 13.6818C1.20714 13.6835 1.19923 13.6848 1.19108 13.6858L1.18807 13.6863C1.17904 13.6874 1.17001 13.6883 1.16123 13.6901C1.15622 13.6912 1.15132 13.6922 1.14631 13.6929C1.02892 13.7281 0.912277 13.8442 0.818716 14.0218C0.735187 14.1801 0.677119 14.3756 0.648147 14.5877C0.809435 14.649 0.924443 14.8053 0.924443 14.9878C0.924443 15.1606 0.821851 15.3096 0.674359 15.3772ZM1.9007 14.7891C1.7966 14.7956 1.71382 14.8823 1.71382 14.988C1.71382 15.0979 1.80325 15.1873 1.91311 15.1873C1.91374 15.1873 1.91437 15.1873 1.91487 15.1873C1.91838 15.1127 1.91851 15.0359 1.91474 14.957C1.91186 14.9006 1.90722 14.8445 1.9007 14.7891ZM0.627955 14.8384C0.626324 14.8981 0.626951 14.9584 0.629961 15.019C0.631717 15.056 0.634351 15.0926 0.637737 15.1286C0.673732 15.0926 0.695931 15.0428 0.695931 14.988C0.695931 14.9283 0.669594 14.8749 0.627955 14.8384ZM5.15843 7.72091L5.4035 8.76576L6.07298 8.2059L5.15843 7.72091ZM6.32946 13.0517C5.78966 13.0517 5.35057 12.6126 5.35057 12.0728C5.35057 11.533 5.78966 11.0938 6.32946 11.0938C6.86926 11.0938 7.30835 11.533 7.30835 12.0728C7.30835 12.6126 6.86926 13.0517 6.32946 13.0517ZM6.32946 11.7209C6.13544 11.7209 5.97766 11.8788 5.97766 12.0728C5.97766 12.2668 6.13544 12.4246 6.32946 12.4246C6.52348 12.4246 6.68126 12.2668 6.68126 12.0728C6.68126 11.8788 6.52348 11.7209 6.32946 11.7209ZM10.0727 11.7699C9.89948 11.7698 9.75914 11.6294 9.75914 11.4562C9.75914 11.4447 9.75651 10.2826 9.52737 9.27408C9.41851 8.79486 9.3193 8.50389 9.25295 8.34047C8.99221 8.41008 8.54585 8.56948 8.20847 8.90121C7.85868 9.24524 7.65312 9.68959 7.65111 9.69398C7.57912 9.85126 7.39313 9.92061 7.23586 9.84912C7.07846 9.77738 7.00872 9.59202 7.08021 9.43449C7.09037 9.41204 7.33343 8.88228 7.76876 8.4541C8.42507 7.8087 9.34464 7.67726 9.38351 7.67187C9.49714 7.65669 9.60989 7.7041 9.67787 7.79616C9.71562 7.8472 9.91541 8.15184 10.1388 9.13524C10.3838 10.214 10.3861 11.4063 10.3861 11.4566C10.3862 11.6297 10.2459 11.7699 10.0727 11.7699ZM14.2233 8.2962C14.1816 8.2962 14.1394 8.28792 14.0987 8.27024C14.0915 8.26723 13.3693 7.96083 12.3702 7.96083C11.3592 7.96083 10.4961 8.2735 10.4874 8.27676C10.325 8.33658 10.1449 8.25318 10.085 8.09101C10.0252 7.9286 10.1081 7.74862 10.2703 7.68855C10.3095 7.67412 11.2427 7.33387 12.3702 7.33387C13.5069 7.33387 14.3148 7.68052 14.3487 7.69519C14.5075 7.76443 14.58 7.94917 14.5107 8.10795C14.4594 8.22571 14.3442 8.2962 14.2233 8.2962ZM12.2981 5.07647C11.0671 5.07647 10.0655 4.075 10.0655 2.84377C10.0655 1.61279 11.0671 0.611206 12.2981 0.611206C13.5291 0.611206 14.5307 1.61267 14.5307 2.84377C14.5308 4.07488 13.5292 5.07647 12.2981 5.07647ZM12.2981 1.2383C11.4128 1.2383 10.6926 1.95845 10.6926 2.84377C10.6926 3.7291 11.4129 4.44938 12.2981 4.44938C13.1833 4.44938 13.9036 3.7291 13.9036 2.84377C13.9036 1.95845 13.1834 1.2383 12.2981 1.2383Z" fill="#1A1A1A"/>
</svg>
