<svg width="24" height="24" viewBox="0 0 24 24" fill="none" xmlns="http://www.w3.org/2000/svg">
<path d="M7.33333 8.33341H10.3333C10.5177 8.33341 10.6667 8.18441 10.6667 8.00008C10.6667 7.81575 10.5177 7.66675 10.3333 7.66675H7.33333C7.149 7.66675 7 7.81575 7 8.00008C7 8.18441 7.149 8.33341 7.33333 8.33341Z" fill="#1B998B"/>
<path d="M7.33333 10.6667H9C9.18433 10.6667 9.33333 10.5177 9.33333 10.3333C9.33333 10.149 9.18433 10 9 10H7.33333C7.149 10 7 10.149 7 10.3333C7 10.5177 7.149 10.6667 7.33333 10.6667Z" fill="#1B998B"/>
<path d="M11.6667 10.6667H14C14.1843 10.6667 14.3333 10.5177 14.3333 10.3333C14.3333 10.149 14.1843 10 14 10H11.6667C11.4823 10 11.3333 10.149 11.3333 10.3333C11.3333 10.5177 11.4823 10.6667 11.6667 10.6667Z" fill="#1B998B"/>
<path d="M10.57 10.57C10.63 10.5067 10.6667 10.42 10.6667 10.3333C10.6667 10.2463 10.63 10.1597 10.57 10.0967C10.4433 9.97332 10.2233 9.97332 10.0967 10.0967C10.0363 10.1597 10 10.2463 10 10.3333C10 10.42 10.0363 10.5067 10.0967 10.57C10.1597 10.633 10.243 10.6667 10.3333 10.6667C10.42 10.6667 10.5067 10.63 10.57 10.57Z" fill="#1B998B"/>
<path d="M15.3333 10.6667C15.4233 10.6667 15.5067 10.63 15.57 10.57C15.63 10.5067 15.6667 10.42 15.6667 10.3333C15.6667 10.2463 15.63 10.1597 15.57 10.0967C15.4433 9.97332 15.2233 9.97332 15.0967 10.0967C15.0363 10.1597 15 10.2463 15 10.3333C15 10.42 15.0363 10.5067 15.0967 10.57C15.1597 10.633 15.243 10.6667 15.3333 10.6667Z" fill="#1B998B"/>
<path d="M8.33333 12.6667C8.33333 12.851 8.48233 13 8.66666 13H11C11.1843 13 11.3333 12.851 11.3333 12.6667C11.3333 12.4824 11.1843 12.3334 11 12.3334H8.66666C8.48233 12.3334 8.33333 12.4824 8.33333 12.6667Z" fill="#1B998B"/>
<path d="M7.57 12.9034C7.633 12.84 7.66667 12.7534 7.66667 12.6667C7.66667 12.5797 7.633 12.493 7.57 12.43C7.44333 12.3067 7.22333 12.3067 7.09667 12.43C7.03333 12.493 7 12.5764 7 12.6667C7 12.7534 7.03633 12.84 7.09667 12.9034C7.15967 12.9634 7.24667 13 7.33333 13C7.42 13 7.50667 12.9634 7.57 12.9034Z" fill="#1B998B"/>
<path d="M9.175 14.379C8.445 14.759 8.19934 15.486 8.10967 16.2396C7.97167 16.124 7.83367 16.0086 7.696 15.893C7.36934 15.6193 6.89534 16.0883 7.22467 16.3646C7.53634 16.6256 7.84834 16.887 8.16 17.1483C8.37934 17.332 8.71867 17.216 8.729 16.9126C8.75334 16.1906 8.78734 15.332 9.51167 14.955C9.89234 14.7563 9.55567 14.1806 9.175 14.379Z" fill="#1B998B"/>
<path d="M11.3917 15.7084C10.93 15.8154 10.4047 16.4027 10.0797 15.7437C9.89 15.359 9.31467 15.6964 9.504 16.08C9.67666 16.4297 10.004 16.6747 10.3937 16.724C10.5917 16.749 10.7707 16.721 10.9563 16.6487C11.0927 16.5957 11.602 16.2127 11.712 16.4097C11.9213 16.7844 12.4973 16.4487 12.2877 16.0734C12.1087 15.7527 11.7463 15.626 11.3917 15.7084Z" fill="#1B998B"/>
<path d="M20.6717 2H19.3287C18.8957 2 18.53 2.27967 18.3937 2.66667H15H13V2.33333C13 2.149 12.851 2 12.6667 2H9.66667C9.48233 2 9.33333 2.149 9.33333 2.33333V2.66667H7.33333H3V22H19.3333V20.5053L19.6667 21.0887V21.6667C19.6667 21.851 19.8157 22 20 22C20.1843 22 20.3333 21.851 20.3333 21.6667V21.0887L21.6667 18.7553V6.33333V4.33333V2.995C21.6667 2.44633 21.2203 2 20.6717 2ZM19 5H21V5.66667H19V5ZM12.3333 2.66667V3V3.66667H10V3V2.66667H12.3333ZM9.33333 3.33333V4V4.33333H9.66667H12.6667H13V4V3.33333H14.6667V4.33333V4.66667H7.66667V4.33333V3.33333H9.33333ZM7.33333 5.33333H15H15.3333V5H17V19.6667H5.33333V5H7V5.33333H7.33333ZM18.6667 21.3333H3.66667V3.33333H7V4.33333H4.66667V20.3333H17.6667V4.33333H15.3333V3.33333H18.3333V4.33333V6.33333V18.7553L18.6667 19.3387V21.3333ZM19.241 19H20.759L20 20.328L19.3333 19.1613L19.241 19ZM21 18.3333H19V6.33333H21V18.3333ZM19 4.33333V2.995C19 2.814 19.1473 2.66667 19.3283 2.66667H20.6713C20.8527 2.66667 21 2.814 21 2.995V4.33333H19Z" fill="#1B998B"/>
</svg>
